<?xml version="1.0" standalone="no"?>
<!DOCTYPE svg PUBLIC "-//W3C//DTD SVG 1.1//EN" "http://www.w3.org/Graphics/SVG/1.1/DTD/svg11.dtd" >
<svg xmlns="http://www.w3.org/2000/svg" xmlns:xlink="http://www.w3.org/1999/xlink" version="1.1">
<metadata>
Created by FontForge 20161003 at Fri Sep 22 07:50:09 2017
 By www-data
(c) Copyright 2005 by Tong Duc Thinh. All Rights Reserved
</metadata>
<defs>
<font id="SFUFuturaLightOblique" horiz-adv-x="620" >
  <font-face 
    font-family="SFUFuturaLightOblique"
    font-weight="300"
    font-style="oblique"
    font-stretch="normal"
    units-per-em="1000"
    panose-1="0 0 3 0 0 0 0 0 0 0"
    ascent="800"
    descent="-200"
    x-height="462"
    cap-height="754"
    bbox="-175 -302 1246 1135"
    underline-thickness="75"
    underline-position="-261"
    slope="-11"
    unicode-range="U+0020-F002"
  />
<missing-glyph horiz-adv-x="500" 
d="M63 0v1134h375v-1134h-375zM125 63h250v1009h-250v-1009z" />
    <glyph glyph-name=".notdef" horiz-adv-x="500" 
d="M63 0v1134h375v-1134h-375zM125 63h250v1009h-250v-1009z" />
    <glyph glyph-name=".null" horiz-adv-x="0" 
 />
    <glyph glyph-name="glyph2" horiz-adv-x="310" 
 />
    <glyph glyph-name="space" unicode=" " horiz-adv-x="310" 
 />
    <glyph glyph-name="exclam" unicode="!" horiz-adv-x="320" 
d="M171 72q18 0 28 -12t7 -29q-7 -41 -48 -41q-17 0 -27 12t-7 29q7 41 47 41zM159 143l96 611h48l-96 -611h-48z" />
    <glyph glyph-name="quotedbl" unicode="&#x22;" horiz-adv-x="278" 
d="M177 754h48l-49 -240h-27zM291 754h48l-49 -240h-27z" />
    <glyph glyph-name="numbersign" unicode="#" 
d="M580 276l-8 -48h-126l-73 -228h-46l72 228h-135l-69 -228h-48l69 228h-121l8 48h128l48 162h-123l8 48h130l66 212h50l-66 -212h136l66 212h50l-67 -212h110l-8 -48h-118l-51 -162h118zM464 438h-136l-49 -162h136z" />
    <glyph glyph-name="dollar" unicode="$" 
d="M404 362l-51 -322q67 16 117 69q54 57 54 123q0 44 -40 80q-25 22 -80 50zM371 437l44 279q-59 0 -105 -50t-46 -109q0 -43 35 -74q13 -12 72 -46zM308 38l55 346q-75 40 -100 62q-48 43 -48 101q0 93 71 159q56 52 137 58l17 105h45l-17 -107q101 -13 136 -104l-42 -30
q-33 80 -102 88l-47 -300q88 -49 109 -67q51 -44 51 -107q0 -12 -3 -32q-12 -80 -77.5 -141.5t-146.5 -76.5l-18 -113h-45l17 111q-77 2 -127.5 45t-65.5 118l44 19q14 -62 53 -98q42 -39 104 -36z" />
    <glyph glyph-name="percent" unicode="%" horiz-adv-x="664" 
d="M301 761q56 0 93 -34t37 -90q0 -72 -52.5 -122t-124.5 -50q-56 0 -93.5 34t-37.5 89q0 73 52.5 123t125.5 50zM294 719q-50 0 -89 -36t-39 -86q0 -39 27.5 -64.5t66.5 -25.5q50 0 89 35.5t39 85.5q0 40 -27 65.5t-67 25.5zM660 771l30 -17l-570 -771l-28 18zM530 289
q56 0 93 -34t37 -90q0 -72 -52.5 -122t-124.5 -50q-56 0 -93.5 34t-37.5 89q0 73 52.5 123t125.5 50zM523 247q-50 0 -89 -36t-39 -86q0 -40 27.5 -65t67.5 -25q50 0 88.5 35.5t38.5 85.5q0 40 -27 65.5t-67 25.5z" />
    <glyph glyph-name="ampersand" unicode="&#x26;" horiz-adv-x="642" 
d="M431 723q-46 0 -80 -37.5t-34 -84.5q0 -32 16 -63q5 -10 30 -59q47 33 95 66q51 45 51 99q0 34 -22 56.5t-56 22.5zM592 0l-75 125q-188 -140 -300 -140q-73 0 -120.5 47t-47.5 120q0 106 104 194q49 42 171 112q-33 58 -37 67q-18 40 -18 75q0 68 52 118t120 50
q51 0 83.5 -33t32.5 -84q0 -71 -62 -130q-30 -28 -110 -79l146 -254l112 105l34 -20l-124 -120l91 -153h-52zM346 420l-54 -32q-83 -49 -120 -82q-74 -66 -74 -144q0 -58 34 -95t92 -37t139 45q47 26 132 88z" />
    <glyph glyph-name="quotesingle" unicode="'" horiz-adv-x="222" 
d="M206 754h48l-49 -240h-27z" />
    <glyph glyph-name="parenleft" unicode="(" horiz-adv-x="240" 
d="M261 780l32 -26q-155 -352 -155 -710q0 -98 12 -196l-41 -25q-18 78 -18 196q0 136 22 276q48 305 148 485z" />
    <glyph glyph-name="parenright" unicode=")" horiz-adv-x="240" 
d="M185 754l42 26q18 -77 18 -193q0 -140 -24 -292q-46 -291 -146 -472l-33 25q155 355 155 715q0 97 -12 191z" />
    <glyph glyph-name="asterisk" unicode="*" horiz-adv-x="619" 
d="M385 604l19 150h49l-27 -150l150 50l7 -47l-151 -43l73 -119l-44 -29l-65 124l-106 -124l-35 28l110 120l-137 43l23 47z" />
    <glyph glyph-name="plus" unicode="+" 
d="M330 280l37 232h48l-37 -232h232l-7 -48h-232l-37 -232h-48l37 232h-232l7 48h232z" />
    <glyph glyph-name="comma" unicode="," horiz-adv-x="310" 
d="M165 74l43 -14l-119 -226l-29 11z" />
    <glyph glyph-name="hyphen" unicode="-" horiz-adv-x="190" 
d="M54 342h190l-7 -45h-190z" />
    <glyph glyph-name="hyphen" unicode="&#x2010;" horiz-adv-x="190" 
d="M54 342h190l-7 -45h-190z" />
    <glyph glyph-name="period" unicode="." horiz-adv-x="310" 
d="M166 72q18 0 28 -12t7 -29q-7 -41 -48 -41q-17 0 -27 12t-7 29q7 41 47 41z" />
    <glyph glyph-name="slash" unicode="/" horiz-adv-x="640" 
d="M701 825l32 -18l-683 -949l-34 19z" />
    <glyph glyph-name="zero" unicode="0" 
d="M431 764q113 0 171 -101q48 -83 48 -204q0 -178 -111 -331q-100 -138 -231 -138q-113 0 -171 104q-47 85 -47 207q0 37 7 81q22 139 106 250q100 132 228 132zM316 35q113 0 200 134q76 117 84 240q1 15 1 40q0 105 -36 177q-46 93 -141 93q-108 0 -193 -124
q-68 -99 -86 -213q-7 -44 -7 -79q0 -105 36 -176q47 -92 142 -92z" />
    <glyph glyph-name="one" unicode="1" 
d="M420 709h-119l30 45h144l-119 -754h-48z" />
    <glyph glyph-name="two" unicode="2" 
d="M183 45h358l-7 -45h-465l330 309q80 75 115 118q64 79 64 146q0 66 -43.5 106t-109.5 40q-78 0 -137 -50.5t-69 -127.5h-48q18 94 69 143q83 80 192 80q85 0 139.5 -50.5t54.5 -134.5q0 -85 -72 -174q-32 -39 -113 -116z" />
    <glyph glyph-name="three" unicode="3" 
d="M361 370l7 45q76 2 131 53.5t55 126.5q0 54 -36.5 89t-90.5 35q-65 0 -110 -39t-59 -104h-48q20 87 78.5 137.5t146.5 50.5q73 0 120.5 -45t47.5 -118q0 -67 -40 -123.5t-103 -82.5q46 -19 71.5 -60t25.5 -92q0 -104 -77.5 -178.5t-181.5 -74.5q-75 0 -126 43
q-54 45 -54 119q0 16 2 33h48q-4 -68 32.5 -109t104.5 -41q82 0 142.5 60t60.5 142q0 63 -41.5 98t-105.5 35z" />
    <glyph glyph-name="four" unicode="4" 
d="M497 188h106l-7 -45h-106l-23 -143h-48l23 143h-407l1 6l549 631h6zM449 188l70 446h-6l-383 -446h319z" />
    <glyph glyph-name="five" unicode="5" 
d="M643 709h-252l-95 -204q27 8 58 8q97 0 158 -59.5t61 -155.5q0 -139 -112 -232q-91 -76 -206 -76q-67 0 -121 33t-82 92l47 18q22 -46 67.5 -72t97.5 -26q97 0 170.5 63t87.5 159q2 14 2 33q0 81 -54 129.5t-135 48.5q-58 0 -120 -34l148 320h287z" />
    <glyph glyph-name="six" unicode="6" 
d="M461 764l34 -29l-203 -235l2 -2q51 20 103 20q97 0 160.5 -63.5t63.5 -160.5q0 -123 -107 -222q-88 -82 -207 -82q-99 0 -163.5 61.5t-64.5 159.5q0 111 84 208zM316 35q103 0 180 75t77 178q0 81 -53.5 133t-134.5 52q-103 0 -180.5 -75t-77.5 -178q0 -82 53.5 -133.5
t135.5 -51.5z" />
    <glyph glyph-name="seven" unicode="7" 
d="M640 709h-458l7 45h547l-660 -762l-33 29z" />
    <glyph glyph-name="eight" unicode="8" 
d="M368 369q-79 0 -139 -57.5t-60 -135.5q0 -63 41.5 -102t105.5 -39q78 0 138.5 57t60.5 135q0 63 -41.5 102.5t-105.5 39.5zM308 -10q-80 0 -134 48t-54 127q0 77 43 138q41 58 113 90q-81 43 -81 143q0 94 70.5 161t165.5 67q77 0 125 -45t48 -121q0 -65 -38 -121.5
t-98 -83.5q96 -50 96 -155q0 -17 -4 -41q-15 -90 -87 -148.5t-165 -58.5zM424 719q-72 0 -126 -53t-54 -124q0 -57 37.5 -92.5t94.5 -35.5q71 0 125 52t54 123q0 56 -37.5 93t-93.5 37z" />
    <glyph glyph-name="nine" unicode="9" 
d="M279 -8l-35 29l205 235l-2 2q-53 -20 -104 -20q-97 0 -161 63t-64 160q0 16 4 41q18 111 107.5 186.5t202.5 75.5q101 0 164.5 -61t63.5 -161q0 -109 -84 -206zM425 719q-103 0 -180.5 -74.5t-77.5 -176.5q0 -81 53.5 -133t135.5 -52q102 0 179 75t77 177
q0 81 -52.5 132.5t-134.5 51.5z" />
    <glyph glyph-name="colon" unicode=":" horiz-adv-x="310" 
d="M166 72q18 0 28 -12t7 -29q-7 -41 -48 -41q-17 0 -27 12t-7 29q7 41 47 41zM230 472q17 0 27 -12t7 -29q-7 -41 -47 -41q-17 0 -27 12t-8 29t16.5 29t31.5 12z" />
    <glyph glyph-name="semicolon" unicode=";" horiz-adv-x="310" 
d="M165 74l43 -14l-119 -226l-29 11zM236 472q17 0 27 -12t7 -29q-7 -41 -47 -41q-17 0 -27 12t-8 29t16.5 29t31.5 12z" />
    <glyph glyph-name="less" unicode="&#x3c;" 
d="M147 256l425 -215l-7 -46l-475 235l9 53l547 223l-7 -46z" />
    <glyph glyph-name="equal" unicode="=" 
d="M624 365l-8 -48h-512l8 48h512zM597 195l-8 -48h-512l8 48h512z" />
    <glyph glyph-name="greater" unicode="&#x3e;" 
d="M60 41l495 215l-428 204l7 46l477 -223l-9 -53l-549 -235z" />
    <glyph glyph-name="question" unicode="?" horiz-adv-x="491" 
d="M402 303h48q-8 -72 -59 -116.5t-123 -44.5q-58 0 -97 34t-39 91q0 135 169 177q81 20 111 40q59 39 59 122q0 51 -31 82t-82 31q-56 0 -99 -36t-51 -91q-5 -34 -4 -53h-46q-4 121 75 181q58 44 133 44q69 0 111.5 -39t42.5 -107q0 -101 -67 -156q-44 -36 -130 -57
q-63 -15 -90 -32q-52 -32 -52 -97q0 -42 27 -65.5t70 -23.5q48 0 84 34q33 33 40 82zM254 72q18 0 28 -12t7 -29q-7 -41 -48 -41q-17 0 -27 12t-7 29q7 41 47 41z" />
    <glyph glyph-name="at" unicode="@" horiz-adv-x="800" 
d="M368 193q47 1 94 39q43 34 65 80l71 147q4 8 4 23q0 37 -26 60.5t-63 23.5q-80 0 -160 -103q-76 -97 -76 -180q0 -41 25 -66t66 -24zM637 541l22 47h44l-154 -324q-16 -34 -16 -47q0 -24 39 -24q69 0 140 93q64 84 76 159q4 25 4 42q0 106 -79 172q-74 63 -182 63
q-156 0 -275 -121.5t-119 -278.5q0 -125 81 -207.5t206 -82.5q188 0 295 136h56q-59 -86 -157 -133q-93 -45 -201 -45q-143 0 -232.5 91t-89.5 234q0 196 157 336q127 113 284 113q127 0 210 -71q88 -75 88 -200q0 -145 -113 -257q-86 -85 -170 -85q-60 0 -67 49
q-65 -49 -138 -49q-53 0 -82.5 31t-29.5 84q0 116 87 226q93 116 206 116q77 0 110 -67z" />
    <glyph glyph-name="A" unicode="A" horiz-adv-x="641" 
d="M525 248h-331l-140 -248h-49l439 779l192 -779h-49zM514 293l-89 364l-206 -364h295z" />
    <glyph glyph-name="B" unicode="B" horiz-adv-x="565" 
d="M187 367l-51 -322h115q111 0 159 29q97 59 97 160q0 77 -59 109q-44 24 -155 24h-106zM274 0h-193l119 754h151q191 0 191 -157q0 -138 -115 -197q60 -13 94.5 -54.5t34.5 -102.5q0 -117 -97 -189q-72 -54 -185 -54zM241 709l-47 -297h83q56 0 71 2q36 5 69 26
q77 50 77 149q0 65 -45 96q-34 24 -125 24h-83z" />
    <glyph glyph-name="C" unicode="C" horiz-adv-x="739" 
d="M785 666l-10 -66q-36 55 -101 87t-133 32q-158 0 -280 -119.5t-122 -276.5q0 -106 68 -184q91 -104 226 -104q69 0 145 32.5t126 82.5l-11 -66q-128 -94 -266 -94q-144 0 -240 93t-96 236q0 26 5 57q26 163 158 275.5t297 112.5q144 0 234 -98z" />
    <glyph glyph-name="D" unicode="D" horiz-adv-x="652" 
d="M81 0l119 754h136q155 0 247 -78q99 -83 99 -235q0 -98 -44 -187.5t-121 -153.5q-120 -100 -300 -100h-136zM136 45h87q162 0 268 91q65 56 103.5 134.5t38.5 161.5q0 135 -87 208q-81 69 -218 69h-87z" />
    <glyph glyph-name="E" unicode="E" horiz-adv-x="507" 
d="M553 709h-312l-43 -274h304l-7 -45h-304l-55 -345h312l-7 -45h-360l119 754h360z" />
    <glyph glyph-name="F" unicode="F" horiz-adv-x="444" 
d="M497 709h-256l-43 -274h249l-7 -45h-249l-62 -390h-48l119 754h304z" />
    <glyph glyph-name="G" unicode="G" horiz-adv-x="824" 
d="M527 363h318q-22 -162 -118 -251q-131 -122 -306 -122q-142 0 -236 92.5t-94 234.5q0 31 4 57q25 164 157 277t298 113q198 0 299 -176l-44 -31q-83 162 -265 162q-157 0 -278.5 -119t-121.5 -275q0 -128 82 -209t210 -81q121 0 235 83q98 72 123 200h-270z" />
    <glyph glyph-name="H" unicode="H" horiz-adv-x="716" 
d="M198 434h458l50 320h48l-119 -754h-48l62 389h-458l-62 -389h-48l119 754h48z" />
    <glyph glyph-name="I" unicode="I" horiz-adv-x="210" 
d="M248 754l-119 -754h-48l119 754h48z" />
    <glyph glyph-name="J" unicode="J" horiz-adv-x="218" 
d="M208 754h48l-117 -740q-27 -172 -160 -172q-87 0 -112 82l40 27q20 -64 83 -64q81 0 101 127z" />
    <glyph glyph-name="K" unicode="K" horiz-adv-x="569" 
d="M193 402l413 352h64l-426 -363l330 -391h-63l-305 360l-23 -20l-54 -340h-48l119 754h48z" />
    <glyph glyph-name="L" unicode="L" horiz-adv-x="327" 
d="M248 754l-112 -709h192l-7 -45h-240l119 754h48z" />
    <glyph glyph-name="M" unicode="M" horiz-adv-x="897" 
d="M842 0l-30 624h-2l-366 -649l-159 649h-2l-228 -624h-46l285 779l169 -686l386 686l39 -779h-46z" />
    <glyph glyph-name="N" unicode="N" horiz-adv-x="843" 
d="M881 754l-123 -779l-526 673l-103 -648h-48l121 764l527 -668l104 658h48z" />
    <glyph glyph-name="O" unicode="O" horiz-adv-x="854" 
d="M548 764q144 0 239 -92t95 -236q0 -193 -163 -332q-134 -114 -294 -114q-144 0 -239 92t-95 236q0 192 164 332q133 114 293 114zM541 719q-159 0 -280 -117.5t-121 -276.5q0 -128 82.5 -209t210.5 -81q159 0 280 118t121 276q0 127 -83 208.5t-210 81.5z" />
    <glyph glyph-name="P" unicode="P" horiz-adv-x="472" 
d="M186 358l-57 -358h-48l119 754h133q203 0 203 -163q0 -52 -24.5 -103t-65.5 -82q-64 -48 -175 -48h-85zM193 403h87q86 0 138 41q69 55 69 140q0 72 -50 102q-39 23 -117 23h-79z" />
    <glyph glyph-name="Q" unicode="Q" horiz-adv-x="854" 
d="M569 309l127 -166q137 127 137 284q0 129 -81 210.5t-210 81.5q-144 0 -259.5 -100t-138.5 -242q-5 -31 -5 -53q0 -128 84.5 -208.5t212.5 -80.5q110 0 222 79l-157 195h68zM742 0l-55 80q-124 -90 -262 -90q-146 0 -240 90.5t-94 235.5q0 29 5 61q25 163 156.5 275
t296.5 112q144 0 239 -91.5t95 -234.5q0 -178 -158 -331l82 -107h-65z" />
    <glyph glyph-name="R" unicode="R" horiz-adv-x="488" 
d="M264 357l190 -357h-55l-189 357h-24l-57 -357h-48l119 754h94q220 0 220 -161q0 -119 -86 -185q-69 -53 -164 -51zM193 402h61q90 0 137 35q74 55 74 147q0 78 -60 108q-34 17 -133 17h-31z" />
    <glyph glyph-name="S" unicode="S" horiz-adv-x="544" 
d="M568 658l-38 -28q-42 89 -139 89q-66 0 -116 -48.5t-50 -113.5q0 -43 38 -75q15 -13 77 -48l132 -75q65 -46 65 -118q0 -12 -3 -32q-14 -94 -96 -157q-78 -62 -175 -62q-76 0 -128.5 43.5t-67.5 118.5l45 19q33 -136 161 -136q81 0 148 58t67 138q0 47 -44 83
q-12 10 -85 52l-125 72q-59 34 -59 106q0 11 3 29q14 85 75.5 138t147.5 53q56 0 101.5 -28t65.5 -78z" />
    <glyph glyph-name="T" unicode="T" horiz-adv-x="450" 
d="M361 709l-112 -709h-48l112 709h-195l7 45h438l-7 -45h-195z" />
    <glyph glyph-name="U" unicode="U" horiz-adv-x="660" 
d="M585 298l72 456h48l-74 -470q-12 -74 -23 -109q-18 -54 -61 -97q-89 -88 -219 -88q-131 0 -191 88q-29 42 -29 104q0 32 11 102l74 470h48l-72 -456q-11 -70 -11 -104q0 -102 88 -140q44 -19 90 -19q48 0 98.5 20t81.5 53q47 50 69 190z" />
    <glyph glyph-name="V" unicode="V" horiz-adv-x="555" 
d="M172 754l122 -644h2l325 644h48l-397 -779l-148 779h48z" />
    <glyph glyph-name="W" unicode="W" horiz-adv-x="1105" 
d="M179 754l110 -648l390 686l174 -686l311 648h48l-377 -779l-178 697l-397 -697l-129 779h48z" />
    <glyph glyph-name="X" unicode="X" horiz-adv-x="494" 
d="M279 385l-140 369h53l122 -324l224 324h53l-255 -369l146 -385h-52l-130 341l-236 -341h-52z" />
    <glyph glyph-name="Y" unicode="Y" horiz-adv-x="559" 
d="M306 322l-183 432h53l162 -382l282 382h53l-319 -432l-51 -322h-48z" />
    <glyph glyph-name="Z" unicode="Z" horiz-adv-x="568" 
d="M103 45h447l-7 -45h-531l572 709h-416l7 45h500z" />
    <glyph glyph-name="bracketleft" unicode="[" horiz-adv-x="300" 
d="M224 703l-135 -855h122l-8 -51h-170l151 957h170l-8 -51h-122z" />
    <glyph glyph-name="backslash" unicode="\" horiz-adv-x="640" 
d="M163 807l38 18l407 -806l-40 -19z" />
    <glyph glyph-name="bracketright" unicode="]" horiz-adv-x="300" 
d="M163 -152l135 855h-122l8 51h170l-151 -957h-170l8 51h122z" />
    <glyph glyph-name="asciicircum" unicode="^" 
d="M149 301h-47l301 453h52l159 -453h-46l-146 408z" />
    <glyph glyph-name="underscore" unicode="_" horiz-adv-x="500" 
d="M470 -188h-500l12 75h500z" />
    <glyph glyph-name="grave" unicode="`" horiz-adv-x="313" 
d="M185 695l64 19l78 -147l-41 -17z" />
    <glyph glyph-name="a" unicode="a" horiz-adv-x="560" 
d="M324 430q-90 0 -153 -73q-60 -69 -60 -160q0 -71 41.5 -118t111.5 -47q95 0 158 75q60 70 60 167q0 71 -43.5 113.5t-114.5 42.5zM556 462l-73 -462h-45l13 83h-2q-31 -43 -83.5 -68t-107.5 -25q-88 0 -140.5 54.5t-52.5 143.5q0 20 4 46q16 105 88 171.5t176 66.5
q117 0 164 -90h2l12 80h45z" />
    <glyph glyph-name="b" unicode="b" horiz-adv-x="560" 
d="M306 32q91 0 155 73q62 70 62 162q0 70 -40 116q-43 47 -112 47q-86 0 -144 -55t-71 -142q-3 -20 -3 -39q0 -73 40.5 -117.5t112.5 -44.5zM77 0l131 825h45l-70 -443h2q74 90 192 90q88 0 140 -52t52 -140q0 -20 -4 -46q-16 -105 -88 -173q-74 -71 -179 -71q-52 0 -95 23
q-47 25 -66 70h-2l-13 -83h-45z" />
    <glyph glyph-name="c" unicode="c" horiz-adv-x="477" 
d="M497 415l-10 -60q-57 75 -151 75q-92 0 -158.5 -69t-66.5 -161q0 -72 44.5 -120t116.5 -48q102 0 183 83l-9 -61q-84 -64 -179 -64q-89 0 -145.5 55.5t-56.5 144.5q0 18 4 42q17 103 94.5 171.5t181.5 68.5q94 0 152 -57z" />
    <glyph glyph-name="d" unicode="d" horiz-adv-x="560" 
d="M264 32q95 0 158 75q60 70 60 167q0 71 -43.5 113.5t-114.5 42.5q-90 0 -153 -73q-60 -69 -60 -160q0 -71 41.5 -118t111.5 -47zM438 0l13 83h-2q-31 -43 -83.5 -68t-107.5 -25q-88 0 -140.5 54.5t-52.5 143.5q0 20 4 46q16 105 88 171.5t176 66.5q117 0 164 -90h2
l70 443h45l-131 -825h-45z" />
    <glyph glyph-name="e" unicode="e" horiz-adv-x="510" 
d="M514 227h-401q-4 -21 -4 -42q0 -70 44 -111.5t114 -41.5q107 0 180 105l34 -22q-85 -125 -227 -125q-87 0 -138 54.5t-51 142.5q0 115 76 200t190 85q87 0 137 -53.5t50 -141.5q0 -25 -4 -50zM120 269h356q2 69 -40 115t-111 46q-71 0 -130 -46t-75 -115z" />
    <glyph glyph-name="f" unicode="f" horiz-adv-x="240" 
d="M189 420l-67 -420h-45l67 420h-51l6 42h51l33 207q13 81 36 113q40 56 112 56q22 0 39 -7l-7 -41l-36 6q-51 0 -76 -46q-13 -24 -24 -90l-32 -198h116l-6 -42h-116z" />
    <glyph glyph-name="g" unicode="g" horiz-adv-x="567" 
d="M331 430q-90 0 -153 -73q-60 -69 -60 -160q0 -71 41.5 -118t111.5 -47q95 0 158 75q60 70 60 167q0 71 -43.5 113.5t-114.5 42.5zM563 462l-70 -440q-11 -72 -22 -102q-18 -53 -55 -94q-79 -89 -198 -89q-87 0 -140 43q-58 46 -58 131q0 12 2 24h45q-1 -11 -1 -21
q0 -63 47 -100q44 -35 108 -35q189 0 228 244l9 57h-2q-82 -90 -195 -90q-86 0 -137.5 56t-51.5 143q0 18 4 43q16 103 90.5 171.5t177.5 68.5q107 0 160 -90h2l12 80h45z" />
    <glyph glyph-name="h" unicode="h" horiz-adv-x="490" 
d="M208 825h45l-69 -435h2q56 82 150 82q127 0 127 -126q0 -29 -6 -67l-44 -279h-45l44 279q6 38 6 63q0 88 -93 88q-135 0 -167 -202l-36 -228h-45z" />
    <glyph glyph-name="i" unicode="i" horiz-adv-x="234" 
d="M212 462l-73 -462h-45l73 462h45zM221 657q17 0 27 -12t8 -29t-16.5 -29t-31.5 -12t-27 12t-7 29q7 41 47 41z" />
    <glyph glyph-name="j" unicode="j" horiz-adv-x="234" 
d="M212 462l-116 -732h-45l116 732h45zM221 657q17 0 27 -12t8 -29t-16.5 -29t-31.5 -12t-27 12t-7 29q7 41 47 41z" />
    <glyph glyph-name="k" unicode="k" horiz-adv-x="427" 
d="M253 825l-89 -559l221 196h58l-226 -200l218 -262h-59l-192 231l-30 -26l-32 -205h-45l131 825h45z" />
    <glyph glyph-name="l" unicode="l" horiz-adv-x="199" 
d="M253 825l-131 -825h-45l131 825h45z" />
    <glyph glyph-name="m" unicode="m" horiz-adv-x="725" 
d="M195 462l-9 -58h2q44 68 127 68q92 0 116 -84q52 84 149 84q120 0 120 -118q0 -26 -6 -64l-46 -290h-45l47 296q5 31 5 52q0 82 -83 82q-119 0 -145 -164l-42 -266h-45l45 285q5 32 5 54q0 91 -85 91q-115 0 -143 -176l-40 -254h-45l73 462h45z" />
    <glyph glyph-name="n" unicode="n" horiz-adv-x="490" 
d="M195 462l-11 -72h2q56 82 150 82q127 0 127 -126q0 -29 -6 -67l-44 -279h-45l44 279q6 38 6 63q0 88 -93 88q-135 0 -167 -202l-36 -228h-45l73 462h45z" />
    <glyph glyph-name="o" unicode="o" horiz-adv-x="547" 
d="M347 472q91 0 149.5 -55t58.5 -146q0 -124 -101 -211q-82 -70 -184 -70q-90 0 -147.5 57t-57.5 146q0 113 84.5 196t197.5 83zM337 430q-92 0 -159 -69.5t-67 -161.5q0 -73 45.5 -120t117.5 -47q96 0 165.5 68t69.5 164q0 76 -47.5 121t-124.5 45z" />
    <glyph glyph-name="p" unicode="p" horiz-adv-x="560" 
d="M369 430q-93 0 -157 -77q-61 -72 -61 -167q0 -71 43 -112.5t114 -41.5q90 0 153 72q61 69 61 160q0 73 -39 118q-42 48 -114 48zM195 462l-13 -83h2q32 43 84 68t107 25q90 0 141.5 -54t51.5 -144q0 -21 -4 -47q-16 -104 -87 -169q-73 -68 -177 -68q-120 0 -163 90h-2
l-56 -350h-45l116 732h45z" />
    <glyph glyph-name="q" unicode="q" horiz-adv-x="560" 
d="M327 430q-93 0 -157 -77q-61 -72 -61 -167q0 -71 43 -112.5t114 -41.5q90 0 153 72q61 69 61 160q0 73 -39 118q-42 48 -114 48zM556 462l-116 -732h-45l56 350h-2q-73 -90 -193 -90q-87 0 -139.5 51.5t-52.5 138.5q0 20 4 46q16 105 89 175.5t178 70.5q52 0 95 -23
q47 -25 66 -70h2l13 83h45z" />
    <glyph glyph-name="r" unicode="r" horiz-adv-x="278" 
d="M195 462l-9 -60h2q41 70 111 70q24 0 47 -11l-30 -40q-15 9 -31 9q-65 0 -97 -72q-15 -34 -29 -122l-37 -236h-45l73 462h45z" />
    <glyph glyph-name="s" unicode="s" horiz-adv-x="375" 
d="M373 398l-42 -20q-16 52 -73 52q-31 0 -58 -21t-32 -51q-7 -46 42 -68l96 -42q53 -31 53 -89q0 -78 -61 -128q-50 -41 -113 -41q-58 0 -96 32.5t-43 89.5l46 14q14 -94 100 -94q48 0 85 35.5t37 83.5q0 47 -77 76q-54 20 -79 39q-37 28 -37 71q0 58 43.5 96.5t102.5 38.5
q35 0 65.5 -20.5t40.5 -53.5z" />
    <glyph glyph-name="t" unicode="t" horiz-adv-x="209" 
d="M194 420l-67 -420h-45l67 420h-51l6 42h51l26 165h45l-26 -165h81l-6 -42h-81z" />
    <glyph glyph-name="u" unicode="u" horiz-adv-x="472" 
d="M430 462h45l-44 -277q-8 -52 -14 -70q-19 -61 -70 -94q-47 -31 -113 -31q-91 0 -128 62q-15 25 -15 61q0 22 8 72l44 277h45l-41 -261q-7 -45 -7 -70q0 -99 101 -99q74 0 109 50q26 38 39 119z" />
    <glyph glyph-name="v" unicode="v" horiz-adv-x="433" 
d="M124 462l107 -381l224 381h46l-288 -487l-135 487h46z" />
    <glyph glyph-name="w" unicode="w" horiz-adv-x="752" 
d="M124 462l103 -379l227 404l100 -404l220 379h46l-286 -487l-100 399l-225 -399l-131 487h46z" />
    <glyph glyph-name="x" unicode="x" horiz-adv-x="443" 
d="M231 244l-138 218h54l118 -187l177 187h54l-206 -218l149 -244h-53l-131 212l-198 -212h-53z" />
    <glyph glyph-name="y" unicode="y" horiz-adv-x="460" 
d="M214 -8l-148 470h47l131 -418l243 418h46l-426 -732h-46z" />
    <glyph glyph-name="z" unicode="z" horiz-adv-x="480" 
d="M105 42h375l-7 -42h-470l445 420h-317l6 42h411z" />
    <glyph glyph-name="braceleft" unicode="{" horiz-adv-x="300" 
d="M81 255l7 44q42 26 60 46q26 29 32 69l27 176q13 86 48 122q39 40 123 42l-7 -46q-98 0 -110 -80l-29 -186q-9 -60 -29 -94q-23 -42 -70 -69l-1 -5q53 -38 53 -105q0 -26 -6 -63l-30 -185q-1 -6 -1 -19q0 -61 86 -61l-7 -44q-61 2 -90 22q-35 24 -35 82q0 21 6 59l28 176
q2 13 2 24q0 50 -57 95z" />
    <glyph glyph-name="bar" unicode="|" horiz-adv-x="320" 
d="M136 0l131 825h48l-131 -825h-48z" />
    <glyph glyph-name="braceright" unicode="}" horiz-adv-x="300" 
d="M306 299l-7 -44q-43 -29 -60 -49q-24 -28 -31 -70l-28 -176q-13 -85 -49 -121q-39 -39 -122 -42l7 44q96 0 109 80l30 185q10 63 28 97q23 42 71 71l1 5q-52 39 -52 104q0 27 5 59l29 186q2 13 2 19q0 61 -86 61l7 46q61 -2 90 -22q35 -24 35 -82q0 -21 -6 -60l-27 -176
q-2 -13 -2 -24q0 -47 56 -91z" />
    <glyph glyph-name="asciitilde" unicode="~" 
d="M251 314q38 0 111 -36q81 -40 97 -40q53 0 109 80l45 -23q-86 -109 -164 -109q-30 0 -103 38t-104 38q-50 0 -111 -74l-44 23q54 55 71 68q46 35 93 35z" />
    <glyph glyph-name="euro" horiz-adv-x="498" 
d="M522 633l-23 -156l-48 6q0 157 -94 157q-103 0 -161 -211h172l-21 -48h-164q-6 -24 -16 -73h147l-21 -47h-134q-6 -41 -6 -74q0 -56 21 -91q26 -43 78 -43q58 0 101 68q24 38 51 119l55 -10l-54 -188q-77 -53 -159 -53q-111 0 -166 84q-47 71 -47 188h-74l21 47h56
q3 25 12 73h-66l21 48h59q41 112 108 183q83 88 187 88q94 0 165 -67z" />
    <glyph glyph-name="exclamdown" unicode="&#xa1;" horiz-adv-x="320" 
d="M235 472q17 0 27 -12t7 -29q-7 -41 -47 -41q-17 0 -27 12t-8 29t16.5 29t31.5 12zM235 321l-97 -611h-48l97 611h48z" />
    <glyph glyph-name="cent" unicode="&#xa2;" 
d="M596 568l-10 -60q-52 70 -133 76l-63 -399q92 8 162 83h2l-9 -61q-79 -60 -161 -64l-21 -128h-45l21 129q-78 8 -126.5 63.5t-48.5 134.5q0 107 72.5 190t178.5 93l19 117h45l-19 -116q80 -3 136 -58zM345 186l63 396q-83 -11 -140.5 -78.5t-57.5 -151.5q0 -62 37.5 -110
t97.5 -56z" />
    <glyph glyph-name="sterling" unicode="&#xa3;" 
d="M89 -10l-20 39q68 67 144 65q73 55 83 119l1 29h-124l7 45h112l-59 138q-33 77 -33 118q0 100 85 167q68 54 149 54q71 0 117.5 -45.5t46.5 -116.5q0 -18 -4 -37h-48q3 15 3 30q0 57 -35.5 90.5t-92.5 33.5q-67 0 -119.5 -50.5t-52.5 -117.5q0 -35 29 -98l37 -81
q18 -40 29 -85h136l-7 -45h-127l-3 -33q-6 -65 -77 -126l10 -3q107 -45 139 -45q62 0 119 82l37 -24q-73 -103 -158 -103q-33 0 -104 29.5t-101 29.5q-50 0 -119 -59z" />
    <glyph glyph-name="currency" unicode="&#xa4;" 
d="M147 498l42 36l35 -42q89 58 173 58t155 -58l49 42l30 -36l-46 -40q31 -64 31 -118q0 -96 -82 -198l34 -40l-42 -36l-35 42q-89 -58 -173 -58t-155 58l-49 -42l-30 36l46 40q-31 64 -31 118q0 96 82 198zM390 502q-97 0 -169 -66.5t-72 -162.5q0 -76 50.5 -125.5
t126.5 -49.5q96 0 169 70.5t73 166.5q0 75 -51 121t-127 46z" />
    <glyph glyph-name="yen" unicode="&#xa5;" 
d="M337 322l-31 75h-161l7 45h134l-132 312h58l158 -377l276 377h58l-230 -312h134l-7 -45h-160l-56 -75h204l-7 -45h-204l-44 -277h-48l44 277h-204l7 45h204z" />
    <glyph glyph-name="brokenbar" unicode="&#xa6;" horiz-adv-x="320" 
d="M136 0l52 327h48l-52 -327h-48zM215 498l52 327h48l-52 -327h-48z" />
    <glyph glyph-name="section" unicode="&#xa7;" 
d="M335 155q62 0 109 45.5t47 106.5q0 48 -33 81t-81 33q-62 0 -110 -46t-48 -108q0 -49 33.5 -80.5t82.5 -31.5zM142 -11h48l-2 -13q-3 -20 -3 -36q0 -88 101 -88q62 0 105.5 38t43.5 99q0 46 -41 75q-24 17 -92 41q-133 47 -133 145q0 15 3 34q20 125 140 172
q-75 40 -75 115q0 16 3 35q12 74 69 117q54 41 131 41q74 0 107 -33t33 -107q0 -18 -2 -41h-48q3 20 3 37q0 99 -105 99q-55 0 -93.5 -32.5t-47.5 -86.5q-2 -12 -2 -22q0 -38 25 -62q17 -16 59 -33l105 -42q66 -38 66 -117q0 -141 -142 -207q85 -35 85 -124q0 -12 -3 -31
q-12 -76 -70 -117q-53 -38 -133 -38q-141 0 -141 121q0 3 1 13z" />
    <glyph glyph-name="dieresis" unicode="&#xa8;" horiz-adv-x="421" 
d="M224 674q16 0 25.5 -12t7.5 -28q-6 -40 -46 -40q-16 0 -26 12t-8 28q2 17 16 28.5t31 11.5zM411 674q16 0 25.5 -12t7.5 -28q-6 -40 -46 -40q-16 0 -26 12t-8 28q2 17 16 28.5t31 11.5z" />
    <glyph glyph-name="copyright" unicode="&#xa9;" horiz-adv-x="800" 
d="M399 -10q-145 0 -238 91t-93 236q0 29 5 61q25 163 154.5 274.5t294.5 111.5q144 0 237 -90.5t93 -234.5q0 -30 -5 -61q-26 -163 -155 -275.5t-293 -112.5zM407 38q160 0 278 117t118 277q0 126 -81.5 205t-207.5 79q-145 0 -257.5 -97.5t-135.5 -240.5q-5 -31 -5 -55
q0 -126 82 -205.5t209 -79.5zM598 308h48q-17 -68 -74 -109t-129 -41q-82 0 -132 49.5t-50 131.5q0 122 86 202q67 62 164 62q70 0 113 -37q46 -40 45 -109h-48q-1 46 -37 73q-32 25 -80 25q-83 0 -138.5 -59.5t-55.5 -143.5q0 -64 38.5 -105t102.5 -41q49 0 91.5 28
t55.5 74z" />
    <glyph glyph-name="ordfeminine" unicode="&#xaa;" horiz-adv-x="336" 
d="M380 409l-6 -34h-293l6 34h293zM279 730q-51 0 -88.5 -38.5t-37.5 -90.5q0 -42 25.5 -67t67.5 -25q56 0 95.5 37.5t39.5 92.5q0 43 -29 67t-73 24zM435 758l-44 -277h-29l8 50h-2q-43 -56 -123 -56q-57 0 -92 32t-35 88q0 73 49 121t123 48q76 0 106 -54h2l8 48h29z" />
    <glyph glyph-name="guillemotleft" unicode="&#xab;" horiz-adv-x="397" 
d="M260 320l98 -142l-33 -27l-119 169l172 169l25 -27zM140 320l98 -142l-33 -27l-119 169l172 169l25 -27z" />
    <glyph glyph-name="logicalnot" unicode="&#xac;" 
d="M534 99l34 218h-464l8 48h512l-42 -266h-48z" />
    <glyph glyph-name="sfthyphen" unicode="&#xad;" horiz-adv-x="338" 
d="M8 174l33 122h246l-33 -122h-246z" />
    <glyph glyph-name="registered" unicode="&#xae;" horiz-adv-x="800" 
d="M399 -10q-145 0 -238 91t-93 236q0 29 5 61q25 163 154.5 274.5t294.5 111.5q144 0 237 -90.5t93 -234.5q0 -30 -5 -61q-26 -163 -155 -275.5t-293 -112.5zM407 38q160 0 278 117t118 277q0 126 -81.5 205t-207.5 79q-145 0 -257.5 -97.5t-135.5 -240.5q-5 -31 -5 -55
q0 -126 82 -205.5t209 -79.5zM518 353l97 -195h-62l-90 195h-99l-31 -195h-48l67 423h185q134 0 134 -87q0 -12 -2 -25q-18 -112 -151 -116zM372 401h83q79 0 101 5q57 13 65 64q10 63 -104 63h-125z" />
    <glyph glyph-name="macron" unicode="&#xaf;" horiz-adv-x="456" 
d="M182 674h305l-7 -45h-305z" />
    <glyph glyph-name="macron" unicode="&#x2c9;" horiz-adv-x="456" 
d="M182 674h305l-7 -45h-305z" />
    <glyph glyph-name="degree" unicode="&#xb0;" horiz-adv-x="400" 
d="M273 464q-55 0 -91.5 36t-36.5 91q0 70 53 121.5t123 51.5q55 0 91.5 -36t36.5 -91q0 -70 -53 -121.5t-123 -51.5zM313 722q-50 0 -87.5 -38t-37.5 -88q0 -40 26 -65t66 -25q50 0 88.5 37.5t38.5 87.5q0 40 -27 65.5t-67 25.5z" />
    <glyph glyph-name="plusminus" unicode="&#xb1;" 
d="M337 320l30 192h48l-30 -192h232l-8 -48h-232l-30 -192h-48l30 192h-232l8 48h232zM54 0l8 48h512l-8 -48h-512z" />
    <glyph glyph-name="twosuperior" unicode="&#xb2;" horiz-adv-x="372" 
d="M168 340h222l-6 -34h-302l212 185q112 98 112 158q0 39 -31 61q-27 20 -68 20q-49 0 -84 -25q-38 -27 -45 -74h-34q10 54 44 85q53 48 124 48q53 0 90.5 -30t37.5 -82q0 -74 -114 -174z" />
    <glyph glyph-name="threesuperior" unicode="&#xb3;" horiz-adv-x="372" 
d="M266 525l6 34q47 0 82 28.5t35 74.5q0 33 -26 52q-22 16 -57 16q-88 0 -105 -78h-34q28 112 145 112q46 0 78.5 -27t32.5 -72q0 -41 -26 -74t-66 -48q65 -24 65 -93q0 -64 -50.5 -107t-115.5 -43q-48 0 -82 25q-37 27 -37 74q0 9 1 18h34q-4 -83 88 -83q50 0 89 32t39 81
q0 39 -30 60q-25 18 -66 18z" />
    <glyph glyph-name="acute" unicode="&#xb4;" horiz-adv-x="313" 
d="M289 714l58 -19l-147 -145l-35 17z" />
    <glyph glyph-name="mu" unicode="&#xb5;" horiz-adv-x="472" 
d="M72 -270h-45l116 732h45l-36 -228q-6 -38 -6 -71q0 -131 95 -131q74 0 109 50q26 38 39 119l41 261h45l-44 -277q-8 -52 -14 -70q-19 -61 -70 -94q-47 -31 -113 -31q-37 0 -68 23t-38 59h-2z" />
    <glyph glyph-name="mu" unicode="&#x3bc;" horiz-adv-x="472" 
d="M72 -270h-45l116 732h45l-36 -228q-6 -38 -6 -71q0 -131 95 -131q74 0 109 50q26 38 39 119l41 261h45l-44 -277q-8 -52 -14 -70q-19 -61 -70 -94q-47 -31 -113 -31q-37 0 -68 23t-38 59h-2z" />
    <glyph glyph-name="paragraph" unicode="&#xb6;" 
d="M254 -178l87 548q-67 -1 -106 43t-39 112q0 16 3 35q30 194 233 194h197l-7 -45h-40l-140 -887h-48l140 887h-92l-140 -887h-48z" />
    <glyph glyph-name="ch270" unicode="&#xb7;" horiz-adv-x="249" 
d="M38 348q0 34 23 57t57 23t57.5 -23t23.5 -57t-23.5 -57.5t-57.5 -23.5t-57 23.5t-23 57.5z" />
    <glyph glyph-name="ch270" unicode="&#x2219;" horiz-adv-x="249" 
d="M38 348q0 34 23 57t57 23t57.5 -23t23.5 -57t-23.5 -57.5t-57.5 -23.5t-57 23.5t-23 57.5z" />
    <glyph glyph-name="cedilla" unicode="&#xb8;" horiz-adv-x="299" 
d="M217 -42l-133 -141l-35 19l116 144z" />
    <glyph glyph-name="onesuperior" unicode="&#xb9;" horiz-adv-x="372" 
d="M324 720h-76l20 34h95l-71 -448h-34z" />
    <glyph glyph-name="ordmasculine" unicode="&#xba;" horiz-adv-x="328" 
d="M386 409l-6 -34h-314l6 34h314zM284 764q57 0 97 -33t40 -89q0 -72 -55 -119.5t-128 -47.5q-56 0 -94 33q-41 35 -41 90q0 69 57 118q54 48 124 48zM277 730q-52 0 -93 -37.5t-41 -89.5q0 -42 28.5 -68t70.5 -26q54 0 96.5 36.5t42.5 89.5q0 43 -30 69t-74 26z" />
    <glyph glyph-name="guillemotright" unicode="&#xbb;" horiz-adv-x="397" 
d="M95 178l144 142l-99 142l33 27l120 -169l-173 -169zM215 178l144 142l-99 142l33 27l120 -169l-173 -169z" />
    <glyph glyph-name="onequarter" unicode="&#xbc;" horiz-adv-x="930" 
d="M290 720h-76l20 34h95l-71 -448h-34zM782 116h66l-5 -34h-66l-13 -82h-34l13 82h-259l1 4l347 382h6zM748 116l40 251h-5l-226 -251h191zM771 772l29 -18l-569 -771l-29 18z" />
    <glyph glyph-name="onehalf" unicode="&#xbd;" horiz-adv-x="930" 
d="M290 720h-76l20 34h95l-71 -448h-34zM611 34h222l-5 -34h-302l211 185q112 98 112 158q0 40 -31 62q-27 19 -68 19q-49 0 -85 -26t-44 -73h-34q11 54 45 85q53 48 124 48q53 0 88 -29q39 -31 39 -83q0 -74 -114 -174zM727 772l29 -18l-569 -771l-29 18z" />
    <glyph glyph-name="threequarters" unicode="&#xbe;" horiz-adv-x="930" 
d="M822 116h66l-5 -34h-66l-13 -82h-34l13 82h-259l1 4l347 382h6zM788 116l40 251h-5l-226 -251h191zM280 525l6 34q47 0 82 28.5t35 74.5q0 33 -26 52q-22 16 -57 16q-88 0 -105 -78h-34q28 112 145 112q46 0 78.5 -27t32.5 -72q0 -41 -26 -74t-66 -48q65 -24 65 -93
q0 -64 -50.5 -107t-115.5 -43q-48 0 -82 25q-37 27 -37 74q0 9 1 18h34q-4 -83 88 -83q50 0 89 32t39 81q0 39 -30 60q-25 18 -66 18zM824 772l29 -18l-569 -771l-29 18z" />
    <glyph glyph-name="questiondown" unicode="&#xbf;" horiz-adv-x="491" 
d="M162 159h-48q8 72 59 116.5t123 44.5q58 0 97 -34t39 -91q0 -135 -169 -177q-82 -20 -111 -40q-59 -40 -59 -122q0 -50 31.5 -81.5t81.5 -31.5q56 0 99 36t51 91q5 34 4 53h46q1 -38 -3 -64q-11 -71 -73 -117q-58 -44 -132 -44q-69 0 -111.5 39t-42.5 107q0 100 68 156
q44 36 129 57q64 16 90 32q52 32 52 97q0 41 -27 65t-69 24q-49 0 -83.5 -33.5t-41.5 -82.5zM323 472q17 0 27 -12t7 -29q-7 -41 -47 -41q-17 0 -27 12t-8 29t16.5 29t31.5 12z" />
    <glyph glyph-name="Agrave" unicode="&#xc0;" horiz-adv-x="641" 
d="M449 865l-5 -35l-131 133h71zM636 0h-49l-62 248h-331l-140 -248h-49l439 779zM514 293l-89 364l-206 -364h295z" />
    <glyph glyph-name="Aacute" unicode="&#xc1;" horiz-adv-x="641" 
d="M525 248h-331l-140 -248h-49l439 779l192 -779h-49zM514 293l-89 364l-206 -364h295zM504 963h71l-131 -133l-5 35z" />
    <glyph glyph-name="Acircumflex" unicode="&#xc2;" horiz-adv-x="641" 
d="M525 248h-331l-140 -248h-49l439 779l192 -779h-49zM514 293l-89 364l-206 -364h295zM324 805l127 85l98 -85l-26 -24l-80 60l-102 -60z" />
    <glyph glyph-name="Atilde" unicode="&#xc3;" horiz-adv-x="641" 
d="M525 248h-331l-140 -248h-49l439 779l192 -779h-49zM514 293l-89 364l-206 -364h295zM326 829l-17 18q47 49 90 50q15 0 50 -15t42 -15q27 1 57 31l14 -17q-41 -51 -93 -51q-13 0 -46 15.5t-46 15.5q-26 -1 -51 -32z" />
    <glyph glyph-name="Adieresis" unicode="&#xc4;" horiz-adv-x="641" 
d="M525 248h-331l-140 -248h-49l439 779l192 -779h-49zM514 293l-89 364l-206 -364h295zM380 966q16 0 25.5 -12t7.5 -28q-6 -40 -46 -40q-16 0 -26 12t-8 28q2 17 16 28.5t31 11.5zM567 966q16 0 25.5 -12t7.5 -28q-6 -40 -46 -40q-16 0 -26 12t-8 28q2 17 16 28.5t31 11.5
z" />
    <glyph glyph-name="Aring" unicode="&#xc5;" horiz-adv-x="641" 
d="M525 248h-331l-140 -248h-49l439 779l192 -779h-49zM514 293l-89 364l-206 -364h295zM480 1006q32 0 53 -20.5t21 -52.5q0 -40 -30.5 -70.5t-70.5 -30.5q-32 0 -53.5 20.5t-21.5 52.5q0 40 31 70.5t71 30.5zM474 966q-20 0 -36 -13.5t-19 -33.5t8.5 -33.5t31.5 -13.5
q19 0 35 14t19 33t-8.5 33t-30.5 14z" />
    <glyph glyph-name="AE" unicode="&#xc6;" horiz-adv-x="942" 
d="M519 248h-323l-137 -248h-54l423 754h329l10 -45h-311l69 -274h303l12 -45h-303l85 -345h312l11 -45h-365zM507 293l-87 355l-198 -355h285z" />
    <glyph glyph-name="Ccedilla" unicode="&#xc7;" horiz-adv-x="739" 
d="M785 666l-10 -66q-36 55 -101 87t-133 32q-158 0 -280 -119.5t-122 -276.5q0 -106 68 -184q91 -104 226 -104q69 0 145 32.5t126 82.5l-11 -66q-128 -94 -266 -94q-144 0 -240 93t-96 236q0 26 5 57q26 163 158 275.5t297 112.5q144 0 234 -98zM437 -42l-133 -141l-35 19
l116 144z" />
    <glyph glyph-name="Egrave" unicode="&#xc8;" horiz-adv-x="507" 
d="M553 709h-312l-43 -274h304l-7 -45h-304l-55 -345h312l-7 -45h-360l119 754h360zM383 865l-5 -35l-131 133h71z" />
    <glyph glyph-name="Eacute" unicode="&#xc9;" horiz-adv-x="507" 
d="M553 709h-312l-43 -274h304l-7 -45h-304l-55 -345h312l-7 -45h-360l119 754h360zM438 963h71l-131 -133l-5 35z" />
    <glyph glyph-name="Ecircumflex" unicode="&#xca;" horiz-adv-x="507" 
d="M553 709h-312l-43 -274h304l-7 -45h-304l-55 -345h312l-7 -45h-360l119 754h360zM269 815l127 85l98 -85l-26 -24l-80 60l-102 -60z" />
    <glyph glyph-name="Edieresis" unicode="&#xcb;" horiz-adv-x="507" 
d="M553 709h-312l-43 -274h304l-7 -45h-304l-55 -345h312l-7 -45h-360l119 754h360zM313 966q16 0 25.5 -12t7.5 -28q-6 -40 -46 -40q-16 0 -26 12t-8 28q2 17 16 28.5t31 11.5zM500 966q16 0 25.5 -12t7.5 -28q-6 -40 -46 -40q-16 0 -26 12t-8 28q2 17 16 28.5t31 11.5z
" />
    <glyph glyph-name="Igrave" unicode="&#xcc;" horiz-adv-x="210" 
d="M248 754l-119 -754h-48l119 754h48zM229 855l-5 -35l-131 133h71z" />
    <glyph glyph-name="Iacute" unicode="&#xcd;" horiz-adv-x="210" 
d="M248 754l-119 -754h-48l119 754h48zM284 953h71l-131 -133l-5 35z" />
    <glyph glyph-name="Icircumflex" unicode="&#xce;" horiz-adv-x="210" 
d="M248 754l-119 -754h-48l119 754h48zM106 880l155 106l121 -106l-42 -29l-88 77l-114 -77z" />
    <glyph glyph-name="Idieresis" unicode="&#xcf;" horiz-adv-x="210" 
d="M248 754l-119 -754h-48l119 754h48zM165 966q16 0 25.5 -12t7.5 -28q-6 -40 -46 -40q-16 0 -26 12t-8 28q2 17 16 28.5t31 11.5zM352 966q16 0 25.5 -12t7.5 -28q-6 -40 -46 -40q-16 0 -26 12t-8 28q2 17 16 28.5t31 11.5z" />
    <glyph glyph-name="Eth" unicode="&#xd0;" horiz-adv-x="652" 
d="M241 709l-43 -275h173l-7 -45h-173l-55 -344h87q162 0 268 91q65 56 103.5 134.5t38.5 161.5q0 135 -87 208q-81 69 -218 69h-87zM81 0l62 389h-81l7 45h81l50 320h136q155 0 247 -78q99 -83 99 -235q0 -98 -44 -187.5t-121 -153.5q-120 -100 -300 -100h-136z" />
    <glyph glyph-name="Ntilde" unicode="&#xd1;" horiz-adv-x="843" 
d="M881 754l-123 -779l-526 673l-103 -648h-48l121 764l527 -668l104 658h48zM446 878v0l-27 22q36 64 88 64q21 0 66.5 -19.5t60.5 -19.5q35 0 55 41l25 -22q-11 -27 -37 -46t-54 -19q-19 0 -62.5 20t-64.5 20q-30 0 -50 -41z" />
    <glyph glyph-name="Ograve" unicode="&#xd2;" horiz-adv-x="854" 
d="M548 764q145 0 240 -92.5t95 -236.5q0 -26 -5 -58q-25 -162 -157 -274.5t-296 -112.5q-145 0 -239.5 92t-94.5 236q0 27 5 59q25 163 156 275t296 112zM541 719q-161 0 -281 -117t-120 -277q0 -129 82 -209.5t211 -80.5q160 0 280.5 117t120.5 277q0 128 -82.5 209
t-210.5 81zM553 865l-5 -35l-131 133h71z" />
    <glyph glyph-name="Oacute" unicode="&#xd3;" horiz-adv-x="854" 
d="M548 764q145 0 240 -92.5t95 -236.5q0 -26 -5 -58q-25 -162 -157 -274.5t-296 -112.5q-145 0 -239.5 92t-94.5 236q0 27 5 59q25 163 156 275t296 112zM541 719q-161 0 -281 -117t-120 -277q0 -129 82 -209.5t211 -80.5q160 0 280.5 117t120.5 277q0 128 -82.5 209
t-210.5 81zM608 963h71l-131 -133l-5 35z" />
    <glyph glyph-name="Ocircumflex" unicode="&#xd4;" horiz-adv-x="854" 
d="M548 764q145 0 240 -92.5t95 -236.5q0 -26 -5 -58q-25 -162 -157 -274.5t-296 -112.5q-145 0 -239.5 92t-94.5 236q0 27 5 59q25 163 156 275t296 112zM541 719q-161 0 -281 -117t-120 -277q0 -129 82 -209.5t211 -80.5q160 0 280.5 117t120.5 277q0 128 -82.5 209
t-210.5 81zM438 815l127 85l98 -85l-26 -24l-80 60l-102 -60z" />
    <glyph glyph-name="Otilde" unicode="&#xd5;" horiz-adv-x="854" 
d="M548 764q145 0 240 -92.5t95 -236.5q0 -26 -5 -58q-25 -162 -157 -274.5t-296 -112.5q-145 0 -239.5 92t-94.5 236q0 27 5 59q25 163 156 275t296 112zM541 719q-161 0 -281 -117t-120 -277q0 -129 82 -209.5t211 -80.5q160 0 280.5 117t120.5 277q0 128 -82.5 209
t-210.5 81zM456 829l-17 18q47 49 90 50q15 0 50 -15t42 -15q27 1 57 31l14 -17q-41 -51 -93 -51q-13 0 -46 15.5t-46 15.5q-26 -1 -51 -32z" />
    <glyph glyph-name="Odieresis" unicode="&#xd6;" horiz-adv-x="854" 
d="M548 764q144 0 239 -92t95 -236q0 -193 -163 -332q-134 -114 -294 -114q-144 0 -239 92t-95 236q0 192 164 332q133 114 293 114zM541 719q-159 0 -280 -117.5t-121 -276.5q0 -128 82.5 -209t210.5 -81q159 0 280 118t121 276q0 127 -83 208.5t-210 81.5zM487 966
q16 0 25.5 -12t7.5 -28q-6 -40 -46 -40q-16 0 -26 12t-8 28q2 17 16 28.5t31 11.5zM674 966q16 0 25.5 -12t7.5 -28q-6 -40 -46 -40q-16 0 -26 12t-8 28q2 17 16 28.5t31 11.5z" />
    <glyph glyph-name="multiply" unicode="&#xd7;" 
d="M320 256l-190 222l35 34l190 -226l262 226l25 -34l-259 -222l188 -224l-35 -32l-190 225l-261 -225l-26 32z" />
    <glyph glyph-name="Oslash" unicode="&#xd8;" horiz-adv-x="854" 
d="M193 154l554 483q-86 82 -206 82q-158 0 -279.5 -117t-121.5 -274q0 -99 53 -174zM772 608l-554 -484q88 -89 215 -89q158 0 279.5 117.5t121.5 274.5q0 105 -62 181zM892 760l26 -30l-105 -90q69 -86 69 -206q0 -179 -138.5 -311.5t-318.5 -132.5q-145 0 -246 101l-1 1
l-105 -92l-22 29l101 93q-61 84 -61 198q0 179 138.5 311.5t318.5 132.5q140 0 239 -95z" />
    <glyph glyph-name="Ugrave" unicode="&#xd9;" horiz-adv-x="660" 
d="M585 298l72 456h48l-74 -470q-12 -78 -23 -109q-19 -55 -61 -97q-88 -88 -219 -88t-191 88q-30 44 -30 103q0 27 12 103l74 470h48l-72 -456q-11 -70 -11 -104q0 -103 88 -141q42 -18 90 -18q49 0 97 19q52 20 83 54q47 51 69 190zM451 825l-5 -35l-131 133h71z" />
    <glyph glyph-name="Uacute" unicode="&#xda;" horiz-adv-x="660" 
d="M585 298l72 456h48l-74 -470q-12 -78 -23 -109q-19 -55 -61 -97q-88 -88 -219 -88t-191 88q-30 44 -30 103q0 27 12 103l74 470h48l-72 -456q-11 -70 -11 -104q0 -103 88 -141q42 -18 90 -18q49 0 97 19q52 20 83 54q47 51 69 190zM508 924h71l-131 -133l-5 35z" />
    <glyph glyph-name="Ucircumflex" unicode="&#xdb;" horiz-adv-x="660" 
d="M585 298l72 456h48l-74 -470q-12 -74 -23 -109q-18 -54 -61 -97q-89 -88 -219 -88q-131 0 -191 88q-29 42 -29 104q0 32 11 102l74 470h48l-72 -456q-11 -70 -11 -104q0 -102 88 -140q44 -19 90 -19q48 0 98.5 20t81.5 53q47 50 69 190zM331 880l155 106l121 -106
l-42 -29l-88 77l-114 -77z" />
    <glyph glyph-name="Udieresis" unicode="&#xdc;" horiz-adv-x="660" 
d="M585 298l72 456h48l-74 -470q-12 -74 -23 -109q-18 -54 -61 -97q-89 -88 -219 -88q-131 0 -191 88q-29 42 -29 104q0 32 11 102l74 470h48l-72 -456q-11 -70 -11 -104q0 -102 88 -140q44 -19 90 -19q48 0 98.5 20t81.5 53q47 50 69 190zM390 966q16 0 25.5 -12t7.5 -28
q-6 -40 -46 -40q-16 0 -26 12t-8 28q2 17 16 28.5t31 11.5zM577 966q16 0 25.5 -12t7.5 -28q-6 -40 -46 -40q-16 0 -26 12t-8 28q2 17 16 28.5t31 11.5z" />
    <glyph glyph-name="Yacute" unicode="&#xdd;" horiz-adv-x="559" 
d="M306 322l-183 432h53l162 -382l282 382h53l-319 -432l-51 -322h-48zM460 913h71l-131 -133l-5 35z" />
    <glyph glyph-name="Thorn" unicode="&#xde;" horiz-adv-x="472" 
d="M81 0l119 754h48l-25 -160h85q202 0 202 -163q0 -52 -24 -103t-65 -82q-64 -48 -176 -48h-85l-31 -198h-48zM167 243h87q87 0 139 41q69 55 69 140q0 125 -167 125h-79z" />
    <glyph glyph-name="germandbls" unicode="&#xdf;" horiz-adv-x="534" 
d="M77 0l67 420h-49l6 42h49l30 188q30 188 197 188q60 0 97.5 -36.5t37.5 -96.5q0 -55 -30 -101t-81 -64l-1 -2q70 -20 111 -83q38 -58 38 -134q0 -128 -94.5 -221.5t-224.5 -105.5l7 42q109 16 186 93q81 82 81 189q0 84 -55 137q-52 50 -137 59l7 42q64 1 106 41.5
t42 103.5q0 44 -29.5 69.5t-74.5 25.5q-68 0 -104 -48q-24 -33 -37 -114l-100 -634h-45z" />
    <glyph glyph-name="agrave" unicode="&#xe0;" horiz-adv-x="560" 
d="M324 430q-90 0 -151.5 -70.5t-61.5 -162.5q0 -72 40 -117q42 -48 113 -48q95 0 158 75q60 70 60 167q0 71 -43.5 113.5t-114.5 42.5zM556 462l-73 -462h-45l13 83h-2q-31 -43 -83.5 -68t-107.5 -25q-90 0 -141.5 54t-51.5 144q0 20 4 46q16 105 88 171.5t176 66.5
q118 0 163 -90h2l13 80h45zM338 581l-5 -35l-131 133h71z" />
    <glyph glyph-name="aacute" unicode="&#xe1;" horiz-adv-x="560" 
d="M324 430q-90 0 -151.5 -70.5t-61.5 -162.5q0 -72 40 -117q42 -48 113 -48q95 0 158 75q60 70 60 167q0 71 -43.5 113.5t-114.5 42.5zM556 462l-73 -462h-45l13 83h-2q-31 -43 -83.5 -68t-107.5 -25q-90 0 -141.5 54t-51.5 144q0 20 4 46q16 105 88 171.5t176 66.5
q118 0 163 -90h2l13 80h45zM393 679h71l-131 -133l-5 35z" />
    <glyph glyph-name="acircumflex" unicode="&#xe2;" horiz-adv-x="560" 
d="M324 430q-90 0 -151.5 -70.5t-61.5 -162.5q0 -72 40 -117q42 -48 113 -48q95 0 158 75q60 70 60 167q0 71 -43.5 113.5t-114.5 42.5zM556 462l-73 -462h-45l13 83h-2q-31 -43 -83.5 -68t-107.5 -25q-90 0 -141.5 54t-51.5 144q0 20 4 46q16 105 88 171.5t176 66.5
q118 0 163 -90h2l13 80h45zM220 536l127 85l98 -85l-26 -24l-80 60l-102 -60z" />
    <glyph glyph-name="atilde" unicode="&#xe3;" horiz-adv-x="560" 
d="M324 430q-90 0 -151.5 -70.5t-61.5 -162.5q0 -72 40 -117q42 -48 113 -48q95 0 158 75q60 70 60 167q0 71 -43.5 113.5t-114.5 42.5zM556 462l-73 -462h-45l13 83h-2q-31 -43 -83.5 -68t-107.5 -25q-90 0 -141.5 54t-51.5 144q0 20 4 46q16 105 88 171.5t176 66.5
q118 0 163 -90h2l13 80h45zM239 545l-17 18q47 49 90 50q15 0 50 -15t42 -15q27 1 57 31l14 -17q-41 -51 -93 -51q-13 0 -46 15.5t-46 15.5q-26 -1 -51 -32z" />
    <glyph glyph-name="adieresis" unicode="&#xe4;" horiz-adv-x="560" 
d="M324 430q-90 0 -153 -73q-60 -69 -60 -160q0 -71 41.5 -118t111.5 -47q95 0 158 75q60 70 60 167q0 71 -43.5 113.5t-114.5 42.5zM556 462l-73 -462h-45l13 83h-2q-31 -43 -83.5 -68t-107.5 -25q-88 0 -140.5 54.5t-52.5 143.5q0 20 4 46q16 105 88 171.5t176 66.5
q117 0 164 -90h2l12 80h45zM294 674q16 0 25.5 -12t7.5 -28q-6 -40 -46 -40q-16 0 -26 12t-8 28q2 17 16 28.5t31 11.5zM481 674q16 0 25.5 -12t7.5 -28q-6 -40 -46 -40q-16 0 -26 12t-8 28q2 17 16 28.5t31 11.5z" />
    <glyph glyph-name="aring" unicode="&#xe5;" horiz-adv-x="560" 
d="M324 430q-90 0 -153 -73q-60 -69 -60 -160q0 -71 41.5 -118t111.5 -47q95 0 158 75q60 70 60 167q0 71 -43.5 113.5t-114.5 42.5zM556 462l-73 -462h-45l13 83h-2q-31 -43 -83.5 -68t-107.5 -25q-88 0 -140.5 54.5t-52.5 143.5q0 20 4 46q16 105 88 171.5t176 66.5
q117 0 164 -90h2l12 80h45zM393 714q32 0 53 -20.5t21 -52.5q0 -40 -30.5 -70.5t-70.5 -30.5q-32 0 -53.5 20.5t-21.5 52.5q0 40 31 70.5t71 30.5zM387 674q-20 0 -36 -13.5t-19 -33.5t8.5 -33.5t31.5 -13.5q19 0 35 14t19 33t-8.5 33t-30.5 14z" />
    <glyph glyph-name="ae" unicode="&#xe6;" horiz-adv-x="849" 
d="M458 268h356q2 67 -40.5 114.5t-109.5 47.5q-70 0 -129.5 -47t-76.5 -115zM260 237q-62 0 -107 -21q-57 -27 -66 -81q-1 -6 -1 -17q0 -86 136 -86q65 0 113 27q59 32 59 92q0 45 -47 68q-37 18 -87 18zM785 136l34 -26q-95 -120 -225 -120q-59 0 -105 29q-50 31 -66 85
h-2q-23 -58 -87 -88q-54 -26 -123 -26q-66 0 -113 28q-57 33 -57 95q0 15 1 21q11 71 84 111q61 34 140 34q92 0 141 -49q5 29 5 55q0 145 -137 145q-65 0 -162 -42l8 46q80 38 170 38q135 0 160 -128q34 56 93.5 92t123.5 36q88 0 138 -56t50 -145q0 -22 -3 -45h-401
q-2 -15 -2 -30q0 -72 41 -118t112 -46q106 0 182 104z" />
    <glyph glyph-name="ccedilla" unicode="&#xe7;" horiz-adv-x="477" 
d="M497 415l-10 -60q-57 75 -151 75q-92 0 -158.5 -69t-66.5 -161q0 -72 44.5 -120t116.5 -48q102 0 183 83l-9 -61q-84 -64 -179 -64q-89 0 -145.5 55.5t-56.5 144.5q0 18 4 42q17 103 94.5 171.5t181.5 68.5q94 0 152 -57zM306 -42l-133 -141l-35 19l116 144z" />
    <glyph glyph-name="egrave" unicode="&#xe8;" horiz-adv-x="510" 
d="M514 227h-401q-4 -22 -4 -42q0 -71 43.5 -112t114.5 -41q107 0 180 105l34 -22q-84 -125 -227 -125q-87 0 -138 54.5t-51 142.5q0 20 4 45q16 100 88 168q75 72 174 72q87 0 137 -53.5t50 -141.5q0 -25 -4 -50zM120 269h356q2 70 -40 115.5t-111 45.5q-71 0 -130 -46
t-75 -115zM336 581l-5 -35l-131 133h71z" />
    <glyph glyph-name="eacute" unicode="&#xe9;" horiz-adv-x="510" 
d="M514 227h-401q-4 -22 -4 -42q0 -71 43.5 -112t114.5 -41q107 0 180 105l34 -22q-84 -125 -227 -125q-87 0 -138 54.5t-51 142.5q0 20 4 45q16 100 88 168q75 72 174 72q87 0 137 -53.5t50 -141.5q0 -25 -4 -50zM120 269h356q2 70 -40 115.5t-111 45.5q-71 0 -130 -46
t-75 -115zM391 679h71l-131 -133l-5 35z" />
    <glyph glyph-name="ecircumflex" unicode="&#xea;" horiz-adv-x="510" 
d="M514 227h-401q-4 -22 -4 -42q0 -71 43.5 -112t114.5 -41q107 0 180 105l34 -22q-84 -125 -227 -125q-87 0 -138 54.5t-51 142.5q0 20 4 45q16 100 88 168q75 72 174 72q87 0 137 -53.5t50 -141.5q0 -25 -4 -50zM120 269h356q2 70 -40 115.5t-111 45.5q-71 0 -130 -46
t-75 -115zM220 536l127 85l98 -85l-26 -24l-80 60l-102 -60z" />
    <glyph glyph-name="edieresis" unicode="&#xeb;" horiz-adv-x="510" 
d="M514 227h-401q-4 -21 -4 -42q0 -70 44 -111.5t114 -41.5q107 0 180 105l34 -22q-85 -125 -227 -125q-87 0 -138 54.5t-51 142.5q0 115 76 200t190 85q87 0 137 -53.5t50 -141.5q0 -25 -4 -50zM120 269h356q2 69 -40 115t-111 46q-71 0 -130 -46t-75 -115zM269 674
q16 0 25.5 -12t7.5 -28q-6 -40 -46 -40q-16 0 -26 12t-8 28q2 17 16 28.5t31 11.5zM456 674q16 0 25.5 -12t7.5 -28q-6 -40 -46 -40q-16 0 -26 12t-8 28q2 17 16 28.5t31 11.5z" />
    <glyph glyph-name="igrave" unicode="&#xec;" horiz-adv-x="234" 
d="M212 462l-73 -462h-45l73 462h45zM193 566l-5 -35l-131 133h71z" />
    <glyph glyph-name="iacute" unicode="&#xed;" horiz-adv-x="234" 
d="M212 462l-73 -462h-45l73 462h45zM248 664h71l-131 -133l-5 35z" />
    <glyph glyph-name="icircumflex" unicode="&#xee;" horiz-adv-x="234" 
d="M212 462l-73 -462h-45l73 462h45zM72 588l155 106l121 -106l-42 -29l-88 77l-114 -77z" />
    <glyph glyph-name="idieresis" unicode="&#xef;" horiz-adv-x="234" 
d="M212 462l-73 -462h-45l73 462h45zM131 674q16 0 25.5 -12t7.5 -28q-6 -40 -46 -40q-16 0 -26 12t-8 28q2 17 16 28.5t31 11.5zM318 674q16 0 25.5 -12t7.5 -28q-6 -40 -46 -40q-16 0 -26 12t-8 28q2 17 16 28.5t31 11.5z" />
    <glyph glyph-name="eth" unicode="&#xf0;" horiz-adv-x="547" 
d="M280 32q83 0 146 57.5t75 140.5q4 27 4 46q0 75 -43 114.5t-119 39.5q-92 0 -159 -69.5t-67 -161.5q0 -73 45.5 -120t117.5 -47zM362 667l-175 -114l-21 34l167 109q-47 51 -131 100l37 29q71 -42 136 -102l154 102l20 -32l-146 -96q69 -65 111 -170q41 -101 41 -199
q0 -43 -7 -88q-16 -104 -91 -175q-78 -75 -181 -75q-90 0 -147.5 57t-57.5 146q0 113 84.5 196t197.5 83q79 0 142 -52l2 2q-43 153 -135 245z" />
    <glyph glyph-name="ntilde" unicode="&#xf1;" horiz-adv-x="490" 
d="M195 462l-11 -72h2q56 82 150 82q127 0 127 -126q0 -29 -6 -67l-44 -279h-45l44 279q6 38 6 63q0 88 -93 88q-135 0 -167 -202l-36 -228h-45l73 462h45zM224 586v0l-27 22q36 64 88 64q21 0 66.5 -19.5t60.5 -19.5q35 0 55 41l25 -22q-11 -27 -37 -46t-54 -19
q-19 0 -62.5 20t-64.5 20q-30 0 -50 -41z" />
    <glyph glyph-name="ograve" unicode="&#xf2;" horiz-adv-x="547" 
d="M347 472q92 0 150 -54.5t58 -146.5q0 -126 -100 -211q-82 -70 -185 -70q-90 0 -147.5 57t-57.5 146q0 114 84 196.5t198 82.5zM337 430q-94 0 -160 -68.5t-66 -162.5q0 -73 45 -120t118 -47q88 0 153.5 56t78.5 142q3 20 3 33q0 77 -47.5 122t-124.5 45zM352 581l-5 -35
l-131 133h71z" />
    <glyph glyph-name="oacute" unicode="&#xf3;" horiz-adv-x="547" 
d="M347 472q92 0 150 -54.5t58 -146.5q0 -126 -100 -211q-82 -70 -185 -70q-90 0 -147.5 57t-57.5 146q0 114 84 196.5t198 82.5zM337 430q-94 0 -160 -68.5t-66 -162.5q0 -73 45 -120t118 -47q88 0 153.5 56t78.5 142q3 20 3 33q0 77 -47.5 122t-124.5 45zM407 679h71
l-131 -133l-5 35z" />
    <glyph glyph-name="ocircumflex" unicode="&#xf4;" horiz-adv-x="547" 
d="M347 472q92 0 150 -54.5t58 -146.5q0 -126 -100 -211q-82 -70 -185 -70q-90 0 -147.5 57t-57.5 146q0 114 84 196.5t198 82.5zM337 430q-94 0 -160 -68.5t-66 -162.5q0 -73 45 -120t118 -47q88 0 153.5 56t78.5 142q3 20 3 33q0 77 -47.5 122t-124.5 45zM237 536l127 85
l98 -85l-26 -24l-80 60l-102 -60z" />
    <glyph glyph-name="otilde" unicode="&#xf5;" horiz-adv-x="547" 
d="M255 545l-17 18q47 49 90 50q15 0 50 -15t42 -15q27 1 57 31l14 -17q-41 -51 -93 -51q-13 0 -46 15.5t-46 15.5q-26 -1 -51 -32zM347 472q92 0 150 -54.5t58 -146.5q0 -126 -100 -211q-82 -70 -185 -70q-90 0 -147.5 57t-57.5 146q0 114 84 196.5t198 82.5zM337 430
q-94 0 -160 -68.5t-66 -162.5q0 -73 45 -120t118 -47q88 0 153.5 56t78.5 142q3 20 3 33q0 77 -47.5 122t-124.5 45z" />
    <glyph glyph-name="odieresis" unicode="&#xf6;" horiz-adv-x="547" 
d="M347 472q91 0 149.5 -55t58.5 -146q0 -124 -101 -211q-82 -70 -184 -70q-90 0 -147.5 57t-57.5 146q0 113 84.5 196t197.5 83zM337 430q-92 0 -159 -69.5t-67 -161.5q0 -73 45.5 -120t117.5 -47q96 0 165.5 68t69.5 164q0 76 -47.5 121t-124.5 45zM287 674q16 0 25.5 -12
t7.5 -28q-6 -40 -46 -40q-16 0 -26 12t-8 28q2 17 16 28.5t31 11.5zM474 674q16 0 25.5 -12t7.5 -28q-6 -40 -46 -40q-16 0 -26 12t-8 28q2 17 16 28.5t31 11.5z" />
    <glyph glyph-name="divide" unicode="&#xf7;" 
d="M91 232l7 48h512l-7 -48h-512zM323 82q17 0 27 -12t7 -29q-7 -41 -47 -41q-17 0 -27 12t-8 29t16.5 29t31.5 12zM391 512q17 0 27 -12t8 -29t-16.5 -29t-31.5 -12t-27 12t-7 29q7 41 47 41z" />
    <glyph glyph-name="oslash" unicode="&#xf8;" horiz-adv-x="547" 
d="M494 418l70 62l23 -29l-69 -59q37 -50 37 -121q0 -117 -84 -199t-201 -82q-90 0 -149 61l-71 -61l-22 27l70 61q-32 47 -32 115q0 113 84 196t197 83q88 0 147 -54zM136 109l319 279q-47 42 -117 42q-91 0 -159 -68t-68 -159q0 -54 25 -94zM479 362l-321 -282
q46 -48 117 -48q87 0 152.5 56t78.5 142q3 20 3 35q0 55 -30 97z" />
    <glyph glyph-name="ugrave" unicode="&#xf9;" horiz-adv-x="472" 
d="M430 462h45l-44 -277q-8 -49 -14 -70q-11 -36 -35 -63q-56 -62 -148 -62q-90 0 -128 62q-15 25 -15 61q0 22 8 72l44 277h45l-41 -261q-7 -45 -7 -70q0 -99 101 -99q74 0 109 50q26 38 39 119zM311 547l-5 -35l-131 133h71z" />
    <glyph glyph-name="uacute" unicode="&#xfa;" horiz-adv-x="472" 
d="M430 462h45l-44 -277q-8 -49 -14 -70q-11 -36 -35 -63q-56 -62 -148 -62q-90 0 -128 62q-15 25 -15 61q0 22 8 72l44 277h45l-41 -261q-7 -45 -7 -70q0 -99 101 -99q74 0 109 50q26 38 39 119zM366 645h71l-131 -133l-5 35z" />
    <glyph glyph-name="ucircumflex" unicode="&#xfb;" horiz-adv-x="472" 
d="M430 462h45l-44 -277q-8 -52 -14 -70q-19 -61 -70 -94q-47 -31 -113 -31q-91 0 -128 62q-15 25 -15 61q0 22 8 72l44 277h45l-41 -261q-7 -45 -7 -70q0 -99 101 -99q74 0 109 50q26 38 39 119zM191 588l155 106l121 -106l-42 -29l-88 77l-114 -77z" />
    <glyph glyph-name="udieresis" unicode="&#xfc;" horiz-adv-x="472" 
d="M430 462h45l-44 -277q-8 -52 -14 -70q-19 -61 -70 -94q-47 -31 -113 -31q-91 0 -128 62q-15 25 -15 61q0 22 8 72l44 277h45l-41 -261q-7 -45 -7 -70q0 -99 101 -99q74 0 109 50q26 38 39 119zM250 674q16 0 25.5 -12t7.5 -28q-6 -40 -46 -40q-16 0 -26 12t-8 28
q2 17 16 28.5t31 11.5zM437 674q16 0 25.5 -12t7.5 -28q-6 -40 -46 -40q-16 0 -26 12t-8 28q2 17 16 28.5t31 11.5z" />
    <glyph glyph-name="yacute" unicode="&#xfd;" horiz-adv-x="460" 
d="M214 -8l-148 470h47l131 -418l243 418h46l-426 -732h-46zM354 635h71l-131 -133l-5 35z" />
    <glyph glyph-name="thorn" unicode="&#xfe;" horiz-adv-x="560" 
d="M369 430q-93 0 -157 -77q-61 -72 -61 -167q0 -71 43 -112.5t114 -41.5q90 0 153 72q61 69 61 160q0 73 -39 118q-42 48 -114 48zM135 80l-56 -350h-45l174 1095h45l-71 -446h2q32 43 84 68t107 25q90 0 141.5 -54t51.5 -144q0 -21 -4 -47q-16 -104 -87 -169
q-73 -68 -177 -68q-120 0 -163 90h-2z" />
    <glyph glyph-name="ydieresis" unicode="&#xff;" horiz-adv-x="460" 
d="M214 -8l-148 470h47l131 -418l243 418h46l-426 -732h-46zM244 674q16 0 25.5 -12t7.5 -28q-6 -40 -46 -40q-16 0 -26 12t-8 28q2 17 16 28.5t31 11.5zM431 674q16 0 25.5 -12t7.5 -28q-6 -40 -46 -40q-16 0 -26 12t-8 28q2 17 16 28.5t31 11.5z" />
    <glyph glyph-name="glyph271" unicode="&#x102;" horiz-adv-x="641" 
d="M525 248h-331l-140 -248h-49l439 779l192 -779h-49zM514 293l-89 364l-206 -364h295zM338 895h37q8 -52 75 -52t92 52h36q-11 -42 -52 -65q-35 -20 -82 -20q-108 0 -106 85z" />
    <glyph glyph-name="glyph272" unicode="&#x103;" horiz-adv-x="560" 
d="M324 430q-90 0 -151.5 -70.5t-61.5 -162.5q0 -72 40 -117q42 -48 113 -48q95 0 158 75q60 70 60 167q0 71 -43.5 113.5t-114.5 42.5zM556 462l-73 -462h-45l13 83h-2q-31 -43 -83.5 -68t-107.5 -25q-90 0 -141.5 54t-51.5 144q0 20 4 46q16 105 88 171.5t176 66.5
q118 0 163 -90h2l13 80h45zM233 607h37q8 -52 75 -52t92 52h36q-11 -42 -52 -65q-35 -20 -82 -20q-108 0 -106 85z" />
    <glyph glyph-name="Cacute" unicode="&#x106;" horiz-adv-x="711" 
d="M785 666l-10 -66q-36 55 -101 87t-133 32q-158 0 -280 -119.5t-122 -276.5q0 -106 68 -184q91 -104 226 -104q69 0 145 32.5t126 82.5l-11 -66q-128 -94 -266 -94q-144 0 -240 93t-96 236q0 26 5 57q26 163 158 275.5t297 112.5q144 0 234 -98zM466 969l58 -19l-147 -145
l-35 17z" />
    <glyph glyph-name="cacute" unicode="&#x107;" horiz-adv-x="441" 
d="M497 415l-10 -60q-57 75 -151 75q-92 0 -158.5 -69t-66.5 -161q0 -72 44.5 -120t116.5 -48q102 0 183 83l-9 -61q-84 -64 -179 -64q-89 0 -145.5 55.5t-56.5 144.5q0 18 4 42q17 103 94.5 171.5t181.5 68.5q94 0 152 -57zM267 714l58 -19l-147 -145l-35 17z" />
    <glyph glyph-name="Ccaron" unicode="&#x10c;" horiz-adv-x="711" 
d="M785 666l-10 -66q-36 55 -101 87t-133 32q-158 0 -280 -119.5t-122 -276.5q0 -106 68 -184q91 -104 226 -104q69 0 145 32.5t126 82.5l-11 -66q-128 -94 -266 -94q-144 0 -240 93t-96 236q0 26 5 57q26 163 158 275.5t297 112.5q144 0 234 -98zM633 921l-154 -107
l-122 107l43 28l88 -76l114 76z" />
    <glyph glyph-name="ccaron" unicode="&#x10d;" horiz-adv-x="441" 
d="M497 415l-10 -60q-57 75 -151 75q-92 0 -158.5 -69t-66.5 -161q0 -72 44.5 -120t116.5 -48q102 0 183 83l-9 -61q-84 -64 -179 -64q-89 0 -145.5 55.5t-56.5 144.5q0 18 4 42q17 103 94.5 171.5t181.5 68.5q94 0 152 -57zM434 666l-154 -107l-122 107l43 28l88 -76
l114 76z" />
    <glyph glyph-name="Dslash" unicode="&#x110;" horiz-adv-x="652" 
d="M241 709l-43 -275h173l-7 -45h-173l-55 -344h87q161 0 268 91q143 122 143 295q0 136 -87 209q-81 69 -219 69h-87zM81 0l62 389h-81l7 45h81l50 320h136q155 0 247 -78q99 -83 99 -235q0 -141 -87 -261t-222 -160q-67 -20 -156 -20h-136z" />
    <glyph glyph-name="dcroat" unicode="&#x111;" horiz-adv-x="560" 
d="M264 32q95 0 158 75q60 70 60 167q0 71 -43.5 113.5t-114.5 42.5q-90 0 -151.5 -70.5t-61.5 -162.5q0 -72 40 -117q42 -48 113 -48zM521 528h-177l6 42h178l41 255h45l-41 -255h45l-6 -42h-46l-83 -528h-45l13 83h-2q-31 -43 -83.5 -68t-107.5 -25q-90 0 -141.5 54
t-51.5 144q0 20 4 46q16 105 88 171.5t176 66.5q118 0 163 -90h2z" />
    <glyph glyph-name="Gbreve" unicode="&#x11e;" horiz-adv-x="767" 
d="M527 363h318q-22 -162 -118 -251q-131 -122 -306 -122q-142 0 -236 92.5t-94 234.5q0 31 4 57q25 164 157 277t298 113q198 0 299 -176l-44 -31q-83 162 -265 162q-157 0 -278.5 -119t-121.5 -275q0 -128 82 -209t210 -81q121 0 235 83q98 72 123 200h-270zM378 929h44
q9 -61 88 -61t108 61h43q-14 -49 -59.5 -77.5t-98.5 -28.5q-52 0 -87 26q-40 29 -38 80z" />
    <glyph glyph-name="gbreve" unicode="&#x11f;" horiz-adv-x="492" 
d="M331 430q-90 0 -153 -73q-60 -69 -60 -160q0 -71 41.5 -118t111.5 -47q95 0 158 75q60 70 60 167q0 71 -43.5 113.5t-114.5 42.5zM563 462l-70 -440q-11 -72 -22 -102q-18 -53 -55 -94q-79 -89 -198 -89q-87 0 -140 43q-58 46 -58 131q0 12 2 24h45q-1 -11 -1 -21
q0 -63 47 -100q44 -35 108 -35q189 0 228 244l9 57h-2q-82 -90 -195 -90q-86 0 -137.5 56t-51.5 143q0 18 4 43q16 103 90.5 171.5t177.5 68.5q107 0 160 -90h2l12 80h45zM178 674h44q9 -61 88 -61t108 61h43q-14 -49 -59.5 -77.5t-98.5 -28.5q-52 0 -87 26q-40 29 -38 80z
" />
    <glyph glyph-name="glyph273" unicode="&#x128;" horiz-adv-x="210" 
d="M248 754l-119 -754h-48l119 754h48zM123 819l-17 18q47 49 90 50q15 0 50 -15t42 -15q27 1 57 31l14 -17q-41 -51 -93 -51q-13 0 -46 15.5t-46 15.5q-26 -1 -51 -32z" />
    <glyph glyph-name="glyph274" unicode="&#x129;" horiz-adv-x="234" 
d="M212 462l-73 -462h-45l73 462h45zM92 521l-17 18q47 49 90 50q15 0 50 -15t42 -15q27 1 57 31l14 -17q-41 -51 -93 -51q-13 0 -46 15.5t-46 15.5q-26 -1 -51 -32z" />
    <glyph glyph-name="Idotaccent" unicode="&#x130;" horiz-adv-x="429" 
d="M248 754l-119 -754h-48l119 754h48zM291 929q16 0 25.5 -12t7.5 -28q-6 -40 -46 -40q-16 0 -26 12t-8 28q2 17 16 28.5t31 11.5z" />
    <glyph glyph-name="dotlessi" unicode="&#x131;" horiz-adv-x="234" 
d="M212 462l-73 -462h-45l73 462h45z" />
    <glyph glyph-name="Lslash" unicode="&#x141;" horiz-adv-x="327" 
d="M198 436l143 94l-9 -56l-143 -95l-53 -334h192l-7 -45h-240l56 355l-90 -60l9 57l90 59l54 343h48z" />
    <glyph glyph-name="lslash" unicode="&#x142;" horiz-adv-x="229" 
d="M207 439l84 57l-9 -54l-84 -58l-61 -384h-45l57 361l-84 -58l9 55l84 58l65 409h45z" />
    <glyph glyph-name="OE" unicode="&#x152;" horiz-adv-x="1193" 
d="M767 0l31 194h-2q-59 -94 -160 -149t-212 -55q-154 0 -252 109q-81 90 -81 218q0 28 5 60q25 163 157.5 275t297.5 112q103 0 185 -54q86 -56 117 -152h2l31 196h360l-7 -45h-312l-43 -274h305l-7 -45h-305l-55 -345h312l-7 -45h-360zM543 719q-159 0 -281 -118
t-122 -276q0 -112 70 -192q86 -98 223 -98q144 0 262 106q135 121 135 289q0 127 -80 208t-207 81z" />
    <glyph glyph-name="oe" unicode="&#x153;" horiz-adv-x="945" 
d="M949 227h-399q-4 -21 -4 -41q0 -67 44 -110.5t111 -43.5q112 0 180 107l34 -23q-82 -126 -225 -126q-65 0 -115 37t-64 99q-39 -61 -103 -98.5t-135 -37.5q-91 0 -149.5 55.5t-58.5 145.5q0 21 3 39q17 103 98 172.5t186 69.5q67 0 119 -35q56 -37 74 -99q33 62 92 98
t129 36q88 0 137.5 -52t49.5 -141q0 -25 -4 -52zM557 269h354q2 69 -40 115t-111 46q-70 0 -128.5 -46.5t-74.5 -114.5zM344 430q-95 0 -164 -68.5t-69 -163.5q0 -70 47.5 -118t117.5 -48q94 0 163 68t69 162q0 73 -45.5 120.5t-118.5 47.5z" />
    <glyph glyph-name="Scedilla" unicode="&#x15e;" horiz-adv-x="656" 
d="M568 658l-38 -28q-42 89 -139 89q-66 0 -116 -48.5t-50 -113.5q0 -43 38 -75q15 -13 77 -48l132 -75q65 -46 65 -118q0 -12 -3 -32q-14 -94 -96 -157q-78 -62 -175 -62q-76 0 -128.5 43.5t-67.5 118.5l45 19q33 -136 161 -136q81 0 148 58t67 138q0 47 -44 83
q-12 10 -85 52l-125 72q-59 34 -59 106q0 11 3 29q14 85 75.5 138t147.5 53q56 0 101.5 -28t65.5 -78zM256 -42l-133 -141l-35 19l116 144z" />
    <glyph glyph-name="scedilla" unicode="&#x15f;" horiz-adv-x="383" 
d="M373 398l-42 -20q-16 52 -73 52q-31 0 -58 -21t-32 -51q-7 -46 42 -68l96 -42q53 -31 53 -89q0 -78 -61 -128q-50 -41 -113 -41q-58 0 -96 32.5t-43 89.5l46 14q14 -94 100 -94q48 0 85 35.5t37 83.5q0 47 -77 76q-54 20 -79 39q-37 28 -37 71q0 58 43.5 96.5t102.5 38.5
q35 0 65.5 -20.5t40.5 -53.5zM159 -42l-133 -141l-35 19l116 144z" />
    <glyph glyph-name="Scaron" unicode="&#x160;" horiz-adv-x="544" 
d="M568 658l-38 -28q-42 89 -139 89q-66 0 -116 -48.5t-50 -113.5q0 -43 38 -75q15 -13 77 -48l132 -75q65 -46 65 -118q0 -12 -3 -32q-14 -94 -96 -157q-78 -62 -175 -62q-76 0 -128.5 43.5t-67.5 118.5l45 19q33 -136 161 -136q81 0 148 58t67 138q0 47 -44 83
q-12 10 -85 52l-125 72q-59 34 -59 106q0 11 3 29q14 85 75.5 138t147.5 53q56 0 101.5 -28t65.5 -78zM561 958l-154 -107l-122 107l43 28l88 -76l114 76z" />
    <glyph glyph-name="scaron" unicode="&#x161;" horiz-adv-x="375" 
d="M373 398l-42 -20q-16 52 -73 52q-31 0 -58 -21t-32 -51q-7 -46 42 -68l96 -42q53 -31 53 -89q0 -78 -61 -128q-50 -41 -113 -41q-58 0 -96 32.5t-43 89.5l46 14q14 -94 100 -94q48 0 85 35.5t37 83.5q0 47 -77 76q-54 20 -79 39q-37 28 -37 71q0 58 43.5 96.5t102.5 38.5
q35 0 65.5 -20.5t40.5 -53.5zM431 666l-154 -107l-122 107l43 28l88 -76l114 76z" />
    <glyph glyph-name="ch903" unicode="&#x168;" horiz-adv-x="660" 
d="M585 298l72 456h48l-74 -470q-12 -78 -23 -109q-19 -55 -61 -97q-88 -88 -219 -88t-191 88q-30 44 -30 103q0 27 12 103l74 470h48l-72 -456q-11 -70 -11 -104q0 -103 88 -141q42 -18 90 -18q49 0 97 19q52 20 83 54q47 51 69 190zM359 819l-17 18q47 49 90 50
q15 0 50 -15t42 -15q27 1 57 31l14 -17q-41 -51 -93 -51q-13 0 -46 15.5t-46 15.5q-26 -1 -51 -32z" />
    <glyph glyph-name="ch904" unicode="&#x169;" horiz-adv-x="472" 
d="M430 462h45l-44 -277q-8 -49 -14 -70q-11 -36 -35 -63q-56 -62 -148 -62q-90 0 -128 62q-15 25 -15 61q0 22 8 72l44 277h45l-41 -261q-7 -45 -7 -70q0 -99 101 -99q74 0 109 50q26 38 39 119zM200 511l-17 18q47 49 90 50q15 0 50 -15t42 -15q27 1 57 31l14 -17
q-41 -51 -93 -51q-13 0 -46 15.5t-46 15.5q-26 -1 -51 -32z" />
    <glyph glyph-name="Ydieresis" unicode="&#x178;" horiz-adv-x="559" 
d="M306 322l-183 432h53l162 -382l282 382h53l-319 -432l-51 -322h-48zM339 966q16 0 25.5 -12t7.5 -28q-6 -40 -46 -40q-16 0 -26 12t-8 28q2 17 16 28.5t31 11.5zM526 966q16 0 25.5 -12t7.5 -28q-6 -40 -46 -40q-16 0 -26 12t-8 28q2 17 16 28.5t31 11.5z" />
    <glyph glyph-name="Zcaron" unicode="&#x17d;" horiz-adv-x="568" 
d="M103 45h447l-7 -45h-531l572 709h-416l7 45h500zM573 958l-154 -107l-122 107l43 28l88 -76l114 76z" />
    <glyph glyph-name="zcaron" unicode="&#x17e;" horiz-adv-x="480" 
d="M105 42h375l-7 -42h-470l445 420h-317l6 42h411zM483 666l-154 -107l-122 107l43 28l88 -76l114 76z" />
    <glyph glyph-name="florin" unicode="&#x192;" 
d="M446 486h116l-16 -45h-115l-132 -380q-35 -100 -55 -132q-44 -69 -116 -69q-36 0 -77 17l15 42q34 -14 65 -14q48 0 75 41q12 18 35 84l144 411h-69l16 45h68l74 214q23 67 43 92q37 46 102 46q32 0 62 -15l-15 -41q-24 11 -50 11q-50 0 -75 -41q-9 -15 -33 -85z" />
    <glyph glyph-name="glyph277" unicode="&#x1a0;" horiz-adv-x="854" 
d="M541 719q-161 0 -281 -117t-120 -277q0 -129 82 -209.5t211 -80.5q160 0 280.5 117t120.5 277q0 128 -82.5 209t-210.5 81zM775 680q78 29 78 73q0 30 -36 39q-12 3 -49 1q10 13 36 23t41 6q51 -14 51 -61q0 -66 -103 -98q90 -92 90 -227q0 -193 -164 -332
q-135 -114 -294 -114q-145 0 -239.5 92t-94.5 236q0 27 5 59q25 163 156 275t296 112q133 0 227 -84z" />
    <glyph glyph-name="glyph278" unicode="&#x1a1;" horiz-adv-x="547" 
d="M337 430q-94 0 -160 -68.5t-66 -162.5q0 -73 45 -120t118 -47q88 0 153.5 56t78.5 142q3 20 3 33q0 77 -47.5 122t-124.5 45zM440 453l40 4q32 3 32 26q0 17 -20 26q-9 6 -26 10l28 3q14 0 35 -5q20 -11 20 -31q0 -23 -25 -39q-20 -13 -46 -16q77 -58 77 -161
q0 -125 -100 -210q-82 -70 -185 -70q-90 0 -147.5 57t-57.5 146q0 114 84 196.5t198 82.5q50 0 93 -19z" />
    <glyph glyph-name="glyph279" unicode="&#x1af;" horiz-adv-x="660" 
d="M701 726l-70 -442q-13 -80 -23 -109q-20 -56 -61 -97q-88 -88 -219 -88t-191 88q-30 44 -30 103q0 27 12 103l74 470h48l-72 -456q-11 -70 -11 -104q0 -103 88 -141q42 -18 90 -18q49 0 97 19q52 20 83 54q47 51 69 190l72 456l48 -3q35 9 35 30q0 18 -22 28q-9 7 -29 11
l32 4q16 0 38 -6q21 -11 21 -34q0 -55 -79 -58z" />
    <glyph glyph-name="glyph280" unicode="&#x1b0;" horiz-adv-x="472" 
d="M470 434l-39 -249q-8 -49 -14 -70q-11 -36 -35 -63q-56 -62 -148 -62q-90 0 -128 62q-15 25 -15 61q0 22 8 72l44 277h45l-41 -261q-7 -45 -7 -70q0 -99 101 -99q74 0 109 50q26 38 39 119l41 261l44 -5q32 6 32 26q0 17 -20 26q-9 6 -26 10l28 3q14 0 35 -5
q18 -10 18 -31q0 -49 -71 -52z" />
    <glyph glyph-name="circumflex" unicode="&#x2c6;" horiz-adv-x="426" 
d="M168 588l155 106l121 -106l-42 -29l-88 77l-114 -77z" />
    <glyph glyph-name="caron" unicode="&#x2c7;" horiz-adv-x="426" 
d="M456 666l-154 -107l-122 107l43 28l88 -76l114 76z" />
    <glyph glyph-name="breve" unicode="&#x2d8;" horiz-adv-x="434" 
d="M182 674h44q9 -61 88 -61t108 61h43q-14 -49 -59.5 -77.5t-98.5 -28.5q-52 0 -87 26q-40 29 -38 80z" />
    <glyph glyph-name="dotaccent" unicode="&#x2d9;" horiz-adv-x="313" 
d="M264 674q16 0 25.5 -12t7.5 -28q-6 -40 -46 -40q-16 0 -26 12t-8 28q2 17 16 28.5t31 11.5z" />
    <glyph glyph-name="ring" unicode="&#x2da;" horiz-adv-x="324" 
d="M275 714q32 0 53 -20.5t21 -52.5q0 -40 -30.5 -70.5t-70.5 -30.5q-32 0 -53.5 20.5t-21.5 52.5q0 40 31 70.5t71 30.5zM269 674q-20 0 -36 -13.5t-19 -33.5t8.5 -33.5t31.5 -13.5q19 0 35 14t19 33t-8.5 33t-30.5 14z" />
    <glyph glyph-name="ogonek" unicode="&#x2db;" horiz-adv-x="321" 
d="M153 2h43v-2q-95 -62 -95 -118q0 -46 60 -46q20 0 60 12l-17 -44q-32 -9 -53 -9q-38 0 -66 22t-28 59q0 70 96 126z" />
    <glyph glyph-name="tilde" unicode="&#x2dc;" horiz-adv-x="439" 
d="M198 586v0l-27 22q36 64 88 64q21 0 66.5 -19.5t60.5 -19.5q35 0 55 41l25 -22q-11 -27 -37 -46t-54 -19q-19 0 -62.5 20t-64.5 20q-30 0 -50 -41z" />
    <glyph glyph-name="hungarumlaut" unicode="&#x2dd;" horiz-adv-x="446" 
d="M290 714l58 -19l-147 -145l-35 17zM423 714l58 -19l-147 -145l-35 17z" />
    <glyph glyph-name="glyph281" unicode="&#x1ea0;" horiz-adv-x="641" 
d="M525 248h-331l-140 -248h-49l439 779l192 -779h-49zM514 293l-89 364l-206 -364h295zM327 -30q17 0 27.5 -12t7.5 -29t-17 -29t-31 -12t-27 12t-7 29q7 41 47 41z" />
    <glyph glyph-name="glyph282" unicode="&#x1ea1;" horiz-adv-x="560" 
d="M324 430q-90 0 -151.5 -70.5t-61.5 -162.5q0 -72 40 -117q42 -48 113 -48q95 0 158 75q60 70 60 167q0 71 -43.5 113.5t-114.5 42.5zM556 462l-73 -462h-45l13 83h-2q-31 -43 -83.5 -68t-107.5 -25q-90 0 -141.5 54t-51.5 144q0 20 4 46q16 105 88 171.5t176 66.5
q118 0 163 -90h2l13 80h45zM258 -60q17 0 27.5 -12t7.5 -29t-17 -29t-31 -12t-27 12t-7 29q7 41 47 41z" />
    <glyph glyph-name="glyph283" unicode="&#x1ea2;" horiz-adv-x="641" 
d="M525 248h-331l-140 -248h-49l439 779l192 -779h-49zM514 293l-89 364l-206 -364h295zM463 877q-10 -56 -16 -56q-2 0 -3 3q0 4 1 10t0 10l-5 10q0 7 -4 23q-3 6 -3 8q0 4 24 12t31 13q17 9 20 25q3 18 -8 29.5t-29 11.5q-36 0 -44 -46l-1 21q3 25 23.5 44t45.5 19
q24 0 42 -22t14 -46q-7 -41 -61 -56q-7 -2 -27 -13z" />
    <glyph glyph-name="glyph284" unicode="&#x1ea3;" horiz-adv-x="560" 
d="M324 430q-90 0 -151.5 -70.5t-61.5 -162.5q0 -72 40 -117q42 -48 113 -48q95 0 158 75q60 70 60 167q0 71 -43.5 113.5t-114.5 42.5zM556 462l-73 -462h-45l13 83h-2q-31 -43 -83.5 -68t-107.5 -25q-90 0 -141.5 54t-51.5 144q0 20 4 46q16 105 88 171.5t176 66.5
q118 0 163 -90h2l13 80h45zM352 591q-10 -56 -16 -56q-2 0 -3 3q0 4 1 10t0 10l-5 10q0 7 -4 23q-3 6 -3 8q0 4 24 12t31 13q17 9 20 25q3 18 -8 29.5t-29 11.5q-36 0 -44 -46l-1 21q3 25 23.5 44t45.5 19q24 0 42 -22t14 -46q-7 -41 -61 -56q-7 -2 -27 -13z" />
    <glyph glyph-name="glyph285" unicode="&#x1ea4;" horiz-adv-x="641" 
d="M525 248h-331l-140 -248h-49l439 779l192 -779h-49zM514 293l-89 364l-206 -364h295zM324 805l127 85l98 -85l-26 -24l-80 60l-102 -60zM609 974h71l-131 -133l-5 35z" />
    <glyph glyph-name="glyph286" unicode="&#x1ea5;" horiz-adv-x="560" 
d="M324 430q-90 0 -151.5 -70.5t-61.5 -162.5q0 -72 40 -117q42 -48 113 -48q95 0 158 75q60 70 60 167q0 71 -43.5 113.5t-114.5 42.5zM556 457l-73 -457h-45l13 83h-2q-31 -43 -83.5 -68t-107.5 -25q-90 0 -141.5 54t-51.5 144q0 20 4 46q16 105 87.5 169t176.5 64
q121 0 163 -85h2l13 75h45zM220 536l127 85l98 -85l-26 -24l-80 60l-102 -60zM505 705h71l-131 -133l-5 35z" />
    <glyph glyph-name="glyph287" unicode="&#x1ea6;" horiz-adv-x="641" 
d="M525 248h-331l-140 -248h-49l439 779l192 -779h-49zM514 293l-89 364l-206 -364h295zM324 805l127 85l98 -85l-26 -24l-80 60l-102 -60zM330 876l-5 -35l-131 133h71z" />
    <glyph glyph-name="glyph288" unicode="&#x1ea7;" horiz-adv-x="560" 
d="M324 430q-90 0 -151.5 -70.5t-61.5 -162.5q0 -72 40 -117q42 -48 113 -48q95 0 158 75q60 70 60 167q0 71 -43.5 113.5t-114.5 42.5zM556 462l-73 -462h-45l13 83h-2q-31 -43 -83.5 -68t-107.5 -25q-90 0 -141.5 54t-51.5 144q0 20 4 46q16 105 88 171.5t176 66.5
q118 0 163 -90h2l13 80h45zM221 536l127 85l98 -85l-26 -24l-80 60l-102 -60zM227 607l-5 -35l-131 133h71z" />
    <glyph glyph-name="glyph289" unicode="&#x1ea8;" horiz-adv-x="641" 
d="M525 248h-331l-140 -248h-49l439 779l192 -779h-49zM514 293l-89 364l-206 -364h295zM324 805l127 85l98 -85l-26 -24l-80 60l-102 -60zM568 894q-10 -56 -16 -56q-2 0 -3 3q0 4 1 10t0 10l-5 10q0 7 -4 23q-3 6 -3 8q0 4 24 12t31 13q17 9 20 25q3 18 -8 29.5t-29 11.5
q-36 0 -44 -46l-1 21q3 25 23.5 44t45.5 19q24 0 42 -22t14 -46q-7 -41 -61 -56q-7 -2 -27 -13z" />
    <glyph glyph-name="glyph290" unicode="&#x1ea9;" horiz-adv-x="560" 
d="M324 430q-90 0 -151.5 -70.5t-61.5 -162.5q0 -72 40 -117q42 -48 113 -48q95 0 158 75q60 70 60 167q0 71 -43.5 113.5t-114.5 42.5zM556 462l-73 -462h-45l13 83h-2q-31 -43 -83.5 -68t-107.5 -25q-90 0 -141.5 54t-51.5 144q0 20 4 46q16 105 88 171.5t176 66.5
q118 0 163 -90h2l13 80h45zM221 536l127 85l98 -85l-26 -24l-80 60l-102 -60zM465 625q-10 -56 -16 -56q-2 0 -3 3q0 4 1 10t0 10l-5 10q0 7 -4 23q-3 6 -3 8q0 4 24 12t31 13q17 9 20 25q3 18 -8 29.5t-29 11.5q-36 0 -44 -46l-1 21q3 25 23.5 44t45.5 19q24 0 42 -22
t14 -46q-7 -41 -61 -56q-7 -2 -27 -13z" />
    <glyph glyph-name="glyph291" unicode="&#x1eaa;" horiz-adv-x="641" 
d="M525 248h-331l-140 -248h-49l439 779l192 -779h-49zM514 293l-89 364l-206 -364h295zM324 805l127 85l98 -85l-26 -24l-80 60l-102 -60zM342 914l-17 18q47 49 90 50q15 0 50 -15t42 -15q27 1 57 31l14 -17q-41 -51 -93 -51q-13 0 -46 15.5t-46 15.5q-26 -1 -51 -32z" />
    <glyph glyph-name="glyph292" unicode="&#x1eab;" horiz-adv-x="560" 
d="M324 430q-90 0 -151.5 -70.5t-61.5 -162.5q0 -72 40 -117q42 -48 113 -48q95 0 158 75q60 70 60 167q0 71 -43.5 113.5t-114.5 42.5zM556 462l-73 -462h-45l13 83h-2q-31 -43 -83.5 -68t-107.5 -25q-90 0 -141.5 54t-51.5 144q0 20 4 46q16 105 88 171.5t176 66.5
q118 0 163 -90h2l13 80h45zM221 536l127 85l98 -85l-26 -24l-80 60l-102 -60zM239 645l-17 18q47 49 90 50q15 0 50 -15t42 -15q27 1 57 31l14 -17q-41 -51 -93 -51q-13 0 -46 15.5t-46 15.5q-26 -1 -51 -32z" />
    <glyph glyph-name="glyph293" unicode="&#x1eac;" horiz-adv-x="641" 
d="M525 248h-331l-140 -248h-49l439 779l192 -779h-49zM514 293l-89 364l-206 -364h295zM324 805l127 85l98 -85l-26 -24l-80 60l-102 -60zM327 -30q17 0 27.5 -12t7.5 -29t-17 -29t-31 -12t-27 12t-7 29q7 41 47 41z" />
    <glyph glyph-name="glyph294" unicode="&#x1ead;" horiz-adv-x="560" 
d="M324 430q-90 0 -151.5 -70.5t-61.5 -162.5q0 -72 40 -117q42 -48 113 -48q95 0 158 75q60 70 60 167q0 71 -43.5 113.5t-114.5 42.5zM556 462l-73 -462h-45l13 83h-2q-31 -43 -83.5 -68t-107.5 -25q-90 0 -141.5 54t-51.5 144q0 20 4 46q16 105 88 171.5t176 66.5
q118 0 163 -90h2l13 80h45zM220 536l127 85l98 -85l-26 -24l-80 60l-102 -60zM258 -60q17 0 27.5 -12t7.5 -29t-17 -29t-31 -12t-27 12t-7 29q7 41 47 41z" />
    <glyph glyph-name="glyph295" unicode="&#x1eae;" horiz-adv-x="641" 
d="M525 248h-331l-140 -248h-49l439 779l192 -779h-49zM514 293l-89 364l-206 -364h295zM338 895h37q8 -52 75 -52t92 52h36q-11 -42 -52 -65q-35 -20 -82 -20q-108 0 -106 85zM509 1029h71l-131 -133l-5 35z" />
    <glyph glyph-name="glyph296" unicode="&#x1eaf;" horiz-adv-x="560" 
d="M324 430q-90 0 -151.5 -70.5t-61.5 -162.5q0 -72 40 -117q42 -48 113 -48q95 0 158 75q60 70 60 167q0 71 -43.5 113.5t-114.5 42.5zM556 462l-73 -462h-45l13 83h-2q-31 -43 -83.5 -68t-107.5 -25q-90 0 -141.5 54t-51.5 144q0 20 4 46q16 105 88 171.5t176 66.5
q118 0 163 -90h2l13 80h45zM227 607h37q8 -52 75 -52t92 52h36q-11 -42 -52 -65q-35 -20 -82 -20q-108 0 -106 85zM398 751h71l-131 -133l-5 35z" />
    <glyph glyph-name="glyph297" unicode="&#x1eb0;" horiz-adv-x="641" 
d="M525 248h-331l-140 -248h-49l439 779l192 -779h-49zM514 293l-89 364l-206 -364h295zM338 895h37q8 -52 75 -52t92 52h36q-11 -42 -52 -65q-35 -20 -82 -20q-108 0 -106 85zM455 930l-5 -35l-131 133h71z" />
    <glyph glyph-name="glyph298" unicode="&#x1eb1;" horiz-adv-x="560" 
d="M324 430q-90 0 -151.5 -70.5t-61.5 -162.5q0 -72 40 -117q42 -48 113 -48q95 0 158 75q60 70 60 167q0 71 -43.5 113.5t-114.5 42.5zM556 462l-73 -462h-45l13 83h-2q-31 -43 -83.5 -68t-107.5 -25q-90 0 -141.5 54t-51.5 144q0 20 4 46q16 105 88 171.5t176 66.5
q118 0 163 -90h2l13 80h45zM228 607h37q8 -52 75 -52t92 52h36q-11 -42 -52 -65q-35 -20 -82 -20q-108 0 -106 85zM345 652l-5 -35l-131 133h71z" />
    <glyph glyph-name="glyph299" unicode="&#x1eb2;" horiz-adv-x="641" 
d="M525 248h-331l-140 -248h-49l439 779l192 -779h-49zM514 293l-89 364l-206 -364h295zM338 895h37q8 -52 75 -52t92 52h36q-11 -42 -52 -65q-35 -20 -82 -20q-108 0 -106 85zM469 941q-10 -56 -16 -56q-2 0 -3 3q0 4 1 10t0 10l-5 10q0 7 -4 23q-3 6 -3 8q0 4 24 12t31 13
q17 9 20 25q3 18 -8 29.5t-29 11.5q-36 0 -44 -46l-1 21q3 25 23.5 44t45.5 19q24 0 42 -22t14 -46q-7 -41 -61 -56q-7 -2 -27 -13z" />
    <glyph glyph-name="glyph300" unicode="&#x1eb3;" horiz-adv-x="560" 
d="M324 430q-90 0 -151.5 -70.5t-61.5 -162.5q0 -72 40 -117q42 -48 113 -48q95 0 158 75q60 70 60 167q0 71 -43.5 113.5t-114.5 42.5zM556 462l-73 -462h-45l13 83h-2q-31 -43 -83.5 -68t-107.5 -25q-90 0 -141.5 54t-51.5 144q0 20 4 46q16 105 88 171.5t176 66.5
q118 0 163 -90h2l13 80h45zM227 607h37q8 -52 75 -52t92 52h36q-11 -42 -52 -65q-35 -20 -82 -20q-108 0 -106 85zM358 663q-10 -56 -16 -56q-2 0 -3 3q0 4 1 10t0 10l-5 10q0 7 -4 23q-3 6 -3 8q0 4 24 12t31 13q17 9 20 25q3 18 -8 29.5t-29 11.5q-36 0 -44 -46l-1 21
q3 25 23.5 44t45.5 19q24 0 42 -22t14 -46q-7 -41 -61 -56q-7 -2 -27 -13z" />
    <glyph glyph-name="glyph301" unicode="&#x1eb4;" horiz-adv-x="641" 
d="M525 248h-331l-140 -248h-49l439 779l192 -779h-49zM514 293l-89 364l-206 -364h295zM338 895h37q8 -52 75 -52t92 52h36q-11 -42 -52 -65q-35 -20 -82 -20q-108 0 -106 85zM466 925l-17 18q47 49 90 50q15 0 50 -15t42 -15q27 1 57 31l14 -17q-41 -51 -93 -51
q-13 0 -46 15.5t-46 15.5q-26 -1 -51 -32z" />
    <glyph glyph-name="glyph302" unicode="&#x1eb5;" horiz-adv-x="560" 
d="M324 430q-90 0 -151.5 -70.5t-61.5 -162.5q0 -72 40 -117q42 -48 113 -48q95 0 158 75q60 70 60 167q0 71 -43.5 113.5t-114.5 42.5zM556 462l-73 -462h-45l13 83h-2q-31 -43 -83.5 -68t-107.5 -25q-90 0 -141.5 54t-51.5 144q0 20 4 46q16 105 88 171.5t176 66.5
q118 0 163 -90h2l13 80h45zM227 607h37q8 -52 75 -52t92 52h36q-11 -42 -52 -65q-35 -20 -82 -20q-108 0 -106 85zM355 637l-17 18q47 49 90 50q15 0 50 -15t42 -15q27 1 57 31l14 -17q-41 -51 -93 -51q-13 0 -46 15.5t-46 15.5q-26 -1 -51 -32z" />
    <glyph glyph-name="glyph303" unicode="&#x1eb6;" horiz-adv-x="641" 
d="M525 248h-331l-140 -248h-49l439 779l192 -779h-49zM514 293l-89 364l-206 -364h295zM338 895h37q8 -52 75 -52t92 52h36q-11 -42 -52 -65q-35 -20 -82 -20q-108 0 -106 85zM327 -30q17 0 27.5 -12t7.5 -29t-17 -29t-31 -12t-27 12t-7 29q7 41 47 41z" />
    <glyph glyph-name="glyph304" unicode="&#x1eb7;" horiz-adv-x="560" 
d="M324 430q-90 0 -151.5 -70.5t-61.5 -162.5q0 -72 40 -117q42 -48 113 -48q95 0 158 75q60 70 60 167q0 71 -43.5 113.5t-114.5 42.5zM556 462l-73 -462h-45l13 83h-2q-31 -43 -83.5 -68t-107.5 -25q-90 0 -141.5 54t-51.5 144q0 20 4 46q16 105 88 171.5t176 66.5
q118 0 163 -90h2l13 80h45zM258 -60q17 0 27.5 -12t7.5 -29t-17 -29t-31 -12t-27 12t-7 29q7 41 47 41zM227 607h37q8 -52 75 -52t92 52h36q-11 -42 -52 -65q-35 -20 -82 -20q-108 0 -106 85z" />
    <glyph glyph-name="glyph305" unicode="&#x1eb8;" horiz-adv-x="507" 
d="M553 709h-312l-43 -274h304l-7 -45h-304l-55 -345h312l-7 -45h-360l119 754h360zM267 -50q17 0 27.5 -12t7.5 -29t-17 -29t-31 -12t-27 12t-7 29q7 41 47 41z" />
    <glyph glyph-name="glyph306" unicode="&#x1eb9;" horiz-adv-x="510" 
d="M514 227h-401q-4 -22 -4 -42q0 -71 43.5 -112t114.5 -41q107 0 180 105l34 -22q-84 -125 -227 -125q-87 0 -138 54.5t-51 142.5q0 20 4 45q16 100 88 168q75 72 174 72q87 0 137 -53.5t50 -141.5q0 -25 -4 -50zM120 269h356q2 70 -40 115.5t-111 45.5q-71 0 -130 -46
t-75 -115zM253 -60q17 0 27.5 -12t7.5 -29t-17 -29t-31 -12t-27 12t-7 29q7 41 47 41z" />
    <glyph glyph-name="glyph307" unicode="&#x1eba;" horiz-adv-x="507" 
d="M553 709h-312l-43 -274h304l-7 -45h-304l-55 -345h312l-7 -45h-360l119 754h360zM393 876q-10 -56 -16 -56q-2 0 -3 3q0 4 1 10t0 10l-5 10q0 7 -4 23q-3 6 -3 8q0 4 24 12t31 13q17 9 20 25q3 18 -8 29.5t-29 11.5q-36 0 -44 -46l-1 21q3 25 23.5 44t45.5 19
q24 0 42 -22t14 -46q-7 -41 -61 -56q-7 -2 -27 -13z" />
    <glyph glyph-name="glyph308" unicode="&#x1ebb;" horiz-adv-x="510" 
d="M514 227h-401q-4 -22 -4 -42q0 -71 43.5 -112t114.5 -41q107 0 180 105l34 -22q-84 -125 -227 -125q-87 0 -138 54.5t-51 142.5q0 20 4 45q16 100 88 168q75 72 174 72q87 0 137 -53.5t50 -141.5q0 -25 -4 -50zM120 269h356q2 70 -40 115.5t-111 45.5q-71 0 -130 -46
t-75 -115zM350 592q-10 -56 -16 -56q-2 0 -3 3q0 4 1 10t0 10l-5 10q0 7 -4 23q-3 6 -3 8q0 4 24 12t31 13q17 9 20 25q3 18 -8 29.5t-29 11.5q-36 0 -44 -46l-1 21q3 25 23.5 44t45.5 19q24 0 42 -22t14 -46q-7 -41 -61 -56q-7 -2 -27 -13z" />
    <glyph glyph-name="glyph309" unicode="&#x1ebc;" horiz-adv-x="507" 
d="M553 709h-312l-43 -274h304l-7 -45h-304l-55 -345h312l-7 -45h-360l119 754h360zM277 829l-17 18q47 49 90 50q15 0 50 -15t42 -15q27 1 57 31l14 -17q-41 -51 -93 -51q-13 0 -46 15.5t-46 15.5q-26 -1 -51 -32z" />
    <glyph glyph-name="glyph310" unicode="&#x1ebd;" horiz-adv-x="510" 
d="M514 227h-401q-4 -22 -4 -42q0 -71 43.5 -112t114.5 -41q107 0 180 105l34 -22q-84 -125 -227 -125q-87 0 -138 54.5t-51 142.5q0 20 4 45q16 100 88 168q75 72 174 72q87 0 137 -53.5t50 -141.5q0 -25 -4 -50zM120 269h356q2 70 -40 115.5t-111 45.5q-71 0 -130 -46
t-75 -115zM238 545l-17 18q47 49 90 50q15 0 50 -15t42 -15q27 1 57 31l14 -17q-41 -51 -93 -51q-13 0 -46 15.5t-46 15.5q-26 -1 -51 -32z" />
    <glyph glyph-name="glyph311" unicode="&#x1ebe;" horiz-adv-x="507" 
d="M553 709h-312l-43 -274h304l-7 -45h-304l-55 -345h312l-7 -45h-360l119 754h360zM269 815l127 85l98 -85l-26 -24l-80 60l-102 -60zM554 984h71l-131 -133l-5 35z" />
    <glyph glyph-name="glyph312" unicode="&#x1ebf;" horiz-adv-x="510" 
d="M514 227h-401q-4 -22 -4 -42q0 -71 43.5 -112t114.5 -41q107 0 180 105l34 -22q-84 -125 -227 -125q-87 0 -138 54.5t-51 142.5q0 20 4 45q16 100 88 168q75 72 174 72q87 0 137 -53.5t50 -141.5q0 -25 -4 -50zM120 269h356q2 70 -40 115.5t-111 45.5q-71 0 -130 -46
t-75 -115zM220 536l127 85l98 -85l-26 -24l-80 60l-102 -60zM505 705h71l-131 -133l-5 35z" />
    <glyph glyph-name="glyph313" unicode="&#x1ec0;" horiz-adv-x="507" 
d="M553 709h-312l-43 -274h304l-7 -45h-304l-55 -345h312l-7 -45h-360l119 754h360zM269 815l127 85l98 -85l-26 -24l-80 60l-102 -60zM275 886l-5 -35l-131 133h71z" />
    <glyph glyph-name="glyph314" unicode="&#x1ec1;" horiz-adv-x="510" 
d="M514 227h-401q-4 -22 -4 -42q0 -71 43.5 -112t114.5 -41q107 0 180 105l34 -22q-84 -125 -227 -125q-87 0 -138 54.5t-51 142.5q0 20 4 45q16 100 88 168q75 72 174 72q87 0 137 -53.5t50 -141.5q0 -25 -4 -50zM120 269h356q2 70 -40 115.5t-111 45.5q-71 0 -130 -46
t-75 -115zM220 536l127 85l98 -85l-26 -24l-80 60l-102 -60zM226 607l-5 -35l-131 133h71z" />
    <glyph glyph-name="glyph315" unicode="&#x1ec2;" horiz-adv-x="507" 
d="M553 709h-312l-43 -274h304l-7 -45h-304l-55 -345h312l-7 -45h-360l119 754h360zM269 815l127 85l98 -85l-26 -24l-80 60l-102 -60zM513 904q-10 -56 -16 -56q-2 0 -3 3q0 4 1 10t0 10l-5 10q0 7 -4 23q-3 6 -3 8q0 4 24 12t31 13q17 9 20 25q3 18 -8 29.5t-29 11.5
q-36 0 -44 -46l-1 21q3 25 23.5 44t45.5 19q24 0 42 -22t14 -46q-7 -41 -61 -56q-7 -2 -27 -13z" />
    <glyph glyph-name="glyph316" unicode="&#x1ec3;" horiz-adv-x="510" 
d="M514 227h-401q-4 -22 -4 -42q0 -71 43.5 -112t114.5 -41q107 0 180 105l34 -22q-84 -125 -227 -125q-87 0 -138 54.5t-51 142.5q0 20 4 45q16 100 88 168q75 72 174 72q87 0 137 -53.5t50 -141.5q0 -25 -4 -50zM120 269h356q2 70 -40 115.5t-111 45.5q-71 0 -130 -46
t-75 -115zM220 536l127 85l98 -85l-26 -24l-80 60l-102 -60zM464 625q-10 -56 -16 -56q-2 0 -3 3q0 4 1 10t0 10l-5 10q0 7 -4 23q-3 6 -3 8q0 4 24 12t31 13q17 9 20 25q3 18 -8 29.5t-29 11.5q-36 0 -44 -46l-1 21q3 25 23.5 44t45.5 19q24 0 42 -22t14 -46
q-7 -41 -61 -56q-7 -2 -27 -13z" />
    <glyph glyph-name="glyph317" unicode="&#x1ec4;" horiz-adv-x="507" 
d="M553 709h-312l-43 -274h304l-7 -45h-304l-55 -345h312l-7 -45h-360l119 754h360zM269 815l127 85l98 -85l-26 -24l-80 60l-102 -60zM287 924l-17 18q47 49 90 50q15 0 50 -15t42 -15q27 1 57 31l14 -17q-41 -51 -93 -51q-13 0 -46 15.5t-46 15.5q-26 -1 -51 -32z" />
    <glyph glyph-name="glyph318" unicode="&#x1ec5;" horiz-adv-x="510" 
d="M514 227h-401q-4 -22 -4 -42q0 -71 43.5 -112t114.5 -41q107 0 180 105l34 -22q-84 -125 -227 -125q-87 0 -138 54.5t-51 142.5q0 20 4 45q16 100 88 168q75 72 174 72q87 0 137 -53.5t50 -141.5q0 -25 -4 -50zM120 269h356q2 70 -40 115.5t-111 45.5q-71 0 -130 -46
t-75 -115zM220 536l127 85l98 -85l-26 -24l-80 60l-102 -60zM238 645l-17 18q47 49 90 50q15 0 50 -15t42 -15q27 1 57 31l14 -17q-41 -51 -93 -51q-13 0 -46 15.5t-46 15.5q-26 -1 -51 -32z" />
    <glyph glyph-name="glyph319" unicode="&#x1ec6;" horiz-adv-x="507" 
d="M553 709h-312l-43 -274h304l-7 -45h-304l-55 -345h312l-7 -45h-360l119 754h360zM269 815l127 85l98 -85l-26 -24l-80 60l-102 -60zM267 -50q17 0 27.5 -12t7.5 -29t-17 -29t-31 -12t-27 12t-7 29q7 41 47 41z" />
    <glyph glyph-name="glyph320" unicode="&#x1ec7;" horiz-adv-x="510" 
d="M514 227h-401q-4 -22 -4 -42q0 -71 43.5 -112t114.5 -41q107 0 180 105l34 -22q-84 -125 -227 -125q-87 0 -138 54.5t-51 142.5q0 20 4 45q16 100 88 168q75 72 174 72q87 0 137 -53.5t50 -141.5q0 -25 -4 -50zM120 269h356q2 70 -40 115.5t-111 45.5q-71 0 -130 -46
t-75 -115zM220 536l127 85l98 -85l-26 -24l-80 60l-102 -60zM253 -60q17 0 27.5 -12t7.5 -29t-17 -29t-31 -12t-27 12t-7 29q7 41 47 41z" />
    <glyph glyph-name="glyph321" unicode="&#x1ec8;" horiz-adv-x="210" 
d="M248 754l-119 -754h-48l119 754h48zM239 865q-10 -56 -16 -56q-2 0 -3 3q0 4 1 10t0 10l-5 10q0 7 -4 23q-3 6 -3 8q0 4 24 12t31 13q17 9 20 25q3 18 -8 29.5t-29 11.5q-36 0 -44 -46l-1 21q3 25 23.5 44t45.5 19q24 0 42 -22t14 -46q-7 -41 -61 -56q-7 -2 -27 -13z" />
    <glyph glyph-name="glyph322" unicode="&#x1ec9;" horiz-adv-x="234" 
d="M212 462l-73 -462h-45l73 462h45zM204 577q-10 -56 -16 -56q-2 0 -3 3q0 4 1 10t0 10l-5 10q0 7 -4 23q-3 6 -3 8q0 4 24 12t31 13q17 9 20 25q3 18 -8 29.5t-29 11.5q-36 0 -44 -46l-1 21q3 25 23.5 44t45.5 19q24 0 42 -22t14 -46q-7 -41 -61 -56q-7 -2 -27 -13z" />
    <glyph glyph-name="glyph323" unicode="&#x1eca;" horiz-adv-x="210" 
d="M248 754l-119 -754h-48l119 754h48zM97 -50q17 0 27.5 -12t7.5 -29t-17 -29t-31 -12t-27 12t-7 29q7 41 47 41z" />
    <glyph glyph-name="glyph324" unicode="&#x1ecb;" horiz-adv-x="234" 
d="M212 462l-73 -462h-45l73 462h45zM212 613q17 0 27.5 -12t7.5 -29t-17 -29t-31 -12t-27 12t-7 29q7 41 47 41zM110 -50q17 0 27.5 -12t7.5 -29t-17 -29t-31 -12t-27 12t-7 29q7 41 47 41z" />
    <glyph glyph-name="glyph325" unicode="&#x1ecc;" horiz-adv-x="854" 
d="M548 764q145 0 240 -92.5t95 -236.5q0 -26 -5 -58q-25 -162 -157 -274.5t-296 -112.5q-145 0 -239.5 92t-94.5 236q0 27 5 59q25 163 156 275t296 112zM541 719q-161 0 -281 -117t-120 -277q0 -129 82 -209.5t211 -80.5q160 0 280.5 117t120.5 277q0 128 -82.5 209
t-210.5 81zM425 -60q17 0 27.5 -12t7.5 -29t-17 -29t-31 -12t-27 12t-7 29q7 41 47 41z" />
    <glyph glyph-name="glyph326" unicode="&#x1ecd;" horiz-adv-x="547" 
d="M347 472q92 0 150 -54.5t58 -146.5q0 -126 -100 -211q-82 -70 -185 -70q-90 0 -147.5 57t-57.5 146q0 114 84 196.5t198 82.5zM337 430q-94 0 -160 -68.5t-66 -162.5q0 -73 45 -120t118 -47q88 0 153.5 56t78.5 142q3 20 3 33q0 77 -47.5 122t-124.5 45zM270 -60
q17 0 27.5 -12t7.5 -29t-17 -29t-31 -12t-27 12t-7 29q7 41 47 41z" />
    <glyph glyph-name="glyph327" unicode="&#x1ece;" horiz-adv-x="854" 
d="M548 764q145 0 240 -92.5t95 -236.5q0 -26 -5 -58q-25 -162 -157 -274.5t-296 -112.5q-145 0 -239.5 92t-94.5 236q0 27 5 59q25 163 156 275t296 112zM541 719q-161 0 -281 -117t-120 -277q0 -129 82 -209.5t211 -80.5q160 0 280.5 117t120.5 277q0 128 -82.5 209
t-210.5 81zM567 876q-10 -56 -16 -56q-2 0 -3 3q0 4 1 10t0 10l-5 10q0 7 -4 23q-3 6 -3 8q0 4 24 12t31 13q17 9 20 25q3 18 -8 29.5t-29 11.5q-36 0 -44 -46l-1 21q3 25 23.5 44t45.5 19q24 0 42 -22t14 -46q-7 -41 -61 -56q-7 -2 -27 -13z" />
    <glyph glyph-name="glyph328" unicode="&#x1ecf;" horiz-adv-x="547" 
d="M347 472q92 0 150 -54.5t58 -146.5q0 -126 -100 -211q-82 -70 -185 -70q-90 0 -147.5 57t-57.5 146q0 114 84 196.5t198 82.5zM337 430q-94 0 -160 -68.5t-66 -162.5q0 -73 45 -120t118 -47q88 0 153.5 56t78.5 142q3 20 3 33q0 77 -47.5 122t-124.5 45zM366 592
q-10 -56 -16 -56q-2 0 -3 3q0 4 1 10t0 10l-5 10q0 7 -4 23q-3 6 -3 8q0 4 24 12t31 13q17 9 20 25q3 18 -8 29.5t-29 11.5q-36 0 -44 -46l-1 21q3 25 23.5 44t45.5 19q24 0 42 -22t14 -46q-7 -41 -61 -56q-7 -2 -27 -13z" />
    <glyph glyph-name="glyph329" unicode="&#x1ed0;" horiz-adv-x="854" 
d="M548 764q145 0 240 -92.5t95 -236.5q0 -26 -5 -58q-25 -162 -157 -274.5t-296 -112.5q-145 0 -239.5 92t-94.5 236q0 27 5 59q25 163 156 275t296 112zM541 719q-161 0 -281 -117t-120 -277q0 -129 82 -209.5t211 -80.5q160 0 280.5 117t120.5 277q0 128 -82.5 209
t-210.5 81zM438 815l127 85l98 -85l-26 -24l-80 60l-102 -60zM723 984h71l-131 -133l-5 35z" />
    <glyph glyph-name="glyph330" unicode="&#x1ed1;" horiz-adv-x="547" 
d="M347 472q92 0 150 -54.5t58 -146.5q0 -126 -100 -211q-82 -70 -185 -70q-90 0 -147.5 57t-57.5 146q0 114 84 196.5t198 82.5zM337 430q-94 0 -160 -68.5t-66 -162.5q0 -73 45 -120t118 -47q88 0 153.5 56t78.5 142q3 20 3 33q0 77 -47.5 122t-124.5 45zM237 536l127 85
l98 -85l-26 -24l-80 60l-102 -60zM522 705h71l-131 -133l-5 35z" />
    <glyph glyph-name="glyph331" unicode="&#x1ed2;" horiz-adv-x="854" 
d="M548 764q145 0 240 -92.5t95 -236.5q0 -26 -5 -58q-25 -162 -157 -274.5t-296 -112.5q-145 0 -239.5 92t-94.5 236q0 27 5 59q25 163 156 275t296 112zM541 719q-161 0 -281 -117t-120 -277q0 -129 82 -209.5t211 -80.5q160 0 280.5 117t120.5 277q0 128 -82.5 209
t-210.5 81zM438 815l127 85l98 -85l-26 -24l-80 60l-102 -60zM444 886l-5 -35l-131 133h71z" />
    <glyph glyph-name="glyph332" unicode="&#x1ed3;" horiz-adv-x="547" 
d="M347 472q92 0 150 -54.5t58 -146.5q0 -126 -100 -211q-82 -70 -185 -70q-90 0 -147.5 57t-57.5 146q0 114 84 196.5t198 82.5zM337 430q-94 0 -160 -68.5t-66 -162.5q0 -73 45 -120t118 -47q88 0 153.5 56t78.5 142q3 20 3 33q0 77 -47.5 122t-124.5 45zM237 536l127 85
l98 -85l-26 -24l-80 60l-102 -60zM243 607l-5 -35l-131 133h71z" />
    <glyph glyph-name="glyph333" unicode="&#x1ed4;" horiz-adv-x="854" 
d="M548 764q145 0 240 -92.5t95 -236.5q0 -26 -5 -58q-25 -162 -157 -274.5t-296 -112.5q-145 0 -239.5 92t-94.5 236q0 27 5 59q25 163 156 275t296 112zM541 719q-161 0 -281 -117t-120 -277q0 -129 82 -209.5t211 -80.5q160 0 280.5 117t120.5 277q0 128 -82.5 209
t-210.5 81zM438 815l127 85l98 -85l-26 -24l-80 60l-102 -60zM682 904q-10 -56 -16 -56q-2 0 -3 3q0 4 1 10t0 10l-5 10q0 7 -4 23q-3 6 -3 8q0 4 24 12t31 13q17 9 20 25q3 18 -8 29.5t-29 11.5q-36 0 -44 -46l-1 21q3 25 23.5 44t45.5 19q24 0 42 -22t14 -46
q-7 -41 -61 -56q-7 -2 -27 -13z" />
    <glyph glyph-name="glyph334" unicode="&#x1ed5;" horiz-adv-x="547" 
d="M347 472q92 0 150 -54.5t58 -146.5q0 -126 -100 -211q-82 -70 -185 -70q-90 0 -147.5 57t-57.5 146q0 114 84 196.5t198 82.5zM337 430q-94 0 -160 -68.5t-66 -162.5q0 -73 45 -120t118 -47q88 0 153.5 56t78.5 142q3 20 3 33q0 77 -47.5 122t-124.5 45zM237 536l127 85
l98 -85l-26 -24l-80 60l-102 -60zM481 625q-10 -56 -16 -56q-2 0 -3 3q0 4 1 10t0 10l-5 10q0 7 -4 23q-3 6 -3 8q0 4 24 12t31 13q17 9 20 25q3 18 -8 29.5t-29 11.5q-36 0 -44 -46l-1 21q3 25 23.5 44t45.5 19q24 0 42 -22t14 -46q-7 -41 -61 -56q-7 -2 -27 -13z" />
    <glyph glyph-name="glyph335" unicode="&#x1ed6;" horiz-adv-x="854" 
d="M548 764q145 0 240 -92.5t95 -236.5q0 -26 -5 -58q-25 -162 -157 -274.5t-296 -112.5q-145 0 -239.5 92t-94.5 236q0 27 5 59q25 163 156 275t296 112zM541 719q-161 0 -281 -117t-120 -277q0 -129 82 -209.5t211 -80.5q160 0 280.5 117t120.5 277q0 128 -82.5 209
t-210.5 81zM438 815l127 85l98 -85l-26 -24l-80 60l-102 -60zM456 924l-17 18q47 49 90 50q15 0 50 -15t42 -15q27 1 57 31l14 -17q-41 -51 -93 -51q-13 0 -46 15.5t-46 15.5q-26 -1 -51 -32z" />
    <glyph glyph-name="glyph336" unicode="&#x1ed7;" horiz-adv-x="547" 
d="M347 472q92 0 150 -54.5t58 -146.5q0 -126 -100 -211q-82 -70 -185 -70q-90 0 -147.5 57t-57.5 146q0 114 84 196.5t198 82.5zM337 430q-94 0 -160 -68.5t-66 -162.5q0 -73 45 -120t118 -47q88 0 153.5 56t78.5 142q3 20 3 33q0 77 -47.5 122t-124.5 45zM237 536l127 85
l98 -85l-26 -24l-80 60l-102 -60zM255 645l-17 18q47 49 90 50q15 0 50 -15t42 -15q27 1 57 31l14 -17q-41 -51 -93 -51q-13 0 -46 15.5t-46 15.5q-26 -1 -51 -32z" />
    <glyph glyph-name="glyph337" unicode="&#x1ed8;" horiz-adv-x="854" 
d="M548 764q145 0 240 -92.5t95 -236.5q0 -26 -5 -58q-25 -162 -157 -274.5t-296 -112.5q-145 0 -239.5 92t-94.5 236q0 27 5 59q25 163 156 275t296 112zM541 719q-161 0 -281 -117t-120 -277q0 -129 82 -209.5t211 -80.5q160 0 280.5 117t120.5 277q0 128 -82.5 209
t-210.5 81zM438 815l127 85l98 -85l-26 -24l-80 60l-102 -60zM425 -60q17 0 27.5 -12t7.5 -29t-17 -29t-31 -12t-27 12t-7 29q7 41 47 41z" />
    <glyph glyph-name="glyph338" unicode="&#x1ed9;" horiz-adv-x="547" 
d="M347 472q92 0 150 -54.5t58 -146.5q0 -126 -100 -211q-82 -70 -185 -70q-90 0 -147.5 57t-57.5 146q0 114 84 196.5t198 82.5zM337 430q-94 0 -160 -68.5t-66 -162.5q0 -73 45 -120t118 -47q88 0 153.5 56t78.5 142q3 20 3 33q0 77 -47.5 122t-124.5 45zM237 536l127 85
l98 -85l-26 -24l-80 60l-102 -60zM270 -60q17 0 27.5 -12t7.5 -29t-17 -29t-31 -12t-27 12t-7 29q7 41 47 41z" />
    <glyph glyph-name="glyph339" unicode="&#x1eda;" horiz-adv-x="854" 
d="M541 719q-161 0 -281 -117t-120 -277q0 -129 82 -209.5t211 -80.5q160 0 280.5 117t120.5 277q0 128 -82.5 209t-210.5 81zM775 680q78 29 78 73q0 30 -36 39q-12 3 -49 1q10 13 36 23t41 6q51 -14 51 -61q0 -66 -103 -98q90 -92 90 -227q0 -193 -164 -332
q-135 -114 -294 -114q-145 0 -239.5 92t-94.5 236q0 27 5 59q25 163 156 275t296 112q133 0 227 -84zM608 963h71l-131 -133l-5 35z" />
    <glyph glyph-name="glyph340" unicode="&#x1edb;" horiz-adv-x="547" 
d="M337 430q-94 0 -160 -68.5t-66 -162.5q0 -73 45 -120t118 -47q88 0 153.5 56t78.5 142q3 20 3 33q0 77 -47.5 122t-124.5 45zM440 453l40 4q32 3 32 26q0 17 -20 26q-9 6 -26 10l28 3q14 0 35 -5q20 -11 20 -31q0 -23 -25 -39q-20 -13 -46 -16q77 -58 77 -161
q0 -125 -100 -210q-82 -70 -185 -70q-90 0 -147.5 57t-57.5 146q0 114 84 196.5t198 82.5q50 0 93 -19zM407 679h71l-131 -133l-5 35z" />
    <glyph glyph-name="glyph341" unicode="&#x1edc;" horiz-adv-x="854" 
d="M541 719q-161 0 -281 -117t-120 -277q0 -129 82 -209.5t211 -80.5q160 0 280.5 117t120.5 277q0 128 -82.5 209t-210.5 81zM775 680q78 29 78 73q0 30 -36 39q-12 3 -49 1q10 13 36 23t41 6q51 -14 51 -61q0 -66 -103 -98q90 -92 90 -227q0 -193 -164 -332
q-135 -114 -294 -114q-145 0 -239.5 92t-94.5 236q0 27 5 59q25 163 156 275t296 112q133 0 227 -84zM553 865l-5 -35l-131 133h71z" />
    <glyph glyph-name="glyph342" unicode="&#x1edd;" horiz-adv-x="547" 
d="M337 430q-94 0 -160 -68.5t-66 -162.5q0 -73 45 -120t118 -47q88 0 153.5 56t78.5 142q3 20 3 33q0 77 -47.5 122t-124.5 45zM440 453l40 4q32 3 32 26q0 17 -20 26q-9 6 -26 10l28 3q14 0 35 -5q20 -11 20 -31q0 -23 -25 -39q-20 -13 -46 -16q77 -58 77 -161
q0 -125 -100 -210q-82 -70 -185 -70q-90 0 -147.5 57t-57.5 146q0 114 84 196.5t198 82.5q50 0 93 -19zM352 581l-5 -35l-131 133h71z" />
    <glyph glyph-name="glyph343" unicode="&#x1ede;" horiz-adv-x="854" 
d="M541 719q-161 0 -281 -117t-120 -277q0 -129 82 -209.5t211 -80.5q160 0 280.5 117t120.5 277q0 128 -82.5 209t-210.5 81zM775 680q78 29 78 73q0 30 -36 39q-12 3 -49 1q10 13 36 23t41 6q51 -14 51 -61q0 -66 -103 -98q90 -92 90 -227q0 -193 -164 -332
q-135 -114 -294 -114q-145 0 -239.5 92t-94.5 236q0 27 5 59q25 163 156 275t296 112q133 0 227 -84zM567 876q-10 -56 -16 -56q-2 0 -3 3q0 4 1 10t0 10l-5 10q0 7 -4 23q-3 6 -3 8q0 4 24 12t31 13q17 9 20 25q3 18 -8 29.5t-29 11.5q-36 0 -44 -46l-1 21q3 25 23.5 44
t45.5 19q24 0 42 -22t14 -46q-7 -41 -61 -56q-7 -2 -27 -13z" />
    <glyph glyph-name="glyph344" unicode="&#x1edf;" horiz-adv-x="547" 
d="M337 430q-94 0 -160 -68.5t-66 -162.5q0 -73 45 -120t118 -47q88 0 153.5 56t78.5 142q3 20 3 33q0 77 -47.5 122t-124.5 45zM440 453l40 4q32 3 32 26q0 17 -20 26q-9 6 -26 10l28 3q14 0 35 -5q20 -11 20 -31q0 -23 -25 -39q-20 -13 -46 -16q77 -58 77 -161
q0 -125 -100 -210q-82 -70 -185 -70q-90 0 -147.5 57t-57.5 146q0 114 84 196.5t198 82.5q50 0 93 -19zM366 592q-10 -56 -16 -56q-2 0 -3 3q0 4 1 10t0 10l-5 10q0 7 -4 23q-3 6 -3 8q0 4 24 12t31 13q17 9 20 25q3 18 -8 29.5t-29 11.5q-36 0 -44 -46l-1 21q3 25 23.5 44
t45.5 19q24 0 42 -22t14 -46q-7 -41 -61 -56q-7 -2 -27 -13z" />
    <glyph glyph-name="glyph345" unicode="&#x1ee0;" horiz-adv-x="854" 
d="M541 719q-161 0 -281 -117t-120 -277q0 -129 82 -209.5t211 -80.5q160 0 280.5 117t120.5 277q0 128 -82.5 209t-210.5 81zM775 680q78 29 78 73q0 30 -36 39q-12 3 -49 1q10 13 36 23t41 6q51 -14 51 -61q0 -66 -103 -98q90 -92 90 -227q0 -193 -164 -332
q-135 -114 -294 -114q-145 0 -239.5 92t-94.5 236q0 27 5 59q25 163 156 275t296 112q133 0 227 -84zM456 829l-17 18q47 49 90 50q15 0 50 -15t42 -15q27 1 57 31l14 -17q-41 -51 -93 -51q-13 0 -46 15.5t-46 15.5q-26 -1 -51 -32z" />
    <glyph glyph-name="glyph346" unicode="&#x1ee1;" horiz-adv-x="547" 
d="M337 430q-94 0 -160 -68.5t-66 -162.5q0 -73 45 -120t118 -47q88 0 153.5 56t78.5 142q3 20 3 33q0 77 -47.5 122t-124.5 45zM440 453l40 4q32 3 32 26q0 17 -20 26q-9 6 -26 10l28 3q14 0 35 -5q20 -11 20 -31q0 -23 -25 -39q-20 -13 -46 -16q77 -58 77 -161
q0 -125 -100 -210q-82 -70 -185 -70q-90 0 -147.5 57t-57.5 146q0 114 84 196.5t198 82.5q50 0 93 -19zM255 545l-17 18q47 49 90 50q15 0 50 -15t42 -15q27 1 57 31l14 -17q-41 -51 -93 -51q-13 0 -46 15.5t-46 15.5q-26 -1 -51 -32z" />
    <glyph glyph-name="glyph347" unicode="&#x1ee2;" horiz-adv-x="854" 
d="M541 719q-161 0 -281 -117t-120 -277q0 -129 82 -209.5t211 -80.5q160 0 280.5 117t120.5 277q0 128 -82.5 209t-210.5 81zM775 680q78 29 78 73q0 30 -36 39q-12 3 -49 1q10 13 36 23t41 6q51 -14 51 -61q0 -66 -103 -98q90 -92 90 -227q0 -193 -164 -332
q-135 -114 -294 -114q-145 0 -239.5 92t-94.5 236q0 27 5 59q25 163 156 275t296 112q133 0 227 -84zM425 -60q17 0 27.5 -12t7.5 -29t-17 -29t-31 -12t-27 12t-7 29q7 41 47 41z" />
    <glyph glyph-name="glyph348" unicode="&#x1ee3;" horiz-adv-x="547" 
d="M337 430q-94 0 -160 -68.5t-66 -162.5q0 -73 45 -120t118 -47q88 0 153.5 56t78.5 142q3 20 3 33q0 77 -47.5 122t-124.5 45zM440 453l40 4q32 3 32 26q0 17 -20 26q-9 6 -26 10l28 3q14 0 35 -5q20 -11 20 -31q0 -23 -25 -39q-20 -13 -46 -16q77 -58 77 -161
q0 -125 -100 -210q-82 -70 -185 -70q-90 0 -147.5 57t-57.5 146q0 114 84 196.5t198 82.5q50 0 93 -19zM270 -60q17 0 27.5 -12t7.5 -29t-17 -29t-31 -12t-27 12t-7 29q7 41 47 41z" />
    <glyph glyph-name="glyph349" unicode="&#x1ee4;" horiz-adv-x="660" 
d="M585 298l72 456h48l-74 -470q-12 -78 -23 -109q-19 -55 -61 -97q-88 -88 -219 -88t-191 88q-30 44 -30 103q0 27 12 103l74 470h48l-72 -456q-11 -70 -11 -104q0 -103 88 -141q42 -18 90 -18q49 0 97 19q52 20 83 54q47 51 69 190zM328 -59q17 0 27.5 -12t7.5 -29
t-17 -29t-31 -12t-27 12t-7 29q7 41 47 41z" />
    <glyph glyph-name="glyph350" unicode="&#x1ee5;" horiz-adv-x="472" 
d="M430 462h45l-44 -277q-8 -49 -14 -70q-11 -36 -35 -63q-56 -62 -148 -62q-90 0 -128 62q-15 25 -15 61q0 22 8 72l44 277h45l-41 -261q-7 -45 -7 -70q0 -99 101 -99q74 0 109 50q26 38 39 119zM234 -60q17 0 27.5 -12t7.5 -29t-17 -29t-31 -12t-27 12t-7 29q7 41 47 41z
" />
    <glyph glyph-name="glyph351" unicode="&#x1ee6;" horiz-adv-x="660" 
d="M585 298l72 456h48l-74 -470q-12 -78 -23 -109q-19 -55 -61 -97q-88 -88 -219 -88t-191 88q-30 44 -30 103q0 27 12 103l74 470h48l-72 -456q-11 -70 -11 -104q0 -103 88 -141q42 -18 90 -18q49 0 97 19q52 20 83 54q47 51 69 190zM463 836q-10 -56 -16 -56q-2 0 -3 3
q0 4 1 10t0 10l-5 10q0 7 -4 23q-3 6 -3 8q0 4 24 12t31 13q17 9 20 25q3 18 -8 29.5t-29 11.5q-36 0 -44 -46l-1 21q3 25 23.5 44t45.5 19q24 0 42 -22t14 -46q-7 -41 -61 -56q-7 -2 -27 -13z" />
    <glyph glyph-name="glyph352" unicode="&#x1ee7;" horiz-adv-x="472" 
d="M430 462h45l-44 -277q-8 -49 -14 -70q-11 -36 -35 -63q-56 -62 -148 -62q-90 0 -128 62q-15 25 -15 61q0 22 8 72l44 277h45l-41 -261q-7 -45 -7 -70q0 -99 101 -99q74 0 109 50q26 38 39 119zM322 558q-10 -56 -16 -56q-2 0 -3 3q0 4 1 10t0 10l-5 10q0 7 -4 23
q-3 6 -3 8q0 4 24 12t31 13q17 9 20 25q3 18 -8 29.5t-29 11.5q-36 0 -44 -46l-1 21q3 25 23.5 44t45.5 19q24 0 42 -22t14 -46q-7 -41 -61 -56q-7 -2 -27 -13z" />
    <glyph glyph-name="glyph353" unicode="&#x1ee8;" horiz-adv-x="660" 
d="M701 726l-70 -442q-13 -80 -23 -109q-20 -56 -61 -97q-88 -88 -219 -88t-191 88q-30 44 -30 103q0 27 12 103l74 470h48l-72 -456q-11 -70 -11 -104q0 -103 88 -141q42 -18 90 -18q49 0 97 19q52 20 83 54q47 51 69 190l72 456l48 -3q35 9 35 30q0 18 -22 28q-9 7 -29 11
l32 4q16 0 38 -6q21 -11 21 -34q0 -55 -79 -58zM508 924h71l-131 -133l-5 35z" />
    <glyph glyph-name="glyph354" unicode="&#x1ee9;" horiz-adv-x="472" 
d="M470 434l-39 -249q-8 -49 -14 -70q-11 -36 -35 -63q-56 -62 -148 -62q-90 0 -128 62q-15 25 -15 61q0 22 8 72l44 277h45l-41 -261q-7 -45 -7 -70q0 -99 101 -99q74 0 109 50q26 38 39 119l41 261l44 -5q32 6 32 26q0 17 -20 26q-9 6 -26 10l28 3q14 0 35 -5
q18 -10 18 -31q0 -49 -71 -52zM366 645h71l-131 -133l-5 35z" />
    <glyph glyph-name="glyph355" unicode="&#x1eea;" horiz-adv-x="660" 
d="M701 726l-70 -442q-13 -80 -23 -109q-20 -56 -61 -97q-88 -88 -219 -88t-191 88q-30 44 -30 103q0 27 12 103l74 470h48l-72 -456q-11 -70 -11 -104q0 -103 88 -141q42 -18 90 -18q49 0 97 19q52 20 83 54q47 51 69 190l72 456l48 -3q35 9 35 30q0 18 -22 28q-9 7 -29 11
l32 4q16 0 38 -6q21 -11 21 -34q0 -55 -79 -58zM451 825l-5 -35l-131 133h71z" />
    <glyph glyph-name="glyph356" unicode="&#x1eeb;" horiz-adv-x="472" 
d="M470 434l-39 -249q-8 -49 -14 -70q-11 -36 -35 -63q-56 -62 -148 -62q-90 0 -128 62q-15 25 -15 61q0 22 8 72l44 277h45l-41 -261q-7 -45 -7 -70q0 -99 101 -99q74 0 109 50q26 38 39 119l41 261l44 -5q32 6 32 26q0 17 -20 26q-9 6 -26 10l28 3q14 0 35 -5
q18 -10 18 -31q0 -49 -71 -52zM311 547l-5 -35l-131 133h71z" />
    <glyph glyph-name="glyph357" unicode="&#x1eec;" horiz-adv-x="660" 
d="M701 726l-70 -442q-13 -80 -23 -109q-20 -56 -61 -97q-88 -88 -219 -88t-191 88q-30 44 -30 103q0 27 12 103l74 470h48l-72 -456q-11 -70 -11 -104q0 -103 88 -141q42 -18 90 -18q49 0 97 19q52 20 83 54q47 51 69 190l72 456l48 -3q35 9 35 30q0 18 -22 28q-9 7 -29 11
l32 4q16 0 38 -6q21 -11 21 -34q0 -55 -79 -58zM463 836q-10 -56 -16 -56q-2 0 -3 3q0 4 1 10t0 10l-5 10q0 7 -4 23q-3 6 -3 8q0 4 24 12t31 13q17 9 20 25q3 18 -8 29.5t-29 11.5q-36 0 -44 -46l-1 21q3 25 23.5 44t45.5 19q24 0 42 -22t14 -46q-7 -41 -61 -56
q-7 -2 -27 -13z" />
    <glyph glyph-name="glyph358" unicode="&#x1eed;" horiz-adv-x="472" 
d="M470 434l-39 -249q-8 -49 -14 -70q-11 -36 -35 -63q-56 -62 -148 -62q-90 0 -128 62q-15 25 -15 61q0 22 8 72l44 277h45l-41 -261q-7 -45 -7 -70q0 -99 101 -99q74 0 109 50q26 38 39 119l41 261l44 -5q32 6 32 26q0 17 -20 26q-9 6 -26 10l28 3q14 0 35 -5
q18 -10 18 -31q0 -49 -71 -52zM322 558q-10 -56 -16 -56q-2 0 -3 3q0 4 1 10t0 10l-5 10q0 7 -4 23q-3 6 -3 8q0 4 24 12t31 13q17 9 20 25q3 18 -8 29.5t-29 11.5q-36 0 -44 -46l-1 21q3 25 23.5 44t45.5 19q24 0 42 -22t14 -46q-7 -41 -61 -56q-7 -2 -27 -13z" />
    <glyph glyph-name="glyph359" unicode="&#x1eee;" horiz-adv-x="660" 
d="M701 726l-70 -442q-13 -80 -23 -109q-20 -56 -61 -97q-88 -88 -219 -88t-191 88q-30 44 -30 103q0 27 12 103l74 470h48l-72 -456q-11 -70 -11 -104q0 -103 88 -141q42 -18 90 -18q49 0 97 19q52 20 83 54q47 51 69 190l72 456l48 -3q35 9 35 30q0 18 -22 28q-9 7 -29 11
l32 4q16 0 38 -6q21 -11 21 -34q0 -55 -79 -58zM369 819l-17 18q47 49 90 50q15 0 50 -15t42 -15q27 1 57 31l14 -17q-41 -51 -93 -51q-13 0 -46 15.5t-46 15.5q-26 -1 -51 -32z" />
    <glyph glyph-name="glyph360" unicode="&#x1eef;" horiz-adv-x="472" 
d="M470 434l-39 -249q-8 -49 -14 -70q-11 -36 -35 -63q-56 -62 -148 -62q-90 0 -128 62q-15 25 -15 61q0 22 8 72l44 277h45l-41 -261q-7 -45 -7 -70q0 -99 101 -99q74 0 109 50q26 38 39 119l41 261l44 -5q32 6 32 26q0 17 -20 26q-9 6 -26 10l28 3q14 0 35 -5
q18 -10 18 -31q0 -49 -71 -52zM200 511l-17 18q47 49 90 50q15 0 50 -15t42 -15q27 1 57 31l14 -17q-41 -51 -93 -51q-13 0 -46 15.5t-46 15.5q-26 -1 -51 -32z" />
    <glyph glyph-name="glyph361" unicode="&#x1ef0;" horiz-adv-x="660" 
d="M701 726l-70 -442q-13 -80 -23 -109q-20 -56 -61 -97q-88 -88 -219 -88t-191 88q-30 44 -30 103q0 27 12 103l74 470h48l-72 -456q-11 -70 -11 -104q0 -103 88 -141q42 -18 90 -18q49 0 97 19q52 20 83 54q47 51 69 190l72 456l48 -3q35 9 35 30q0 18 -22 28q-9 7 -29 11
l32 4q16 0 38 -6q21 -11 21 -34q0 -55 -79 -58zM328 -59q17 0 27.5 -12t7.5 -29t-17 -29t-31 -12t-27 12t-7 29q7 41 47 41z" />
    <glyph glyph-name="glyph362" unicode="&#x1ef1;" horiz-adv-x="472" 
d="M470 434l-39 -249q-8 -49 -14 -70q-11 -36 -35 -63q-56 -62 -148 -62q-90 0 -128 62q-15 25 -15 61q0 22 8 72l44 277h45l-41 -261q-7 -45 -7 -70q0 -99 101 -99q74 0 109 50q26 38 39 119l41 261l44 -5q32 6 32 26q0 17 -20 26q-9 6 -26 10l28 3q14 0 35 -5
q18 -10 18 -31q0 -49 -71 -52zM234 -60q17 0 27.5 -12t7.5 -29t-17 -29t-31 -12t-27 12t-7 29q7 41 47 41z" />
    <glyph glyph-name="glyph363" unicode="&#x1ef2;" horiz-adv-x="559" 
d="M306 322l-183 432h53l162 -382l282 382h53l-319 -432l-51 -322h-48zM405 815l-5 -35l-131 133h71z" />
    <glyph glyph-name="glyph364" unicode="&#x1ef3;" horiz-adv-x="460" 
d="M214 -8l-148 470h47l131 -418l243 418h46l-426 -732h-46zM299 537l-5 -35l-131 133h71z" />
    <glyph glyph-name="glyph365" unicode="&#x1ef4;" horiz-adv-x="559" 
d="M306 322l-183 432h53l162 -382l282 382h53l-319 -432l-51 -322h-48zM272 -50q17 0 27.5 -12t7.5 -29t-17 -29t-31 -12t-27 12t-7 29q7 41 47 41z" />
    <glyph glyph-name="glyph366" unicode="&#x1ef5;" horiz-adv-x="460" 
d="M214 -8l-148 470h47l131 -418l243 418h46l-426 -732h-46zM312 -50q17 0 27.5 -12t7.5 -29t-17 -29t-31 -12t-27 12t-7 29q7 41 47 41z" />
    <glyph glyph-name="glyph367" unicode="&#x1ef6;" horiz-adv-x="559" 
d="M306 322l-183 432h53l162 -382l282 382h53l-319 -432l-51 -322h-48zM415 826q-10 -56 -16 -56q-2 0 -3 3q0 4 1 10t0 10l-5 10q0 7 -4 23q-3 6 -3 8q0 4 24 12t31 13q17 9 20 25q3 18 -8 29.5t-29 11.5q-36 0 -44 -46l-1 21q3 25 23.5 44t45.5 19q24 0 42 -22t14 -46
q-7 -41 -61 -56q-7 -2 -27 -13z" />
    <glyph glyph-name="glyph368" unicode="&#x1ef7;" horiz-adv-x="460" 
d="M214 -8l-148 470h47l131 -418l243 418h46l-426 -732h-46zM310 548q-10 -56 -16 -56q-2 0 -3 3q0 4 1 10t0 10l-5 10q0 7 -4 23q-3 6 -3 8q0 4 24 12t31 13q17 9 20 25q3 18 -8 29.5t-29 11.5q-36 0 -44 -46l-1 21q3 25 23.5 44t45.5 19q24 0 42 -22t14 -46
q-7 -41 -61 -56q-7 -2 -27 -13z" />
    <glyph glyph-name="glyph369" unicode="&#x1ef8;" horiz-adv-x="559" 
d="M306 322l-183 432h53l162 -382l282 382h53l-319 -432l-51 -322h-48zM289 779l-17 18q47 49 90 50q15 0 50 -15t42 -15q27 1 57 31l14 -17q-41 -51 -93 -51q-13 0 -46 15.5t-46 15.5q-26 -1 -51 -32z" />
    <glyph glyph-name="glyph370" unicode="&#x1ef9;" horiz-adv-x="460" 
d="M214 -8l-148 470h47l131 -418l243 418h46l-426 -732h-46zM188 501l-17 18q47 49 90 50q15 0 50 -15t42 -15q27 1 57 31l14 -17q-41 -51 -93 -51q-13 0 -46 15.5t-46 15.5q-26 -1 -51 -32z" />
    <glyph glyph-name="endash" unicode="&#x2013;" horiz-adv-x="500" 
d="M54 342h500l-7 -45h-500z" />
    <glyph glyph-name="emdash" unicode="&#x2014;" horiz-adv-x="1000" 
d="M54 342h1000l-7 -45h-1000z" />
    <glyph glyph-name="quoteleft" unicode="&#x2018;" horiz-adv-x="259" 
d="M201 524l-43 13l119 227l28 -11z" />
    <glyph glyph-name="quoteright" unicode="&#x2019;" horiz-adv-x="259" 
d="M262 764l43 -13l-119 -227l-28 11z" />
    <glyph glyph-name="quotesinglbase" unicode="&#x201a;" horiz-adv-x="259" 
d="M153 74l43 -14l-119 -226l-29 11z" />
    <glyph glyph-name="quotedblleft" unicode="&#x201c;" horiz-adv-x="390" 
d="M332 524l-43 13l119 227l28 -11zM201 524l-43 13l119 227l28 -11z" />
    <glyph glyph-name="quotedblright" unicode="&#x201d;" horiz-adv-x="390" 
d="M262 764l43 -13l-119 -227l-28 11zM393 764l43 -13l-119 -227l-28 11z" />
    <glyph glyph-name="quotedblbase" unicode="&#x201e;" horiz-adv-x="390" 
d="M153 74l43 -14l-119 -226l-29 11zM284 74l43 -14l-119 -226l-29 11z" />
    <glyph glyph-name="dagger" unicode="&#x2020;" 
d="M405 754h48l-31 -199h181l-7 -45h-181l-109 -688h-48l109 688h-181l7 45h181z" />
    <glyph glyph-name="daggerdbl" unicode="&#x2021;" 
d="M405 754h48l-31 -199h181l-7 -45h-181l-68 -428h181l-7 -45h-181l-34 -215h-48l34 215h-181l7 45h181l68 428h-181l7 45h181z" />
    <glyph glyph-name="bullet" unicode="&#x2022;" 
d="M401 566q70 0 115 -44t45 -114q0 -91 -64.5 -155t-155.5 -64q-70 0 -116 44t-46 114q0 90 66 154.5t156 64.5z" />
    <glyph glyph-name="ellipsis" unicode="&#x2026;" horiz-adv-x="1000" 
d="M179 75q17 0 27 -12t7 -29q-7 -41 -47 -41q-17 0 -27 12t-8 29t16.5 29t31.5 12zM512 75q17 0 27 -12t7 -29q-7 -41 -47 -41q-17 0 -27 12t-8 29t16.5 29t31.5 12zM845 75q17 0 27 -12t7 -29q-7 -41 -47 -41q-17 0 -27 12t-8 29t16.5 29t31.5 12z" />
    <glyph glyph-name="perthousand" unicode="&#x2030;" horiz-adv-x="1034" 
d="M900 289q56 0 93 -34t37 -90q0 -72 -52.5 -122t-124.5 -50q-56 0 -93.5 34t-37.5 89q0 73 52.5 123t125.5 50zM893 247q-50 0 -89 -36t-39 -86q0 -40 27.5 -65t67.5 -25q50 0 88.5 35.5t38.5 85.5q0 40 -27 65.5t-67 25.5zM301 761q56 0 93 -34t37 -90q0 -72 -52.5 -122
t-124.5 -50q-56 0 -93.5 34t-37.5 89q0 73 52.5 123t125.5 50zM294 719q-50 0 -89 -36t-39 -86q0 -39 27.5 -64.5t66.5 -25.5q50 0 89 35.5t39 85.5q0 40 -27 65.5t-67 25.5zM660 771l30 -17l-570 -771l-28 18zM530 289q56 0 93 -34t37 -90q0 -72 -52.5 -122t-124.5 -50
q-56 0 -93.5 34t-37.5 89q0 73 52.5 123t125.5 50zM523 247q-50 0 -89 -36t-39 -86q0 -40 27.5 -65t67.5 -25q50 0 88.5 35.5t38.5 85.5q0 40 -27 65.5t-67 25.5z" />
    <glyph glyph-name="guilsinglleft" unicode="&#x2039;" horiz-adv-x="277" 
d="M140 320l98 -142l-33 -27l-119 169l172 169l25 -27z" />
    <glyph glyph-name="guilsinglright" unicode="&#x203a;" horiz-adv-x="277" 
d="M95 178l144 142l-99 142l33 27l120 -169l-173 -169z" />
    <glyph glyph-name="fraction" unicode="&#x2044;" horiz-adv-x="129" 
d="M394 772l29 -18l-569 -771l-29 18z" />
    <glyph glyph-name="franc" unicode="&#x20a3;" horiz-adv-x="1035" 
d="M497 709h-256l-43 -274h249l-7 -45h-249l-62 -390h-48l119 754h304zM847 462l-9 -60h2q41 70 111 70q24 0 47 -11l-30 -40q-15 9 -31 9q-65 0 -97 -72q-15 -34 -29 -122l-37 -236h-45l73 462h45z" />
    <glyph glyph-name="u20AB" unicode="&#x20ab;" horiz-adv-x="393" 
d="M197 501q-48 0 -84 -88q-20 -49 -20 -90q0 -51 39 -51q41 0 74 71q28 60 28 107q0 51 -37 51zM200 267q-53 -62 -106 -62q-91 0 -91 102q0 81 54 153q59 78 137 78q34 0 61 -24l20 75h-100l10 36h100l2 16q0 31 -48 32l7 33q68 2 128 14l15 3q6 0 6 -9q-1 -2 -3 -12
l-19 -77h65l-10 -36h-65l-69 -280q-5 -20 -5 -27q0 -15 12 -15q6 0 49 42l20 -18q-70 -86 -117 -86q-43 0 -53 62zM9 160h221v-56h-221v56z" />
    <glyph glyph-name="trademark" unicode="&#x2122;" horiz-adv-x="940" 
d="M497 754l-6 -42h-139l-60 -379h-42l60 379h-139l6 42h320zM580 754h72l86 -327h2l190 327h72l-66 -421h-42l60 379h-4l-225 -379h-2l-103 379h-4l-60 -379h-42z" />
    <glyph glyph-name="minus" unicode="&#x2212;" 
d="M91 232l7 48h512l-7 -48h-512z" />
    <glyph glyph-name="SF370000" unicode="&#x255f;" horiz-adv-x="718" 
d="M525 248h-331l-140 -248h-49l439 779l192 -779h-49zM514 293l-89 364l-206 -364h295z" />
    <glyph glyph-name="SF420000" unicode="&#x2560;" horiz-adv-x="681" 
d="M553 709h-312l-43 -274h304l-7 -45h-304l-55 -345h312l-7 -45h-360l119 754h360z" />
    <glyph glyph-name="SF190000" unicode="&#x2561;" horiz-adv-x="429" 
d="M248 754l-119 -754h-48l119 754h48z" />
    <glyph glyph-name="SF200000" unicode="&#x2562;" horiz-adv-x="773" 
d="M548 764q144 0 239 -92t95 -236q0 -193 -163 -332q-134 -114 -294 -114q-144 0 -239 92t-95 236q0 192 164 332q133 114 293 114zM541 719q-159 0 -280 -117.5t-121 -276.5q0 -128 82.5 -209t210.5 -81q159 0 280 118t121 276q0 127 -83 208.5t-210 81.5z" />
    <glyph glyph-name="SF230000" unicode="&#x2563;" horiz-adv-x="811" 
d="M585 298l72 456h48l-74 -470q-12 -74 -23 -109q-18 -54 -61 -97q-89 -88 -219 -88q-131 0 -191 88q-29 42 -29 104q0 32 11 102l74 470h48l-72 -456q-11 -70 -11 -104q0 -102 88 -140q44 -19 90 -19q48 0 98.5 20t81.5 53q47 50 69 190z" />
    <glyph glyph-name="SF470000" unicode="&#x2564;" horiz-adv-x="699" 
d="M306 322l-183 432h53l162 -382l282 382h53l-319 -432l-51 -322h-48z" />
    <glyph glyph-name="SF480000" unicode="&#x2565;" horiz-adv-x="541" 
d="M324 430q-90 0 -153 -73q-60 -69 -60 -160q0 -71 41.5 -118t111.5 -47q95 0 158 75q60 70 60 167q0 71 -43.5 113.5t-114.5 42.5zM556 462l-73 -462h-45l13 83h-2q-31 -43 -83.5 -68t-107.5 -25q-88 0 -140.5 54.5t-52.5 143.5q0 20 4 46q16 105 88 171.5t176 66.5
q117 0 164 -90h2l12 80h45z" />
    <glyph glyph-name="SF410000" unicode="&#x2566;" horiz-adv-x="431" 
d="M514 227h-401q-4 -21 -4 -42q0 -70 44 -111.5t114 -41.5q107 0 180 105l34 -22q-85 -125 -227 -125q-87 0 -138 54.5t-51 142.5q0 115 76 200t190 85q87 0 137 -53.5t50 -141.5q0 -25 -4 -50zM120 269h356q2 69 -40 115t-111 46q-71 0 -130 -46t-75 -115z" />
    <glyph glyph-name="SF450000" unicode="&#x2567;" horiz-adv-x="314" 
d="M212 462l-73 -462h-45l73 462h45zM221 657q17 0 27 -12t8 -29t-16.5 -29t-31.5 -12t-27 12t-7 29q7 41 47 41z" />
    <glyph glyph-name="SF460000" unicode="&#x2568;" horiz-adv-x="314" 
d="M212 462l-73 -462h-45l73 462h45z" />
    <glyph glyph-name="SF400000" unicode="&#x2569;" horiz-adv-x="498" 
d="M347 472q91 0 149.5 -55t58.5 -146q0 -124 -101 -211q-82 -70 -184 -70q-90 0 -147.5 57t-57.5 146q0 113 84.5 196t197.5 83zM337 430q-92 0 -159 -69.5t-67 -161.5q0 -73 45.5 -120t117.5 -47q96 0 165.5 68t69.5 164q0 76 -47.5 121t-124.5 45z" />
    <glyph glyph-name="SF540000" unicode="&#x256a;" horiz-adv-x="557" 
d="M430 462h45l-44 -277q-8 -52 -14 -70q-19 -61 -70 -94q-47 -31 -113 -31q-91 0 -128 62q-15 25 -15 61q0 22 8 72l44 277h45l-41 -261q-7 -45 -7 -70q0 -99 101 -99q74 0 109 50q26 38 39 119z" />
    <glyph glyph-name="SF530000" unicode="&#x256b;" horiz-adv-x="497" 
d="M214 -8l-148 470h47l131 -418l243 418h46l-426 -732h-46z" />
    <glyph glyph-name="circle" unicode="&#x25cb;" horiz-adv-x="718" 
d="M396 820l155 106l121 -106l-42 -29l-88 77l-114 -77zM491 1134l58 -19l-147 -145l-35 17z" />
    <glyph glyph-name="H18533" unicode="&#x25cf;" horiz-adv-x="718" 
d="M396 820l155 106l121 -106l-42 -29l-88 77l-114 -77zM496 1116l64 19l78 -147l-41 -17z" />
    <glyph glyph-name="invbullet" unicode="&#x25d8;" horiz-adv-x="718" 
d="M396 820l155 106l121 -106l-42 -29l-88 77l-114 -77zM614 903q9 26 11 64q1 11 8 13q2 0 8 1q67 11 67 54q0 35 -28 35q-5 0 -14 -1t-14 -1q-21 0 -21 18q0 28 32 28q47 0 76.5 -25t25.5 -71q-6 -59 -87 -81q-25 -7 -31 -34h-33z" />
    <glyph glyph-name="invcircle" unicode="&#x25d9;" horiz-adv-x="718" 
d="M396 820l155 106l121 -106l-42 -29l-88 77l-114 -77zM473 1006v0l-27 22q36 64 88 64q21 0 66.5 -19.5t60.5 -19.5q35 0 55 41l25 -22q-11 -27 -37 -46t-54 -19q-19 0 -62.5 20t-64.5 20q-30 0 -50 -41z" />
    <glyph glyph-name="fi" unicode="&#xf001;" horiz-adv-x="475" 
d="M453 462l-73 -462h-45l73 462h45zM462 657q17 0 27 -12t8 -29t-16.5 -29t-31.5 -12t-27 12t-7 29q7 41 47 41zM189 420l-67 -420h-45l67 420h-51l6 42h51l33 207q13 81 36 113q40 56 112 56q22 0 39 -7l-7 -41l-36 6q-51 0 -76 -46q-13 -24 -24 -90l-32 -198h116l-6 -42
h-116z" />
    <glyph glyph-name="fl" unicode="&#xf002;" horiz-adv-x="439" 
d="M189 420l-67 -420h-45l67 420h-51l6 42h51l33 207q13 81 36 113q40 56 112 56q22 0 39 -7l-7 -41l-36 6q-51 0 -76 -46q-13 -24 -24 -90l-32 -198h116l-6 -42h-116zM493 825l-131 -825h-45l131 825h45z" />
    <glyph glyph-name="periodcentered" horiz-adv-x="310" 
d="M202 297q17 0 27 -12t8 -29t-16.5 -29t-31.5 -12t-27 12t-7 29q7 41 47 41z" />
    <glyph glyph-name="HT" horiz-adv-x="310" 
 />
    <glyph glyph-name="nonmarkingreturn" horiz-adv-x="310" 
 />
    <glyph glyph-name="glyph233" horiz-adv-x="310" 
 />
    <glyph glyph-name="glyph234" horiz-adv-x="310" 
 />
    <glyph glyph-name="glyph231" horiz-adv-x="310" 
 />
    <glyph glyph-name="glyph232" horiz-adv-x="310" 
 />
    <glyph glyph-name="glyph258" horiz-adv-x="278" 
 />
    <glyph glyph-name="glyph259" horiz-adv-x="278" 
 />
    <glyph glyph-name="glyph275" horiz-adv-x="249" 
 />
    <glyph glyph-name="glyph276" horiz-adv-x="249" 
 />
    <glyph glyph-name="glyph261" horiz-adv-x="500" 
d="M253 522q9 26 11 64q1 11 8 13q2 0 8 1q67 11 67 54q0 35 -28 35q-5 0 -14 -1t-14 -1q-21 0 -21 18q0 28 32 28q47 0 76.5 -25t25.5 -71q-6 -59 -87 -81q-25 -7 -31 -34h-33z" />
    <glyph glyph-name="glyph262" horiz-adv-x="541" 
d="M193 588l155 106l121 -106l-42 -29l-88 77l-114 -77zM287 903l58 -19l-147 -145l-35 17z" />
    <glyph glyph-name="glyph263" horiz-adv-x="541" 
d="M193 588l155 106l121 -106l-42 -29l-88 77l-114 -77zM293 884l64 19l78 -147l-41 -17z" />
    <glyph glyph-name="glyph264" horiz-adv-x="541" 
d="M193 588l155 106l121 -106l-42 -29l-88 77l-114 -77zM411 671q9 26 11 64q1 11 8 13q2 0 8 1q67 11 67 54q0 35 -28 35q-5 0 -14 -1t-14 -1q-21 0 -21 18q0 28 32 28q47 0 76.5 -25t25.5 -71q-6 -59 -87 -81q-25 -7 -31 -34h-33z" />
    <glyph glyph-name="glyph265" horiz-adv-x="541" 
d="M193 588l155 106l121 -106l-42 -29l-88 77l-114 -77zM270 774v0l-27 22q36 64 88 64q21 0 66.5 -19.5t60.5 -19.5q35 0 55 41l25 -22q-11 -27 -37 -46t-54 -19q-19 0 -62.5 20t-64.5 20q-30 0 -50 -41z" />
    <glyph glyph-name="glyph266" horiz-adv-x="541" 
d="M212 673h44q9 -61 88 -61t108 61h43q-14 -49 -59.5 -77.5t-98.5 -28.5q-52 0 -87 26q-40 29 -38 80zM366 903l58 -19l-147 -145l-35 17z" />
    <glyph glyph-name="glyph267" horiz-adv-x="541" 
d="M212 673h44q9 -61 88 -61t108 61h43q-14 -49 -59.5 -77.5t-98.5 -28.5q-52 0 -87 26q-40 29 -38 80zM240 884l64 19l78 -147l-41 -17z" />
    <glyph glyph-name="glyph268" horiz-adv-x="541" 
d="M212 673h44q9 -61 88 -61t108 61h43q-14 -49 -59.5 -77.5t-98.5 -28.5q-52 0 -87 26q-40 29 -38 80zM306 671q9 26 11 64q1 11 8 13q2 0 8 1q67 11 67 54q0 35 -28 35q-5 0 -14 -1t-14 -1q-21 0 -21 18q0 28 32 28q47 0 76.5 -25t25.5 -71q-6 -59 -87 -81q-25 -7 -31 -34
h-33z" />
    <glyph glyph-name="glyph269" horiz-adv-x="541" 
d="M212 673h44q9 -61 88 -61t108 61h43q-14 -49 -59.5 -77.5t-98.5 -28.5q-52 0 -87 26q-40 29 -38 80zM270 774v0l-27 22q36 64 88 64q21 0 66.5 -19.5t60.5 -19.5q35 0 55 41l25 -22q-11 -27 -37 -46t-54 -19q-19 0 -62.5 20t-64.5 20q-30 0 -50 -41z" />
    <glyph glyph-name="glyph270" horiz-adv-x="249" 
 />
  </font>
</defs>
</svg>
