<?xml version="1.0" standalone="no"?>
<!DOCTYPE svg PUBLIC "-//W3C//DTD SVG 1.1//EN" "http://www.w3.org/Graphics/SVG/1.1/DTD/svg11.dtd" >
<svg xmlns="http://www.w3.org/2000/svg" xmlns:xlink="http://www.w3.org/1999/xlink" version="1.1">
<metadata>
Created by FontForge 20161003 at Wed Sep 27 01:40:24 2017
 By www-data
(c) Copyright 2001 by Tom Truong. All Rights Reserved
</metadata>
<defs>
<font id="UVNKyThuat" horiz-adv-x="2097" >
  <font-face 
    font-family="UVNKyThuat"
    font-weight="400"
    font-stretch="normal"
    units-per-em="4096"
    panose-1="3 5 5 2 4 2 2 2 11 3"
    ascent="3276"
    descent="-820"
    x-height="1798"
    cap-height="2642"
    bbox="-377.132 -1266 4096 4691"
    underline-thickness="50"
    underline-position="-175"
    unicode-range="U+0020-F002"
  />
<missing-glyph horiz-adv-x="2048" 
d="M256 0v4650h1536v-4650h-1536zM512 256h1024v4138h-1024v-4138z" />
    <glyph glyph-name=".notdef" horiz-adv-x="2048" 
d="M256 0v4650h1536v-4650h-1536zM512 256h1024v4138h-1024v-4138z" />
    <glyph glyph-name=".null" horiz-adv-x="0" 
 />
    <glyph glyph-name="nonmarkingreturn" horiz-adv-x="1024" 
 />
    <glyph glyph-name="space" unicode=" " horiz-adv-x="1024" 
 />
    <glyph glyph-name="exclam" unicode="!" horiz-adv-x="872" 
d="M528 840q41 -51 41 -127q0 -38 -67 -71q-57 -28 -101 -28q-106 0 -106 123q0 49 41 103v1687q-66 67 -66 107q0 135 201 135q115 0 115 -123q0 -53 -58 -111v-1695zM438 418q84 0 109 -67q14 -38 14 -142q0 -234 -209 -234q-94 0 -94 119q0 107 38 200q50 124 142 124z
" />
    <glyph glyph-name="quotedbl" unicode="&#x22;" horiz-adv-x="1303" 
d="M385 1946q16 -33 16 -99q0 -118 -139 -118q-94 0 -94 77q0 66 49 115v614q-41 64 -41 82q0 144 143 144q99 0 99 -115q0 -61 -33 -94v-606zM1090 1946q16 -33 16 -99q0 -118 -139 -118q-95 0 -95 77q0 68 58 115v614q-49 61 -49 82q0 144 143 144q102 0 102 -115
q0 -52 -36 -94v-606z" />
    <glyph glyph-name="numbersign" unicode="#" horiz-adv-x="2425" 
d="M631 209q24 -12 24 -57q0 -63 -48.5 -111.5t-110.5 -48.5q-119 0 -119 82q0 87 78 159l143 496h-246q-97 -41 -135 -41q-74 0 -74 66q0 85 58 140.5t143 55.5q36 0 66 -28h245l258 864h-290q-84 -57 -136 -57q-86 0 -86 69q0 72 47 134q51 67 121 67q68 0 103 -33h303
l135 467q-12 48 -12 61q0 160 168 160q94 0 94 -69q0 -83 -66 -144l-143 -475h504l143 475q-20 42 -20 62q0 67 50 109t118 42q102 0 102 -119q0 -50 -74 -110l-135 -459h258q56 41 127 41q66 0 66 -86q0 -168 -185 -168q-49 0 -65 33h-246l-266 -864h295q103 36 139 36
q78 0 78 -61q0 -78 -48 -138q-52 -63 -128 -63q-53 0 -86 33h-299l-152 -504q16 -32 16 -73q0 -160 -167 -160q-103 0 -103 90q0 71 70 135l151 512h-512zM1343 926l267 860h-512l-254 -860h499z" />
    <glyph glyph-name="dollar" unicode="$" horiz-adv-x="2032" 
d="M1098 -184q28 -93 28 -103q0 -53 -32 -96q-34 -47 -86 -47q-127 0 -127 127q0 32 13 58q5 12 11 28v352q-448 0 -652 224q-93 102 -93 219q0 118 102 118q78 0 90 -102q40 -132 197 -218q137 -74 291 -81q32 8 65 8v1065q-233 -184 -352 -184q-189 0 -297 150
q-96 133 -96 329q0 324 220 562q195 210 525 319v184q0 14 -4 41t-4 41q0 102 94 102q115 0 115 -90q0 -53 -8 -69v-201q370 0 582 -148q89 -62 89 -114q0 -156 -114 -156q-41 0 -74 48q-21 31 -61 67q-129 118 -422 118l-8 -704q157 90 335 90q455 0 455 -610
q0 -352 -228 -654q-232 -308 -554 -346v-327zM905 2343q-327 -70 -477 -357q-76 -144 -76 -323q0 -100 49 -189q59 -106 152 -106q84 0 352 193v782zM1098 319q392 100 529 503q61 179 61 362q0 385 -254 385q-183 0 -344 -107z" />
    <glyph glyph-name="percent" unicode="%" horiz-adv-x="2425" 
d="M799 127q0 -160 -135 -160q-95 0 -95 115q0 25 32 60q15 17 22 26l897 2400q8 127 90 127q143 0 143 -110q0 -48 -65 -99zM688 2503q-143 0 -246 -121q-98 -115 -98 -260q0 -140 94 -140q168 0 328 239q65 98 65 171q0 111 -143 111zM455 1798q-140 0 -224 104
q-79 97 -79 240q0 336 307 484q128 61 237 61q320 0 320 -328q0 -282 -353 -482q-140 -79 -208 -79zM1913 770q-181 0 -284 -134q-93 -121 -93 -308q0 -217 127 -217q196 0 348 206q70 94 70 203q0 250 -168 250zM1647 -74q-175 0 -243 114q-52 88 -52 279q0 623 594 623
q163 0 252 -139q75 -118 75 -291q0 -337 -374 -515q-151 -71 -252 -71z" />
    <glyph glyph-name="ampersand" unicode="&#x26;" horiz-adv-x="2425" 
d="M1135 1696l618 -914q193 255 193 402q0 90 69 90q54 0 105 -38q55 -41 55 -93q0 -70 -53 -86q-77 -163 -182 -308q-57 -80 -85 -126q62 -106 197 -310q39 -55 53 -55q-2 0 141 92q29 19 64 19q107 0 107 -82q0 -114 -221 -250q-87 -53 -132 -53q-102 0 -102 118l-242 361
q-176 -191 -466 -354q-324 -183 -549 -183q-295 0 -443 268q-119 214 -119 535q0 723 713 1057q-168 252 -216 421q-26 89 -26 177q0 143 183 254q93 57 235 57q283 0 421 -49q226 -82 226 -311q0 -234 -256 -458q-123 -107 -288 -181zM1618 623l-660 1007
q-287 -125 -453 -368q-169 -247 -169 -557q0 -594 393 -594q214 0 576 245q173 117 313 267zM1024 1855q138 62 277 189q169 154 169 274q0 193 -372 193q-307 0 -307 -168q0 -124 104 -289q39 -63 129 -199z" />
    <glyph glyph-name="quotesingle" unicode="'" horiz-adv-x="688" 
d="M410 2392q-33 -65 -123 -65q-71 0 -128 60t-57 132q0 104 76.5 177t181.5 73q97 0 169 -95q65 -88 65 -188q0 -297 -208 -495q-91 -86 -177 -86q-82 0 -82 49q0 48 95 73q44 12 57 21q139 121 139 344h-8z" />
    <glyph glyph-name="parenleft" unicode="(" horiz-adv-x="1417" 
d="M1106 2560q-358 -103 -530 -824q-87 -364 -89 -814q-3 -660 247 -1170q133 -271 347 -473q103 0 103 -94q0 -127 -94 -127q-82 0 -160 102q-340 442 -460 736q-167 406 -167 1042q0 931 284 1354q143 212 396 428q27 82 82 82q152 0 152 -176q0 -66 -111 -66z" />
    <glyph glyph-name="parenright" unicode=")" horiz-adv-x="1417" 
d="M311 2560h-41q-69 0 -69 66q0 176 143 176q53 0 86 -82q257 -220 392 -426q149 -228 218 -535q70 -320 70 -821q0 -637 -167 -1048q-123 -300 -456 -730q-79 -102 -159 -102q-95 0 -95 127q0 94 103 94q309 299 456 762q130 410 130 881q0 916 -310 1380
q-141 210 -301 258z" />
    <glyph glyph-name="asterisk" unicode="*" horiz-adv-x="1511" 
d="M889 2150q87 -103 287 -278q35 -24 76 -54q5 -7 5 -32q0 -98 -73 -98q-36 0 -89.5 41.5t-62.5 76.5l-233 283l-127 -377q-16 -119 -94 -119q-74 0 -74 78q0 52 67 150q87 128 142 276l-455 -160q-88 0 -98 86q0 59 44 77q17 7 99 16q212 23 402 92q-125 131 -253 232
q-92 72 -92 95q0 99 86 99q66 0 91 -41q15 -38 233 -303l94 303q0 102 86 102q82 0 82 -78q0 -17 -71 -157q-76 -151 -89 -195l394 143h16q70 0 70 -102q0 -98 -119 -98q-183 0 -344 -58z" />
    <glyph glyph-name="plus" unicode="+" horiz-adv-x="2273" 
d="M1217 807v-623q40 -20 40 -90q0 -119 -131 -119q-135 0 -135 127q0 66 33 107v598h-561q-70 -45 -119 -45q-119 0 -119 110q0 152 119 152q66 0 102 -33h578v586q-15 26 -41 82q-8 21 -8 45q0 102 135 102q131 0 131 -151q0 -20 -24 -70v-594h598q73 49 131 49
q102 0 102 -135q0 -131 -152 -131q-32 0 -55 20q-9 7 -18 13h-606z" />
    <glyph glyph-name="comma" unicode="," horiz-adv-x="848" 
d="M471 8q-68 -33 -86 -33q-176 0 -176 168q0 258 201 258q237 0 237 -352q0 -276 -238 -424q-103 -63 -192 -63q-115 0 -115 78q0 41 62 62l135 47q172 59 172 259z" />
    <glyph glyph-name="hyphen" unicode="-" horiz-adv-x="1425" 
d="M983 1098l-520 -49q-44 -66 -111 -66q-119 0 -119 152q0 139 111 139q48 0 86 -33l512 33q39 45 98 45q160 0 160 -135t-127 -135q-66 0 -90 49z" />
    <glyph glyph-name="hyphen" unicode="&#x2010;" horiz-adv-x="1425" 
d="M983 1098l-520 -49q-44 -66 -111 -66q-119 0 -119 152q0 139 111 139q48 0 86 -33l512 33q39 45 98 45q160 0 160 -135t-127 -135q-66 0 -90 49z" />
    <glyph glyph-name="period" unicode="." horiz-adv-x="848" 
d="M606 242q0 -258 -213 -258q-143 0 -143 225q0 94 59 171q63 83 154 83q143 0 143 -221z" />
    <glyph glyph-name="slash" unicode="/" horiz-adv-x="1319" 
d="M377 143q24 -36 24 -102q0 -115 -151 -115q-168 0 -168 168q0 83 127 123l782 2294q0 91 22 122q28 38 113 38q131 0 131 -95q0 -99 -81 -110z" />
    <glyph glyph-name="zero" unicode="0" horiz-adv-x="2568" 
d="M958 -66q-800 -4 -798 865q0 613 200 1045q173 372 455 591q311 240 696 244q227 2 434 -118q200 -116 326 -312q137 -215 137 -520q0 -861 -518 -1358q-228 -219 -476 -325q-258 -111 -456 -112zM958 119q222 2 524 177q359 207 553 595q181 361 181 797q0 493 -355 704
q-169 100 -358 102q-218 3 -431 -110q-440 -234 -625 -848q-95 -314 -95 -705q0 -418 192.5 -566t413.5 -146z" />
    <glyph glyph-name="one" unicode="1" horiz-adv-x="1225" 
d="M815 2494v-2375q25 -27 25 -53q0 -82 -135 -82q-111 0 -111 73q0 27 29 70v2200h-9l-278 -312q-16 -119 -94 -119q-131 0 -131 103q0 105 82 131l446 479q49 53 131 53q70 0 70 -86q0 -30 -25 -82z" />
    <glyph glyph-name="two" unicode="2" horiz-adv-x="2208" 
d="M1962 0h-1610q-26 -41 -90 -41q-110 0 -110 57q0 212 227 542q180 260 394 457.5t516 374.5q123 72 222 146q125 93 194 200q73 113 73 320q0 199 -131 320q-128 118 -328 118q-251 0 -373 -23q-208 -40 -328 -162q-112 -114 -208 -343q-1 -6 -9 -20q9 -17 9 -33
q0 -98 -123 -98q-127 0 -127 114q0 94 73 94q174 520 627 615q194 41 451 41q356 0 563 -298q92 -133 92 -276q0 -336 -127 -519q-106 -153 -420 -340q-373 -221 -587 -441q-227 -231 -422 -604h1445q0 32 -8 49q6 88 20 113q23 38 99 38q90 0 90 -241q0 -87 -8 -111
q-18 -49 -86 -49z" />
    <glyph glyph-name="three" unicode="3" horiz-adv-x="2408" 
d="M1905 2474l-631 -659l8 -9q119 49 311 49q149 0 304 -99q141 -90 233 -223q111 -164 111 -398q0 -678 -569 -1004q-340 -194 -943 -197q-286 -1 -445 185q-149 176 -149 467q0 60 45.5 105.5t106.5 45.5q123 0 123 -123q0 -58 -82 -86q16 -412 495 -409q564 3 912 303
q321 276 321 659q0 326 -232 501q-119 89 -288 89q-254 0 -644 -239q-171 -105 -220 -105q-119 0 -119 135q0 43 116 90q149 60 244 160l709 746h-1159v-258q24 -37 24 -78t-53 -72q-46 -27 -90 -27q-111 0 -111 74q0 70 37 103v344q0 110 115 110h1470q99 0 99 -53
q0 -76 -49 -127z" />
    <glyph glyph-name="four" unicode="4" horiz-adv-x="2310" 
d="M1462 913l-1253 -184q-13 -2 -45 -14q-27 -10 -45 -10q-111 0 -111 126q0 37 74 99l1335 1630q20 86 144 86q118 0 118 -102q0 -95 -24 -127v-1299l459 74q26 33 77 33q107 0 107 -119q0 -139 -90 -139q-59 0 -94 41l-459 -70v-778q41 -29 41 -66q0 -119 -168 -119
q-94 0 -94 99q0 32 28 69v770zM1462 1098v1229h-8l-1126 -1389l8 -8z" />
    <glyph glyph-name="five" unicode="5" horiz-adv-x="2327" 
d="M360 401q0 -54 99 -134q75 -60 147 -93q115 -55 258 -55q391 0 735 256q375 279 375 698q0 443 -313 555q-151 54 -342 51q-253 -3 -450 -113q-213 -119 -431 -341q-113 -115 -180 -115q-106 0 -106 107q0 35 22 115q24 87 27 122q49 528 49 1024q0 90 135 90h33
l1311 111q65 49 118 49q115 0 115 -135q0 -115 -98 -115q-49 0 -78 25l-1340 -111l-53 -950q207 169 295 229q179 121 335 160q135 33 337 33q361 0 576 -177q231 -191 231 -544q0 -369 -199 -655q-195 -280 -540 -425q-308 -129 -572 -129q-174 0 -360 98q-182 95 -287 238
q-27 14 -78 59q-20 25 -20 72q0 168 139 168q65 0 88 -54q7 -18 22 -114z" />
    <glyph glyph-name="six" unicode="6" horiz-adv-x="2634" 
d="M160 991q-6 315 124 645q255 653 809 951q263 141 529 141q363 0 572 -191q96 -89 96 -194q0 -36 -46.5 -69t-84.5 -33q-103 0 -103 102q0 33 8 49q-141 152 -479 152q-413 0 -823 -485.5t-410 -977.5q0 -234 66 -368q199 326 541 631q431 385 839 385q395 0 594 -292
q95 -141 94 -311q-4 -527 -496 -879q-438 -313 -839 -313q-452 0 -750 451q-78 11 -90 111q-146 257 -151 495zM520 528q241 -409 656 -409q325 0 708 283q414 305 414 704q0 249 -261 380q-118 58 -243 58q-514 0 -981 -593q-181 -229 -293 -423z" />
    <glyph glyph-name="seven" unicode="7" horiz-adv-x="1966" 
d="M1704 2486q-28 -4 -82 -10q-32 -5 -86 -10l-1217 -49v-226q33 -47 33 -69q0 -90 -143 -90q-107 0 -107 73q0 45 25 70v299q0 89 77 117q38 13 156 18l1303 53q73 3 92 27l42 54q20 26 91 26q43 0 77 -32.5t34 -74.5q0 -84 -86 -196q-286 -554 -516 -1022l18 1
q39 45 98 45q160 0 160 -135t-127 -135q-66 0 -90 49l-151 -13q-295 -609 -490 -1063l-32 -110q-22 -66 -55 -99t-105 -33q-62 0 -62 90q0 111 94 303l438 894l-330 -29q-44 -66 -111 -66q-119 0 -119 152q0 139 111 139q48 0 86 -33l457 29z" />
    <glyph glyph-name="eight" unicode="8" horiz-adv-x="2576" 
d="M1610 1585q-388 0 -820 -333q-446 -343 -446 -699q0 -259 276 -371q117 -48 211 -47q368 4 877 356q524 362 524 709q0 225 -323 336q-145 49 -299 49zM942 1602q19 0 137 50q143 61 152 65q84 29 211 44q53 6 154 122q78 89 123 165q67 112 67 209q0 183 -172 248
q-105 39 -328 39q-279 0 -447 -202q-151 -183 -151 -396q0 -344 254 -344zM807 -49q-142 -1 -297 85q-144 81 -238 200q-112 141 -112 333q0 238 204 520t443 381q-311 46 -311 443q0 469 397 699q205 118 491 116q181 -2 319 -69q271 -132 271 -378q0 -173 -178 -396
q-74 -92 -125 -124v-8q389 0 637 -259q117 -122 117 -269q0 -450 -586 -867q-566 -403 -1032 -407z" />
    <glyph glyph-name="nine" unicode="9" horiz-adv-x="2458" 
d="M385 553q77 -224 192 -326q131 -117 353 -116q374 2 659 227q270 211 407 574q118 315 118 538q0 129 -25 270h-8q-165 -328 -699 -526q-236 -88 -424 -88q-375 0 -601 304q-95 126 -95 228q0 357 164 610q175 271 505 370q261 77 494 77q231 0 420.5 -116t288.5 -322
q98 -19 98 -135q0 -20 -4 -51l-4 -31q74 -208 74 -520q0 -441 -169 -801q-186 -395 -540 -605q-311 -185 -622 -188q-383 -4 -598 250q-110 129 -160 328q-57 19 -57 94q0 115 127 115q114 0 114 -115q0 -7 -4 -22t-4 -23zM1982 2023q0 288 -294 424q-138 64 -312 64
q-522 0 -792 -369q-138 -188 -138 -454q0 -211 299 -345q126 -57 230 -57q200 0 449 122q229 112 385 267q173 171 173 348z" />
    <glyph glyph-name="colon" unicode=":" horiz-adv-x="848" 
d="M401 -16q-176 0 -176 192q0 262 221 262q177 0 177 -180q0 -94 -63 -180q-69 -94 -159 -94zM401 1192q-176 0 -176 192q0 304 213 304q185 0 185 -279q0 -217 -222 -217z" />
    <glyph glyph-name="semicolon" unicode=";" horiz-adv-x="848" 
d="M631 1417q0 -258 -246 -258q-63 0 -115.5 56.5t-52.5 119.5q0 353 229 353q185 0 185 -271zM438 25q-40 -50 -86 -50q-143 0 -143 185q0 250 254 250q201 0 201 -283q0 -315 -319 -454q-133 -58 -243 -58q-20 0 -44.5 26.5t-24.5 47.5q0 69 143 69q107 0 184 81
q74 77 86 186h-8z" />
    <glyph glyph-name="less" unicode="&#x3c;" horiz-adv-x="2273" 
d="M1753 193q94 0 94 -58q0 -44 -41 -96q-43 -55 -86 -55q-62 0 -82 57l-1208 790q-111 73 -111 136q0 60 74 98l1245 647q0 31 30 58.5t61 27.5q42 0 92.5 -39t50.5 -80q0 -92 -103 -102l-1200 -635z" />
    <glyph glyph-name="equal" unicode="=" horiz-adv-x="2273" 
d="M1831 401h-1368q-77 -49 -127 -49q-111 0 -111 119q0 143 119 143q66 0 102 -28h1377q60 45 131 45q94 0 94 -135q0 -119 -143 -119q-50 0 -74 24zM1831 1200h-1368q-78 -57 -119 -57q-119 0 -119 123q0 151 111 151q73 0 110 -33h1377q51 41 131 41q94 0 94 -131
q0 -127 -143 -127q-41 0 -74 33z" />
    <glyph glyph-name="greater" unicode="&#x3e;" horiz-adv-x="2273" 
d="M520 193l1184 749l-1208 635q-95 9 -95 102q0 42 46.5 80.5t89.5 38.5q86 0 86 -86l1249 -647q74 -38 74 -98q0 -66 -107 -136l-1216 -790q-10 -57 -70 -57q-41 0 -85 56q-42 53 -42 95q0 58 94 58z" />
    <glyph glyph-name="question" unicode="?" horiz-adv-x="1688" 
d="M807 201q0 -226 -193 -226q-49 0 -96 51.5t-47 100.5q0 218 85 269q51 30 149 30q102 0 102 -225zM942 905q0 94 66 94q135 0 135 -127q0 -130 -189 -207q-147 -59 -299 -59q-130 0 -211 76q-84 78 -84 207q0 255 232 462q66 60 424 345q463 369 463 594q0 184 -207 260
q-96 35 -207 35q-178 0 -421 -184q-189 -142 -341 -328q0 -127 -70 -127q-56 0 -100 35q-47 38 -47 92q0 106 82 127q111 124 364 363q253 206 586 206q319 0 485 -257q70 -110 68 -194q-5 -206 -185 -422q-94 -113 -343 -327q-172 -139 -498 -430q-92 -92 -92 -234
q0 -114 135 -114q254 0 254 114z" />
    <glyph glyph-name="at" unicode="@" horiz-adv-x="3215" 
d="M1753 193q-157 -134 -300 -182q-132 -44 -347 -44q-477 0 -691 253q-198 234 -198 722q0 678 569 1254q567 573 1246 573q974 0 974 -1122q0 -562 -255 -926q-236 -336 -519 -336q-203 0 -217 344q12 152 33 455l-8 8q-34 -132 -193 -287q-165 -161 -239 -222
q-143 -117 -276 -170q-125 -50 -275 -50q-136 0 -231 114q-90 108 -89 246q4 533 399 979q400 451 920 451q62 0 94 -4q0 86 91 86q110 0 110 -119q0 -32 -16 -82q-15 -161 -48 -492l-56 -584q-23 -253 -23 -313q0 -167 57 -167q135 0 330 240q227 281 227 718
q0 717 -311 953q-169 128 -455 128q-676 0 -1192 -568q-487 -537 -487 -1107q0 -613 338 -753q163 -68 391 -70q347 -3 549 209q10 90 98 90q152 0 152 -99q0 -126 -152 -126zM930 864q0 -217 180 -217q193 0 469 252q219 200 359 419q184 287 184 562q0 201 -160 201
q-349 0 -695 -432q-337 -420 -337 -785z" />
    <glyph glyph-name="A" unicode="A" horiz-adv-x="2585" 
d="M410 82q0 -98 -123 -98q-75 0 -94 10q-33 16 -33 80q0 74 49 184l983 2208q18 78 84 222q28 40 84 40q127 0 127 -102q0 -29 -16.5 -57.5t-16.5 -57.5q0 -199 459 -1176q106 -225 220 -457l174 -356q134 -280 134 -370q0 -168 -123 -168q-143 0 -143 82q0 30 12.5 80
t12.5 71q0 102 -127 377l-295 639l-955 -57l-295 -639q-68 -146 -98 -268q-20 -80 -20 -187zM1688 1401l-361 966l-422 -1024z" />
    <glyph glyph-name="B" unicode="B" horiz-adv-x="2511" 
d="M438 -41q-143 0 -143 90q0 72 65 94v2282q-32 32 -32 69q0 91 151 91q82 0 82 -66q0 -21 -6 -39q-5 -13 -10 -31l8 -8q154 95 485 161q295 60 514 60q176 0 316 -57q188 -78 188 -229q0 -209 -225 -399q-180 -152 -414 -232v-16q62 8 230 8q184 0 294 -31
q104 -29 201 -104q79 -61 147 -170q70 -115 70 -191q0 -577 -798 -1008q-167 -90 -550 -183q-378 -91 -573 -91zM545 143q409 0 980 289q642 325 642 768q0 385 -688 385q-275 0 -615 -50q-83 -13 -209 -40q-110 -24 -110 -86v-1266zM545 1671q303 0 640 122
q360 130 562 333q117 118 117 217q0 135 -287 135q-735 0 -1032 -254v-553z" />
    <glyph glyph-name="C" unicode="C" horiz-adv-x="2208" 
d="M1794 569q5 176 119 176q135 0 135 -122q0 -68 -74 -144q-529 -545 -975 -545q-551 0 -739 570q-84 252 -84 536q0 348 151 728t390 633q270 286 651 286q347 0 610 -189q111 -81 111 -155q0 -135 -115 -135q-73 0 -94 90q-25 107 -219 164q-142 41 -293 41
q-477 0 -762 -563q-246 -484 -246 -924q0 -536 289 -776q144 -121 350 -121q181 0 435 153q231 139 360 297z" />
    <glyph glyph-name="D" unicode="D" horiz-adv-x="2486" 
d="M360 0v2458q0 16 -8 49.5t-8 52.5q0 82 127 82q107 0 107 -90q0 -33 -17 -58l8 -8q458 185 885 185q387 0 635 -293q229 -270 229 -584q0 -735 -597 -1296q-591 -555 -1328 -555q-33 0 -33 57zM545 2241v-2081q700 96 1157 589q432 466 432 988q0 258 -187 491
q-207 258 -522 258q-511 0 -880 -245z" />
    <glyph glyph-name="E" unicode="E" horiz-adv-x="2298" 
d="M1921 82q-136 0 -584 -38l-408 -34q-207 -17 -376 -26q-38 -50 -123 -50q-116 0 -127 99q0 62 57 110v1024q-65 0 -65 90q0 107 65 136v872q-102 0 -102 86q0 96 61 127q-24 48 -24 66q0 90 135 90q139 0 139 -148l1184 82q58 58 119 58q151 0 151 -148q0 -143 -168 -143
q-67 0 -118 41l-1192 -78v-905l1032 127q56 41 127 41q127 0 127 -119q0 -139 -152 -139q-33 0 -69 24l-1065 -119v-1040l1360 111q65 32 102 32q39 0 70 -45q28 -42 28 -82q0 -94 -139 -110q-12 8 -45 8z" />
    <glyph glyph-name="F" unicode="F" horiz-adv-x="2130" 
d="M545 184q49 -48 49 -110q0 -46 -58 -75q-48 -24 -98 -24q-143 0 -143 107q0 86 65 127v1040q-65 38 -65 103t65 98v807q-57 22 -57 102q0 90 49 90q10 177 127 177q90 0 90 -74q0 -41 -16 -58l1151 168q19 0 44.5 12.5t45.5 12.5q143 0 143 -102q0 -144 -122 -144
q-65 0 -119 33l-1151 -184v-828l1110 156q41 37 114 37q78 -23 78 -111q0 -143 -110 -143q-58 0 -82 24l-1110 -159v-1082z" />
    <glyph glyph-name="G" unicode="G" horiz-adv-x="2929" 
d="M2568 1401q-442 -121 -713 -177q-152 -32 -217 -32q-135 0 -135 90q0 102 114.5 102t698.5 146q291 72 338 72q107 0 107 -140q0 -446 -378 -940q-457 -596 -1265 -596q-597 0 -831 517q-111 244 -111 556q0 568 311 950q160 196 443 418q304 239 666 325q153 36 259 36
q344 0 529 -94q49 -16 128 -107q81 -95 81 -143q0 -127 -90 -127q-101 0 -119 86q-20 201 -569 201q-438 0 -927 -445q-528 -482 -528 -1100q0 -532 343 -770q175 -122 407 -118q202 3 377 37q312 59 594 339q293 291 419 605q64 159 68 309z" />
    <glyph glyph-name="H" unicode="H" horiz-adv-x="2568" 
d="M545 152q16 -66 16 -95q0 -82 -123 -82q-127 0 -127 91q0 38 49 61v1147q-65 32 -65 94q0 94 65 94v1024q-3 8 -18 32q-14 21 -14 34q0 90 135 90q106 0 106 -82q0 -32 -24 -82v-1008l1478 99v909q0 18 -12 46.5t-12 43.5q0 74 115 74q118 0 118 -57q0 -41 -24 -91v-2367
q24 -48 24 -70q0 -82 -118 -82q-140 0 -140 107q0 19 49 70v1232l-1478 -102v-1130z" />
    <glyph glyph-name="I" unicode="I" horiz-adv-x="905" 
d="M545 152q49 -37 49 -95q0 -82 -156 -82q-135 0 -135 111q0 44 57 74v2306q-41 36 -41 69q0 107 185 107q102 0 102 -90q0 -45 -61 -111v-2289z" />
    <glyph glyph-name="J" unicode="J" horiz-adv-x="2130" 
d="M279 352q0 -393 434 -393q509 0 766 398q106 164 106 290v1737q-49 61 -49 119q0 123 143 123q127 0 127 -132q0 -33 -15 -67q-9 -21 -13 -35v-1814q0 -169 -167 -375q-139 -172 -310 -281q-233 -147 -547 -147q-680 0 -680 635q0 213 119 213q51 0 105 -46.5t54 -97.5
q0 -66 -73 -127z" />
    <glyph glyph-name="K" unicode="K" horiz-adv-x="2298" 
d="M545 160q33 -34 33 -86q0 -99 -123 -99q-144 0 -144 99q0 43 49 94v2318q-24 25 -24 66q0 90 110 90q115 0 115 -74q0 -49 -16 -65v-705l966 754q55 82 99 82q135 0 135 -131q0 -32 -37 -59t-70 -27l-1032 -779l1536 -1486q107 0 107 -70q0 -54 -47.5 -88.5t-104.5 -34.5
q-106 0 -106 74l-1446 1417v-1290z" />
    <glyph glyph-name="L" unicode="L" horiz-adv-x="1905" 
d="M537 -49q-70 -17 -111 -17q-115 0 -115 99q0 78 49 94l-12 2354q-12 32 -12 46q0 115 119 115q123 0 123 -115q0 5 -33 -69v-2323l999 135q49 49 103 49q106 0 106 -102q0 -135 -82 -135q-5 0 -61 4z" />
    <glyph glyph-name="M" unicode="M" horiz-adv-x="3097" 
d="M545 160q49 -39 49 -103q0 -82 -139 -82q-127 0 -127 91q0 61 32 86v2367q0 67 21.5 87t89.5 20q103 0 115 -66q29 -158 78 -352q47 -184 373 -815q212 -411 241 -473q142 -295 192 -490h17q88 296 395 776q425 664 477 761q135 252 135 609q0 66 107 66q152 0 152 -98
q0 -58 -17 -78v-2323q41 -8 41 -86q0 -82 -143 -82q-123 0 -123 82q0 50 41 70v1835h-8q-63 -197 -220 -455q-25 -42 -277 -426q-212 -322 -326 -541q-110 -211 -144 -413q-13 -77 -31 -105q-14 -22 -84 -22q-127 0 -127 184q0 194 -276 761q-170 325 -490 984h-24v-1769z
" />
    <glyph glyph-name="N" unicode="N" horiz-adv-x="2503" 
d="M545 152q33 -56 33 -95q0 -59 -24 -73q-15 -9 -83 -9q-160 0 -160 107q0 19 49 70l-8 2314q0 9 -8 33t-8 36q0 107 102 107q148 0 148 -82q0 -69 184 -455q162 -340 655 -973l286 -366q187 -251 243 -389h8v2150q-25 52 -25 74q0 86 103 86q135 0 135 -78q0 -65 -25 -90
v-2376q41 -61 41 -86q0 -82 -143 -82q-71 0 -89 20q-22 26 -54 116q-68 194 -364 574q-515 661 -543 700q-312 430 -445 757h-8v-1990z" />
    <glyph glyph-name="O" unicode="O" horiz-adv-x="2441" 
d="M2089 1487q2 246 -45 460q-92 412 -341 564q-123 74 -278 74q-346 0 -694 -473q-164 -223 -265 -507q-105 -292 -106 -589q-2 -485 202 -695t470 -210q318 0 572 229q221 198 351 522q131 328 134 625zM168 1040q-3 592 388 1156q397 573 878 573q520 0 734 -586
q105 -290 105 -696q0 -384 -156 -735q-162 -366 -452 -594q-295 -232 -682 -232q-401 0 -613 331q-199 310 -202 783z" />
    <glyph glyph-name="P" unicode="P" horiz-adv-x="2224" 
d="M545 1479q342 0 875.5 298t533.5 488q0 193 -283 193q-532 0 -1126 -344v-635zM545 143q33 -49 33 -69q0 -99 -152 -99q-115 0 -115 91q0 47 49 86v1847q-102 0 -102 90q0 83 102 135v242q-24 12 -24 53q0 107 127 107q123 0 123 -107q0 -21 -20.5 -84.5t-20.5 -107.5
q613 315 1057 315q540 0 540 -369q0 -235 -380 -501q-264 -186 -589 -316q-388 -157 -628 -162v-1151z" />
    <glyph glyph-name="Q" unicode="Q" horiz-adv-x="2527" 
d="M1688 446q-163 206 -394 443q0 31 27 77q29 50 55 50q37 0 87 -42t91 -86q86 -101 261 -302q169 209 264 530q88 295 88 588q0 508 -317 751q-137 105 -273 105q-279 0 -583 -249q-256 -210 -420 -491q-214 -368 -214 -882q0 -819 578 -819q415 0 750 327zM2273 -135
q-176 142 -467 454q-255 -273 -566 -349q-147 -36 -310 -36q-407 0 -598 315q-156 257 -156 693q0 717 443 1264q436 538 974 538q225 0 412 -176q159 -149 253 -383q104 -260 101 -538q-2 -199 -43 -418q-83 -445 -370 -783q221 -272 462 -446q95 0 95 -74q0 -58 -52 -98
q-48 -37 -108 -37q-56 0 -70 74z" />
    <glyph glyph-name="R" unicode="R" horiz-adv-x="2359" 
d="M545 2359q525 275 1016 275q198 0 325 -76q154 -92 154 -277q0 -163 -59 -273q-62 -116 -187 -210q-192 -143 -507 -265q-306 -118 -632 -165l1487 -1192q148 0 148 -90q0 -135 -148 -135q-84 0 -119 82l-1478 1200v-1081q33 -35 33 -78q0 -99 -148 -99q-119 0 -119 99
q0 27 25 57q15 18 24 29v1896q-4 0 -20 -8t-21 -8q-94 0 -94 94q0 87 135 147v177q-24 54 -24 94q0 90 119 90q123 0 123 -90q0 -24 -33 -86v-107zM1561 2449q-507 0 -1016 -307v-606q372 34 794 212q516 219 516 509q0 192 -294 192z" />
    <glyph glyph-name="S" unicode="S" horiz-adv-x="2568" 
d="M225 471q0 152 119 152q48 0 92 -107q25 -76 51 -151q91 -246 394 -246q297 0 589 129q296 131 489 352q203 232 208 518q3 183 -93 265q-93 79 -280 79q-230 0 -619 -127q-363 -118 -528 -118q-430 0 -430 405q0 242 183 495q161 222 391 364q280 173 651 173
q149 0 289 -48q151 -53 223 -120q86 -80 94 -143q0 -94 -82 -94q-134 0 -143 94q-155 131 -389 131q-441 0 -750 -293q-283 -268 -283 -526q0 -152 68 -206q60 -48 219 -48q79 0 350 88q186 60 373 121q167 45 342 45q287 0 443 -121q157 -124 155 -358q-3 -331 -119 -526
q-113 -190 -377 -380q-467 -336 -950 -336q-484 0 -626 326q-54 124 -54 211z" />
    <glyph glyph-name="T" unicode="T" horiz-adv-x="1913" 
d="M270 2425l586 86q33 49 143 49q25 0 41 -8l746 160q13 0 44 8t50 8q82 0 82 -127q0 -107 -115 -107q-24 0 -94 17l-704 -135v-2241q24 -24 24 -69q0 -91 -143 -91q-82 0 -82 82q0 70 16 86v2192l-602 -111q-30 -24 -69 -24q-111 0 -111 110q0 131 127 131q37 0 61 -16z
" />
    <glyph glyph-name="U" unicode="U" horiz-adv-x="2367" 
d="M360 430v2064q-15 32 -16 41q0 91 102 91q99 0 99 -115v-2118q86 -282 352 -282q383 0 676 225q258 199 258 336v1814q-37 37 -37 66q0 110 135 110q103 0 103 -102q0 -33 -17 -49v-1897q0 -191 -327 -438q-221 -167 -428 -217q-137 -33 -322 -33q-366 0 -512 257
q-66 116 -66 247z" />
    <glyph glyph-name="V" unicode="V" horiz-adv-x="2023" 
d="M905 143q0 -96 -24 -131q-30 -45 -119 -45q-115 0 -115 90q0 30 8.5 88.5t8.5 87.5q0 297 -296 1212q-282 871 -282 1090q0 91 115 91q94 0 94 -201q0 -123 234 -876q82 -257 165 -515q98 -323 121 -522q243 623 587 1203l262 441q107 179 142 269q79 160 131 160
q111 0 111 -111q0 -42 -313 -558l-382 -622q-448 -751 -448 -1151z" />
    <glyph glyph-name="W" unicode="W" horiz-adv-x="2830" 
d="M631 438h16q113 359 336 1077q209 684 209 861q0 127 14 163q28 70 129 70q71 0 83 -120q-1 11 -1 -171q0 -172 287 -960q91 -245 182 -489q103 -289 146 -500h8q47 239 324 1090q86 265 172 531q110 362 126 537q-28 35 -28 74q0 94 151 94q86 0 86 -61
q0 -209 -291 -1089q-153 -461 -253 -802q-94 -316 -152 -632q-20 -106 -48 -139q-25 -29 -95 -29q-93 0 -118 42q-18 29 -18 134q0 182 -251 847q-145 382 -187 503q-100 285 -155 513q-136 -426 -337 -1123q-99 -323 -204 -757q-7 -135 -184 -135q-107 0 -119 133
q-8 80 -13 293q-5 218 -71 538l-118 532q-171 795 -171 1015q0 164 131 164q78 0 78 -90q0 -28 -8 -84t-8 -84q0 -138 66 -446q51 -222 103 -445q106 -491 113 -525q63 -328 70 -530z" />
    <glyph glyph-name="X" unicode="X" horiz-adv-x="1806" 
d="M102 176q227 410 689 1225q-278 637 -607 1040q-73 75 -73 103q0 98 65 98q81 0 143 -49q76 -60 369 -579q130 -230 234 -445q130 204 371 556q137 201 284 419q0 82 94 82q44 0 83 -27q44 -30 44 -72q0 -84 -69 -119q-69 -98 -200 -287l-513 -737q143 -369 455 -903
q130 -224 192 -297q57 -55 57 -90q0 -119 -127 -119q-106 0 -106 127q-156 237 -398 691q-118 219 -200 391q-356 -622 -602 -1127q-36 -73 -144 -73q-28 0 -63 22q-39 25 -39 51q0 78 61 119z" />
    <glyph glyph-name="Y" unicode="Y" horiz-adv-x="2298" 
d="M2281 2503l-1040 -1094v-1249q41 -41 41 -74q0 -111 -147 -111q-111 0 -111 119q0 49 33 99v1216l-975 1102q-82 30 -82 131q0 86 111 86q106 0 106 -86l934 -1065l963 1024q0 86 110 86q111 0 111 -94q0 -77 -54 -90z" />
    <glyph glyph-name="Z" unicode="Z" horiz-adv-x="2089" 
d="M1937 -8q-914 0 -1753 -33q-62 -2 -111.5 33.5t-56.5 93.5q14 67 50 115l1712 2293l-1233 -77q-27 -201 -168 -201q-82 0 -82 119q0 117 43 209q55 118 158 118q56 0 65 -53l1254 70q55 3 119 10q55 6 65 6q74 0 74 -78q0 -31 -14 -53q-19 -23 -77 -98l-1703 -2306
l1519 41q0 168 131 168q111 0 111 -185q0 -182 -103 -192z" />
    <glyph glyph-name="bracketleft" unicode="[" horiz-adv-x="1401" 
d="M336 -729v3240q0 143 94 143q27 0 60 -19l30 -18l520 103q49 49 119 49q123 0 123 -123q0 -119 -90 -119q-74 0 -94 33l-570 -111v-3154l58 -32l581 73q67 41 82 41q86 0 86 -139q0 -89 -151 -102q-23 -2 -339 -32l-267 -26q-103 -20 -123 -20q-114 0 -127 180q8 8 8 33z
" />
    <glyph glyph-name="backslash" unicode="\" horiz-adv-x="1319" 
d="M328 2503l790 -2286q131 -29 131 -123q0 -168 -168 -168q-151 0 -151 115q0 22 12 94l-799 2323q-69 23 -69 118t127 95q82 0 108 -44q19 -32 19 -124z" />
    <glyph glyph-name="bracketright" unicode="]" horiz-adv-x="1401" 
d="M1065 -680q0 -143 -98 -143q-38 0 -86 32l-521 -106q-45 -45 -118 -45q-123 0 -123 119q0 118 90 118q61 0 94 -32l569 114v3150l-57 33l-590 -74q-59 -37 -73 -37q-86 0 -86 136q0 61 43 81q32 15 108 21q51 4 282 27l324 30l44 12q48 13 71 13q127 0 127 -184v-3265z
" />
    <glyph glyph-name="asciicircum" unicode="^" horiz-adv-x="2273" 
d="M1176 2408l-590 -647q0 -123 -82 -123q-152 0 -152 123q0 24 78 111l660 737q44 70 86 70t84.5 -35t42.5 -76l552 -704q58 -74 58 -111q0 -115 -127 -115q-90 0 -90 131z" />
    <glyph glyph-name="underscore" unicode="_" horiz-adv-x="2048" 
d="M0 -303h2048v-209h-2048v209z" />
    <glyph glyph-name="grave" unicode="`" horiz-adv-x="1081" 
d="M647 2298q107 -26 107 -123q0 -127 -140 -127q-104 0 -118 152l-430 569q-66 18 -66 102q0 135 135 135q98 0 98 -159z" />
    <glyph glyph-name="a" unicode="a" 
d="M1585 471q-218 -222 -545 -379q-348 -166 -639 -166q-290 0 -290 226q0 334 412 656q441 343 1070 343v336q0 168 -151 168q-324 0 -614 -173q-136 -82 -230 -188q0 -102 -127 -102q-34 0 -76.5 39t-42.5 72q0 131 119 131q427 405 999 405q138 0 229 -100
q87 -96 87 -236v-1376q20 -25 20 -70q0 -82 -143 -82q-102 0 -102 74q0 20 32 70v352h-8zM1593 967q-447 -16 -685 -142q-74 -39 -261 -161q-108 -70 -224 -217q-125 -157 -128 -254q-3 -82 176 -82q178 0 478 150q251 125 434 269q210 165 210 277v160z" />
    <glyph glyph-name="b" unicode="b" horiz-adv-x="1896" 
d="M512 1106v-979q216 62 496 303q169 145 323 358q271 374 271 691q0 123 -185 123q-274 0 -623 -224q-177 -113 -282 -272zM520 1368q140 186 415 305q260 113 507 113q344 0 344 -332q0 -450 -472.5 -980.5t-887.5 -530.5q-156 0 -156 90q0 57 49 69v2417q-32 50 -32 90
q0 86 143 86q115 0 115 -86q0 -41 -33 -74z" />
    <glyph glyph-name="c" unicode="c" horiz-adv-x="1864" 
d="M1712 639q0 -56 -114 -208q-88 -117 -158 -189q-309 -316 -711 -316q-249 0 -411 174q-158 170 -158 420q0 495 270 882q294 421 770 421q157 0 294 -69q169 -84 169 -226q0 -103 -152 -103q-29 0 -89 73q-81 98 -85 102q-43 38 -137 38q-255 0 -457 -160
q-186 -147 -289 -395q-102 -244 -102 -497q0 -475 455 -475q192 0 397 171q174 145 283 341q4 37 40 106q24 25 75 25q110 0 110 -115z" />
    <glyph glyph-name="d" unicode="d" horiz-adv-x="2105" 
d="M1593 774q-333 -471 -758 -722q-212 -126 -380 -126q-224 0 -314 204q-39 86 -39 173q0 472 427 935q423 458 831 458q107 0 242 -58v856q-41 25 -41 91q0 102 118 102q115 0 115 -119q0 -12 -4 -37t-4 -37v-2342q45 -39 45 -86q0 -91 -143 -91q-111 0 -111 91
q0 53 25 69v639h-9zM1577 1217q0 294 -201 294q-348 0 -717 -423q-364 -417 -364 -769q0 -208 168 -208q222 0 512 266q461 423 555 630q47 103 47 210z" />
    <glyph glyph-name="e" unicode="e" horiz-adv-x="1815" 
d="M688 -66q-259 0 -397 158q-131 149 -131 412q0 504 331 916q317 395 635 395q384 0 513 -295q51 -118 49 -193q-2 -102 -321 -191q-203 -56 -941 -214q-82 -219 -82 -385q0 -219 74 -312q84 -106 295 -106q452 0 741 479q0 25 -4 41q5 98 111 98q104 0 118 -114
q-77 -196 -368 -439q-299 -250 -623 -250zM1470 1384q0 74 -87 158q-92 87 -224 88q-316 3 -647 -512q271 59 809 195q149 42 149 71z" />
    <glyph glyph-name="f" unicode="f" horiz-adv-x="1286" 
d="M631 135q24 -36 24 -69q0 -91 -110 -91q-119 0 -119 91q0 10 6 29t6 24v1360l-286 -54q-37 -24 -58 -24q-86 0 -86 127q0 94 74 94q37 0 61 -4l295 45q0 796 205 977q109 96 299 96q189 0 369 -151q82 -84 82 -127q0 -123 -107 -123q-86 0 -86 90q-127 127 -287 127
q-215 0 -254 -360q-19 -174 -28 -488l586 127q8 2 29.5 21.5t35.5 19.5q111 0 111 -111q0 -131 -74 -131q-22 0 -45 17l-643 -136v-1376z" />
    <glyph glyph-name="g" unicode="g" horiz-adv-x="1954" 
d="M430 -737q-94 86 -94 123q0 143 102 143q74 0 74 -82q148 -135 377 -135q288 0 434 207q127 180 127 481v938h-8q-329 -660 -756 -907q-181 -105 -301 -105q-274 0 -274 385q0 479 351 960q382 523 931 523q206 0 231 -55q14 -34 14 -117v-1704q0 -500 -411 -706
q-169 -84 -305 -84q-311 0 -492 135zM1425 1610q-281 0 -556 -214q-239 -186 -393 -460q-173 -310 -173 -666q0 -159 90 -159q186 0 481 340q221 256 358 505q193 351 193 654z" />
    <glyph glyph-name="h" unicode="h" horiz-adv-x="1962" 
d="M1647 135q16 -24 16 -53q0 -41 -39 -74t-80 -33q-119 0 -119 82q0 54 29 86v1250q0 169 -43 189q-25 11 -84 11q-238 0 -590 -354q-145 -146 -233 -264v-840q24 -36 24 -61q0 -90 -127 -90q-106 0 -106 65q0 46 16 78v2367q-23 71 -24 82q0 119 139 119q36 0 73.5 -29.5
t37.5 -64.5q0 -48 -33 -98v-1262h8q215 295 584 465q175 80 321 80q179 0 211 -198q19 -117 19 -355v-1098z" />
    <glyph glyph-name="i" unicode="i" horiz-adv-x="815" 
d="M504 176q41 -56 41 -82q0 -53 -55 -88q-48 -31 -105 -31q-115 0 -115 127q0 29 41 82v1401q-24 25 -24 53q0 160 143 160q40 0 75 -44q32 -42 32 -83q0 -24 -33 -86v-1409zM410 2064q-123 0 -123 119q0 336 168 336q123 0 123 -135q0 -320 -168 -320z" />
    <glyph glyph-name="j" unicode="j" horiz-adv-x="905" 
d="M594 -410q0 -314 -140 -464q-143 -152 -360 -150q-122 1 -236 53q-108 49 -173 118.5t-62 123.5q8 143 98 143q103 0 103 -127q75 -127 258 -127q319 0 319 512v1848q-49 49 -49 118q0 160 168 160q119 0 119 -176q0 -50 -45 -111v-1921zM479 2056q-119 0 -119 242
q0 92 50 154q53 67 143 67q102 0 102 -160q0 -303 -176 -303z" />
    <glyph glyph-name="k" unicode="k" horiz-adv-x="1671" 
d="M311 2511q-32 64 -32 90q0 94 131 94q118 0 118 -102q0 -16 -24 -66v-1454l856 782q0 82 74 82q52 0 89.5 -39t37.5 -92q0 -73 -82 -86l-815 -753l823 -840q74 -16 74 -78q0 -106 -136 -106q-63 0 -82 65l-839 856v-704q3 -9 19 -36q14 -23 14 -38q0 -111 -127 -111
q-123 0 -123 119q0 40 24 66v2351z" />
    <glyph glyph-name="l" unicode="l" horiz-adv-x="815" 
d="M504 152q49 -33 49 -78q-18 -99 -123 -99q-135 0 -135 119q0 24 16 58v2314q-24 42 -24 94q0 83 29 106q25 21 110 21q127 0 127 -94q0 -81 -49 -135v-2306z" />
    <glyph glyph-name="m" unicode="m" horiz-adv-x="2986" 
d="M1561 152q0 -150 -42 -167q-25 -10 -85 -10q-107 11 -107 99q0 37 49 86v1409q0 69 -90 69q-64 0 -391 -241q-271 -200 -391 -307v-930q24 -33 24 -78q0 -107 -110 -107q-131 0 -131 111q0 -30 24 90v1487q-24 49 -24 106q0 103 151 103q90 0 90 -135q-3 -5 -24 -58v-336
q187 156 437 316q333 213 468 213q112 0 142 -191q10 -64 10 -272v-127q768 590 942 590q81 0 128 -71q40 -61 40 -146v-1512q32 -24 32 -69q0 -99 -143 -99q-102 0 -102 107q0 32 20 45v1393q0 90 -37 90q-126 0 -563 -331l-317 -239v-888z" />
    <glyph glyph-name="n" unicode="n" horiz-adv-x="1962" 
d="M1647 135q16 -8 16 -53q0 -107 -119 -107q-102 0 -102 99q0 28 12 53v1434q0 69 -94 69q-73 0 -428 -276q-279 -218 -428 -355v-880q16 -17 16 -53q0 -91 -127 -91q-114 0 -114 74q0 45 32 70v803q-39 26 -49 77q11 55 49 127v570q-16 33 -16 82q0 40 47 69q42 25 84 25
q111 0 111 -86q0 -37 -33 -82v-455q705 623 897 623q94 0 168 -60q78 -65 78 -157v-1520z" />
    <glyph glyph-name="o" unicode="o" horiz-adv-x="1954" 
d="M1602 1073q0 280 -110 431q-113 153 -308 151q-196 -2 -393 -140q-212 -149 -329 -401q-110 -237 -110 -508q0 -495 385 -495q234 0 442 148q190 137 306.5 359t116.5 455zM688 -74q-264 0 -435 272q-93 147 -93 380q0 505 288 871q300 382 760 382q334 0 496 -310
q90 -172 90 -456q0 -451 -329 -793q-332 -346 -777 -346z" />
    <glyph glyph-name="p" unicode="p" horiz-adv-x="1974" 
d="M504 319q82 -184 225 -184q223 0 461 217q192 175 322 414q143 263 143 467q0 134 -55 239q-69 130 -191 130q-371 0 -661 -378q-123 -161 -244 -376v-529zM504 -1106q24 -20 24 -70q0 -90 -135 -90q-106 0 -106 66q0 42 24 102v2720q-24 48 -24 82q0 102 114 102
q127 0 127 -94q0 -12 -12 -40t-12 -50v-438h8q272 410 552 537q144 65 304 65q214 0 346.5 -127t132.5 -340q0 -467 -298 -847q-109 -138 -230 -239q-169 -141 -310 -207q-159 -75 -255 -75q-169 0 -250 90v-1147z" />
    <glyph glyph-name="q" unicode="q" horiz-adv-x="2040" 
d="M1528 1057q-362 -1090 -1008 -1090q-175 0 -294 259q-67 145 -66 368q3 523 357 868q340 332 826 332q93 0 217 -25q169 -35 169 -90v-2629l16 -8l237 253q0 23 22 48.5t44 25.5q99 0 111 -123q0 -76 -263 -303q-222 -192 -274 -192q-79 0 -94 114q8 9 8 25v2167h-8z
M1536 1585q-109 25 -209 25q-230 0 -454 -125q-214 -119 -354 -312q-167 -229 -167 -575q0 -154 39 -272q56 -174 178 -174q211 0 437 321q250 356 530 1112z" />
    <glyph glyph-name="r" unicode="r" horiz-adv-x="1479" 
d="M1282 1450q-7 52 -22 113q-6 6 -35 14q-68 0 -365 -215q-265 -191 -356 -281v-921q41 -20 41 -78q0 -72 -46 -93q-29 -14 -114 -14q-115 0 -115 99q0 42 41 69v1520q0 18 -16 66q0 69 131 69q94 0 94 -61q0 -32 -16 -66v-344h8q246 212 589 393q141 74 185 74
q184 0 184 -434q0 -57 -102 -57t-102 65q0 50 16 82z" />
    <glyph glyph-name="s" unicode="s" horiz-adv-x="2007" 
d="M242 258q0 168 118 168q78 0 78 -82q0 -49 -12 -74q115 -135 356 -135q272 0 565 222q316 239 316 556q0 80 -62 130q-57 47 -139 47q-122 0 -483 -187q-365 -190 -508 -190q-262 0 -262 327q0 394 419 624q366 200 806 200q68 0 138 -27q91 -34 91 -92q0 -107 -102 -107
q-35 0 -70.5 20.5t-73.5 20.5q-617 0 -895 -323q-129 -150 -129 -324q0 -127 86 -127q105 0 452 179q369 190 539 190q159 0 272 -109.5t113 -267.5q0 -461 -434 -727q-356 -219 -639 -219q-160 0 -330 75q-210 92 -210 232z" />
    <glyph glyph-name="t" unicode="t" horiz-adv-x="1794" 
d="M537 119v1503l-369 -45q-2 0 -23 -12.5t-34 -12.5q-103 0 -103 111q0 115 111 115q-7 0 33 -17l385 54v393q-17 8 -17 65q0 62 144 62q90 0 90 -45q0 -39 -25 -66v-377l664 99q32 16 49 16q86 0 86 -98q0 -119 -66 -119q-37 0 -53 8l-680 -98v-1405q0 -77 41 -98
q156 77 457 250q214 141 350 343q0 103 86 103q115 0 115 -135q0 -85 -284 -325q-213 -179 -369 -281q-248 -162 -396 -164q-192 -3 -192 176z" />
    <glyph glyph-name="u" unicode="u" horiz-adv-x="1966" 
d="M1655 127q24 -37 24 -70q0 -82 -151 -82q-103 0 -103 74q0 17 15 37q19 23 22 33v139q-134 -129 -361 -229q-235 -103 -413 -103q-130 0 -252 106q-125 109 -125 238v1377q0 10 -8 28t-8 29q0 94 131 94q102 0 102 -86q0 -49 -24 -65v-1360q0 -69 84 -126q77 -52 149 -50
q328 8 725 368v1168q0 11 -6 32.5t-6 32.5q0 74 86 74q119 0 119 -139v-1520z" />
    <glyph glyph-name="v" unicode="v" horiz-adv-x="1602" 
d="M647 -41q-46 0 -85 41t-42 119q-2 62 -135 456q-166 490 -175 518q-108 353 -108 525q-13 6 -20 37q45 131 127 131q36 0 71 -23q39 -25 39 -59q0 -46 -32 -94q0 -112 140 -544l129 -402q58 -184 99 -336q83 175 382 690q224 386 331 645q63 152 135 152q99 0 99 -86
q0 -91 -366 -724q-194 -334 -311 -556q-124 -235 -154.5 -362.5t-123.5 -127.5z" />
    <glyph glyph-name="w" unicode="w" horiz-adv-x="2298" 
d="M512 393h8l488 1176q-33 95 -33 119q0 98 143 98q115 0 115 -242l303 -1184h8q47 183 211 495q129 245 259 490q59 122 67 265q-17 25 -17 78q0 98 152 98q90 0 102 -82q0 -74 -45 -111q-26 -262 -323 -763q-295 -497 -295 -789q0 -74 -103 -74q-135 0 -135 115
l-311 1229h-8l-492 -1184q0 -160 -119 -160q-118 0 -118 176l-234 1479q-33 22 -33 90q0 127 115 127q119 0 119 -110q0 -18 -17 -50z" />
    <glyph glyph-name="x" unicode="x" horiz-adv-x="1622" 
d="M111 168l512 704q-404 428 -529 713q-37 25 -37 94q0 43 37.5 75t81.5 32q86 0 86 -90v-17q70 -217 492 -655l549 688q0 86 81 86q127 0 127 -102q0 -60 -61 -103l-561 -688q317 -287 565 -646q107 -156 107 -210q0 -106 -99 -106q-49 0 -86 65q-134 237 -407 550
q-126 143 -199 196l-520 -705q0 -98 -98 -98q-111 0 -111 135q0 57 70 82z" />
    <glyph glyph-name="y" unicode="y" horiz-adv-x="1769" 
d="M143 -401q35 -238 295 -238q220 0 346 224q74 133 158 390l-876 1610q-50 37 -50 111q0 90 111 90q131 0 131 -148l774 -1413l496 1479q0 94 102 94q131 0 131 -86q0 -43 -57 -94l-655 -1905q-143 -415 -345 -494q-110 -42 -294 -42q-309 0 -451 360q-6 16 -28 37
q-17 17 -17 33q0 143 102 143q160 0 160 -78q0 -57 -33 -73z" />
    <glyph glyph-name="z" unicode="z" horiz-adv-x="1769" 
d="M311 1745h1131q69 53 119 53q102 0 102 -86q0 -60 -86 -143l-1147 -1385h1012q27 193 110 193q95 0 95 -176q0 -226 -136 -234q-21 -1 -94 33h-1159q-21 -33 -74 -33q-135 0 -135 82q0 80 86 111l1168 1401h-975l-4 -138q-14 -80 -82 -80q-75 0 -96 54q-11 30 -11 123
q0 139 21 174q31 51 155 51z" />
    <glyph glyph-name="braceleft" unicode="{" horiz-adv-x="1425" 
d="M1081 -942q-335 0 -431 186q-56 109 -56 310q0 87 25 260q28 194 28 280q0 623 -201 720q-104 50 -311 50q-102 0 -102 86q0 131 151 131q318 0 413 157q108 177 108 802q0 434 282 657q133 105 299 105q83 0 112 -20q36 -26 36 -103q0 -111 -209 -111q-161 0 -253 -175
q-75 -142 -75 -320v-418q0 -354 -160 -577q-82 -113 -200 -128v-8q186 -29 245 -263q60 -244 58 -597q0 -71 -22 -259q-19 -166 -19 -241q0 -352 176 -352q91 0 209.5 37t142.5 37q107 0 107 -111q0 -98 -119 -121q-76 -14 -234 -14z" />
    <glyph glyph-name="bar" unicode="|" horiz-adv-x="815" 
d="M504 94q49 -33 49 -78q0 -90 -123 -90q-135 0 -135 115q0 13 16 53v2441q-24 75 -24 111q0 123 139 123q127 0 127 -107q0 -127 -49 -127v-2441z" />
    <glyph glyph-name="braceright" unicode="}" horiz-adv-x="1425" 
d="M344 2802q333 0 431 -188q56 -109 56 -308q0 -92 -28.5 -272.5t-28.5 -272.5q0 -621 202 -719q104 -51 310 -51q107 0 107 -94q0 -123 -152 -123q-316 0 -411 -156q-109 -180 -109 -802q0 -433 -285 -654q-135 -104 -301 -104q-80 0 -108 20q-35 24 -35 99q0 66 47 84
q42 16 162 18q112 2 188 91q139 165 139 413v410q0 230 75 424q98 257 286 280v8q-194 37 -258 309q-45 191 -45 564q0 85 18.5 249.5t18.5 245.5q0 353 -177 353q-160 0 -270 -56q-51 -26 -90 -26q-94 0 -94 118q0 102 137 130q51 10 215 10z" />
    <glyph glyph-name="asciitilde" unicode="~" horiz-adv-x="2273" 
d="M311 831l117 141q170 204 428 204q154 0 347 -222q180 -209 284 -209q255 0 291 224q24 149 25 152q28 104 85 104q45 0 93 -23q59 -27 59 -67q0 -296 -242 -478q-128 -96 -328 -96q-132 0 -252 91q-50 37 -198 191q-135 140 -197 140q-77 0 -154 -52q-72 -48 -124 -132
q-48 -92 -144 -201q-168 0 -168 115q0 43 32 75q12 12 46 43z" />
    <glyph glyph-name="exclamdown" unicode="&#xa1;" horiz-adv-x="872" 
d="M336 950q-33 54 -33 131q0 39 67 69q57 26 101 26q107 0 107 -119q0 -53 -50 -115v-1679q66 -61 66 -111q0 -85 -62 -111q-37 -16 -139 -16q-114 0 -114 119q0 61 57 111v1695zM430 1376q-127 0 -127 209q0 123 47.5 172t169.5 49q94 0 94 -118q0 -106 -40 -196
q-51 -116 -144 -116z" />
    <glyph glyph-name="cent" unicode="&#xa2;" horiz-adv-x="1946" 
d="M905 463q-87 -17 -160 -17q-338 0 -512 329q-81 153 -81 335q0 577 398 875q148 111 355 174v417q-41 29 -41 78q0 90 176 90q103 0 103 -118q0 -50 -45 -50v-352q128 49 245 49q240 0 360 -154q50 -65 50 -120q0 -59 -51 -99q-48 -36 -109 -36q-42 0 -70 72
q-42 108 -42 109q-25 36 -129 36q-127 0 -254 -49v-1327q106 33 244.5 122t209.5 172q0 75 15 95q18 24 88 24q114 0 114 -94q0 -124 -277 -302q-209 -133 -394 -202v-606q28 -46 28 -74q0 -73 -127 -73q-118 0 -118 73q0 18 24 78v545zM905 655v1319q-561 -244 -561 -807
q0 -303 218 -466q99 -74 212 -78q84 14 131 32z" />
    <glyph glyph-name="sterling" unicode="&#xa3;" horiz-adv-x="2527" 
d="M160 -33q-94 11 -94 135q0 81 154 118q194 45 285 132.5t154 516.5q25 175 54 434q-296 -21 -394 -21q-94 0 -94 102q0 77 135 86l369 25q33 375 73 548q77 333 245 479q161 140 432 132t475 -205q78 0 78 -73q0 -119 -144 -119q-90 0 -90 78q-127 131 -344 131
q-260 0 -355 -169.5t-186 -793.5l856 66q43 24 95 24q73 0 73 -114q0 -119 -82 -119q-49 0 -61 24l-905 -73q-43 -500 -103 -753q-38 -162 -98 -271q294 0 675 -114q204 -62 316 -62q389 0 504 393q-16 24 -16 49q0 119 90 119q160 0 160 -135q0 -72 -50 -82
q-161 -397 -408 -485q-123 -44 -296 -44q-198 0 -378 93q-194 100 -515 100q-167 0 -447 -104q-128 -48 -163 -48z" />
    <glyph glyph-name="currency" unicode="&#xa4;" horiz-adv-x="2040" 
d="M193 2073q-74 12 -74 127q0 98 82 98q137 0 151 -148l127 -151q248 225 619 225q252 0 471 -217l160 184q11 99 77 99q168 0 168 -156q0 -67 -102 -78q-8 8 -25 8l-168 -192q193 -245 193 -578q0 -374 -209 -639l98 -77q144 -38 144 -168q0 -99 -107 -99q-53 0 -94 37.5
t-41 89.5l-111 107q-288 -242 -594 -242q-281 0 -495 201l-127 -119v-25q0 -73 -78 -73q-147 0 -147 139q0 94 114 94l119 103q-176 209 -176 610q0 382 192 639zM1106 2040q-474 0 -668 -448q-86 -198 -86 -408q0 -394 254 -594q131 -103 324 -103q440 0 655 430
q94 189 94 386q0 380 -287 625q-132 112 -286 112z" />
    <glyph glyph-name="yen" unicode="&#xa5;" horiz-adv-x="2433" 
d="M217 2560l1024 -1057l967 1024q0 99 110 99q43 0 79 -36t36 -79q0 -64 -57 -86l-1049 -1098v-102l610 41q54 37 111 37q94 0 94 -127t-143 -127q-33 0 -53 24l-619 -41v-352l610 41q54 49 111 49q94 0 94 -139q0 -127 -143 -127q-27 0 -53 33l-619 -50v-319
q33 -33 33 -66q0 -127 -143 -127q-111 0 -111 136q0 67 29 82v286l-504 -33q-72 -45 -119 -45q-111 0 -111 119q0 144 111 144q74 0 111 -33l512 33v360l-504 -33q-55 -49 -119 -49q-111 0 -111 123q0 143 111 143q74 0 111 -32l512 32v119l-1053 1106q-82 37 -82 135
q0 78 111 78q106 0 106 -86z" />
    <glyph glyph-name="section" unicode="&#xa7;" horiz-adv-x="2359" 
d="M889 -102q234 0 462 79q246 86 400 238t154 346q0 361 -410 361q-145 0 -446 -65.5t-451 -65.5q-165 0 -271 97q-110 100 -110 263q0 215 168 401q-90 127 -90 242q0 276 175 482q160 188 434 284q260 91 489 94q169 2 311 -59q75 -33 170 -99q125 -86 125 -137
q0 -43 -45.5 -80.5t-89.5 -37.5q-103 0 -103 102q-163 143 -418 143q-506 0 -754 -356q-102 -147 -102 -258q0 -158 63.5 -218.5t223.5 -60.5q146 0 390 59q248 60 372 60q266 0 430 -120q184 -135 184 -392q0 -170 -127 -336q74 -105 74 -241q0 -366 -346 -636
q-353 -274 -854 -274q-430 0 -626 284q-87 125 -87 253q0 151 111 151q60 0 79 -48q3 -9 56 -210q27 -104 157 -176q123 -69 302 -69zM1896 983q66 129 66 209q0 157 -120 257q-113 95 -273 95q-179 0 -428 -71q-221 -64 -334 -64q-144 0 -279 45q-46 -35 -86.5 -112.5
t-40.5 -133.5q0 -233 238 -233q168 0 432 57q269 58 391 58q268 0 434 -107z" />
    <glyph glyph-name="dieresis" unicode="&#xa8;" horiz-adv-x="1343" 
d="M426 2351q0 -153 -33 -204q-43 -66 -184 -66q-65 0 -107 75q-36 64 -36 134q0 204 192 204q168 0 168 -143zM1282 2318q0 -229 -201 -229q-151 0 -151 192q0 213 160 213q76 0 134 -50.5t58 -125.5z" />
    <glyph glyph-name="copyright" unicode="&#xa9;" horiz-adv-x="3215" 
d="M1384 66q430 0 867 341q510 399 510 1072q0 274 -133.5 501.5t-373.5 358.5q-234 127 -509 127q-327 0 -640 -229q-280 -205 -457 -516q-193 -340 -193 -722q0 -610 500 -836q214 -97 429 -97zM1376 -119q-276 0 -525.5 131.5t-405.5 359.5q-175 253 -175 627
q0 408 216 805q209 386 548 633q344 250 719 250q408 0 774 -281q426 -328 426 -911q0 -766 -525 -1212q-472 -402 -1052 -402zM2273 1135q0 -105 -226 -296q-168 -142 -320 -227q-220 -125 -384 -125q-512 0 -512 512q0 427 387 727q373 289 830 289q127 0 127 -237
q33 -44 33 -74q0 -102 -144 -102q-118 0 -118 102q0 15 8 44.5t8 45.5q0 21 -16 21q-187 0 -410 -118q-206 -108 -341 -259q-171 -190 -171 -463q0 -303 303 -303q327 0 589 309q108 128 148 236q30 57 70 57q51 0 95 -43.5t44 -95.5z" />
    <glyph glyph-name="ordfeminine" unicode="&#xaa;" horiz-adv-x="1647" 
d="M1282 1712q-98 -127 -368 -240q-277 -117 -496 -120q-220 -3 -234 135q0 184 138 349q119 143 303 234q199 97 415 97q112 0 246 -70v320q0 118 -102 118q-386 0 -631 -229q0 -74 -98 -74q-34 0 -64.5 31t-30.5 64q0 81 95 81q335 279 753 279q113 0 183.5 -66.5
t70.5 -179.5v-954q25 -25 25 -45q0 -58 -144 -58q-86 0 -86 50q4 10 29 45v233h-4zM352 1569q0 -58 111 -58q210 0 510.5 155t300.5 288q0 61 -242 61q-324 0 -573 -248q-107 -106 -107 -198z" />
    <glyph glyph-name="guillemotleft" unicode="&#xab;" horiz-adv-x="1847" 
d="M791 504q98 -14 98 -94q0 -46 -36.5 -84.5t-82.5 -38.5q-86 0 -106 73l-488 648q-23 24 -67 87q-15 27 -15 64q0 50 82 115l655 672q53 54 78 68q18 9 41 9q115 0 115 -118q0 -87 -115 -111l-647 -651zM1495 504q107 -13 107 -94q0 -48 -38 -85.5t-85 -37.5
q-93 0 -103 73l-495 648q-23 32 -60 89q-14 26 -14 62q0 47 82 115l655 672q26 28 75 68q17 9 44 9q44 0 79.5 -37t35.5 -81q0 -84 -115 -111l-647 -651z" />
    <glyph glyph-name="logicalnot" unicode="&#xac;" horiz-adv-x="2273" 
d="M2023 1208v-446q17 -47 17 -82q0 -74 -119 -74q-40 0 -84 25q-51 29 -51 65q0 54 45 78v426h-1454q-17 -24 -74 -24q-78 0 -78 98q0 135 119 135q45 0 57 -25h1520q127 0 127 -102q0 -49 -25 -74z" />
    <glyph glyph-name="registered" unicode="&#xae;" horiz-adv-x="3215" 
d="M1294 1233q292 129 416 209q264 172 264 352q0 78 -86 78q-247 0 -594 -201v-438zM1143 426q-37 0 -37 29q0 15 2 45t2 45v1253q0 115 74 115q66 0 102 -41q393 184 627 184q254 0 254 -295q0 -272 -783 -680q113 -101 226 -203q165 -133 262 -133q88 0 144 97
q51 88 98 88q42 0 76 -32.5t34 -74.5q0 -105 -144 -192q-128 -78 -241 -78q-98 0 -264 120q-65 47 -137 106l-144 118v-360q0 -111 -151 -111zM1376 -119q-276 0 -525.5 131.5t-405.5 359.5q-175 253 -175 627q0 408 216 805q209 386 548 633q344 250 719 250
q408 0 774 -281q426 -328 426 -911q0 -766 -525 -1212q-472 -402 -1052 -402zM1384 66q430 0 867 341q510 399 510 1072q0 274 -133.5 501.5t-373.5 358.5q-234 127 -509 127q-327 0 -640 -229q-280 -205 -457 -516q-193 -340 -193 -722q0 -610 500 -836q214 -97 429 -97z
" />
    <glyph glyph-name="plusminus" unicode="&#xb1;" horiz-adv-x="2273" 
d="M1217 930v-402q40 -20 40 -90q0 -110 -114 -110q-152 0 -152 110q0 74 33 115v377h-561q-72 -49 -119 -49q-119 0 -119 118q0 144 144 144q51 0 77 -33h578v467q-15 26 -41 82q-8 21 -8 45q0 102 135 102q131 0 131 -151q0 -20 -24 -70v-475h598q73 49 131 49
q102 0 102 -127t-152 -127q-23 0 -73 25h-606zM1831 0h-1368q-77 -49 -127 -49q-111 0 -111 123q0 143 119 143q66 0 102 -33h1377q59 49 131 49q94 0 94 -139q0 -127 -143 -127q-41 0 -74 33z" />
    <glyph glyph-name="twosuperior" unicode="&#xb2;" horiz-adv-x="1511" 
d="M699 1090l-441 -17q-173 0 -172 111q2 243 162 406q113 116 379 244q273 131 313 159q170 117 170 280q0 203 -197 221q-420 0 -493 -211l-46 -144q-37 -83 -104 -83q-38 0 -74 36.5t-36 74.5q0 228 275 395q151 92 405 92q454 0 454 -327q0 -227 -154 -384
q-106 -107 -357 -236q-256 -132 -305 -168q-167 -123 -167 -282l738 25q69 2 69 12q0 148 107 148q102 0 102 -131q0 -93 -24 -149q-26 -60 -288 -71q-158 -1 -316 -1z" />
    <glyph glyph-name="threesuperior" unicode="&#xb3;" horiz-adv-x="1647" 
d="M1106 2122q381 -15 381 -393q0 -414 -396 -609q-193 -96 -452 -96q-249 0 -457 244q-80 94 -80 125q0 110 148 110q40 0 79 -63q25 -50 51 -99q83 -149 316 -149q394 0 559 324q64 127 64 204q0 226 -160 226q-135 0 -186 -20q-71 -27 -125 -126q-40 -71 -111 -71
q-114 0 -114 86q0 99 111 161q58 33 81 56q51 51 126 158l169 243l-4 8l-668 -49q0 -114 -7 -138q-20 -63 -103 -63q-78 0 -78 152q0 108 12 144q24 71 107 73q109 2 653 68q215 26 264 26q90 0 90 -119q0 -45 -270 -413z" />
    <glyph glyph-name="acute" unicode="&#xb4;" horiz-adv-x="897" 
d="M262 2290l483 573q0 81 19 108q24 35 100 35q135 0 135 -127q0 -70 -77 -102l-504 -602q-12 -127 -123 -127q-119 0 -119 119q0 97 86 123z" />
    <glyph glyph-name="mu" unicode="&#xb5;" horiz-adv-x="1966" 
d="M1462 672v950q-12 50 -12 66q0 98 111 98q110 0 110 -74l-16 -90v-1495q24 -24 24 -70q0 -82 -151 -82q-103 0 -103 74q0 16 15 36q19 25 22 34v299q-81 -102 -261 -295q-216 -197 -456 -197q-124 0 -241 131v-913q49 -30 49 -94q0 -99 -123 -99q-143 0 -143 82
q0 78 24 111v2494q0 15 -8 37.5t-8 28.5q0 94 131 94q111 0 111 -86q0 -40 -33 -74v-1261q119 -266 266 -266q212 0 692 561z" />
    <glyph glyph-name="mu" unicode="&#x3bc;" horiz-adv-x="1966" 
d="M1462 672v950q-12 50 -12 66q0 98 111 98q110 0 110 -74l-16 -90v-1495q24 -24 24 -70q0 -82 -151 -82q-103 0 -103 74q0 16 15 36q19 25 22 34v299q-81 -102 -261 -295q-216 -197 -456 -197q-124 0 -241 131v-913q49 -30 49 -94q0 -99 -123 -99q-143 0 -143 82
q0 78 24 111v2494q0 15 -8 37.5t-8 28.5q0 94 131 94q111 0 111 -86q0 -40 -33 -74v-1261q119 -266 266 -266q212 0 692 561z" />
    <glyph glyph-name="paragraph" unicode="&#xb6;" horiz-adv-x="2048" 
d="M1266 82q28 -16 28 -57q0 -91 -143 -91q-111 0 -111 66q0 51 33 74v1495q-296 -66 -487 -66q-308 0 -441 145q-63 67 -63 150q0 250 281 466q210 162 507 263q348 119 699 119q41 33 86 33q139 0 139 -111q0 -65 -33 -74v-2383q25 -53 25 -78q0 -82 -148 -82
q-77 0 -77 65q0 11 4 33t4 33v2376h-41q-133 0 -262 -33v-2343zM1073 1753v647q-428 -103 -685 -356q-118 -116 -118 -221q0 -135 361 -135q188 0 442 65z" />
    <glyph glyph-name="periodcentered" unicode="&#xb7;" horiz-adv-x="848" 
d="M606 905q0 -258 -205 -258q-151 0 -151 225q0 98 56 176q63 87 157 87q143 0 143 -230z" />
    <glyph glyph-name="periodcentered" unicode="&#x2219;" horiz-adv-x="848" 
d="M606 905q0 -258 -205 -258q-151 0 -151 225q0 98 56 176q63 87 157 87q143 0 143 -230z" />
    <glyph glyph-name="cedilla" unicode="&#xb8;" horiz-adv-x="1352" 
d="M233 -799q-8 -16 -40 -16q-66 0 -66 86q0 90 98 90q62 0 62 -57q61 -41 176 -41q112 0 187 69q79 71 79 181q0 168 -151 168q-23 0 -74 -17q-41 -41 -78 -41q-74 0 -74 58q0 33 33 61l295 344q19 49 82 49q25 0 51.5 -30t26.5 -56q0 -51 -58 -74l-159 -184q125 0 201 -68
q81 -71 81 -194q0 -178 -143 -294q-134 -107 -316 -107q-41 0 -113 23q-79 25 -100 50z" />
    <glyph glyph-name="onesuperior" unicode="&#xb9;" horiz-adv-x="848" 
d="M569 2449v-1146q0 -16 8.5 -50.5t8.5 -52.5q0 -135 -193 -135q-98 0 -98 70q0 50 90 168v929q-9 0 -57 -51t-70 -51q-115 0 -115 111q0 57 152 233q38 56 125 157q24 23 59 23q119 0 119 -102q0 -13 -14.5 -48.5t-14.5 -54.5z" />
    <glyph glyph-name="ordmasculine" unicode="&#xba;" horiz-adv-x="1647" 
d="M655 1360q-201 0 -326 118q-128 121 -128 320q0 363 229 624q231 265 578 265q213 0 336 -171q110 -153 110 -374q0 -190 -119 -378q-110 -173 -280 -284q-184 -120 -400 -120zM655 1520q357 0 546 340q81 145 81 274q0 385 -299 385q-330 0 -514 -316q-92 -157 -92 -372
q0 -311 278 -311z" />
    <glyph glyph-name="guillemotright" unicode="&#xbb;" horiz-adv-x="1847" 
d="M1065 504l487 639l-647 651q-114 24 -114 111q0 118 114 118q34 0 49 -12q30 -24 70 -65l655 -672q24 -18 68 -63q14 -22 14 -52q0 -59 -54 -119q-22 -25 -28 -32l-487 -648q-20 -73 -102 -73q-48 0 -85.5 37.5t-37.5 85.5q0 80 98 94zM360 504l480 639l-647 651
q-111 25 -111 111q0 45 33.5 81.5t77.5 36.5q47 0 84 -38q19 -21 42 -39l648 -672q82 -65 82 -115q0 -54 -49 -115q-22 -27 -25 -36l-496 -648q-10 -73 -102 -73q-48 0 -83.5 37.5t-35.5 85.5q0 81 102 94z" />
    <glyph glyph-name="onequarter" unicode="&#xbc;" horiz-adv-x="2990" 
d="M705 2449v-1146q0 -17 8 -51t8 -52q0 -135 -193 -135q-90 0 -90 70q0 45 55 125q24 36 27 43v929q-7 0 -52 -51t-67 -51q-114 0 -114 111q0 67 143 233q39 56 126 157q24 23 58 23q131 0 131 -102q0 -10 -20 -47t-20 -56zM745 82q-13 -131 -147 -131q-102 0 -102 82
q6 46 48 88q23 23 34 39l1335 2416q25 107 102 119q49 0 92 -35.5t43 -83.5q0 -80 -86 -90zM2150 496l-680 -111q-64 -16 -77 -16q-119 0 -119 118q0 16 69 99l762 917q18 82 144 82q118 0 118 -98q0 -86 -40 -119v-672l307 49q20 29 78 29q110 0 110 -119q0 -118 -78 -118
q-92 0 -110 24l-307 -41v-352q57 -20 57 -74q0 -119 -168 -119q-94 0 -94 99q0 54 28 78v344zM2150 672v594l-573 -672l16 -8z" />
    <glyph glyph-name="onehalf" unicode="&#xbd;" horiz-adv-x="3056" 
d="M745 82q-13 -131 -147 -131q-102 0 -102 82q6 46 48 88q23 23 34 39l1335 2416q25 107 102 119q49 0 92 -35.5t43 -83.5q0 -80 -86 -90zM705 2449v-1146q16 -34 16 -103q0 -135 -193 -135q-90 0 -90 70q0 45 55 125q24 36 27 43v929q-7 0 -52 -51t-67 -51
q-114 0 -114 111q0 67 143 233q39 56 126 157q24 23 58 23q131 0 131 -102q0 -10 -20 -47t-20 -56zM2662 0q-110 -3 -496 -17l-437 -16q-168 0 -168 115q0 243 157 404q111 114 377 242q270 131 317 163q173 121 173 285q0 92 -55 154.5t-146 62.5q-423 0 -494 -217
l-44 -144q-35 -82 -101 -82q-41 0 -78 37t-37 78q0 225 276 394q152 93 404 93q459 0 459 -327q0 -226 -155 -385q-105 -106 -357 -238q-261 -136 -305 -169q-166 -122 -166 -281l733 24q74 2 74 17q0 143 94 143q115 0 115 -127q0 -95 -25 -149q-27 -57 -115 -60z" />
    <glyph glyph-name="threequarters" unicode="&#xbe;" horiz-adv-x="3592" 
d="M2753 672v594l-586 -672l16 -8zM2753 496l-689 -111q-56 -16 -73 -16q-127 0 -127 118q0 23 82 99l749 917q34 82 152 82q123 0 123 -98q0 -86 -41 -119v-672l295 49q41 29 90 29q102 0 102 -119q0 -118 -82 -118q-78 0 -102 24l-303 -41v-352q57 -20 57 -74
q0 -119 -168 -119q-98 0 -98 99q0 61 33 78v344zM1343 82q-13 -131 -143 -131q-102 0 -102 82q0 46 43 87q22 21 35 40l1335 2416q24 107 98 119q51 0 96 -33q48 -37 48 -86q0 -76 -91 -90zM1184 2122q204 -8 294.5 -99t90.5 -294q0 -413 -397 -609q-193 -96 -451 -96
q-249 0 -457 244q-80 94 -80 125q0 110 144 110q41 0 103 -100q80 -128 107 -152q63 -59 236 -59q396 0 562 324q65 126 65 204q0 226 -160 226q-136 0 -188 -20q-75 -28 -129 -127q-39 -70 -109 -70q-110 0 -110 86q0 99 110 162q62 35 82 55q35 36 295 401l-8 8l-664 -49
q0 -111 -8 -137q-20 -64 -102 -64t-82 152q0 107 15 146q26 69 113 71t269 23l379 45q215 26 264 26q86 0 86 -119q0 -67 -270 -413z" />
    <glyph glyph-name="questiondown" unicode="&#xbf;" horiz-adv-x="1688" 
d="M872 2511q0 225 193 225q52 0 97.5 -45t45.5 -98q0 -164 -35 -220q-48 -75 -198 -75q-103 0 -103 213zM745 1815q0 -95 -65 -95q-135 0 -135 119q0 153 242 237q112 38 237 38q136 0 219.5 -78t83.5 -213q0 -200 -124 -344q-82 -95 -531 -455q-463 -371 -463 -594
q0 -146 135 -227q114 -68 270 -68q181 0 423 182q192 144 339 330q0 36 21 76q24 47 57 47q51 0 98 -35q50 -39 50 -88q0 -106 -82 -127q-114 -128 -365 -365q-254 -204 -594 -204q-314 0 -477 259q-70 109 -68 191q5 206 186 422q93 112 343 328q175 142 508 438
q82 80 82 226q0 114 -136 114q-254 0 -254 -114z" />
    <glyph glyph-name="Agrave" unicode="&#xc0;" horiz-adv-x="2585" 
d="M410 82q0 -98 -123 -98q-75 0 -94 10q-33 16 -33 80q0 74 49 184l983 2208q18 78 84 222q28 40 84 40q127 0 127 -102q0 -29 -16.5 -57.5t-16.5 -57.5q0 -199 459 -1176q106 -225 220 -457l174 -356q134 -280 134 -370q0 -168 -123 -168q-143 0 -143 82q0 30 12.5 80
t12.5 71q0 102 -127 377l-295 639l-955 -57l-295 -639q-68 -146 -98 -268q-20 -80 -20 -187zM1688 1401l-361 966l-422 -1024zM1569 3138q107 -26 107 -123q0 -127 -140 -127q-104 0 -118 152l-430 569q-66 18 -66 102q0 135 135 135q98 0 98 -159z" />
    <glyph glyph-name="Aacute" unicode="&#xc1;" horiz-adv-x="2585" 
d="M410 82q0 -98 -123 -98q-75 0 -94 10q-33 16 -33 80q0 74 49 184l983 2208q18 78 84 222q28 40 84 40q127 0 127 -102q0 -29 -16.5 -57.5t-16.5 -57.5q0 -199 459 -1176q106 -225 220 -457l174 -356q134 -280 134 -370q0 -168 -123 -168q-143 0 -143 82q0 30 12.5 80
t12.5 71q0 102 -127 377l-295 639l-955 -57l-295 -639q-68 -146 -98 -268q-20 -80 -20 -187zM1688 1401l-361 966l-422 -1024zM1110 3130l483 573q0 81 19 108q24 35 100 35q135 0 135 -127q0 -70 -77 -102l-504 -602q-12 -127 -123 -127q-119 0 -119 119q0 97 86 123z" />
    <glyph glyph-name="Acircumflex" unicode="&#xc2;" horiz-adv-x="2585" 
d="M410 82q0 -98 -123 -98q-75 0 -94 10q-33 16 -33 80q0 74 49 184l983 2208q18 78 84 222q28 40 84 40q127 0 127 -102q0 -29 -16.5 -57.5t-16.5 -57.5q0 -199 459 -1176q106 -225 220 -457l174 -356q134 -280 134 -370q0 -168 -123 -168q-143 0 -143 82q0 30 12.5 80
t12.5 71q0 102 -127 377l-295 639l-955 -57l-295 -639q-68 -146 -98 -268q-20 -80 -20 -187zM1688 1401l-361 966l-422 -1024zM1331 3584l-467 -647q0 -131 -78 -131q-151 0 -151 115q0 33 26 66q18 20 51 61l537 737q9 17 42 50q16 11 40 11q72 0 113 -72q17 -30 22 -38
l422 -696q2 -7 31 -45q26 -33 26 -66q0 -123 -127 -123q-90 0 -90 139z" />
    <glyph glyph-name="Atilde" unicode="&#xc3;" horiz-adv-x="2585" 
d="M410 82q0 -98 -123 -98q-75 0 -94 10q-33 16 -33 80q0 74 49 184l983 2208q18 78 84 222q28 40 84 40q127 0 127 -102q0 -29 -16.5 -57.5t-16.5 -57.5q0 -199 459 -1176q106 -225 220 -457l174 -356q134 -280 134 -370q0 -168 -123 -168q-143 0 -143 82q0 30 12.5 80
t12.5 71q0 102 -127 377l-295 639l-955 -57l-295 -639q-68 -146 -98 -268q-20 -80 -20 -187zM1688 1401l-361 966l-422 -1024zM536 3158q104 157 129 185q77 90 181 129q80 30 194 30q133 0 324 -224q176 -206 262 -206q138 0 193 59q60 63 69 167q6 75 24 181q16 48 83 48
q46 0 91 -28q52 -31 52 -74q0 -37 -8 -58q-73 -189 -99 -235q-66 -122 -168.5 -183t-277.5 -61q-112 0 -219 94q-16 15 -167 182q-135 150 -192 150q-125 0 -190 -74q-35 -40 -100 -189q-57 -130 -115 -130q-54 0 -96 32q-47 35 -47 87q0 38 43 81q26 25 34 37z" />
    <glyph glyph-name="Adieresis" unicode="&#xc4;" horiz-adv-x="2585" 
d="M410 82q0 -98 -123 -98q-75 0 -94 10q-33 16 -33 80q0 74 49 184l983 2208q18 78 84 222q28 40 84 40q127 0 127 -102q0 -29 -16.5 -57.5t-16.5 -57.5q0 -199 459 -1176q106 -225 220 -457l174 -356q134 -280 134 -370q0 -168 -123 -168q-143 0 -143 82q0 30 12.5 80
t12.5 71q0 102 -127 377l-295 639l-955 -57l-295 -639q-68 -146 -98 -268q-20 -80 -20 -187zM1688 1401l-361 966l-422 -1024zM1098 3191q0 -153 -33 -204q-43 -66 -184 -66q-65 0 -107 75q-36 64 -36 134q0 204 192 204q168 0 168 -143zM1954 3158q0 -229 -201 -229
q-151 0 -151 192q0 213 160 213q76 0 134 -50.5t58 -125.5z" />
    <glyph glyph-name="Aring" unicode="&#xc5;" horiz-adv-x="2585" 
d="M410 82q0 -98 -123 -98q-75 0 -94 10q-33 16 -33 80q0 74 49 184l983 2208q18 78 84 222q28 40 84 40q127 0 127 -102q0 -29 -16.5 -57.5t-16.5 -57.5q0 -199 459 -1176q106 -225 220 -457l174 -356q134 -280 134 -370q0 -168 -123 -168q-143 0 -143 82q0 30 12.5 80
t12.5 71q0 102 -127 377l-295 639l-955 -57l-295 -639q-68 -146 -98 -268q-20 -80 -20 -187zM1688 1401l-361 966l-422 -1024zM1286 2962q161 0 279 127q60 66 57 143q-13 295 -226 295q-119 0 -225 -91q-110 -94 -110 -212q0 -262 225 -262zM1245 2777q-177 0 -280 157
q-89 136 -89 323q0 242 318 395q124 59 194 59q199 0 312 -134q106 -126 106 -329q0 -208 -181 -345q-166 -126 -380 -126z" />
    <glyph glyph-name="AE" unicode="&#xc6;" horiz-adv-x="3256" 
d="M1831 1159v-999q967 0 1106 82q24 8 61 8q66 0 66 -115q0 -109 -209 -119l-1049 -49q-25 -1 -61 -8q-42 -8 -57 -8q-103 0 -103 90q0 111 53 119v975l-790 -70q-455 -799 -455 -971q0 -119 -143 -119q-131 0 -131 111q0 106 90 131q147 21 231 187q49 98 111 354
q61 253 114 354q432 826 957 1423q5 35 32 100q18 27 58 27q135 0 135 -102q0 -41 -16 -57l856 65q22 2 82 30t94 28q115 0 115 -152q0 -48 -37 -92q-39 -47 -86 -47q-31 0 -152 41l-872 -49v-1000l745 66q25 2 98 30q70 27 103 27q119 0 119 -90q0 -66 -33 -83
q-45 -22 -102 -28zM1638 1303v1024h-8q-417 -613 -688 -1086z" />
    <glyph glyph-name="Ccedilla" unicode="&#xc7;" horiz-adv-x="2208" 
d="M1200 -41l-143 -168q278 0 278 -262q0 -178 -141 -293q-131 -108 -313 -108q-42 0 -116 22q-81 25 -101 51q-17 -16 -41 -16q-62 0 -62 86q0 90 94 90q66 0 66 -57q61 -41 176 -41q112 0 187 69.5t75 180.5q0 168 -151 168q-18 0 -78 -17q0 -41 -82 -41q-74 0 -74 58
q0 36 33 61l168 184q-531 17 -717 585q-82 250 -82 529q0 348 151 728t390 633q270 286 651 286q347 0 610 -189q111 -81 111 -155q0 -135 -115 -135q-73 0 -94 90q-25 107 -219 164q-142 41 -293 41q-477 0 -762 -563q-246 -484 -246 -924q0 -536 289 -776
q144 -121 350 -121q181 0 435 153q231 139 360 297q5 176 119 176q135 0 135 -122q0 -70 -74 -144q-415 -415 -774 -520z" />
    <glyph glyph-name="Egrave" unicode="&#xc8;" horiz-adv-x="2298" 
d="M1921 82q-136 0 -584 -38l-408 -34q-207 -17 -376 -26q-38 -50 -123 -50q-116 0 -127 99q0 62 57 110v1024q-65 0 -65 90q0 107 65 136v872q-102 0 -102 86q0 96 61 127q-24 48 -24 66q0 90 135 90q139 0 139 -148l1184 82q58 58 119 58q151 0 151 -148q0 -143 -168 -143
q-67 0 -118 41l-1192 -78v-905l1032 127q56 41 127 41q127 0 127 -119q0 -139 -152 -139q-33 0 -69 24l-1065 -119v-1040l1360 111q65 32 102 32q39 0 70 -45q28 -42 28 -82q0 -94 -139 -110q-12 8 -45 8zM1261 3138q107 -26 107 -123q0 -127 -140 -127q-104 0 -118 152
l-430 569q-66 18 -66 102q0 135 135 135q98 0 98 -159z" />
    <glyph glyph-name="Eacute" unicode="&#xc9;" horiz-adv-x="2298" 
d="M1921 82q-136 0 -584 -38l-408 -34q-207 -17 -376 -26q-38 -50 -123 -50q-116 0 -127 99q0 62 57 110v1024q-65 0 -65 90q0 107 65 136v872q-102 0 -102 86q0 96 61 127q-24 48 -24 66q0 90 135 90q139 0 139 -148l1184 82q58 58 119 58q151 0 151 -148q0 -143 -168 -143
q-67 0 -118 41l-1192 -78v-905l1032 127q56 41 127 41q127 0 127 -119q0 -139 -152 -139q-33 0 -69 24l-1065 -119v-1040l1360 111q65 32 102 32q39 0 70 -45q28 -42 28 -82q0 -94 -139 -110q-12 8 -45 8zM1007 3130l483 573q0 81 19 108q24 35 100 35q135 0 135 -127
q0 -70 -77 -102l-504 -602q-12 -127 -123 -127q-119 0 -119 119q0 97 86 123z" />
    <glyph glyph-name="Ecircumflex" unicode="&#xca;" horiz-adv-x="2298" 
d="M1921 82q-136 0 -584 -38l-408 -34q-207 -17 -376 -26q-38 -50 -123 -50q-116 0 -127 99q0 62 57 110v1024q-65 0 -65 90q0 107 65 136v872q-102 0 -102 86q0 96 61 127q-24 48 -24 66q0 90 135 90q139 0 139 -148l1184 82q58 58 119 58q151 0 151 -148q0 -143 -168 -143
q-67 0 -118 41l-1192 -78v-905l1032 127q56 41 127 41q127 0 127 -119q0 -139 -152 -139q-33 0 -69 24l-1065 -119v-1040l1360 111q65 32 102 32q39 0 70 -45q28 -42 28 -82q0 -94 -139 -110q-12 8 -45 8zM1192 3584l-467 -647q0 -131 -78 -131q-151 0 -151 115q0 33 26 66
q18 20 51 61l537 737q9 17 42 50q16 11 40 11q72 0 113 -72q17 -30 22 -38l422 -696q2 -7 31 -45q26 -33 26 -66q0 -123 -127 -123q-90 0 -90 139z" />
    <glyph glyph-name="Edieresis" unicode="&#xcb;" horiz-adv-x="2298" 
d="M1921 82q-136 0 -584 -38l-408 -34q-207 -17 -376 -26q-38 -50 -123 -50q-116 0 -127 99q0 62 57 110v1024q-65 0 -65 90q0 107 65 136v872q-102 0 -102 86q0 96 61 127q-24 48 -24 66q0 90 135 90q139 0 139 -148l1184 82q58 58 119 58q151 0 151 -148q0 -143 -168 -143
q-67 0 -118 41l-1192 -78v-905l1032 127q56 41 127 41q127 0 127 -119q0 -139 -152 -139q-33 0 -69 24l-1065 -119v-1040l1360 111q65 32 102 32q39 0 70 -45q28 -42 28 -82q0 -94 -139 -110q-12 8 -45 8zM897 3191q0 -153 -33 -204q-43 -66 -184 -66q-65 0 -107 75
q-36 64 -36 134q0 204 192 204q168 0 168 -143zM1753 3158q0 -229 -201 -229q-151 0 -151 192q0 213 160 213q76 0 134 -50.5t58 -125.5z" />
    <glyph glyph-name="Igrave" unicode="&#xcc;" horiz-adv-x="905" 
d="M545 152q49 -37 49 -95q0 -82 -156 -82q-135 0 -135 111q0 44 57 74v2306q-41 36 -41 69q0 107 185 107q102 0 102 -90q0 -45 -61 -111v-2289zM561 3138q107 -26 107 -123q0 -127 -140 -127q-104 0 -118 152l-430 569q-66 18 -66 102q0 135 135 135q98 0 98 -159z" />
    <glyph glyph-name="Iacute" unicode="&#xcd;" horiz-adv-x="905" 
d="M545 152q49 -37 49 -95q0 -82 -156 -82q-135 0 -135 111q0 44 57 74v2306q-41 36 -41 69q0 107 185 107q102 0 102 -90q0 -45 -61 -111v-2289zM270 3130l483 573q0 81 19 108q24 35 100 35q135 0 135 -127q0 -70 -77 -102l-504 -602q-12 -127 -123 -127q-119 0 -119 119
q0 97 86 123z" />
    <glyph glyph-name="Icircumflex" unicode="&#xce;" horiz-adv-x="905" 
d="M545 152q49 -37 49 -95q0 -82 -156 -82q-135 0 -135 111q0 44 57 74v2306q-41 36 -41 69q0 107 185 107q102 0 102 -90q0 -45 -61 -111v-2289zM492 3584l-467 -647q0 -131 -78 -131q-151 0 -151 115q0 33 26 66q18 20 51 61l537 737q9 17 42 50q16 11 40 11q72 0 113 -72
q17 -30 22 -38l422 -696q2 -7 31 -45q26 -33 26 -66q0 -123 -127 -123q-90 0 -90 139z" />
    <glyph glyph-name="Idieresis" unicode="&#xcf;" horiz-adv-x="905" 
d="M545 152q49 -37 49 -95q0 -82 -156 -82q-135 0 -135 111q0 44 57 74v2306q-41 36 -41 69q0 107 185 107q102 0 102 -90q0 -45 -61 -111v-2289zM201 3191q0 -153 -33 -204q-43 -66 -184 -66q-65 0 -107 75q-36 64 -36 134q0 204 192 204q168 0 168 -143zM1057 3158
q0 -229 -201 -229q-151 0 -151 192q0 213 160 213q76 0 134 -50.5t58 -125.5z" />
    <glyph glyph-name="Eth" unicode="&#xd0;" horiz-adv-x="2486" 
d="M360 1442v1016q0 16 -8 49.5t-8 52.5q0 82 127 82q107 0 107 -90q0 -33 -17 -58l8 -8q458 185 885 185q387 0 635 -293q229 -270 229 -584q0 -736 -597 -1296q-591 -555 -1328 -555q-33 0 -33 57v1249l-233 -16q-2 0 -17 -8t-24 -8q-70 0 -70 77q0 124 103 131zM545 1274
v-1114q700 96 1157 589q432 466 432 988q0 258 -187 491q-207 258 -522 258q-511 0 -880 -245v-779l631 41q65 25 106 25q102 0 102 -94q0 -140 -110 -140q-16 0 -53.5 13t-53.5 12z" />
    <glyph glyph-name="Ntilde" unicode="&#xd1;" horiz-adv-x="2503" 
d="M545 152q33 -56 33 -95q0 -59 -24 -73q-15 -9 -83 -9q-160 0 -160 107q0 19 49 70l-8 2314q0 9 -8 33t-8 36q0 107 102 107q148 0 148 -82q0 -69 184 -455q162 -340 655 -973l286 -366q187 -251 243 -389h8v2150q-25 52 -25 74q0 86 103 86q135 0 135 -78q0 -65 -25 -90
v-2376q41 -61 41 -86q0 -82 -143 -82q-71 0 -89 20q-22 26 -54 116q-68 194 -364 574q-515 661 -543 700q-312 430 -445 757h-8v-1990zM495 3158q104 157 129 185q77 90 181 129q80 30 194 30q133 0 324 -224q176 -206 262 -206q138 0 193 59q60 63 69 167q6 75 24 181
q16 48 83 48q46 0 91 -28q52 -31 52 -74q0 -37 -8 -58q-73 -189 -99 -235q-66 -122 -168.5 -183t-277.5 -61q-112 0 -219 94q-16 15 -167 182q-135 150 -192 150q-125 0 -190 -74q-35 -40 -100 -189q-57 -130 -115 -130q-54 0 -96 32q-47 35 -47 87q0 38 43 81q26 25 34 37z
" />
    <glyph glyph-name="Ograve" unicode="&#xd2;" horiz-adv-x="2441" 
d="M2089 1487q2 246 -45 460q-92 412 -341 564q-123 74 -278 74q-346 0 -694 -473q-164 -223 -265 -507q-105 -292 -106 -589q-2 -485 202 -695t470 -210q318 0 572 229q221 198 351 522q131 328 134 625zM168 1040q-3 592 388 1156q397 573 878 573q520 0 734 -586
q105 -290 105 -696q0 -384 -156 -735q-162 -366 -452 -594q-295 -232 -682 -232q-401 0 -613 331q-199 310 -202 783zM1597 3138q107 -26 107 -123q0 -127 -140 -127q-104 0 -118 152l-430 569q-66 18 -66 102q0 135 135 135q98 0 98 -159z" />
    <glyph glyph-name="Oacute" unicode="&#xd3;" horiz-adv-x="2441" 
d="M2089 1487q2 246 -45 460q-92 412 -341 564q-123 74 -278 74q-346 0 -694 -473q-164 -223 -265 -507q-105 -292 -106 -589q-2 -485 202 -695t470 -210q318 0 572 229q221 198 351 522q131 328 134 625zM168 1040q-3 592 388 1156q397 573 878 573q520 0 734 -586
q105 -290 105 -696q0 -384 -156 -735q-162 -366 -452 -594q-295 -232 -682 -232q-401 0 -613 331q-199 310 -202 783zM1118 3130l483 573q0 81 19 108q24 35 100 35q135 0 135 -127q0 -70 -77 -102l-504 -602q-12 -127 -123 -127q-119 0 -119 119q0 97 86 123z" />
    <glyph glyph-name="Ocircumflex" unicode="&#xd4;" horiz-adv-x="2441" 
d="M2089 1487q2 246 -45 460q-92 412 -341 564q-123 74 -278 74q-346 0 -694 -473q-164 -223 -265 -507q-105 -292 -106 -589q-2 -485 202 -695t470 -210q318 0 572 229q221 198 351 522q131 328 134 625zM168 1040q-3 592 388 1156q397 573 878 573q520 0 734 -586
q105 -290 105 -696q0 -384 -156 -735q-162 -366 -452 -594q-295 -232 -682 -232q-401 0 -613 331q-199 310 -202 783zM1507 3584l-467 -647q0 -131 -78 -131q-151 0 -151 115q0 33 26 66q18 20 51 61l537 737q9 17 42 50q16 11 40 11q72 0 113 -72q17 -30 22 -38l422 -696
q2 -7 31 -45q26 -33 26 -66q0 -123 -127 -123q-90 0 -90 139z" />
    <glyph glyph-name="Otilde" unicode="&#xd5;" horiz-adv-x="2441" 
d="M2089 1487q2 246 -45 460q-92 412 -341 564q-123 74 -278 74q-346 0 -694 -473q-164 -223 -265 -507q-105 -292 -106 -589q-2 -485 202 -695t470 -210q318 0 572 229q221 198 351 522q131 328 134 625zM168 1040q-3 592 388 1156q397 573 878 573q520 0 734 -586
q105 -290 105 -696q0 -384 -156 -735q-162 -366 -452 -594q-295 -232 -682 -232q-401 0 -613 331q-199 310 -202 783zM630 3158q104 157 129 185q77 90 181 129q80 30 194 30q133 0 324 -224q176 -206 262 -206q138 0 193 59q60 63 69 167q6 75 24 181q16 48 83 48
q46 0 91 -28q52 -31 52 -74q0 -37 -8 -58q-73 -189 -99 -235q-66 -122 -168.5 -183t-277.5 -61q-112 0 -219 94q-16 15 -167 182q-135 150 -192 150q-125 0 -190 -74q-35 -40 -100 -189q-57 -130 -115 -130q-54 0 -96 32q-47 35 -47 87q0 38 43 81q26 25 34 37z" />
    <glyph glyph-name="Odieresis" unicode="&#xd6;" horiz-adv-x="2441" 
d="M2089 1487q2 246 -45 460q-92 412 -341 564q-123 74 -278 74q-346 0 -694 -473q-164 -223 -265 -507q-105 -292 -106 -589q-2 -485 202 -695t470 -210q318 0 572 229q221 198 351 522q131 328 134 625zM168 1040q-3 592 388 1156q397 573 878 573q520 0 734 -586
q105 -290 105 -696q0 -384 -156 -735q-162 -366 -452 -594q-295 -232 -682 -232q-401 0 -613 331q-199 310 -202 783zM1171 3191q0 -153 -33 -204q-43 -66 -184 -66q-65 0 -107 75q-36 64 -36 134q0 204 192 204q168 0 168 -143zM2027 3158q0 -229 -201 -229
q-151 0 -151 192q0 213 160 213q76 0 134 -50.5t58 -125.5z" />
    <glyph glyph-name="Oslash" unicode="&#xd8;" horiz-adv-x="2441" 
d="M401 672l1495 1663q-217 241 -462 241q-296 0 -566 -295q-212 -231 -349 -562q-155 -374 -159 -736q17 -215 41 -311zM463 479q145 -368 577 -368q274 0 529 210q220 183 358 456q154 308 154 673q0 388 -90 700zM-86 160l344 360q-86 269 -90 488q-5 291 114 629
q232 660 699 974q224 150 444 150q375 0 598 -303l242 254q25 90 94 90q152 0 152 -123q0 -103 -135 -103l-254 -278q151 -379 151 -811q0 -582 -338 -1053q-364 -508 -919 -508q-502 0 -688 410l-303 -336q-22 -74 -119 -74q-139 0 -139 115q0 117 90 127q32 0 57 -8z" />
    <glyph glyph-name="Ugrave" unicode="&#xd9;" horiz-adv-x="2367" 
d="M360 430v2064q-15 32 -16 41q0 91 102 91q99 0 99 -115v-2118q86 -282 352 -282q383 0 676 225q258 199 258 336v1814q-37 37 -37 66q0 110 135 110q103 0 103 -102q0 -33 -17 -49v-1897q0 -191 -327 -438q-221 -167 -428 -217q-137 -33 -322 -33q-366 0 -512 257
q-66 116 -66 247zM1294 3138q107 -26 107 -123q0 -127 -140 -127q-104 0 -118 152l-430 569q-66 18 -66 102q0 135 135 135q98 0 98 -159z" />
    <glyph glyph-name="Uacute" unicode="&#xda;" horiz-adv-x="2367" 
d="M360 430v2064q-15 32 -16 41q0 91 102 91q99 0 99 -115v-2118q86 -282 352 -282q383 0 676 225q258 199 258 336v1814q-37 37 -37 66q0 110 135 110q103 0 103 -102q0 -33 -17 -49v-1897q0 -191 -327 -438q-221 -167 -428 -217q-137 -33 -322 -33q-366 0 -512 257
q-66 116 -66 247zM1126 3130l483 573q0 81 19 108q24 35 100 35q135 0 135 -127q0 -70 -77 -102l-504 -602q-12 -127 -123 -127q-119 0 -119 119q0 97 86 123z" />
    <glyph glyph-name="Ucircumflex" unicode="&#xdb;" horiz-adv-x="2367" 
d="M360 430v2064q-15 32 -16 41q0 91 102 91q99 0 99 -115v-2118q86 -282 352 -282q383 0 676 225q258 199 258 336v1814q-37 37 -37 66q0 110 135 110q103 0 103 -102q0 -33 -17 -49v-1897q0 -191 -327 -438q-221 -167 -428 -217q-137 -33 -322 -33q-366 0 -512 257
q-66 116 -66 247zM1225 3584l-467 -647q0 -131 -78 -131q-151 0 -151 115q0 33 26 66q18 20 51 61l537 737q9 17 42 50q16 11 40 11q72 0 113 -72q17 -30 22 -38l422 -696q2 -7 31 -45q26 -33 26 -66q0 -123 -127 -123q-90 0 -90 139z" />
    <glyph glyph-name="Udieresis" unicode="&#xdc;" horiz-adv-x="2367" 
d="M360 430v2064q-15 32 -16 41q0 91 102 91q99 0 99 -115v-2118q86 -282 352 -282q383 0 676 225q258 199 258 336v1814q-37 37 -37 66q0 110 135 110q103 0 103 -102q0 -33 -17 -49v-1897q0 -191 -327 -438q-221 -167 -428 -217q-137 -33 -322 -33q-366 0 -512 257
q-66 116 -66 247zM938 3191q0 -153 -33 -204q-43 -66 -184 -66q-65 0 -107 75q-36 64 -36 134q0 204 192 204q168 0 168 -143zM1794 3158q0 -229 -201 -229q-151 0 -151 192q0 213 160 213q76 0 134 -50.5t58 -125.5z" />
    <glyph glyph-name="Yacute" unicode="&#xdd;" horiz-adv-x="2298" 
d="M2281 2503l-1040 -1094v-1249q41 -41 41 -74q0 -111 -147 -111q-111 0 -111 119q0 49 33 99v1216l-975 1102q-82 30 -82 131q0 86 111 86q106 0 106 -86l934 -1065l963 1024q0 86 110 86q111 0 111 -94q0 -77 -54 -90zM1085 3130l483 573q0 81 19 108q24 35 100 35
q135 0 135 -127q0 -70 -77 -102l-504 -602q-12 -127 -123 -127q-119 0 -119 119q0 97 86 123z" />
    <glyph glyph-name="Thorn" unicode="&#xde;" horiz-adv-x="2183" 
d="M545 967q413 38 877 272q491 248 491 490q0 79 -102 132q-86 44 -173 44q-260 0 -760 -176q-214 -76 -333 -152v-610zM545 143q33 -49 33 -69q0 -99 -152 -99q-115 0 -115 91q0 47 49 86v2342q-24 25 -24 91q0 102 143 102q119 0 119 -102q0 -51 -53 -91v-688
q300 138 727 236q208 47 350 47q195 0 326 -81q157 -97 157 -279q0 -236 -319 -466q-216 -156 -527 -278q-366 -144 -714 -203v-639z" />
    <glyph glyph-name="germandbls" unicode="&#xdf;" horiz-adv-x="2327" 
d="M631 2150v-2015q24 -36 24 -69q0 -91 -110 -91q-119 0 -119 99q0 5 6 20.5t6 24.5v1360l-286 -54q-27 -24 -58 -24q-86 0 -86 127q0 94 74 94q29 0 61 -4l295 53v479q-20 65 -20 82q0 78 61 78q213 459 738 459q334 0 496 -237q81 -120 81 -291q0 -268 -278 -450
q-153 -101 -154 -102q-80 -67 -80 -153q0 -77 205 -220q24 -17 280 -174q400 -247 400 -528q0 -688 -774 -688q-294 0 -454 186q-67 77 -67 138q0 151 127 151q74 0 74 -90q-8 -6 -24 -41h8q76 -159 336 -159q581 0 581 487q0 142 -165 282q-76 64 -286 189
q-216 128 -271 171q-162 128 -162 255q0 133 73 221q51 63 189 146.5t188 145.5q70 87 70 224q0 353 -434 353q-319 0 -479 -250q-66 -104 -66 -185z" />
    <glyph glyph-name="agrave" unicode="&#xe0;" 
d="M1585 471q-218 -222 -545 -379q-348 -166 -639 -166q-290 0 -290 226q0 334 412 656q441 343 1070 343v336q0 168 -151 168q-324 0 -614 -173q-136 -82 -230 -188q0 -102 -127 -102q-34 0 -76.5 39t-42.5 72q0 131 119 131q427 405 999 405q138 0 229 -100
q87 -96 87 -236v-1376q20 -25 20 -70q0 -82 -143 -82q-102 0 -102 74q0 20 32 70v352h-8zM1593 967q-447 -16 -685 -142q-74 -39 -261 -161q-108 -70 -224 -217q-125 -157 -128 -254q-3 -82 176 -82q178 0 478 150q251 125 434 269q210 165 210 277v160zM1286 2298
q107 -26 107 -123q0 -127 -140 -127q-104 0 -118 152l-430 569q-66 18 -66 102q0 135 135 135q98 0 98 -159z" />
    <glyph glyph-name="aacute" unicode="&#xe1;" 
d="M1585 471q-218 -222 -545 -379q-348 -166 -639 -166q-290 0 -290 226q0 334 412 656q441 343 1070 343v336q0 168 -151 168q-324 0 -614 -173q-136 -82 -230 -188q0 -102 -127 -102q-34 0 -76.5 39t-42.5 72q0 131 119 131q427 405 999 405q138 0 229 -100
q87 -96 87 -236v-1376q20 -25 20 -70q0 -82 -143 -82q-102 0 -102 74q0 20 32 70v352h-8zM1593 967q-447 -16 -685 -142q-74 -39 -261 -161q-108 -70 -224 -217q-125 -157 -128 -254q-3 -82 176 -82q178 0 478 150q251 125 434 269q210 165 210 277v160zM967 2290l483 573
q0 81 19 108q24 35 100 35q135 0 135 -127q0 -70 -77 -102l-504 -602q-12 -127 -123 -127q-119 0 -119 119q0 97 86 123z" />
    <glyph glyph-name="acircumflex" unicode="&#xe2;" 
d="M1585 471q-218 -222 -545 -379q-348 -166 -639 -166q-290 0 -290 226q0 334 412 656q441 343 1070 343v336q0 168 -151 168q-324 0 -614 -173q-136 -82 -230 -188q0 -102 -127 -102q-34 0 -76.5 39t-42.5 72q0 131 119 131q427 405 999 405q138 0 229 -100
q87 -96 87 -236v-1376q20 -25 20 -70q0 -82 -143 -82q-102 0 -102 74q0 20 32 70v352h-8zM1593 967q-447 -16 -685 -142q-74 -39 -261 -161q-108 -70 -224 -217q-125 -157 -128 -254q-3 -82 176 -82q178 0 478 150q251 125 434 269q210 165 210 277v160zM1147 2744
l-467 -647q0 -131 -78 -131q-151 0 -151 115q0 33 26 66q18 20 51 61l537 737q9 17 42 50q16 11 40 11q72 0 113 -72q17 -30 22 -38l422 -696q2 -7 31 -45q26 -33 26 -66q0 -123 -127 -123q-90 0 -90 139z" />
    <glyph glyph-name="atilde" unicode="&#xe3;" 
d="M1585 471q-218 -222 -545 -379q-348 -166 -639 -166q-290 0 -290 226q0 334 412 656q441 343 1070 343v336q0 168 -151 168q-324 0 -614 -173q-136 -82 -230 -188q0 -102 -127 -102q-34 0 -76.5 39t-42.5 72q0 131 119 131q427 405 999 405q138 0 229 -100
q87 -96 87 -236v-1376q20 -25 20 -70q0 -82 -143 -82q-102 0 -102 74q0 20 32 70v352h-8zM1593 967q-447 -16 -685 -142q-74 -39 -261 -161q-108 -70 -224 -217q-125 -157 -128 -254q-3 -82 176 -82q178 0 478 150q251 125 434 269q210 165 210 277v160zM295 2318
q104 157 129 185q77 90 181 129q80 30 194 30q133 0 324 -224q176 -206 262 -206q138 0 193 59q60 63 69 167q6 75 24 181q16 48 83 48q46 0 91 -28q52 -31 52 -74q0 -37 -8 -58q-73 -189 -99 -235q-66 -122 -168.5 -183t-277.5 -61q-112 0 -219 94q-16 15 -167 182
q-135 150 -192 150q-125 0 -190 -74q-35 -40 -100 -189q-57 -130 -115 -130q-54 0 -96 32q-47 35 -47 87q0 38 43 81q26 25 34 37z" />
    <glyph glyph-name="adieresis" unicode="&#xe4;" 
d="M1585 471q-218 -222 -545 -379q-348 -166 -639 -166q-290 0 -290 226q0 334 412 656q441 343 1070 343v336q0 168 -151 168q-324 0 -614 -173q-136 -82 -230 -188q0 -102 -127 -102q-34 0 -76.5 39t-42.5 72q0 131 119 131q427 405 999 405q138 0 229 -100
q87 -96 87 -236v-1376q20 -25 20 -70q0 -82 -143 -82q-102 0 -102 74q0 20 32 70v352h-8zM1593 967q-447 -16 -685 -142q-74 -39 -261 -161q-108 -70 -224 -217q-125 -157 -128 -254q-3 -82 176 -82q178 0 478 150q251 125 434 269q210 165 210 277v160zM856 2351
q0 -153 -33 -204q-43 -66 -184 -66q-65 0 -107 75q-36 64 -36 134q0 204 192 204q168 0 168 -143zM1712 2318q0 -229 -201 -229q-151 0 -151 192q0 213 160 213q76 0 134 -50.5t58 -125.5z" />
    <glyph glyph-name="aring" unicode="&#xe5;" 
d="M1585 471q-218 -222 -545 -379q-348 -166 -639 -166q-290 0 -290 226q0 334 412 656q441 343 1070 343v336q0 168 -151 168q-324 0 -614 -173q-136 -82 -230 -188q0 -102 -127 -102q-34 0 -76.5 39t-42.5 72q0 131 119 131q427 405 999 405q138 0 229 -100
q87 -96 87 -236v-1376q20 -25 20 -70q0 -82 -143 -82q-102 0 -102 74q0 20 32 70v352h-8zM1593 967q-447 -16 -685 -142q-74 -39 -261 -161q-108 -70 -224 -217q-125 -157 -128 -254q-3 -82 176 -82q178 0 478 150q251 125 434 269q210 165 210 277v160zM1098 2122
q161 0 279 127q60 66 57 143q-13 295 -226 295q-119 0 -225 -91q-110 -94 -110 -212q0 -262 225 -262zM1057 1937q-177 0 -280 157q-89 136 -89 323q0 242 318 395q124 59 194 59q199 0 312 -134q106 -126 106 -329q0 -208 -181 -345q-166 -126 -380 -126z" />
    <glyph glyph-name="ae" unicode="&#xe6;" horiz-adv-x="3129" 
d="M1511 1110v377q0 151 -159 151q-472 0 -774 -352q0 -102 -132 -102q-35 0 -76.5 38t-41.5 72q0 51 34 95.5t84 44.5q227 207 428 297q224 100 510 100q154 0 240 -100q80 -95 80 -252v-213h8q110 221 292 373q210 176 429 176q247 0 360 -111q66 -65 131 -176
q74 -126 74 -201q0 -58 -39.5 -108t-95.5 -60l-1134 -192q-58 -225 -58 -422q0 -291 109 -372q72 -54 227 -54q459 0 746 487q0 131 102 131q123 0 123 -114q0 -40 -124 -192q-97 -118 -159 -179q-321 -318 -713 -318q-272 0 -410 199q-82 116 -93 322h-17
q-205 -283 -723 -457q-215 -72 -338 -72q-142 0 -201 28q-89 42 -89 165q0 242 236 522q126 149 300 256q168 103 529 160zM1511 930l-303 -49q-223 -36 -290 -56q-83 -25 -197 -88q-277 -154 -384 -408q-42 -99 -42 -136q0 -82 168 -82q131 0 428 151q262 134 396 244
q224 183 224 424zM1815 1159l970 184q0 141 -134 236q-73 51 -193 51q-184 0 -377 -154q-172 -136 -266 -317z" />
    <glyph glyph-name="ccedilla" unicode="&#xe7;" horiz-adv-x="1864" 
d="M799 -74q-383 0 -554 274q-85 135 -85 320q0 495 270 882q294 421 770 421q157 0 294 -69q169 -84 169 -226q0 -103 -152 -103q-29 0 -89 73q-81 98 -85 102q-43 38 -137 38q-255 0 -457 -160q-186 -147 -289 -395q-102 -244 -102 -497q0 -475 455 -475q192 0 397 171
q174 145 283 341q4 37 40 106q24 25 75 25q110 0 110 -115q0 -62 -133 -229q-104 -131 -183 -205q-146 -137 -331 -213q0 -17 -25 -17l-159 -184q140 0 214.5 -79t71.5 -183q-4 -155 -129 -280q-122 -121 -325 -121q-42 0 -117 22q-87 25 -100 51q-17 -16 -41 -16
q-70 0 -70 86q0 90 102 90q51 0 66 -57q51 -41 176 -41q112 0 187 69.5t75 180.5q0 168 -160 168q-26 0 -69 -17q-41 -41 -82 -41q-74 0 -74 58q0 45 33 61z" />
    <glyph glyph-name="egrave" unicode="&#xe8;" horiz-adv-x="1815" 
d="M688 -66q-259 0 -397 158q-131 149 -131 412q0 504 331 916q317 395 635 395q384 0 513 -295q51 -118 49 -193q-2 -102 -321 -191q-203 -56 -941 -214q-82 -219 -82 -385q0 -219 74 -312q84 -106 295 -106q452 0 741 479q0 25 -4 41q5 98 111 98q104 0 118 -114
q-77 -196 -368 -439q-299 -250 -623 -250zM1470 1384q0 74 -87 158q-92 87 -224 88q-316 3 -647 -512q271 59 809 195q149 42 149 71zM1102 2298q107 -26 107 -123q0 -127 -140 -127q-104 0 -118 152l-430 569q-66 18 -66 102q0 135 135 135q98 0 98 -159z" />
    <glyph glyph-name="eacute" unicode="&#xe9;" horiz-adv-x="1815" 
d="M688 -66q-259 0 -397 158q-131 149 -131 412q0 504 331 916q317 395 635 395q384 0 513 -295q51 -118 49 -193q-2 -102 -321 -191q-203 -56 -941 -214q-82 -219 -82 -385q0 -219 74 -312q84 -106 295 -106q452 0 741 479q0 25 -4 41q5 98 111 98q104 0 118 -114
q-77 -196 -368 -439q-299 -250 -623 -250zM1470 1384q0 74 -87 158q-92 87 -224 88q-316 3 -647 -512q271 59 809 195q149 42 149 71zM893 2290l483 573q0 81 19 108q24 35 100 35q135 0 135 -127q0 -70 -77 -102l-504 -602q-12 -127 -123 -127q-119 0 -119 119q0 97 86 123
z" />
    <glyph glyph-name="ecircumflex" unicode="&#xea;" horiz-adv-x="1815" 
d="M688 -66q-259 0 -397 158q-131 149 -131 412q0 504 331 916q317 395 635 395q384 0 513 -295q51 -118 49 -193q-2 -102 -321 -191q-203 -56 -941 -214q-82 -219 -82 -385q0 -219 74 -312q84 -106 295 -106q452 0 741 479q0 25 -4 41q5 98 111 98q104 0 118 -114
q-77 -196 -368 -439q-299 -250 -623 -250zM1470 1384q0 74 -87 158q-92 87 -224 88q-316 3 -647 -512q271 59 809 195q149 42 149 71zM1106 2744l-467 -647q0 -131 -78 -131q-151 0 -151 115q0 33 26 66q18 20 51 61l537 737q9 17 42 50q16 11 40 11q72 0 113 -72
q17 -30 22 -38l422 -696q2 -7 31 -45q26 -33 26 -66q0 -123 -127 -123q-90 0 -90 139z" />
    <glyph glyph-name="edieresis" unicode="&#xeb;" horiz-adv-x="1815" 
d="M688 -66q-259 0 -397 158q-131 149 -131 412q0 504 331 916q317 395 635 395q384 0 513 -295q51 -118 49 -193q-2 -102 -321 -191q-203 -56 -941 -214q-82 -219 -82 -385q0 -219 74 -312q84 -106 295 -106q452 0 741 479q0 25 -4 41q5 98 111 98q104 0 118 -114
q-77 -196 -368 -439q-299 -250 -623 -250zM1470 1384q0 74 -87 158q-92 87 -224 88q-316 3 -647 -512q271 59 809 195q149 42 149 71zM819 2351q0 -153 -33 -204q-43 -66 -184 -66q-65 0 -107 75q-36 64 -36 134q0 204 192 204q168 0 168 -143zM1675 2318q0 -229 -201 -229
q-151 0 -151 192q0 213 160 213q76 0 134 -50.5t58 -125.5z" />
    <glyph glyph-name="igrave" unicode="&#xec;" horiz-adv-x="815" 
d="M504 176q41 -56 41 -82q0 -53 -55 -88q-48 -31 -105 -31q-115 0 -115 127q0 29 41 82v1401q-24 25 -24 53q0 160 143 160q40 0 75 -44q32 -42 32 -83q0 -24 -33 -86v-1409zM520 2298q107 -26 107 -123q0 -127 -140 -127q-104 0 -118 152l-430 569q-66 18 -66 102
q0 135 135 135q98 0 98 -159z" />
    <glyph glyph-name="iacute" unicode="&#xed;" horiz-adv-x="815" 
d="M504 176q41 -56 41 -82q0 -53 -55 -88q-48 -31 -105 -31q-115 0 -115 127q0 29 41 82v1401q-24 25 -24 53q0 160 143 160q40 0 75 -44q32 -42 32 -83q0 -24 -33 -86v-1409zM229 2290l483 573q0 81 19 108q24 35 100 35q135 0 135 -127q0 -70 -77 -102l-504 -602
q-12 -127 -123 -127q-119 0 -119 119q0 97 86 123z" />
    <glyph glyph-name="icircumflex" unicode="&#xee;" horiz-adv-x="815" 
d="M504 176q41 -56 41 -82q0 -53 -55 -88q-48 -31 -105 -31q-115 0 -115 127q0 29 41 82v1401q-24 25 -24 53q0 160 143 160q40 0 75 -44q32 -42 32 -83q0 -24 -33 -86v-1409zM459 2744l-467 -647q0 -131 -78 -131q-151 0 -151 115q0 33 26 66q18 20 51 61l537 737
q9 17 42 50q16 11 40 11q72 0 113 -72q17 -30 22 -38l422 -696q2 -7 31 -45q26 -33 26 -66q0 -123 -127 -123q-90 0 -90 139z" />
    <glyph glyph-name="idieresis" unicode="&#xef;" horiz-adv-x="815" 
d="M504 176q41 -56 41 -82q0 -53 -55 -88q-48 -31 -105 -31q-115 0 -115 127q0 29 41 82v1401q-24 25 -24 53q0 160 143 160q40 0 75 -44q32 -42 32 -83q0 -24 -33 -86v-1409zM164 2351q0 -153 -33 -204q-43 -66 -184 -66q-65 0 -107 75q-36 64 -36 134q0 204 192 204
q168 0 168 -143zM1020 2318q0 -229 -201 -229q-151 0 -151 192q0 213 160 213q76 0 134 -50.5t58 -125.5z" />
    <glyph glyph-name="eth" unicode="&#xf0;" horiz-adv-x="1982" 
d="M1712 2417l-217 -111q336 -321 336 -922q0 -526 -132 -787q-81 -160 -204 -318q-94 -121 -287 -240q-181 -113 -454 -113q-417 0 -542 361q-52 149 -52 299q0 317 123 591q132 293 375 469.5t567 176.5q259 0 393 -213l4 8q-86 405 -303 598l-320 -176q-45 -58 -135 -58
t-90 107q0 47 37.5 83t85.5 36h33l254 119q-155 139 -488 139q-90 0 -90 94q0 127 131 127q63 0 103 -45q235 -20 520 -217l270 151q26 50 115 50q94 0 94 -91q0 -118 -127 -118zM352 606q0 -495 422 -495q336 0 589 320q239 302 239 618q0 589 -418 589q-320 0 -572 -300
q-260 -310 -260 -732z" />
    <glyph glyph-name="ntilde" unicode="&#xf1;" horiz-adv-x="1962" 
d="M1647 135q16 -8 16 -53q0 -107 -119 -107q-102 0 -102 99q0 28 12 53v1434q0 69 -94 69q-73 0 -428 -276q-279 -218 -428 -355v-880q16 -17 16 -53q0 -91 -127 -91q-114 0 -114 74q0 45 32 70v803q-39 26 -49 77q11 55 49 127v570q-16 33 -16 82q0 40 47 69q42 25 84 25
q111 0 111 -86q0 -37 -33 -82v-455q705 623 897 623q94 0 168 -60q78 -65 78 -157v-1520zM225 2318q104 157 129 185q77 90 181 129q80 30 194 30q133 0 324 -224q176 -206 262 -206q138 0 193 59q60 63 69 167q6 75 24 181q16 48 83 48q46 0 91 -28q52 -31 52 -74
q0 -37 -8 -58q-73 -189 -99 -235q-66 -122 -168.5 -183t-277.5 -61q-112 0 -219 94q-16 15 -167 182q-135 150 -192 150q-125 0 -190 -74q-35 -40 -100 -189q-57 -130 -115 -130q-54 0 -96 32q-47 35 -47 87q0 38 43 81q26 25 34 37z" />
    <glyph glyph-name="ograve" unicode="&#xf2;" horiz-adv-x="1954" 
d="M1602 1073q0 280 -110 431q-113 153 -308 151q-196 -2 -393 -140q-212 -149 -329 -401q-110 -237 -110 -508q0 -495 385 -495q234 0 442 148q190 137 306.5 359t116.5 455zM688 -74q-264 0 -435 272q-93 147 -93 380q0 505 288 871q300 382 760 382q334 0 496 -310
q90 -172 90 -456q0 -451 -329 -793q-332 -346 -777 -346zM1270 2298q107 -26 107 -123q0 -127 -140 -127q-104 0 -118 152l-430 569q-66 18 -66 102q0 135 135 135q98 0 98 -159z" />
    <glyph glyph-name="oacute" unicode="&#xf3;" horiz-adv-x="1954" 
d="M1602 1073q0 280 -110 431q-113 153 -308 151q-196 -2 -393 -140q-212 -149 -329 -401q-110 -237 -110 -508q0 -495 385 -495q234 0 442 148q190 137 306.5 359t116.5 455zM688 -74q-264 0 -435 272q-93 147 -93 380q0 505 288 871q300 382 760 382q334 0 496 -310
q90 -172 90 -456q0 -451 -329 -793q-332 -346 -777 -346zM868 2290l483 573q0 81 19 108q24 35 100 35q135 0 135 -127q0 -70 -77 -102l-504 -602q-12 -127 -123 -127q-119 0 -119 119q0 97 86 123z" />
    <glyph glyph-name="ocircumflex" unicode="&#xf4;" horiz-adv-x="1954" 
d="M1602 1073q0 280 -110 431q-113 153 -308 151q-196 -2 -393 -140q-212 -149 -329 -401q-110 -237 -110 -508q0 -495 385 -495q234 0 442 148q190 137 306.5 359t116.5 455zM688 -74q-264 0 -435 272q-93 147 -93 380q0 505 288 871q300 382 760 382q334 0 496 -310
q90 -172 90 -456q0 -451 -329 -793q-332 -346 -777 -346zM1122 2744l-467 -647q0 -131 -78 -131q-151 0 -151 115q0 33 26 66q18 20 51 61l537 737q9 17 42 50q16 11 40 11q72 0 113 -72q17 -30 22 -38l422 -696q2 -7 31 -45q26 -33 26 -66q0 -123 -127 -123q-90 0 -90 139z
" />
    <glyph glyph-name="otilde" unicode="&#xf5;" horiz-adv-x="1954" 
d="M1602 1073q0 280 -110 431q-113 153 -308 151q-196 -2 -393 -140q-212 -149 -329 -401q-110 -237 -110 -508q0 -495 385 -495q234 0 442 148q190 137 306.5 359t116.5 455zM688 -74q-264 0 -435 272q-93 147 -93 380q0 505 288 871q300 382 760 382q334 0 496 -310
q90 -172 90 -456q0 -451 -329 -793q-332 -346 -777 -346zM319 2318q104 157 129 185q77 90 181 129q80 30 194 30q133 0 324 -224q176 -206 262 -206q138 0 193 59q60 63 69 167q6 75 24 181q16 48 83 48q46 0 91 -28q52 -31 52 -74q0 -37 -8 -58q-73 -189 -99 -235
q-66 -122 -168.5 -183t-277.5 -61q-112 0 -219 94q-16 15 -167 182q-135 150 -192 150q-125 0 -190 -74q-35 -40 -100 -189q-57 -130 -115 -130q-54 0 -96 32q-47 35 -47 87q0 38 43 81q26 25 34 37z" />
    <glyph glyph-name="odieresis" unicode="&#xf6;" horiz-adv-x="1954" 
d="M1602 1073q0 280 -110 431q-113 153 -308 151q-196 -2 -393 -140q-212 -149 -329 -401q-110 -237 -110 -508q0 -495 385 -495q234 0 442 148q190 137 306.5 359t116.5 455zM688 -74q-264 0 -435 272q-93 147 -93 380q0 505 288 871q300 382 760 382q334 0 496 -310
q90 -172 90 -456q0 -451 -329 -793q-332 -346 -777 -346zM872 2351q0 -153 -33 -204q-43 -66 -184 -66q-65 0 -107 75q-36 64 -36 134q0 204 192 204q168 0 168 -143zM1728 2318q0 -229 -201 -229q-151 0 -151 192q0 213 160 213q76 0 134 -50.5t58 -125.5z" />
    <glyph glyph-name="oslash" unicode="&#xf8;" horiz-adv-x="1954" 
d="M102 66l140 159q-82 133 -82 353q0 536 310 897q306 356 738 356q262 0 385 -152l103 119q20 82 102 82q148 0 148 -119q0 -106 -140 -106l-110 -135q98 -193 98 -455q0 -297 -153 -562q-150 -260 -406 -418.5t-547 -158.5q-195 0 -336 148l-135 -156q-14 -78 -123 -78
q-119 0 -119 103q0 123 127 123zM1552 1368l-1073 -1159q98 -98 258 -98q238 0 444 148q190 136 305.5 361t115.5 461q0 187 -50 287zM385 377l1069 1159q-83 111 -270 111q-225 0 -426 -163q-177 -143 -287 -364q-119 -241 -119 -514q0 -138 33 -229z" />
    <glyph glyph-name="ugrave" unicode="&#xf9;" horiz-adv-x="1966" 
d="M1655 127q24 -37 24 -70q0 -82 -151 -82q-103 0 -103 74q0 17 15 37q19 23 22 33v139q-134 -129 -361 -229q-235 -103 -413 -103q-130 0 -252 106q-125 109 -125 238v1377q0 10 -8 28t-8 29q0 94 131 94q102 0 102 -86q0 -49 -24 -65v-1360q0 -69 84 -126q77 -52 149 -50
q328 8 725 368v1168q0 11 -6 32.5t-6 32.5q0 74 86 74q119 0 119 -139v-1520zM1183 2298q107 -26 107 -123q0 -127 -140 -127q-104 0 -118 152l-430 569q-66 18 -66 102q0 135 135 135q98 0 98 -159z" />
    <glyph glyph-name="uacute" unicode="&#xfa;" horiz-adv-x="1966" 
d="M1655 127q24 -37 24 -70q0 -82 -151 -82q-103 0 -103 74q0 17 15 37q19 23 22 33v139q-134 -129 -361 -229q-235 -103 -413 -103q-130 0 -252 106q-125 109 -125 238v1377q0 10 -8 28t-8 29q0 94 131 94q102 0 102 -86q0 -49 -24 -65v-1360q0 -69 84 -126q77 -52 149 -50
q328 8 725 368v1168q0 11 -6 32.5t-6 32.5q0 74 86 74q119 0 119 -139v-1520zM917 2290l483 573q0 81 19 108q24 35 100 35q135 0 135 -127q0 -70 -77 -102l-504 -602q-12 -127 -123 -127q-119 0 -119 119q0 97 86 123z" />
    <glyph glyph-name="ucircumflex" unicode="&#xfb;" horiz-adv-x="1966" 
d="M1655 127q24 -37 24 -70q0 -82 -151 -82q-103 0 -103 74q0 17 15 37q19 23 22 33v139q-134 -129 -361 -229q-235 -103 -413 -103q-130 0 -252 106q-125 109 -125 238v1377q0 10 -8 28t-8 29q0 94 131 94q102 0 102 -86q0 -49 -24 -65v-1360q0 -69 84 -126q77 -52 149 -50
q328 8 725 368v1168q0 11 -6 32.5t-6 32.5q0 74 86 74q119 0 119 -139v-1520zM1024 2744l-467 -647q0 -131 -78 -131q-151 0 -151 115q0 33 26 66q18 20 51 61l537 737q9 17 42 50q16 11 40 11q72 0 113 -72q17 -30 22 -38l422 -696q2 -7 31 -45q26 -33 26 -66
q0 -123 -127 -123q-90 0 -90 139z" />
    <glyph glyph-name="udieresis" unicode="&#xfc;" horiz-adv-x="1966" 
d="M1655 127q24 -37 24 -70q0 -82 -151 -82q-103 0 -103 74q0 17 15 37q19 23 22 33v139q-134 -129 -361 -229q-235 -103 -413 -103q-130 0 -252 106q-125 109 -125 238v1377q0 10 -8 28t-8 29q0 94 131 94q102 0 102 -86q0 -49 -24 -65v-1360q0 -69 84 -126q77 -52 149 -50
q328 8 725 368v1168q0 11 -6 32.5t-6 32.5q0 74 86 74q119 0 119 -139v-1520zM737 2351q0 -153 -33 -204q-43 -66 -184 -66q-65 0 -107 75q-36 64 -36 134q0 204 192 204q168 0 168 -143zM1593 2318q0 -229 -201 -229q-151 0 -151 192q0 213 160 213q76 0 134 -50.5
t58 -125.5z" />
    <glyph glyph-name="yacute" unicode="&#xfd;" horiz-adv-x="1769" 
d="M143 -401q35 -238 295 -238q220 0 346 224q74 133 158 390l-876 1610q-50 37 -50 111q0 90 111 90q131 0 131 -148l774 -1413l496 1479q0 94 102 94q131 0 131 -86q0 -43 -57 -94l-655 -1905q-143 -415 -345 -494q-110 -42 -294 -42q-309 0 -451 360q-6 16 -28 37
q-17 17 -17 33q0 143 102 143q160 0 160 -78q0 -57 -33 -73zM692 2290l483 573q0 81 19 108q24 35 100 35q135 0 135 -127q0 -70 -77 -102l-504 -602q-12 -127 -123 -127q-119 0 -119 119q0 97 86 123z" />
    <glyph glyph-name="thorn" unicode="&#xfe;" horiz-adv-x="1974" 
d="M545 967q413 38 877 272q491 248 491 490q0 79 -102 132q-86 44 -173 44q-260 0 -760 -176q-214 -76 -333 -152v-610zM545 143q33 -49 33 -69q0 -99 -152 -99q-115 0 -115 91q0 47 49 86v2342q-24 25 -24 91q0 102 143 102q119 0 119 -102q0 -51 -53 -91v-688
q300 138 727 236q208 47 350 47q195 0 326 -81q157 -97 157 -279q0 -236 -319 -466q-216 -156 -527 -278q-366 -144 -714 -203v-639z" />
    <glyph glyph-name="ydieresis" unicode="&#xff;" horiz-adv-x="1769" 
d="M143 -401q35 -238 295 -238q220 0 346 224q74 133 158 390l-876 1610q-50 37 -50 111q0 90 111 90q131 0 131 -148l774 -1413l496 1479q0 94 102 94q131 0 131 -86q0 -43 -57 -94l-655 -1905q-143 -415 -345 -494q-110 -42 -294 -42q-309 0 -451 360q-6 16 -28 37
q-17 17 -17 33q0 143 102 143q160 0 160 -78q0 -57 -33 -73zM635 2351q0 -153 -33 -204q-43 -66 -184 -66q-65 0 -107 75q-36 64 -36 134q0 204 192 204q168 0 168 -143zM1491 2318q0 -229 -201 -229q-151 0 -151 192q0 213 160 213q76 0 134 -50.5t58 -125.5z" />
    <glyph glyph-name="glyph223" unicode="&#x102;" horiz-adv-x="2585" 
d="M410 82q0 -98 -123 -98q-75 0 -94 10q-33 16 -33 80q0 74 49 184l983 2208q18 78 84 222q28 40 84 40q127 0 127 -102q0 -29 -16.5 -57.5t-16.5 -57.5q0 -199 459 -1176q106 -225 220 -457l174 -356q134 -280 134 -370q0 -168 -123 -168q-143 0 -143 82q0 30 12.5 80
t12.5 71q0 102 -127 377l-295 639l-955 -57l-295 -639q-68 -146 -98 -268q-20 -80 -20 -187zM1688 1401l-361 966l-422 -1024zM831 3562q0 -216 228 -355q103 -63 215 -63q431 0 552 434q-16 33 -16 86q0 57 135 57q103 0 103 -65q0 -51 -29 -86q-108 -397 -436 -545
q-146 -66 -293 -66q-343 0 -557 312q-98 141 -98 299q0 127 94 127q102 0 102 -135z" />
    <glyph glyph-name="glyph224" unicode="&#x103;" 
d="M1585 471q-218 -222 -545 -379q-348 -166 -639 -166q-290 0 -290 226q0 334 412 656q441 343 1070 343v336q0 168 -151 168q-324 0 -614 -173q-136 -82 -230 -188q0 -102 -127 -102q-34 0 -76.5 39t-42.5 72q0 131 119 131q427 405 999 405q138 0 229 -100
q87 -96 87 -236v-1376q20 -25 20 -70q0 -82 -143 -82q-102 0 -102 74q0 20 32 70v352h-8zM1593 967q-447 -16 -685 -142q-74 -39 -261 -161q-108 -70 -224 -217q-125 -157 -128 -254q-3 -82 176 -82q178 0 478 150q251 125 434 269q210 165 210 277v160zM652 2700
q0 -216 228 -355q103 -63 215 -63q431 0 552 434q-16 33 -16 86q0 57 135 57q103 0 103 -65q0 -51 -29 -86q-108 -397 -436 -545q-146 -66 -293 -66q-343 0 -557 312q-98 141 -98 299q0 127 94 127q102 0 102 -135z" />
    <glyph glyph-name="Dslash" unicode="&#x110;" horiz-adv-x="2486" 
d="M360 1442v1016q0 16 -8 49.5t-8 52.5q0 82 127 82q107 0 107 -90q0 -33 -17 -58l8 -8q458 185 885 185q387 0 635 -293q229 -270 229 -584q0 -736 -597 -1296q-591 -555 -1328 -555q-33 0 -33 57v1249l-233 -16q-2 0 -17 -8t-24 -8q-70 0 -70 77q0 124 103 131zM545 1274
v-1114q700 96 1157 589q432 466 432 988q0 258 -187 491q-207 258 -522 258q-511 0 -880 -245v-779l631 41q65 25 106 25q102 0 102 -94q0 -140 -110 -140q-16 0 -53.5 13t-53.5 12z" />
    <glyph glyph-name="dcroat" unicode="&#x111;" horiz-adv-x="2105" 
d="M1593 774q-333 -471 -758 -722q-212 -126 -380 -126q-224 0 -314 204q-39 86 -39 173q0 472 427 935q423 458 831 458q107 0 242 -58v401l-502 -40q-44 -66 -111 -66q-119 0 -119 152q0 139 111 139q48 0 86 -33l535 33v270q-41 25 -41 91q0 102 118 102q115 0 115 -119
q0 -12 -4 -37t-4 -37v-259l80 5q39 45 98 45q160 0 160 -135t-127 -135q-66 0 -90 49l-121 -10v-1902q45 -39 45 -86q0 -91 -143 -91q-111 0 -111 91q0 53 25 69v639h-9zM1577 1217q0 294 -201 294q-348 0 -717 -423q-364 -417 -364 -769q0 -208 168 -208q222 0 512 266
q461 423 555 630q47 103 47 210z" />
    <glyph glyph-name="glyph225" unicode="&#x128;" horiz-adv-x="905" 
d="M545 152q49 -37 49 -95q0 -82 -156 -82q-135 0 -135 111q0 44 57 74v2306q-41 36 -41 69q0 107 185 107q102 0 102 -90q0 -45 -61 -111v-2289zM-39 3158q104 157 129 185q77 90 181 129q80 30 194 30q133 0 324 -224q176 -206 262 -206q138 0 193 59q60 63 69 167
q6 75 24 181q16 48 83 48q46 0 91 -28q52 -31 52 -74q0 -37 -8 -58q-73 -189 -99 -235q-66 -122 -168.5 -183t-277.5 -61q-112 0 -219 94q-16 15 -167 182q-135 150 -192 150q-125 0 -190 -74q-35 -40 -100 -189q-57 -130 -115 -130q-54 0 -96 32q-47 35 -47 87q0 38 43 81
q26 25 34 37z" />
    <glyph glyph-name="glyph226" unicode="&#x129;" horiz-adv-x="815" 
d="M504 176q41 -56 41 -82q0 -53 -55 -88q-48 -31 -105 -31q-115 0 -115 127q0 29 41 82v1401q-24 25 -24 53q0 160 143 160q40 0 75 -44q32 -42 32 -83q0 -24 -33 -86v-1409zM-58 2318q104 157 129 185q77 90 181 129q80 30 194 30q133 0 324 -224q176 -206 262 -206
q138 0 193 59q60 63 69 167q6 75 24 181q16 48 83 48q46 0 91 -28q52 -31 52 -74q0 -37 -8 -58q-73 -189 -99 -235q-66 -122 -168.5 -183t-277.5 -61q-112 0 -219 94q-16 15 -167 182q-135 150 -192 150q-125 0 -190 -74q-35 -40 -100 -189q-57 -130 -115 -130q-54 0 -96 32
q-47 35 -47 87q0 38 43 81q26 25 34 37z" />
    <glyph glyph-name="dotlessi" unicode="&#x131;" horiz-adv-x="815" 
d="M504 176q41 -56 41 -82q0 -53 -55 -88q-48 -31 -105 -31q-115 0 -115 127q0 29 41 82v1401q-24 25 -24 53q0 160 143 160q40 0 75 -44q32 -42 32 -83q0 -24 -33 -86v-1409z" />
    <glyph glyph-name="OE" unicode="&#x152;" horiz-adv-x="3719" 
d="M2175 1434l983 110q10 3 38 24q24 17 44 17q94 0 94 -115q0 -102 -119 -102l-1040 -127v-1040l1241 127q119 0 119 -95q0 -122 -86 -122q-32 0 -82 24l-1176 -127q-19 -17 -65 -47q-24 -10 -78 -10q-94 0 -94 115q0 90 28 118v385h-8q-268 -492 -675 -597
q-181 -46 -402 -46q-327 0 -524 302.5t-197 803.5q0 807 471 1278q158 158 238 222q135 108 281 163q153 58 362 58q287 0 454 -234l9 8q0 33 -9 49q12 119 132 119q102 0 102 -135q0 -57 -8 -86l1183 168q107 0 107 -107q0 -45 -39 -81.5t-84 -36.5q-14 0 -53 12t-66 12
l-1081 -168v-839zM1982 1081v1237q-22 -28 -77 -28q-66 0 -82 53q-26 85 -114 154q-92 71 -239 71q-415 0 -765 -489q-345 -482 -345 -1022q0 -538 233 -799q131 -147 349 -147q313 0 587 209q325 248 453 761z" />
    <glyph glyph-name="oe" unicode="&#x153;" horiz-adv-x="3039" 
d="M2802 1208l-1123 -286q-77 -347 -77 -451q0 -352 364 -352q421 0 705 479q0 16 -9 33q15 106 107 106q127 0 127 -114q0 -36 -57 -111q-437 -578 -902 -578q-238 0 -397 188q-85 99 -98 255h-8q-247 -451 -713 -451q-406 0 -516 348q-45 142 -45 287q0 324 122 604
q132 303 379 481q235 169 531 169q274 0 396 -289q54 -128 59 -260h8q162 311 457 475q133 74 239 74q369 0 510 -295q51 -109 51 -152q0 -132 -110 -160zM1769 1118l926 258q0 109 -108 185q-98 69 -211 69q-290 0 -607 -512zM352 614q0 -250 64 -359q84 -144 313 -144
q496 0 688 544q78 223 78 410q0 565 -328 565q-340 0 -581 -319q-234 -311 -234 -697z" />
    <glyph glyph-name="glyph227" unicode="&#x168;" horiz-adv-x="2367" 
d="M360 430v2064q-15 32 -16 41q0 91 102 91q99 0 99 -115v-2118q86 -282 352 -282q383 0 676 225q258 199 258 336v1814q-37 37 -37 66q0 110 135 110q103 0 103 -102q0 -33 -17 -49v-1897q0 -191 -327 -438q-221 -167 -428 -217q-137 -33 -322 -33q-366 0 -512 257
q-66 116 -66 247zM454 3158q104 157 129 185q77 90 181 129q80 30 194 30q133 0 324 -224q176 -206 262 -206q138 0 193 59q60 63 69 167q6 75 24 181q16 48 83 48q46 0 91 -28q52 -31 52 -74q0 -37 -8 -58q-73 -189 -99 -235q-66 -122 -168.5 -183t-277.5 -61
q-112 0 -219 94q-16 15 -167 182q-135 150 -192 150q-125 0 -190 -74q-35 -40 -100 -189q-57 -130 -115 -130q-54 0 -96 32q-47 35 -47 87q0 38 43 81q26 25 34 37z" />
    <glyph glyph-name="glyph228" unicode="&#x169;" horiz-adv-x="1966" 
d="M1655 127q24 -37 24 -70q0 -82 -151 -82q-103 0 -103 74q0 17 15 37q19 23 22 33v139q-134 -129 -361 -229q-235 -103 -413 -103q-130 0 -252 106q-125 109 -125 238v1377q0 10 -8 28t-8 29q0 94 131 94q102 0 102 -86q0 -49 -24 -65v-1360q0 -69 84 -126q77 -52 149 -50
q328 8 725 368v1168q0 11 -6 32.5t-6 32.5q0 74 86 74q119 0 119 -139v-1520zM319 2318q104 157 129 185q77 90 181 129q80 30 194 30q133 0 324 -224q176 -206 262 -206q138 0 193 59q60 63 69 167q6 75 24 181q16 48 83 48q46 0 91 -28q52 -31 52 -74q0 -37 -8 -58
q-73 -189 -99 -235q-66 -122 -168.5 -183t-277.5 -61q-112 0 -219 94q-16 15 -167 182q-135 150 -192 150q-125 0 -190 -74q-35 -40 -100 -189q-57 -130 -115 -130q-54 0 -96 32q-47 35 -47 87q0 38 43 81q26 25 34 37z" />
    <glyph glyph-name="florin" unicode="&#x192;" horiz-adv-x="2040" 
d="M82 -209q18 -133 61 -187q53 -67 176 -67q159 0 265 305q120 347 321 1477l-450 -25q-9 -12 -54 -12l-8 -8q-57 19 -57 143q0 86 82 86q2 -2 45 -16l475 24q165 759 342 1022q142 211 375 211q250 0 375 -192q51 -79 51 -135q0 -40 -34 -88t-73 -48q-66 0 -88 34
q-12 17 -29 97q-33 148 -210 148q-227 0 -347 -417q-55 -192 -157 -623l520 32q25 41 98 41q86 0 86 -114q0 -144 -86 -144q-45 0 -82 25l-573 -33q-128 -722 -147 -816q-104 -509 -217 -795q-145 -363 -431 -363q-186 0 -286 94q-88 84 -136 274q-49 21 -49 95
q0 135 119 135q135 0 135 -103q0 -33 -12 -57z" />
    <glyph glyph-name="glyph229" unicode="&#x1a0;" horiz-adv-x="2441" 
d="M2089 1487q2 246 -45 460q-92 412 -341 564q-123 74 -278 74q-346 0 -694 -473q-164 -223 -265 -507q-105 -292 -106 -589q-2 -485 202 -695t470 -210q318 0 572 229q221 198 351 522q131 328 134 625zM2377 2480q-33 -65 -123 -65q-71 0 -128 60t-57 132q0 104 77 177
t181 73q98 0 169 -95q65 -88 65 -188q0 -297 -208 -495q-67 -64 -132 -80q52 -228 52 -512q0 -384 -156 -735q-162 -366 -452 -594q-295 -232 -682 -232q-401 0 -613 331q-199 310 -202 783q-3 592 388 1156q397 573 878 573q555 0 756 -654q43 12 56 21q139 121 139 344h-8
z" />
    <glyph glyph-name="glyph230" unicode="&#x1a1;" horiz-adv-x="1954" 
d="M1602 1073q0 280 -110 431q-113 153 -308 151q-196 -2 -393 -140q-212 -149 -329 -401q-110 -237 -110 -508q0 -495 385 -495q234 0 442 148q190 137 306.5 359t116.5 455zM2007 1570q-33 -65 -123 -65q-71 0 -128 60t-57 132q0 104 77 177t181 73q98 0 169 -95
q65 -88 65 -188q0 -297 -208 -495q-93 -88 -177 -86h-12v-18q2 -448 -329.5 -793.5t-776.5 -345.5q-264 0 -435 272q-93 147 -93 380q0 505 288 871q300 382 760 382q334 0 496 -310q68 -130 85 -325q13 4 30 9q44 12 57 21q139 121 139 344h-8z" />
    <glyph glyph-name="glyph231" unicode="&#x1af;" horiz-adv-x="2367" 
d="M1890 2659q15 71 73 125q77 73 180 73q97 0 169 -95q65 -88 65 -188q0 -297 -208 -495q-79 -75 -154 -84v-1381q0 -191 -327 -438q-221 -167 -428 -217q-137 -33 -322 -33q-366 0 -512 257q-66 116 -66 247v2064q-15 32 -16 41q0 91 102 91q99 0 99 -115v-2118
q86 -282 352 -282q383 0 676 225q258 199 258 336v1814q-37 37 -37 66q0 93 96 107zM2193 2480q-33 -65 -123 -65q-27 0 -55 12v-309q36 10 47 18q139 121 139 344h-8z" />
    <glyph glyph-name="glyph232" unicode="&#x1b0;" horiz-adv-x="1966" 
d="M1588 1780q19 52 63 94q78 73 181 73q97 0 168 -95q66 -88 66 -188q0 -297 -209 -495q-90 -86 -176 -86q-14 0 -26 1v-957q24 -37 24 -70q0 -82 -151 -82q-103 0 -103 74q0 17 15 37q19 23 22 33v139q-134 -129 -361 -229q-235 -103 -413 -103q-130 0 -252 106
q-125 109 -125 238v1377q0 10 -8 28t-8 29q0 94 131 94q102 0 102 -86q0 -49 -24 -65v-1360q0 -69 84 -126q77 -52 149 -50q328 8 725 368v1168q0 11 -6 32.5t-6 32.5q0 74 86 74q30 0 52 -6zM1882 1570q-33 -65 -123 -65q-50 0 -104 40v-352q17 6 38 12q45 12 58 21
q139 121 139 344h-8z" />
    <glyph glyph-name="circumflex" unicode="&#x2c6;" horiz-adv-x="1442" 
d="M762 2744l-467 -647q0 -131 -78 -131q-151 0 -151 115q0 33 26 66q18 20 51 61l537 737q9 17 42 50q16 11 40 11q72 0 113 -72q17 -30 22 -38l422 -696q2 -7 31 -45q26 -33 26 -66q0 -123 -127 -123q-90 0 -90 139z" />
    <glyph glyph-name="breve" unicode="&#x2d8;" horiz-adv-x="1544" 
d="M262 2585q0 -216 228 -355q103 -63 215 -63q431 0 552 434q-16 33 -16 86q0 57 135 57q103 0 103 -65q0 -51 -29 -86q-108 -397 -436 -545q-146 -66 -293 -66q-343 0 -557 312q-98 141 -98 299q0 127 94 127q102 0 102 -135z" />
    <glyph glyph-name="ring" unicode="&#x2da;" horiz-adv-x="1118" 
d="M504 2122q161 0 279 127q60 66 57 143q-13 295 -226 295q-119 0 -225 -91q-110 -94 -110 -212q0 -262 225 -262zM463 1937q-177 0 -280 157q-89 136 -89 323q0 242 318 395q124 59 194 59q199 0 312 -134q106 -126 106 -329q0 -208 -181 -345q-166 -126 -380 -126z" />
    <glyph glyph-name="tilde" unicode="&#x2dc;" horiz-adv-x="1798" 
d="M143 2318q104 157 129 185q77 90 181 129q80 30 194 30q133 0 324 -224q176 -206 262 -206q138 0 193 59q60 63 69 167q6 75 24 181q16 48 83 48q46 0 91 -28q52 -31 52 -74q0 -37 -8 -58q-73 -189 -99 -235q-66 -122 -168.5 -183t-277.5 -61q-112 0 -219 94
q-16 15 -167 182q-135 150 -192 150q-125 0 -190 -74q-35 -40 -100 -189q-57 -130 -115 -130q-54 0 -96 32q-47 35 -47 87q0 38 43 81q26 25 34 37z" />
    <glyph glyph-name="glyph233" unicode="&#x1ea0;" horiz-adv-x="2585" 
d="M410 82q0 -98 -123 -98q-75 0 -94 10q-33 16 -33 80q0 74 49 184l983 2208q18 78 84 222q28 40 84 40q127 0 127 -102q0 -29 -16.5 -57.5t-16.5 -57.5q0 -199 459 -1176q106 -225 220 -457l174 -356q134 -280 134 -370q0 -168 -123 -168q-143 0 -143 82q0 30 12.5 80
t12.5 71q0 102 -127 377l-295 639l-955 -57l-295 -639q-68 -146 -98 -268q-20 -80 -20 -187zM1688 1401l-361 966l-422 -1024zM1484 -577q0 -258 -213 -258q-143 0 -143 225q0 94 59 171q63 83 154 83q143 0 143 -221z" />
    <glyph glyph-name="glyph234" unicode="&#x1ea1;" 
d="M1585 471q-218 -222 -545 -379q-348 -166 -639 -166q-290 0 -290 226q0 334 412 656q441 343 1070 343v336q0 168 -151 168q-324 0 -614 -173q-136 -82 -230 -188q0 -102 -127 -102q-34 0 -76.5 39t-42.5 72q0 131 119 131q427 405 999 405q138 0 229 -100
q87 -96 87 -236v-1376q20 -25 20 -70q0 -82 -143 -82q-102 0 -102 74q0 20 32 70v352h-8zM1593 967q-447 -16 -685 -142q-74 -39 -261 -161q-108 -70 -224 -217q-125 -157 -128 -254q-3 -82 176 -82q178 0 478 150q251 125 434 269q210 165 210 277v160zM1204 -577
q0 -258 -213 -258q-143 0 -143 225q0 94 59 171q63 83 154 83q143 0 143 -221z" />
    <glyph glyph-name="glyph235" unicode="&#x1ea2;" horiz-adv-x="2585" 
d="M410 82q0 -98 -123 -98q-75 0 -94 10q-33 16 -33 80q0 74 49 184l983 2208q18 78 84 222q28 40 84 40q127 0 127 -102q0 -29 -16.5 -57.5t-16.5 -57.5q0 -199 459 -1176q106 -225 220 -457l174 -356q134 -280 134 -370q0 -168 -123 -168q-143 0 -143 82q0 30 12.5 80
t12.5 71q0 102 -127 377l-295 639l-955 -57l-295 -639q-68 -146 -98 -268q-20 -80 -20 -187zM1688 1401l-361 966l-422 -1024zM1466 3056q60 0 60 -56q0 -57 -84 -91q-64 -26 -131 -26q-58 0 -93 33.5t-44 94.5q-9 68 17 117q16 35 69 102q29 27 187 152q117 93 143 119
q42 42 64 96q23 60 -13 103q-22 26 -59 39q-42 16 -91 16q-72 0 -166 -68q-89 -63 -155 -143q0 -35 -24 -55q-20 -17 -45 -17q-39 0 -70 29q-39 36 -35 66q10 66 82 85q10 11 58 62q111 120 249 180q77 34 152 27q98 -9 176 -62q75 -50 98 -125q45 -143 -20 -235
q-50 -71 -177 -180q-75 -61 -219 -189q-24 -24 -32 -45q-17 -44 -17 -57q3 -51 68 -51q23 0 23 39.5t29 39.5z" />
    <glyph glyph-name="glyph236" unicode="&#x1ea3;" 
d="M1585 471q-218 -222 -545 -379q-348 -166 -639 -166q-290 0 -290 226q0 334 412 656q441 343 1070 343v336q0 168 -151 168q-324 0 -614 -173q-136 -82 -230 -188q0 -102 -127 -102q-34 0 -76.5 39t-42.5 72q0 131 119 131q427 405 999 405q138 0 229 -100
q87 -96 87 -236v-1376q20 -25 20 -70q0 -82 -143 -82q-102 0 -102 74q0 20 32 70v352h-8zM1593 967q-447 -16 -685 -142q-74 -39 -261 -161q-108 -70 -224 -217q-125 -157 -128 -254q-3 -82 176 -82q178 0 478 150q251 125 434 269q210 165 210 277v160zM1296 2199
q60 0 60 -56q0 -57 -84 -91q-64 -26 -131 -26q-58 0 -93 33.5t-44 94.5q-9 68 17 117q16 35 69 102q29 27 187 152q117 93 143 119q42 42 64 96q23 60 -13 103q-22 26 -59 39q-42 16 -91 16q-72 0 -166 -68q-89 -63 -155 -143q0 -35 -24 -55q-20 -17 -45 -17q-39 0 -70 29
q-39 36 -35 66q10 66 82 85q10 11 58 62q111 120 249 180q77 34 152 27q98 -9 176 -62q75 -50 98 -125q45 -143 -20 -235q-50 -71 -177 -180q-75 -61 -219 -189q-24 -24 -32 -45q-17 -44 -17 -57q3 -51 68 -51q23 0 23 39.5t29 39.5z" />
    <glyph glyph-name="glyph237" unicode="&#x1ea4;" horiz-adv-x="2585" 
d="M410 82q0 -98 -123 -98q-75 0 -94 10q-33 16 -33 80q0 74 49 184l983 2208q18 78 84 222q28 40 84 40q127 0 127 -102q0 -29 -16.5 -57.5t-16.5 -57.5q0 -199 459 -1176q106 -225 220 -457l174 -356q134 -280 134 -370q0 -168 -123 -168q-143 0 -143 82q0 30 12.5 80
t12.5 71q0 102 -127 377l-295 639l-955 -57l-295 -639q-68 -146 -98 -268q-20 -80 -20 -187zM1688 1401l-361 966l-422 -1024zM1331 3584l-467 -647q0 -131 -78 -131q-151 0 -151 115q0 33 26 66q18 20 51 61l537 737q9 17 42 50q16 11 40 11q72 0 113 -72q17 -30 22 -38
l422 -696q2 -7 31 -45q26 -33 26 -66q0 -123 -127 -123q-90 0 -90 139zM851 3954l483 573q0 81 19 108q24 35 100 35q135 0 135 -127q0 -70 -77 -102l-504 -602q-12 -127 -123 -127q-119 0 -119 119q0 97 86 123z" />
    <glyph glyph-name="glyph238" unicode="&#x1ea5;" 
d="M1585 471q-218 -222 -545 -379q-348 -166 -639 -166q-290 0 -290 226q0 334 412 656q441 343 1070 343v336q0 168 -151 168q-324 0 -614 -173q-136 -82 -230 -188q0 -102 -127 -102q-34 0 -76.5 39t-42.5 72q0 131 119 131q427 405 999 405q138 0 229 -100
q87 -96 87 -236v-1376q20 -25 20 -70q0 -82 -143 -82q-102 0 -102 74q0 20 32 70v352h-8zM1593 967q-447 -16 -685 -142q-74 -39 -261 -161q-108 -70 -224 -217q-125 -157 -128 -254q-3 -82 176 -82q178 0 478 150q251 125 434 269q210 165 210 277v160zM1147 2744
l-467 -647q0 -131 -78 -131q-151 0 -151 115q0 33 26 66q18 20 51 61l537 737q9 17 42 50q16 11 40 11q72 0 113 -72q17 -30 22 -38l422 -696q2 -7 31 -45q26 -33 26 -66q0 -123 -127 -123q-90 0 -90 139zM666 3113l483 573q0 81 19 108q24 35 100 35q135 0 135 -127
q0 -70 -77 -102l-504 -602q-12 -127 -123 -127q-119 0 -119 119q0 97 86 123z" />
    <glyph glyph-name="glyph239" unicode="&#x1ea6;" horiz-adv-x="2585" 
d="M410 82q0 -98 -123 -98q-75 0 -94 10q-33 16 -33 80q0 74 49 184l983 2208q18 78 84 222q28 40 84 40q127 0 127 -102q0 -29 -16.5 -57.5t-16.5 -57.5q0 -199 459 -1176q106 -225 220 -457l174 -356q134 -280 134 -370q0 -168 -123 -168q-143 0 -143 82q0 30 12.5 80
t12.5 71q0 102 -127 377l-295 639l-955 -57l-295 -639q-68 -146 -98 -268q-20 -80 -20 -187zM1688 1401l-361 966l-422 -1024zM1331 3584l-467 -647q0 -131 -78 -131q-151 0 -151 115q0 33 26 66q18 20 51 61l537 737q9 17 42 50q16 11 40 11q72 0 113 -72q17 -30 22 -38
l422 -696q2 -7 31 -45q26 -33 26 -66q0 -123 -127 -123q-90 0 -90 139zM1817 3958q107 -26 107 -123q0 -127 -140 -127q-104 0 -118 152l-430 569q-66 18 -66 102q0 135 135 135q98 0 98 -159z" />
    <glyph glyph-name="glyph240" unicode="&#x1ea7;" 
d="M1585 471q-218 -222 -545 -379q-348 -166 -639 -166q-290 0 -290 226q0 334 412 656q441 343 1070 343v336q0 168 -151 168q-324 0 -614 -173q-136 -82 -230 -188q0 -102 -127 -102q-34 0 -76.5 39t-42.5 72q0 131 119 131q427 405 999 405q138 0 229 -100
q87 -96 87 -236v-1376q20 -25 20 -70q0 -82 -143 -82q-102 0 -102 74q0 20 32 70v352h-8zM1593 967q-447 -16 -685 -142q-74 -39 -261 -161q-108 -70 -224 -217q-125 -157 -128 -254q-3 -82 176 -82q178 0 478 150q251 125 434 269q210 165 210 277v160zM1147 2744
l-467 -647q0 -131 -78 -131q-151 0 -151 115q0 33 26 66q18 20 51 61l537 737q9 17 42 50q16 11 40 11q72 0 113 -72q17 -30 22 -38l422 -696q2 -7 31 -45q26 -33 26 -66q0 -123 -127 -123q-90 0 -90 139zM1634 3118q107 -26 107 -123q0 -127 -140 -127q-104 0 -118 152
l-430 569q-66 18 -66 102q0 135 135 135q98 0 98 -159z" />
    <glyph glyph-name="glyph241" unicode="&#x1ea8;" horiz-adv-x="2585" 
d="M410 82q0 -98 -123 -98q-75 0 -94 10q-33 16 -33 80q0 74 49 184l983 2208q18 78 84 222q28 40 84 40q127 0 127 -102q0 -29 -16.5 -57.5t-16.5 -57.5q0 -199 459 -1176q106 -225 220 -457l174 -356q134 -280 134 -370q0 -168 -123 -168q-143 0 -143 82q0 30 12.5 80
t12.5 71q0 102 -127 377l-295 639l-955 -57l-295 -639q-68 -146 -98 -268q-20 -80 -20 -187zM1688 1401l-361 966l-422 -1024zM1331 3584l-467 -647q0 -131 -78 -131q-151 0 -151 115q0 33 26 66q18 20 51 61l537 737q9 17 42 50q16 11 40 11q72 0 113 -72q17 -30 22 -38
l422 -696q2 -7 31 -45q26 -33 26 -66q0 -123 -127 -123q-90 0 -90 139zM1907 3786q60 0 60 -56q0 -57 -84 -91q-64 -26 -131 -26q-58 0 -93 33.5t-44 94.5q-9 68 17 117q16 35 69 102q29 27 187 152q117 93 143 119q42 42 64 96q23 60 -13 103q-22 26 -59 39q-42 16 -91 16
q-72 0 -166 -68q-89 -63 -155 -143q0 -35 -24 -55q-20 -17 -45 -17q-39 0 -70 29q-39 36 -35 66q10 66 82 85q10 11 58 62q111 120 249 180q77 34 152 27q98 -9 176 -62q75 -50 98 -125q45 -143 -20 -235q-50 -71 -177 -180q-75 -61 -219 -189q-24 -24 -32 -45
q-17 -44 -17 -57q3 -51 68 -51q23 0 23 39.5t29 39.5z" />
    <glyph glyph-name="glyph242" unicode="&#x1ea9;" 
d="M1585 471q-218 -222 -545 -379q-348 -166 -639 -166q-290 0 -290 226q0 334 412 656q441 343 1070 343v336q0 168 -151 168q-324 0 -614 -173q-136 -82 -230 -188q0 -102 -127 -102q-34 0 -76.5 39t-42.5 72q0 131 119 131q427 405 999 405q138 0 229 -100
q87 -96 87 -236v-1376q20 -25 20 -70q0 -82 -143 -82q-102 0 -102 74q0 20 32 70v352h-8zM1593 967q-447 -16 -685 -142q-74 -39 -261 -161q-108 -70 -224 -217q-125 -157 -128 -254q-3 -82 176 -82q178 0 478 150q251 125 434 269q210 165 210 277v160zM1147 2744
l-467 -647q0 -131 -78 -131q-151 0 -151 115q0 33 26 66q18 20 51 61l537 737q9 17 42 50q16 11 40 11q72 0 113 -72q17 -30 22 -38l422 -696q2 -7 31 -45q26 -33 26 -66q0 -123 -127 -123q-90 0 -90 139zM1723 2945q60 0 60 -56q0 -57 -84 -91q-64 -26 -131 -26
q-58 0 -93 33.5t-44 94.5q-9 68 17 117q16 35 69 102q29 27 187 152q117 93 143 119q42 42 64 96q23 60 -13 103q-22 26 -59 39q-42 16 -91 16q-72 0 -166 -68q-89 -63 -155 -143q0 -35 -24 -55q-20 -17 -45 -17q-39 0 -70 29q-39 36 -35 66q10 66 82 85q10 11 58 62
q111 120 249 180q77 34 152 27q98 -9 176 -62q75 -50 98 -125q45 -143 -20 -235q-50 -71 -177 -180q-75 -61 -219 -189q-24 -24 -32 -45q-17 -44 -17 -57q3 -51 68 -51q23 0 23 39.5t29 39.5z" />
    <glyph glyph-name="glyph243" unicode="&#x1eaa;" horiz-adv-x="2585" 
d="M410 82q0 -98 -123 -98q-75 0 -94 10q-33 16 -33 80q0 74 49 184l983 2208q18 78 84 222q28 40 84 40q127 0 127 -102q0 -29 -16.5 -57.5t-16.5 -57.5q0 -199 459 -1176q106 -225 220 -457l174 -356q134 -280 134 -370q0 -168 -123 -168q-143 0 -143 82q0 30 12.5 80
t12.5 71q0 102 -127 377l-295 639l-955 -57l-295 -639q-68 -146 -98 -268q-20 -80 -20 -187zM1688 1401l-361 966l-422 -1024zM1331 3584l-467 -647q0 -131 -78 -131q-151 0 -151 115q0 33 26 66q18 20 51 61l537 737q9 17 42 50q16 11 40 11q72 0 113 -72q17 -30 22 -38
l422 -696q2 -7 31 -45q26 -33 26 -66q0 -123 -127 -123q-90 0 -90 139zM889 4176q104 157 129 185q77 90 181 129q80 30 194 30q133 0 324 -224q176 -206 262 -206q138 0 193 59q60 63 69 167q6 75 24 181q16 48 83 48q46 0 91 -28q52 -31 52 -74q0 -37 -8 -58
q-73 -189 -99 -235q-66 -122 -168.5 -183t-277.5 -61q-112 0 -219 94q-16 15 -167 182q-135 150 -192 150q-125 0 -190 -74q-35 -40 -100 -189q-57 -130 -115 -130q-54 0 -96 32q-47 35 -47 87q0 38 43 81q26 25 34 37z" />
    <glyph glyph-name="glyph244" unicode="&#x1eab;" 
d="M1585 471q-218 -222 -545 -379q-348 -166 -639 -166q-290 0 -290 226q0 334 412 656q441 343 1070 343v336q0 168 -151 168q-324 0 -614 -173q-136 -82 -230 -188q0 -102 -127 -102q-34 0 -76.5 39t-42.5 72q0 131 119 131q427 405 999 405q138 0 229 -100
q87 -96 87 -236v-1376q20 -25 20 -70q0 -82 -143 -82q-102 0 -102 74q0 20 32 70v352h-8zM1593 967q-447 -16 -685 -142q-74 -39 -261 -161q-108 -70 -224 -217q-125 -157 -128 -254q-3 -82 176 -82q178 0 478 150q251 125 434 269q210 165 210 277v160zM1147 2744
l-467 -647q0 -131 -78 -131q-151 0 -151 115q0 33 26 66q18 20 51 61l537 737q9 17 42 50q16 11 40 11q72 0 113 -72q17 -30 22 -38l422 -696q2 -7 31 -45q26 -33 26 -66q0 -123 -127 -123q-90 0 -90 139zM705 3335q104 157 129 185q77 90 181 129q80 30 194 30
q133 0 324 -224q176 -206 262 -206q138 0 193 59q60 63 69 167q6 75 24 181q16 48 83 48q46 0 91 -28q52 -31 52 -74q0 -37 -8 -58q-73 -189 -99 -235q-66 -122 -168.5 -183t-277.5 -61q-112 0 -219 94q-16 15 -167 182q-135 150 -192 150q-125 0 -190 -74
q-35 -40 -100 -189q-57 -130 -115 -130q-54 0 -96 32q-47 35 -47 87q0 38 43 81q26 25 34 37z" />
    <glyph glyph-name="glyph245" unicode="&#x1eac;" horiz-adv-x="2585" 
d="M410 82q0 -98 -123 -98q-75 0 -94 10q-33 16 -33 80q0 74 49 184l983 2208q18 78 84 222q28 40 84 40q127 0 127 -102q0 -29 -16.5 -57.5t-16.5 -57.5q0 -199 459 -1176q106 -225 220 -457l174 -356q134 -280 134 -370q0 -168 -123 -168q-143 0 -143 82q0 30 12.5 80
t12.5 71q0 102 -127 377l-295 639l-955 -57l-295 -639q-68 -146 -98 -268q-20 -80 -20 -187zM1688 1401l-361 966l-422 -1024zM1331 3584l-467 -647q0 -131 -78 -131q-151 0 -151 115q0 33 26 66q18 20 51 61l537 737q9 17 42 50q16 11 40 11q72 0 113 -72q17 -30 22 -38
l422 -696q2 -7 31 -45q26 -33 26 -66q0 -123 -127 -123q-90 0 -90 139zM1484 -577q0 -258 -213 -258q-143 0 -143 225q0 94 59 171q63 83 154 83q143 0 143 -221z" />
    <glyph glyph-name="glyph246" unicode="&#x1ead;" 
d="M1585 471q-218 -222 -545 -379q-348 -166 -639 -166q-290 0 -290 226q0 334 412 656q441 343 1070 343v336q0 168 -151 168q-324 0 -614 -173q-136 -82 -230 -188q0 -102 -127 -102q-34 0 -76.5 39t-42.5 72q0 131 119 131q427 405 999 405q138 0 229 -100
q87 -96 87 -236v-1376q20 -25 20 -70q0 -82 -143 -82q-102 0 -102 74q0 20 32 70v352h-8zM1593 967q-447 -16 -685 -142q-74 -39 -261 -161q-108 -70 -224 -217q-125 -157 -128 -254q-3 -82 176 -82q178 0 478 150q251 125 434 269q210 165 210 277v160zM1147 2744
l-467 -647q0 -131 -78 -131q-151 0 -151 115q0 33 26 66q18 20 51 61l537 737q9 17 42 50q16 11 40 11q72 0 113 -72q17 -30 22 -38l422 -696q2 -7 31 -45q26 -33 26 -66q0 -123 -127 -123q-90 0 -90 139zM1204 -577q0 -258 -213 -258q-143 0 -143 225q0 94 59 171
q63 83 154 83q143 0 143 -221z" />
    <glyph glyph-name="glyph247" unicode="&#x1eae;" horiz-adv-x="2585" 
d="M410 82q0 -98 -123 -98q-75 0 -94 10q-33 16 -33 80q0 74 49 184l983 2208q18 78 84 222q28 40 84 40q127 0 127 -102q0 -29 -16.5 -57.5t-16.5 -57.5q0 -199 459 -1176q106 -225 220 -457l174 -356q134 -280 134 -370q0 -168 -123 -168q-143 0 -143 82q0 30 12.5 80
t12.5 71q0 102 -127 377l-295 639l-955 -57l-295 -639q-68 -146 -98 -268q-20 -80 -20 -187zM1688 1401l-361 966l-422 -1024zM831 3562q0 -216 228 -355q103 -63 215 -63q431 0 552 434q-16 33 -16 86q0 57 135 57q103 0 103 -65q0 -51 -29 -86q-108 -397 -436 -545
q-146 -66 -293 -66q-343 0 -557 312q-98 141 -98 299q0 127 94 127q102 0 102 -135zM1131 3975l483 573q0 81 19 108q24 35 100 35q135 0 135 -127q0 -70 -77 -102l-504 -602q-12 -127 -123 -127q-119 0 -119 119q0 97 86 123z" />
    <glyph glyph-name="glyph248" unicode="&#x1eaf;" 
d="M1585 471q-218 -222 -545 -379q-348 -166 -639 -166q-290 0 -290 226q0 334 412 656q441 343 1070 343v336q0 168 -151 168q-324 0 -614 -173q-136 -82 -230 -188q0 -102 -127 -102q-34 0 -76.5 39t-42.5 72q0 131 119 131q427 405 999 405q138 0 229 -100
q87 -96 87 -236v-1376q20 -25 20 -70q0 -82 -143 -82q-102 0 -102 74q0 20 32 70v352h-8zM1593 967q-447 -16 -685 -142q-74 -39 -261 -161q-108 -70 -224 -217q-125 -157 -128 -254q-3 -82 176 -82q178 0 478 150q251 125 434 269q210 165 210 277v160zM652 2700
q0 -216 228 -355q103 -63 215 -63q431 0 552 434q-16 33 -16 86q0 57 135 57q103 0 103 -65q0 -51 -29 -86q-108 -397 -436 -545q-146 -66 -293 -66q-343 0 -557 312q-98 141 -98 299q0 127 94 127q102 0 102 -135zM952 3113l483 573q0 81 19 108q24 35 100 35
q135 0 135 -127q0 -70 -77 -102l-504 -602q-12 -127 -123 -127q-119 0 -119 119q0 97 86 123z" />
    <glyph glyph-name="glyph249" unicode="&#x1eb0;" horiz-adv-x="2585" 
d="M410 82q0 -98 -123 -98q-75 0 -94 10q-33 16 -33 80q0 74 49 184l983 2208q18 78 84 222q28 40 84 40q127 0 127 -102q0 -29 -16.5 -57.5t-16.5 -57.5q0 -199 459 -1176q106 -225 220 -457l174 -356q134 -280 134 -370q0 -168 -123 -168q-143 0 -143 82q0 30 12.5 80
t12.5 71q0 102 -127 377l-295 639l-955 -57l-295 -639q-68 -146 -98 -268q-20 -80 -20 -187zM1688 1401l-361 966l-422 -1024zM831 3562q0 -216 228 -355q103 -63 215 -63q431 0 552 434q-16 33 -16 86q0 57 135 57q103 0 103 -65q0 -51 -29 -86q-108 -397 -436 -545
q-146 -66 -293 -66q-343 0 -557 312q-98 141 -98 299q0 127 94 127q102 0 102 -135zM1490 3981q107 -26 107 -123q0 -127 -140 -127q-104 0 -118 152l-430 569q-66 18 -66 102q0 135 135 135q98 0 98 -159z" />
    <glyph glyph-name="glyph250" unicode="&#x1eb1;" 
d="M1585 471q-218 -222 -545 -379q-348 -166 -639 -166q-290 0 -290 226q0 334 412 656q441 343 1070 343v336q0 168 -151 168q-324 0 -614 -173q-136 -82 -230 -188q0 -102 -127 -102q-34 0 -76.5 39t-42.5 72q0 131 119 131q427 405 999 405q138 0 229 -100
q87 -96 87 -236v-1376q20 -25 20 -70q0 -82 -143 -82q-102 0 -102 74q0 20 32 70v352h-8zM1593 967q-447 -16 -685 -142q-74 -39 -261 -161q-108 -70 -224 -217q-125 -157 -128 -254q-3 -82 176 -82q178 0 478 150q251 125 434 269q210 165 210 277v160zM652 2700
q0 -216 228 -355q103 -63 215 -63q431 0 552 434q-16 33 -16 86q0 57 135 57q103 0 103 -65q0 -51 -29 -86q-108 -397 -436 -545q-146 -66 -293 -66q-343 0 -557 312q-98 141 -98 299q0 127 94 127q102 0 102 -135zM1312 3118q107 -26 107 -123q0 -127 -140 -127
q-104 0 -118 152l-430 569q-66 18 -66 102q0 135 135 135q98 0 98 -159z" />
    <glyph glyph-name="glyph251" unicode="&#x1eb2;" horiz-adv-x="2585" 
d="M410 82q0 -98 -123 -98q-75 0 -94 10q-33 16 -33 80q0 74 49 184l983 2208q18 78 84 222q28 40 84 40q127 0 127 -102q0 -29 -16.5 -57.5t-16.5 -57.5q0 -199 459 -1176q106 -225 220 -457l174 -356q134 -280 134 -370q0 -168 -123 -168q-143 0 -143 82q0 30 12.5 80
t12.5 71q0 102 -127 377l-295 639l-955 -57l-295 -639q-68 -146 -98 -268q-20 -80 -20 -187zM1688 1401l-361 966l-422 -1024zM831 3562q0 -216 228 -355q103 -63 215 -63q431 0 552 434q-16 33 -16 86q0 57 135 57q103 0 103 -65q0 -51 -29 -86q-108 -397 -436 -545
q-146 -66 -293 -66q-343 0 -557 312q-98 141 -98 299q0 127 94 127q102 0 102 -135zM1427 3807q60 0 60 -56q0 -57 -84 -91q-64 -26 -131 -26q-58 0 -93 33.5t-44 94.5q-9 68 17 117q16 35 69 102q29 27 187 152q117 93 143 119q42 42 64 96q23 60 -13 103q-22 26 -59 39
q-42 16 -91 16q-72 0 -166 -68q-89 -63 -155 -143q0 -35 -24 -55q-20 -17 -45 -17q-39 0 -70 29q-39 36 -35 66q10 66 82 85q10 11 58 62q111 120 249 180q77 34 152 27q98 -9 176 -62q75 -50 98 -125q45 -143 -20 -235q-50 -71 -177 -180q-75 -61 -219 -189
q-24 -24 -32 -45q-17 -44 -17 -57q3 -51 68 -51q23 0 23 39.5t29 39.5z" />
    <glyph glyph-name="glyph252" unicode="&#x1eb3;" 
d="M1585 471q-218 -222 -545 -379q-348 -166 -639 -166q-290 0 -290 226q0 334 412 656q441 343 1070 343v336q0 168 -151 168q-324 0 -614 -173q-136 -82 -230 -188q0 -102 -127 -102q-34 0 -76.5 39t-42.5 72q0 131 119 131q427 405 999 405q138 0 229 -100
q87 -96 87 -236v-1376q20 -25 20 -70q0 -82 -143 -82q-102 0 -102 74q0 20 32 70v352h-8zM1593 967q-447 -16 -685 -142q-74 -39 -261 -161q-108 -70 -224 -217q-125 -157 -128 -254q-3 -82 176 -82q178 0 478 150q251 125 434 269q210 165 210 277v160zM652 2700
q0 -216 228 -355q103 -63 215 -63q431 0 552 434q-16 33 -16 86q0 57 135 57q103 0 103 -65q0 -51 -29 -86q-108 -397 -436 -545q-146 -66 -293 -66q-343 0 -557 312q-98 141 -98 299q0 127 94 127q102 0 102 -135zM1248 2945q60 0 60 -56q0 -57 -84 -91q-64 -26 -131 -26
q-58 0 -93 33.5t-44 94.5q-9 68 17 117q16 35 69 102q29 27 187 152q117 93 143 119q42 42 64 96q23 60 -13 103q-22 26 -59 39q-42 16 -91 16q-72 0 -166 -68q-89 -63 -155 -143q0 -35 -24 -55q-20 -17 -45 -17q-39 0 -70 29q-39 36 -35 66q10 66 82 85q10 11 58 62
q111 120 249 180q77 34 152 27q98 -9 176 -62q75 -50 98 -125q45 -143 -20 -235q-50 -71 -177 -180q-75 -61 -219 -189q-24 -24 -32 -45q-17 -44 -17 -57q3 -51 68 -51q23 0 23 39.5t29 39.5z" />
    <glyph glyph-name="glyph253" unicode="&#x1eb4;" horiz-adv-x="2585" 
d="M410 82q0 -98 -123 -98q-75 0 -94 10q-33 16 -33 80q0 74 49 184l983 2208q18 78 84 222q28 40 84 40q127 0 127 -102q0 -29 -16.5 -57.5t-16.5 -57.5q0 -199 459 -1176q106 -225 220 -457l174 -356q134 -280 134 -370q0 -168 -123 -168q-143 0 -143 82q0 30 12.5 80
t12.5 71q0 102 -127 377l-295 639l-955 -57l-295 -639q-68 -146 -98 -268q-20 -80 -20 -187zM1688 1401l-361 966l-422 -1024zM831 3562q0 -216 228 -355q103 -63 215 -63q431 0 552 434q-16 33 -16 86q0 57 135 57q103 0 103 -65q0 -51 -29 -86q-108 -397 -436 -545
q-146 -66 -293 -66q-343 0 -557 312q-98 141 -98 299q0 127 94 127q102 0 102 -135zM884 4198q104 157 129 185q77 90 181 129q80 30 194 30q133 0 324 -224q176 -206 262 -206q138 0 193 59q60 63 69 167q6 75 24 181q16 48 83 48q46 0 91 -28q52 -31 52 -74q0 -37 -8 -58
q-73 -189 -99 -235q-66 -122 -168.5 -183t-277.5 -61q-112 0 -219 94q-16 15 -167 182q-135 150 -192 150q-125 0 -190 -74q-35 -40 -100 -189q-57 -130 -115 -130q-54 0 -96 32q-47 35 -47 87q0 38 43 81q26 25 34 37z" />
    <glyph glyph-name="glyph254" unicode="&#x1eb5;" 
d="M1585 471q-218 -222 -545 -379q-348 -166 -639 -166q-290 0 -290 226q0 334 412 656q441 343 1070 343v336q0 168 -151 168q-324 0 -614 -173q-136 -82 -230 -188q0 -102 -127 -102q-34 0 -76.5 39t-42.5 72q0 131 119 131q427 405 999 405q138 0 229 -100
q87 -96 87 -236v-1376q20 -25 20 -70q0 -82 -143 -82q-102 0 -102 74q0 20 32 70v352h-8zM1593 967q-447 -16 -685 -142q-74 -39 -261 -161q-108 -70 -224 -217q-125 -157 -128 -254q-3 -82 176 -82q178 0 478 150q251 125 434 269q210 165 210 277v160zM652 2700
q0 -216 228 -355q103 -63 215 -63q431 0 552 434q-16 33 -16 86q0 57 135 57q103 0 103 -65q0 -51 -29 -86q-108 -397 -436 -545q-146 -66 -293 -66q-343 0 -557 312q-98 141 -98 299q0 127 94 127q102 0 102 -135zM705 3335q104 157 129 185q77 90 181 129q80 30 194 30
q133 0 324 -224q176 -206 262 -206q138 0 193 59q60 63 69 167q6 75 24 181q16 48 83 48q46 0 91 -28q52 -31 52 -74q0 -37 -8 -58q-73 -189 -99 -235q-66 -122 -168.5 -183t-277.5 -61q-112 0 -219 94q-16 15 -167 182q-135 150 -192 150q-125 0 -190 -74
q-35 -40 -100 -189q-57 -130 -115 -130q-54 0 -96 32q-47 35 -47 87q0 38 43 81q26 25 34 37z" />
    <glyph glyph-name="glyph255" unicode="&#x1eb6;" horiz-adv-x="2585" 
d="M410 82q0 -98 -123 -98q-75 0 -94 10q-33 16 -33 80q0 74 49 184l983 2208q18 78 84 222q28 40 84 40q127 0 127 -102q0 -29 -16.5 -57.5t-16.5 -57.5q0 -199 459 -1176q106 -225 220 -457l174 -356q134 -280 134 -370q0 -168 -123 -168q-143 0 -143 82q0 30 12.5 80
t12.5 71q0 102 -127 377l-295 639l-955 -57l-295 -639q-68 -146 -98 -268q-20 -80 -20 -187zM1688 1401l-361 966l-422 -1024zM831 3562q0 -216 228 -355q103 -63 215 -63q431 0 552 434q-16 33 -16 86q0 57 135 57q103 0 103 -65q0 -51 -29 -86q-108 -397 -436 -545
q-146 -66 -293 -66q-343 0 -557 312q-98 141 -98 299q0 127 94 127q102 0 102 -135zM1484 -577q0 -258 -213 -258q-143 0 -143 225q0 94 59 171q63 83 154 83q143 0 143 -221z" />
    <glyph glyph-name="glyph256" unicode="&#x1eb7;" 
d="M1585 471q-218 -222 -545 -379q-348 -166 -639 -166q-290 0 -290 226q0 334 412 656q441 343 1070 343v336q0 168 -151 168q-324 0 -614 -173q-136 -82 -230 -188q0 -102 -127 -102q-34 0 -76.5 39t-42.5 72q0 131 119 131q427 405 999 405q138 0 229 -100
q87 -96 87 -236v-1376q20 -25 20 -70q0 -82 -143 -82q-102 0 -102 74q0 20 32 70v352h-8zM1593 967q-447 -16 -685 -142q-74 -39 -261 -161q-108 -70 -224 -217q-125 -157 -128 -254q-3 -82 176 -82q178 0 478 150q251 125 434 269q210 165 210 277v160zM652 2700
q0 -216 228 -355q103 -63 215 -63q431 0 552 434q-16 33 -16 86q0 57 135 57q103 0 103 -65q0 -51 -29 -86q-108 -397 -436 -545q-146 -66 -293 -66q-343 0 -557 312q-98 141 -98 299q0 127 94 127q102 0 102 -135zM1204 -577q0 -258 -213 -258q-143 0 -143 225q0 94 59 171
q63 83 154 83q143 0 143 -221z" />
    <glyph glyph-name="glyph257" unicode="&#x1eb8;" horiz-adv-x="2298" 
d="M1921 82q-136 0 -584 -38l-408 -34q-207 -17 -376 -26q-38 -50 -123 -50q-116 0 -127 99q0 62 57 110v1024q-65 0 -65 90q0 107 65 136v872q-102 0 -102 86q0 96 61 127q-24 48 -24 66q0 90 135 90q139 0 139 -148l1184 82q58 58 119 58q151 0 151 -148q0 -143 -168 -143
q-67 0 -118 41l-1192 -78v-905l1032 127q56 41 127 41q127 0 127 -119q0 -139 -152 -139q-33 0 -69 24l-1065 -119v-1040l1360 111q65 32 102 32q39 0 70 -45q28 -42 28 -82q0 -94 -139 -110q-12 8 -45 8zM1371 -577q0 -258 -213 -258q-143 0 -143 225q0 94 59 171
q63 83 154 83q143 0 143 -221z" />
    <glyph glyph-name="glyph258" unicode="&#x1eb9;" horiz-adv-x="1815" 
d="M688 -66q-259 0 -397 158q-131 149 -131 412q0 504 331 916q317 395 635 395q384 0 513 -295q51 -118 49 -193q-2 -102 -321 -191q-203 -56 -941 -214q-82 -219 -82 -385q0 -219 74 -312q84 -106 295 -106q452 0 741 479q0 25 -4 41q5 98 111 98q104 0 118 -114
q-77 -196 -368 -439q-299 -250 -623 -250zM1470 1384q0 74 -87 158q-92 87 -224 88q-316 3 -647 -512q271 59 809 195q149 42 149 71zM926 -577q0 -258 -213 -258q-143 0 -143 225q0 94 59 171q63 83 154 83q143 0 143 -221z" />
    <glyph glyph-name="glyph259" unicode="&#x1eba;" horiz-adv-x="2298" 
d="M1921 82q-136 0 -584 -38l-408 -34q-207 -17 -376 -26q-38 -50 -123 -50q-116 0 -127 99q0 62 57 110v1024q-65 0 -65 90q0 107 65 136v872q-102 0 -102 86q0 96 61 127q-24 48 -24 66q0 90 135 90q139 0 139 -148l1184 82q58 58 119 58q151 0 151 -148q0 -143 -168 -143
q-67 0 -118 41l-1192 -78v-905l1032 127q56 41 127 41q127 0 127 -119q0 -139 -152 -139q-33 0 -69 24l-1065 -119v-1040l1360 111q65 32 102 32q39 0 70 -45q28 -42 28 -82q0 -94 -139 -110q-12 8 -45 8zM1279 3056q60 0 60 -56q0 -57 -84 -91q-64 -26 -131 -26
q-58 0 -93 33.5t-44 94.5q-9 68 17 117q16 35 69 102q29 27 187 152q117 93 143 119q42 42 64 96q23 60 -13 103q-22 26 -59 39q-42 16 -91 16q-72 0 -166 -68q-89 -63 -155 -143q0 -35 -24 -55q-20 -17 -45 -17q-39 0 -70 29q-39 36 -35 66q10 66 82 85q10 11 58 62
q111 120 249 180q77 34 152 27q98 -9 176 -62q75 -50 98 -125q45 -143 -20 -235q-50 -71 -177 -180q-75 -61 -219 -189q-24 -24 -32 -45q-17 -44 -17 -57q3 -51 68 -51q23 0 23 39.5t29 39.5z" />
    <glyph glyph-name="glyph260" unicode="&#x1ebb;" horiz-adv-x="1815" 
d="M688 -66q-259 0 -397 158q-131 149 -131 412q0 504 331 916q317 395 635 395q384 0 513 -295q51 -118 49 -193q-2 -102 -321 -191q-203 -56 -941 -214q-82 -219 -82 -385q0 -219 74 -312q84 -106 295 -106q452 0 741 479q0 25 -4 41q5 98 111 98q104 0 118 -114
q-77 -196 -368 -439q-299 -250 -623 -250zM1470 1384q0 74 -87 158q-92 87 -224 88q-316 3 -647 -512q271 59 809 195q149 42 149 71zM1228 2199q60 0 60 -56q0 -57 -84 -91q-64 -26 -131 -26q-58 0 -93 33.5t-44 94.5q-9 68 17 117q16 35 69 102q29 27 187 152
q117 93 143 119q42 42 64 96q23 60 -13 103q-22 26 -59 39q-42 16 -91 16q-72 0 -166 -68q-89 -63 -155 -143q0 -35 -24 -55q-20 -17 -45 -17q-39 0 -70 29q-39 36 -35 66q10 66 82 85q10 11 58 62q111 120 249 180q77 34 152 27q98 -9 176 -62q75 -50 98 -125
q45 -143 -20 -235q-50 -71 -177 -180q-75 -61 -219 -189q-24 -24 -32 -45q-17 -44 -17 -57q3 -51 68 -51q23 0 23 39.5t29 39.5z" />
    <glyph glyph-name="glyph261" unicode="&#x1ebc;" horiz-adv-x="2298" 
d="M1921 82q-136 0 -584 -38l-408 -34q-207 -17 -376 -26q-38 -50 -123 -50q-116 0 -127 99q0 62 57 110v1024q-65 0 -65 90q0 107 65 136v872q-102 0 -102 86q0 96 61 127q-24 48 -24 66q0 90 135 90q139 0 139 -148l1184 82q58 58 119 58q151 0 151 -148q0 -143 -168 -143
q-67 0 -118 41l-1192 -78v-905l1032 127q56 41 127 41q127 0 127 -119q0 -139 -152 -139q-33 0 -69 24l-1065 -119v-1040l1360 111q65 32 102 32q39 0 70 -45q28 -42 28 -82q0 -94 -139 -110q-12 8 -45 8zM395 3158q104 157 129 185q77 90 181 129q80 30 194 30
q133 0 324 -224q176 -206 262 -206q138 0 193 59q60 63 69 167q6 75 24 181q16 48 83 48q46 0 91 -28q52 -31 52 -74q0 -37 -8 -58q-73 -189 -99 -235q-66 -122 -168.5 -183t-277.5 -61q-112 0 -219 94q-16 15 -167 182q-135 150 -192 150q-125 0 -190 -74
q-35 -40 -100 -189q-57 -130 -115 -130q-54 0 -96 32q-47 35 -47 87q0 38 43 81q26 25 34 37z" />
    <glyph glyph-name="glyph262" unicode="&#x1ebd;" horiz-adv-x="1815" 
d="M688 -66q-259 0 -397 158q-131 149 -131 412q0 504 331 916q317 395 635 395q384 0 513 -295q51 -118 49 -193q-2 -102 -321 -191q-203 -56 -941 -214q-82 -219 -82 -385q0 -219 74 -312q84 -106 295 -106q452 0 741 479q0 25 -4 41q5 98 111 98q104 0 118 -114
q-77 -196 -368 -439q-299 -250 -623 -250zM1470 1384q0 74 -87 158q-92 87 -224 88q-316 3 -647 -512q271 59 809 195q149 42 149 71zM319 2318q104 157 129 185q77 90 181 129q80 30 194 30q133 0 324 -224q176 -206 262 -206q138 0 193 59q60 63 69 167q6 75 24 181
q16 48 83 48q46 0 91 -28q52 -31 52 -74q0 -37 -8 -58q-73 -189 -99 -235q-66 -122 -168.5 -183t-277.5 -61q-112 0 -219 94q-16 15 -167 182q-135 150 -192 150q-125 0 -190 -74q-35 -40 -100 -189q-57 -130 -115 -130q-54 0 -96 32q-47 35 -47 87q0 38 43 81q26 25 34 37z
" />
    <glyph glyph-name="glyph263" unicode="&#x1ebe;" horiz-adv-x="2298" 
d="M1921 82q-136 0 -584 -38l-408 -34q-207 -17 -376 -26q-38 -50 -123 -50q-116 0 -127 99q0 62 57 110v1024q-65 0 -65 90q0 107 65 136v872q-102 0 -102 86q0 96 61 127q-24 48 -24 66q0 90 135 90q139 0 139 -148l1184 82q58 58 119 58q151 0 151 -148q0 -143 -168 -143
q-67 0 -118 41l-1192 -78v-905l1032 127q56 41 127 41q127 0 127 -119q0 -139 -152 -139q-33 0 -69 24l-1065 -119v-1040l1360 111q65 32 102 32q39 0 70 -45q28 -42 28 -82q0 -94 -139 -110q-12 8 -45 8zM1192 3584l-467 -647q0 -131 -78 -131q-151 0 -151 115q0 33 26 66
q18 20 51 61l537 737q9 17 42 50q16 11 40 11q72 0 113 -72q17 -30 22 -38l422 -696q2 -7 31 -45q26 -33 26 -66q0 -123 -127 -123q-90 0 -90 139zM710 3953l483 573q0 81 19 108q24 35 100 35q135 0 135 -127q0 -70 -77 -102l-504 -602q-12 -127 -123 -127q-119 0 -119 119
q0 97 86 123z" />
    <glyph glyph-name="glyph264" unicode="&#x1ebf;" horiz-adv-x="1815" 
d="M688 -66q-259 0 -397 158q-131 149 -131 412q0 504 331 916q317 395 635 395q384 0 513 -295q51 -118 49 -193q-2 -102 -321 -191q-203 -56 -941 -214q-82 -219 -82 -385q0 -219 74 -312q84 -106 295 -106q452 0 741 479q0 25 -4 41q5 98 111 98q104 0 118 -114
q-77 -196 -368 -439q-299 -250 -623 -250zM1470 1384q0 74 -87 158q-92 87 -224 88q-316 3 -647 -512q271 59 809 195q149 42 149 71zM1106 2744l-467 -647q0 -131 -78 -131q-151 0 -151 115q0 33 26 66q18 20 51 61l537 737q9 17 42 50q16 11 40 11q72 0 113 -72
q17 -30 22 -38l422 -696q2 -7 31 -45q26 -33 26 -66q0 -123 -127 -123q-90 0 -90 139zM625 3113l483 573q0 81 19 108q24 35 100 35q135 0 135 -127q0 -70 -77 -102l-504 -602q-12 -127 -123 -127q-119 0 -119 119q0 97 86 123z" />
    <glyph glyph-name="glyph265" unicode="&#x1ec0;" horiz-adv-x="2298" 
d="M1921 82q-136 0 -584 -38l-408 -34q-207 -17 -376 -26q-38 -50 -123 -50q-116 0 -127 99q0 62 57 110v1024q-65 0 -65 90q0 107 65 136v872q-102 0 -102 86q0 96 61 127q-24 48 -24 66q0 90 135 90q139 0 139 -148l1184 82q58 58 119 58q151 0 151 -148q0 -143 -168 -143
q-67 0 -118 41l-1192 -78v-905l1032 127q56 41 127 41q127 0 127 -119q0 -139 -152 -139q-33 0 -69 24l-1065 -119v-1040l1360 111q65 32 102 32q39 0 70 -45q28 -42 28 -82q0 -94 -139 -110q-12 8 -45 8zM1192 3584l-467 -647q0 -131 -78 -131q-151 0 -151 115q0 33 26 66
q18 20 51 61l537 737q9 17 42 50q16 11 40 11q72 0 113 -72q17 -30 22 -38l422 -696q2 -7 31 -45q26 -33 26 -66q0 -123 -127 -123q-90 0 -90 139zM1679 3958q107 -26 107 -123q0 -127 -140 -127q-104 0 -118 152l-430 569q-66 18 -66 102q0 135 135 135q98 0 98 -159z" />
    <glyph glyph-name="glyph266" unicode="&#x1ec1;" horiz-adv-x="1815" 
d="M688 -66q-259 0 -397 158q-131 149 -131 412q0 504 331 916q317 395 635 395q384 0 513 -295q51 -118 49 -193q-2 -102 -321 -191q-203 -56 -941 -214q-82 -219 -82 -385q0 -219 74 -312q84 -106 295 -106q452 0 741 479q0 25 -4 41q5 98 111 98q104 0 118 -114
q-77 -196 -368 -439q-299 -250 -623 -250zM1470 1384q0 74 -87 158q-92 87 -224 88q-316 3 -647 -512q271 59 809 195q149 42 149 71zM1106 2744l-467 -647q0 -131 -78 -131q-151 0 -151 115q0 33 26 66q18 20 51 61l537 737q9 17 42 50q16 11 40 11q72 0 113 -72
q17 -30 22 -38l422 -696q2 -7 31 -45q26 -33 26 -66q0 -123 -127 -123q-90 0 -90 139zM1593 3118q107 -26 107 -123q0 -127 -140 -127q-104 0 -118 152l-430 569q-66 18 -66 102q0 135 135 135q98 0 98 -159z" />
    <glyph glyph-name="glyph267" unicode="&#x1ec2;" horiz-adv-x="2298" 
d="M1921 82q-136 0 -584 -38l-408 -34q-207 -17 -376 -26q-38 -50 -123 -50q-116 0 -127 99q0 62 57 110v1024q-65 0 -65 90q0 107 65 136v872q-102 0 -102 86q0 96 61 127q-24 48 -24 66q0 90 135 90q139 0 139 -148l1184 82q58 58 119 58q151 0 151 -148q0 -143 -168 -143
q-67 0 -118 41l-1192 -78v-905l1032 127q56 41 127 41q127 0 127 -119q0 -139 -152 -139q-33 0 -69 24l-1065 -119v-1040l1360 111q65 32 102 32q39 0 70 -45q28 -42 28 -82q0 -94 -139 -110q-12 8 -45 8zM1192 3584l-467 -647q0 -131 -78 -131q-151 0 -151 115q0 33 26 66
q18 20 51 61l537 737q9 17 42 50q16 11 40 11q72 0 113 -72q17 -30 22 -38l422 -696q2 -7 31 -45q26 -33 26 -66q0 -123 -127 -123q-90 0 -90 139zM1768 3785q60 0 60 -56q0 -57 -84 -91q-64 -26 -131 -26q-58 0 -93 33.5t-44 94.5q-9 68 17 117q16 35 69 102q29 27 187 152
q117 93 143 119q42 42 64 96q23 60 -13 103q-22 26 -59 39q-42 16 -91 16q-72 0 -166 -68q-89 -63 -155 -143q0 -35 -24 -55q-20 -17 -45 -17q-39 0 -70 29q-39 36 -35 66q10 66 82 85q10 11 58 62q111 120 249 180q77 34 152 27q98 -9 176 -62q75 -50 98 -125
q45 -143 -20 -235q-50 -71 -177 -180q-75 -61 -219 -189q-24 -24 -32 -45q-17 -44 -17 -57q3 -51 68 -51q23 0 23 39.5t29 39.5z" />
    <glyph glyph-name="glyph268" unicode="&#x1ec3;" horiz-adv-x="1815" 
d="M688 -66q-259 0 -397 158q-131 149 -131 412q0 504 331 916q317 395 635 395q384 0 513 -295q51 -118 49 -193q-2 -102 -321 -191q-203 -56 -941 -214q-82 -219 -82 -385q0 -219 74 -312q84 -106 295 -106q452 0 741 479q0 25 -4 41q5 98 111 98q104 0 118 -114
q-77 -196 -368 -439q-299 -250 -623 -250zM1470 1384q0 74 -87 158q-92 87 -224 88q-316 3 -647 -512q271 59 809 195q149 42 149 71zM1106 2744l-467 -647q0 -131 -78 -131q-151 0 -151 115q0 33 26 66q18 20 51 61l537 737q9 17 42 50q16 11 40 11q72 0 113 -72
q17 -30 22 -38l422 -696q2 -7 31 -45q26 -33 26 -66q0 -123 -127 -123q-90 0 -90 139zM1682 2945q60 0 60 -56q0 -57 -84 -91q-64 -26 -131 -26q-58 0 -93 33.5t-44 94.5q-9 68 17 117q16 35 69 102q29 27 187 152q117 93 143 119q42 42 64 96q23 60 -13 103q-22 26 -59 39
q-42 16 -91 16q-72 0 -166 -68q-89 -63 -155 -143q0 -35 -24 -55q-20 -17 -45 -17q-39 0 -70 29q-39 36 -35 66q10 66 82 85q10 11 58 62q111 120 249 180q77 34 152 27q98 -9 176 -62q75 -50 98 -125q45 -143 -20 -235q-50 -71 -177 -180q-75 -61 -219 -189
q-24 -24 -32 -45q-17 -44 -17 -57q3 -51 68 -51q23 0 23 39.5t29 39.5z" />
    <glyph glyph-name="glyph269" unicode="&#x1ec4;" horiz-adv-x="2298" 
d="M1921 82q-136 0 -584 -38l-408 -34q-207 -17 -376 -26q-38 -50 -123 -50q-116 0 -127 99q0 62 57 110v1024q-65 0 -65 90q0 107 65 136v872q-102 0 -102 86q0 96 61 127q-24 48 -24 66q0 90 135 90q139 0 139 -148l1184 82q58 58 119 58q151 0 151 -148q0 -143 -168 -143
q-67 0 -118 41l-1192 -78v-905l1032 127q56 41 127 41q127 0 127 -119q0 -139 -152 -139q-33 0 -69 24l-1065 -119v-1040l1360 111q65 32 102 32q39 0 70 -45q28 -42 28 -82q0 -94 -139 -110q-12 8 -45 8zM1192 3584l-467 -647q0 -131 -78 -131q-151 0 -151 115q0 33 26 66
q18 20 51 61l537 737q9 17 42 50q16 11 40 11q72 0 113 -72q17 -30 22 -38l422 -696q2 -7 31 -45q26 -33 26 -66q0 -123 -127 -123q-90 0 -90 139zM750 4175q104 157 129 185q77 90 181 129q80 30 194 30q133 0 324 -224q176 -206 262 -206q138 0 193 59q60 63 69 167
q6 75 24 181q16 48 83 48q46 0 91 -28q52 -31 52 -74q0 -37 -8 -58q-73 -189 -99 -235q-66 -122 -168.5 -183t-277.5 -61q-112 0 -219 94q-16 15 -167 182q-135 150 -192 150q-125 0 -190 -74q-35 -40 -100 -189q-57 -130 -115 -130q-54 0 -96 32q-47 35 -47 87q0 38 43 81
q26 25 34 37z" />
    <glyph glyph-name="glyph270" unicode="&#x1ec5;" horiz-adv-x="1815" 
d="M688 -66q-259 0 -397 158q-131 149 -131 412q0 504 331 916q317 395 635 395q384 0 513 -295q51 -118 49 -193q-2 -102 -321 -191q-203 -56 -941 -214q-82 -219 -82 -385q0 -219 74 -312q84 -106 295 -106q452 0 741 479q0 25 -4 41q5 98 111 98q104 0 118 -114
q-77 -196 -368 -439q-299 -250 -623 -250zM1470 1384q0 74 -87 158q-92 87 -224 88q-316 3 -647 -512q271 59 809 195q149 42 149 71zM1106 2744l-467 -647q0 -131 -78 -131q-151 0 -151 115q0 33 26 66q18 20 51 61l537 737q9 17 42 50q16 11 40 11q72 0 113 -72
q17 -30 22 -38l422 -696q2 -7 31 -45q26 -33 26 -66q0 -123 -127 -123q-90 0 -90 139zM664 3335q104 157 129 185q77 90 181 129q80 30 194 30q133 0 324 -224q176 -206 262 -206q138 0 193 59q60 63 69 167q6 75 24 181q16 48 83 48q46 0 91 -28q52 -31 52 -74
q0 -37 -8 -58q-73 -189 -99 -235q-66 -122 -168.5 -183t-277.5 -61q-112 0 -219 94q-16 15 -167 182q-135 150 -192 150q-125 0 -190 -74q-35 -40 -100 -189q-57 -130 -115 -130q-54 0 -96 32q-47 35 -47 87q0 38 43 81q26 25 34 37z" />
    <glyph glyph-name="glyph271" unicode="&#x1ec6;" horiz-adv-x="2298" 
d="M1921 82q-136 0 -584 -38l-408 -34q-207 -17 -376 -26q-38 -50 -123 -50q-116 0 -127 99q0 62 57 110v1024q-65 0 -65 90q0 107 65 136v872q-102 0 -102 86q0 96 61 127q-24 48 -24 66q0 90 135 90q139 0 139 -148l1184 82q58 58 119 58q151 0 151 -148q0 -143 -168 -143
q-67 0 -118 41l-1192 -78v-905l1032 127q56 41 127 41q127 0 127 -119q0 -139 -152 -139q-33 0 -69 24l-1065 -119v-1040l1360 111q65 32 102 32q39 0 70 -45q28 -42 28 -82q0 -94 -139 -110q-12 8 -45 8zM1192 3584l-467 -647q0 -131 -78 -131q-151 0 -151 115q0 33 26 66
q18 20 51 61l537 737q9 17 42 50q16 11 40 11q72 0 113 -72q17 -30 22 -38l422 -696q2 -7 31 -45q26 -33 26 -66q0 -123 -127 -123q-90 0 -90 139zM1371 -577q0 -258 -213 -258q-143 0 -143 225q0 94 59 171q63 83 154 83q143 0 143 -221z" />
    <glyph glyph-name="glyph272" unicode="&#x1ec7;" horiz-adv-x="1815" 
d="M688 -66q-259 0 -397 158q-131 149 -131 412q0 504 331 916q317 395 635 395q384 0 513 -295q51 -118 49 -193q-2 -102 -321 -191q-203 -56 -941 -214q-82 -219 -82 -385q0 -219 74 -312q84 -106 295 -106q452 0 741 479q0 25 -4 41q5 98 111 98q104 0 118 -114
q-77 -196 -368 -439q-299 -250 -623 -250zM1470 1384q0 74 -87 158q-92 87 -224 88q-316 3 -647 -512q271 59 809 195q149 42 149 71zM1106 2744l-467 -647q0 -131 -78 -131q-151 0 -151 115q0 33 26 66q18 20 51 61l537 737q9 17 42 50q16 11 40 11q72 0 113 -72
q17 -30 22 -38l422 -696q2 -7 31 -45q26 -33 26 -66q0 -123 -127 -123q-90 0 -90 139zM926 -577q0 -258 -213 -258q-143 0 -143 225q0 94 59 171q63 83 154 83q143 0 143 -221z" />
    <glyph glyph-name="glyph273" unicode="&#x1ec8;" horiz-adv-x="905" 
d="M545 152q49 -37 49 -95q0 -82 -156 -82q-135 0 -135 111q0 44 57 74v2306q-41 36 -41 69q0 107 185 107q102 0 102 -90q0 -45 -61 -111v-2289zM567 3056q60 0 60 -56q0 -57 -84 -91q-64 -26 -131 -26q-58 0 -93 33.5t-44 94.5q-9 68 17 117q16 35 69 102q29 27 187 152
q117 93 143 119q42 42 64 96q23 60 -13 103q-22 26 -59 39q-42 16 -91 16q-72 0 -166 -68q-89 -63 -155 -143q0 -35 -24 -55q-20 -17 -45 -17q-39 0 -70 29q-39 36 -35 66q10 66 82 85q10 11 58 62q111 120 249 180q77 34 152 27q98 -9 176 -62q75 -50 98 -125
q45 -143 -20 -235q-50 -71 -177 -180q-75 -61 -219 -189q-24 -24 -32 -45q-17 -44 -17 -57q3 -51 68 -51q23 0 23 39.5t29 39.5z" />
    <glyph glyph-name="glyph274" unicode="&#x1ec9;" horiz-adv-x="815" 
d="M504 176q41 -56 41 -82q0 -53 -55 -88q-48 -31 -105 -31q-115 0 -115 127q0 29 41 82v1401q-24 25 -24 53q0 160 143 160q40 0 75 -44q32 -42 32 -83q0 -24 -33 -86v-1409zM488 2199q60 0 60 -56q0 -57 -84 -91q-64 -26 -131 -26q-58 0 -93 33.5t-44 94.5q-9 68 17 117
q16 35 69 102q29 27 187 152q117 93 143 119q42 42 64 96q23 60 -13 103q-22 26 -59 39q-42 16 -91 16q-72 0 -166 -68q-89 -63 -155 -143q0 -35 -24 -55q-20 -17 -45 -17q-39 0 -70 29q-39 36 -35 66q10 66 82 85q10 11 58 62q111 120 249 180q77 34 152 27q98 -9 176 -62
q75 -50 98 -125q45 -143 -20 -235q-50 -71 -177 -180q-75 -61 -219 -189q-24 -24 -32 -45q-17 -44 -17 -57q3 -51 68 -51q23 0 23 39.5t29 39.5z" />
    <glyph glyph-name="glyph275" unicode="&#x1eca;" horiz-adv-x="905" 
d="M545 152q49 -37 49 -95q0 -82 -156 -82q-135 0 -135 111q0 44 57 74v2306q-41 36 -41 69q0 107 185 107q102 0 102 -90q0 -45 -61 -111v-2289zM642 -577q0 -258 -213 -258q-143 0 -143 225q0 94 59 171q63 83 154 83q143 0 143 -221z" />
    <glyph glyph-name="glyph276" unicode="&#x1ecb;" horiz-adv-x="815" 
d="M504 176q41 -56 41 -82q0 -53 -55 -88q-48 -31 -105 -31q-115 0 -115 127q0 29 41 82v1401q-24 25 -24 53q0 160 143 160q40 0 75 -44q32 -42 32 -83q0 -24 -33 -86v-1409zM410 2064q-123 0 -123 119q0 336 168 336q123 0 123 -135q0 -320 -168 -320zM595 -577
q0 -258 -213 -258q-143 0 -143 225q0 94 59 171q63 83 154 83q143 0 143 -221z" />
    <glyph glyph-name="glyph277" unicode="&#x1ecc;" horiz-adv-x="2441" 
d="M2089 1487q2 246 -45 460q-92 412 -341 564q-123 74 -278 74q-346 0 -694 -473q-164 -223 -265 -507q-105 -292 -106 -589q-2 -485 202 -695t470 -210q318 0 572 229q221 198 351 522q131 328 134 625zM168 1040q-3 592 388 1156q397 573 878 573q520 0 734 -586
q105 -290 105 -696q0 -384 -156 -735q-162 -366 -452 -594q-295 -232 -682 -232q-401 0 -613 331q-199 310 -202 783zM1136 -577q0 -258 -213 -258q-143 0 -143 225q0 94 59 171q63 83 154 83q143 0 143 -221z" />
    <glyph glyph-name="glyph278" unicode="&#x1ecd;" horiz-adv-x="1954" 
d="M1602 1073q0 280 -110 431q-113 153 -308 151q-196 -2 -393 -140q-212 -149 -329 -401q-110 -237 -110 -508q0 -495 385 -495q234 0 442 148q190 137 306.5 359t116.5 455zM688 -74q-264 0 -435 272q-93 147 -93 380q0 505 288 871q300 382 760 382q334 0 496 -310
q90 -172 90 -456q0 -451 -329 -793q-332 -346 -777 -346zM994 -577q0 -258 -213 -258q-143 0 -143 225q0 94 59 171q63 83 154 83q143 0 143 -221z" />
    <glyph glyph-name="glyph279" unicode="&#x1ece;" horiz-adv-x="2441" 
d="M2089 1487q2 246 -45 460q-92 412 -341 564q-123 74 -278 74q-346 0 -694 -473q-164 -223 -265 -507q-105 -292 -106 -589q-2 -485 202 -695t470 -210q318 0 572 229q221 198 351 522q131 328 134 625zM168 1040q-3 592 388 1156q397 573 878 573q520 0 734 -586
q105 -290 105 -696q0 -384 -156 -735q-162 -366 -452 -594q-295 -232 -682 -232q-401 0 -613 331q-199 310 -202 783zM1539 3056q60 0 60 -56q0 -57 -84 -91q-64 -26 -131 -26q-58 0 -93 33.5t-44 94.5q-9 68 17 117q16 35 69 102q29 27 187 152q117 93 143 119q42 42 64 96
q23 60 -13 103q-22 26 -59 39q-42 16 -91 16q-72 0 -166 -68q-89 -63 -155 -143q0 -35 -24 -55q-20 -17 -45 -17q-39 0 -70 29q-39 36 -35 66q10 66 82 85q10 11 58 62q111 120 249 180q77 34 152 27q98 -9 176 -62q75 -50 98 -125q45 -143 -20 -235q-50 -71 -177 -180
q-75 -61 -219 -189q-24 -24 -32 -45q-17 -44 -17 -57q3 -51 68 -51q23 0 23 39.5t29 39.5z" />
    <glyph glyph-name="glyph280" unicode="&#x1ecf;" horiz-adv-x="1954" 
d="M1602 1073q0 280 -110 431q-113 153 -308 151q-196 -2 -393 -140q-212 -149 -329 -401q-110 -237 -110 -508q0 -495 385 -495q234 0 442 148q190 137 306.5 359t116.5 455zM688 -74q-264 0 -435 272q-93 147 -93 380q0 505 288 871q300 382 760 382q334 0 496 -310
q90 -172 90 -456q0 -451 -329 -793q-332 -346 -777 -346zM1296 2199q60 0 60 -56q0 -57 -84 -91q-64 -26 -131 -26q-58 0 -93 33.5t-44 94.5q-9 68 17 117q16 35 69 102q29 27 187 152q117 93 143 119q42 42 64 96q23 60 -13 103q-22 26 -59 39q-42 16 -91 16
q-72 0 -166 -68q-89 -63 -155 -143q0 -35 -24 -55q-20 -17 -45 -17q-39 0 -70 29q-39 36 -35 66q10 66 82 85q10 11 58 62q111 120 249 180q77 34 152 27q98 -9 176 -62q75 -50 98 -125q45 -143 -20 -235q-50 -71 -177 -180q-75 -61 -219 -189q-24 -24 -32 -45
q-17 -44 -17 -57q3 -51 68 -51q23 0 23 39.5t29 39.5z" />
    <glyph glyph-name="glyph281" unicode="&#x1ed0;" horiz-adv-x="2441" 
d="M2089 1487q2 246 -45 460q-92 412 -341 564q-123 74 -278 74q-346 0 -694 -473q-164 -223 -265 -507q-105 -292 -106 -589q-2 -485 202 -695t470 -210q318 0 572 229q221 198 351 522q131 328 134 625zM168 1040q-3 592 388 1156q397 573 878 573q520 0 734 -586
q105 -290 105 -696q0 -384 -156 -735q-162 -366 -452 -594q-295 -232 -682 -232q-401 0 -613 331q-199 310 -202 783zM1507 3584l-467 -647q0 -131 -78 -131q-151 0 -151 115q0 33 26 66q18 20 51 61l537 737q9 17 42 50q16 11 40 11q72 0 113 -72q17 -30 22 -38l422 -696
q2 -7 31 -45q26 -33 26 -66q0 -123 -127 -123q-90 0 -90 139zM1026 3953l483 573q0 81 19 108q24 35 100 35q135 0 135 -127q0 -70 -77 -102l-504 -602q-12 -127 -123 -127q-119 0 -119 119q0 97 86 123z" />
    <glyph glyph-name="glyph282" unicode="&#x1ed1;" horiz-adv-x="1954" 
d="M1602 1073q0 280 -110 431q-113 153 -308 151q-196 -2 -393 -140q-212 -149 -329 -401q-110 -237 -110 -508q0 -495 385 -495q234 0 442 148q190 137 306.5 359t116.5 455zM688 -74q-264 0 -435 272q-93 147 -93 380q0 505 288 871q300 382 760 382q334 0 496 -310
q90 -172 90 -456q0 -451 -329 -793q-332 -346 -777 -346zM1122 2744l-467 -647q0 -131 -78 -131q-151 0 -151 115q0 33 26 66q18 20 51 61l537 737q9 17 42 50q16 11 40 11q72 0 113 -72q17 -30 22 -38l422 -696q2 -7 31 -45q26 -33 26 -66q0 -123 -127 -123q-90 0 -90 139z
M641 3113l483 573q0 81 19 108q24 35 100 35q135 0 135 -127q0 -70 -77 -102l-504 -602q-12 -127 -123 -127q-119 0 -119 119q0 97 86 123z" />
    <glyph glyph-name="glyph283" unicode="&#x1ed2;" horiz-adv-x="2441" 
d="M2089 1487q2 246 -45 460q-92 412 -341 564q-123 74 -278 74q-346 0 -694 -473q-164 -223 -265 -507q-105 -292 -106 -589q-2 -485 202 -695t470 -210q318 0 572 229q221 198 351 522q131 328 134 625zM168 1040q-3 592 388 1156q397 573 878 573q520 0 734 -586
q105 -290 105 -696q0 -384 -156 -735q-162 -366 -452 -594q-295 -232 -682 -232q-401 0 -613 331q-199 310 -202 783zM1507 3584l-467 -647q0 -131 -78 -131q-151 0 -151 115q0 33 26 66q18 20 51 61l537 737q9 17 42 50q16 11 40 11q72 0 113 -72q17 -30 22 -38l422 -696
q2 -7 31 -45q26 -33 26 -66q0 -123 -127 -123q-90 0 -90 139zM1994 3958q107 -26 107 -123q0 -127 -140 -127q-104 0 -118 152l-430 569q-66 18 -66 102q0 135 135 135q98 0 98 -159z" />
    <glyph glyph-name="glyph284" unicode="&#x1ed3;" horiz-adv-x="1954" 
d="M1602 1073q0 280 -110 431q-113 153 -308 151q-196 -2 -393 -140q-212 -149 -329 -401q-110 -237 -110 -508q0 -495 385 -495q234 0 442 148q190 137 306.5 359t116.5 455zM688 -74q-264 0 -435 272q-93 147 -93 380q0 505 288 871q300 382 760 382q334 0 496 -310
q90 -172 90 -456q0 -451 -329 -793q-332 -346 -777 -346zM1122 2744l-467 -647q0 -131 -78 -131q-151 0 -151 115q0 33 26 66q18 20 51 61l537 737q9 17 42 50q16 11 40 11q72 0 113 -72q17 -30 22 -38l422 -696q2 -7 31 -45q26 -33 26 -66q0 -123 -127 -123q-90 0 -90 139z
M1609 3118q107 -26 107 -123q0 -127 -140 -127q-104 0 -118 152l-430 569q-66 18 -66 102q0 135 135 135q98 0 98 -159z" />
    <glyph glyph-name="glyph285" unicode="&#x1ed4;" horiz-adv-x="2441" 
d="M2089 1487q2 246 -45 460q-92 412 -341 564q-123 74 -278 74q-346 0 -694 -473q-164 -223 -265 -507q-105 -292 -106 -589q-2 -485 202 -695t470 -210q318 0 572 229q221 198 351 522q131 328 134 625zM168 1040q-3 592 388 1156q397 573 878 573q520 0 734 -586
q105 -290 105 -696q0 -384 -156 -735q-162 -366 -452 -594q-295 -232 -682 -232q-401 0 -613 331q-199 310 -202 783zM1507 3584l-467 -647q0 -131 -78 -131q-151 0 -151 115q0 33 26 66q18 20 51 61l537 737q9 17 42 50q16 11 40 11q72 0 113 -72q17 -30 22 -38l422 -696
q2 -7 31 -45q26 -33 26 -66q0 -123 -127 -123q-90 0 -90 139zM2084 3786q60 0 60 -56q0 -57 -84 -91q-64 -26 -131 -26q-58 0 -93 33.5t-44 94.5q-9 68 17 117q16 35 69 102q29 27 187 152q117 93 143 119q42 42 64 96q23 60 -13 103q-22 26 -59 39q-42 16 -91 16
q-72 0 -166 -68q-89 -63 -155 -143q0 -35 -24 -55q-20 -17 -45 -17q-39 0 -70 29q-39 36 -35 66q10 66 82 85q10 11 58 62q111 120 249 180q77 34 152 27q98 -9 176 -62q75 -50 98 -125q45 -143 -20 -235q-50 -71 -177 -180q-75 -61 -219 -189q-24 -24 -32 -45
q-17 -44 -17 -57q3 -51 68 -51q23 0 23 39.5t29 39.5z" />
    <glyph glyph-name="glyph286" unicode="&#x1ed5;" horiz-adv-x="1954" 
d="M1602 1073q0 280 -110 431q-113 153 -308 151q-196 -2 -393 -140q-212 -149 -329 -401q-110 -237 -110 -508q0 -495 385 -495q234 0 442 148q190 137 306.5 359t116.5 455zM688 -74q-264 0 -435 272q-93 147 -93 380q0 505 288 871q300 382 760 382q334 0 496 -310
q90 -172 90 -456q0 -451 -329 -793q-332 -346 -777 -346zM1122 2744l-467 -647q0 -131 -78 -131q-151 0 -151 115q0 33 26 66q18 20 51 61l537 737q9 17 42 50q16 11 40 11q72 0 113 -72q17 -30 22 -38l422 -696q2 -7 31 -45q26 -33 26 -66q0 -123 -127 -123q-90 0 -90 139z
M1698 2945q60 0 60 -56q0 -57 -84 -91q-64 -26 -131 -26q-58 0 -93 33.5t-44 94.5q-9 68 17 117q16 35 69 102q29 27 187 152q117 93 143 119q42 42 64 96q23 60 -13 103q-22 26 -59 39q-42 16 -91 16q-72 0 -166 -68q-89 -63 -155 -143q0 -35 -24 -55q-20 -17 -45 -17
q-39 0 -70 29q-39 36 -35 66q10 66 82 85q10 11 58 62q111 120 249 180q77 34 152 27q98 -9 176 -62q75 -50 98 -125q45 -143 -20 -235q-50 -71 -177 -180q-75 -61 -219 -189q-24 -24 -32 -45q-17 -44 -17 -57q3 -51 68 -51q23 0 23 39.5t29 39.5z" />
    <glyph glyph-name="glyph287" unicode="&#x1ed6;" horiz-adv-x="2441" 
d="M2089 1487q2 246 -45 460q-92 412 -341 564q-123 74 -278 74q-346 0 -694 -473q-164 -223 -265 -507q-105 -292 -106 -589q-2 -485 202 -695t470 -210q318 0 572 229q221 198 351 522q131 328 134 625zM168 1040q-3 592 388 1156q397 573 878 573q520 0 734 -586
q105 -290 105 -696q0 -384 -156 -735q-162 -366 -452 -594q-295 -232 -682 -232q-401 0 -613 331q-199 310 -202 783zM1507 3584l-467 -647q0 -131 -78 -131q-151 0 -151 115q0 33 26 66q18 20 51 61l537 737q9 17 42 50q16 11 40 11q72 0 113 -72q17 -30 22 -38l422 -696
q2 -7 31 -45q26 -33 26 -66q0 -123 -127 -123q-90 0 -90 139zM1065 4175q104 157 129 185q77 90 181 129q80 30 194 30q133 0 324 -224q176 -206 262 -206q138 0 193 59q60 63 69 167q6 75 24 181q16 48 83 48q46 0 91 -28q52 -31 52 -74q0 -37 -8 -58q-73 -189 -99 -235
q-66 -122 -168.5 -183t-277.5 -61q-112 0 -219 94q-16 15 -167 182q-135 150 -192 150q-125 0 -190 -74q-35 -40 -100 -189q-57 -130 -115 -130q-54 0 -96 32q-47 35 -47 87q0 38 43 81q26 25 34 37z" />
    <glyph glyph-name="glyph288" unicode="&#x1ed7;" horiz-adv-x="1954" 
d="M1602 1073q0 280 -110 431q-113 153 -308 151q-196 -2 -393 -140q-212 -149 -329 -401q-110 -237 -110 -508q0 -495 385 -495q234 0 442 148q190 137 306.5 359t116.5 455zM688 -74q-264 0 -435 272q-93 147 -93 380q0 505 288 871q300 382 760 382q334 0 496 -310
q90 -172 90 -456q0 -451 -329 -793q-332 -346 -777 -346zM1122 2744l-467 -647q0 -131 -78 -131q-151 0 -151 115q0 33 26 66q18 20 51 61l537 737q9 17 42 50q16 11 40 11q72 0 113 -72q17 -30 22 -38l422 -696q2 -7 31 -45q26 -33 26 -66q0 -123 -127 -123q-90 0 -90 139z
M680 3335q104 157 129 185q77 90 181 129q80 30 194 30q133 0 324 -224q176 -206 262 -206q138 0 193 59q60 63 69 167q6 75 24 181q16 48 83 48q46 0 91 -28q52 -31 52 -74q0 -37 -8 -58q-73 -189 -99 -235q-66 -122 -168.5 -183t-277.5 -61q-112 0 -219 94
q-16 15 -167 182q-135 150 -192 150q-125 0 -190 -74q-35 -40 -100 -189q-57 -130 -115 -130q-54 0 -96 32q-47 35 -47 87q0 38 43 81q26 25 34 37z" />
    <glyph glyph-name="glyph289" unicode="&#x1ed8;" horiz-adv-x="2441" 
d="M2089 1487q2 246 -45 460q-92 412 -341 564q-123 74 -278 74q-346 0 -694 -473q-164 -223 -265 -507q-105 -292 -106 -589q-2 -485 202 -695t470 -210q318 0 572 229q221 198 351 522q131 328 134 625zM168 1040q-3 592 388 1156q397 573 878 573q520 0 734 -586
q105 -290 105 -696q0 -384 -156 -735q-162 -366 -452 -594q-295 -232 -682 -232q-401 0 -613 331q-199 310 -202 783zM1507 3584l-467 -647q0 -131 -78 -131q-151 0 -151 115q0 33 26 66q18 20 51 61l537 737q9 17 42 50q16 11 40 11q72 0 113 -72q17 -30 22 -38l422 -696
q2 -7 31 -45q26 -33 26 -66q0 -123 -127 -123q-90 0 -90 139zM1136 -577q0 -258 -213 -258q-143 0 -143 225q0 94 59 171q63 83 154 83q143 0 143 -221z" />
    <glyph glyph-name="glyph290" unicode="&#x1ed9;" horiz-adv-x="1954" 
d="M1602 1073q0 280 -110 431q-113 153 -308 151q-196 -2 -393 -140q-212 -149 -329 -401q-110 -237 -110 -508q0 -495 385 -495q234 0 442 148q190 137 306.5 359t116.5 455zM688 -74q-264 0 -435 272q-93 147 -93 380q0 505 288 871q300 382 760 382q334 0 496 -310
q90 -172 90 -456q0 -451 -329 -793q-332 -346 -777 -346zM1122 2744l-467 -647q0 -131 -78 -131q-151 0 -151 115q0 33 26 66q18 20 51 61l537 737q9 17 42 50q16 11 40 11q72 0 113 -72q17 -30 22 -38l422 -696q2 -7 31 -45q26 -33 26 -66q0 -123 -127 -123q-90 0 -90 139z
M994 -577q0 -258 -213 -258q-143 0 -143 225q0 94 59 171q63 83 154 83q143 0 143 -221z" />
    <glyph glyph-name="glyph291" unicode="&#x1eda;" horiz-adv-x="2441" 
d="M2089 1487q2 246 -45 460q-92 412 -341 564q-123 74 -278 74q-346 0 -694 -473q-164 -223 -265 -507q-105 -292 -106 -589q-2 -485 202 -695t470 -210q318 0 572 229q221 198 351 522q131 328 134 625zM2377 2480q-33 -65 -123 -65q-71 0 -128 60t-57 132q0 104 77 177
t181 73q98 0 169 -95q65 -88 65 -188q0 -297 -208 -495q-67 -64 -132 -80q52 -228 52 -512q0 -384 -156 -735q-162 -366 -452 -594q-295 -232 -682 -232q-401 0 -613 331q-199 310 -202 783q-3 592 388 1156q397 573 878 573q555 0 756 -654q43 12 56 21q139 121 139 344h-8
zM1118 3130l483 573q0 81 19 108q24 35 100 35q135 0 135 -127q0 -70 -77 -102l-504 -602q-12 -127 -123 -127q-119 0 -119 119q0 97 86 123z" />
    <glyph glyph-name="glyph292" unicode="&#x1edb;" horiz-adv-x="1954" 
d="M1602 1073q0 280 -110 431q-113 153 -308 151q-196 -2 -393 -140q-212 -149 -329 -401q-110 -237 -110 -508q0 -495 385 -495q234 0 442 148q190 137 306.5 359t116.5 455zM2007 1570q-33 -65 -123 -65q-71 0 -128 60t-57 132q0 104 77 177t181 73q98 0 169 -95
q65 -88 65 -188q0 -297 -208 -495q-93 -88 -177 -86h-12v-18q2 -448 -329.5 -793.5t-776.5 -345.5q-264 0 -435 272q-93 147 -93 380q0 505 288 871q300 382 760 382q334 0 496 -310q68 -130 85 -325q13 4 30 9q44 12 57 21q139 121 139 344h-8zM868 2290l483 573
q0 81 19 108q24 35 100 35q135 0 135 -127q0 -70 -77 -102l-504 -602q-12 -127 -123 -127q-119 0 -119 119q0 97 86 123z" />
    <glyph glyph-name="glyph293" unicode="&#x1edc;" horiz-adv-x="2441" 
d="M2089 1487q2 246 -45 460q-92 412 -341 564q-123 74 -278 74q-346 0 -694 -473q-164 -223 -265 -507q-105 -292 -106 -589q-2 -485 202 -695t470 -210q318 0 572 229q221 198 351 522q131 328 134 625zM2377 2480q-33 -65 -123 -65q-71 0 -128 60t-57 132q0 104 77 177
t181 73q98 0 169 -95q65 -88 65 -188q0 -297 -208 -495q-67 -64 -132 -80q52 -228 52 -512q0 -384 -156 -735q-162 -366 -452 -594q-295 -232 -682 -232q-401 0 -613 331q-199 310 -202 783q-3 592 388 1156q397 573 878 573q555 0 756 -654q43 12 56 21q139 121 139 344h-8
zM1597 3138q107 -26 107 -123q0 -127 -140 -127q-104 0 -118 152l-430 569q-66 18 -66 102q0 135 135 135q98 0 98 -159z" />
    <glyph glyph-name="glyph294" unicode="&#x1edd;" horiz-adv-x="1954" 
d="M1602 1073q0 280 -110 431q-113 153 -308 151q-196 -2 -393 -140q-212 -149 -329 -401q-110 -237 -110 -508q0 -495 385 -495q234 0 442 148q190 137 306.5 359t116.5 455zM2007 1570q-33 -65 -123 -65q-71 0 -128 60t-57 132q0 104 77 177t181 73q98 0 169 -95
q65 -88 65 -188q0 -297 -208 -495q-93 -88 -177 -86h-12v-18q2 -448 -329.5 -793.5t-776.5 -345.5q-264 0 -435 272q-93 147 -93 380q0 505 288 871q300 382 760 382q334 0 496 -310q68 -130 85 -325q13 4 30 9q44 12 57 21q139 121 139 344h-8zM1270 2298q107 -26 107 -123
q0 -127 -140 -127q-104 0 -118 152l-430 569q-66 18 -66 102q0 135 135 135q98 0 98 -159z" />
    <glyph glyph-name="glyph295" unicode="&#x1ede;" horiz-adv-x="2441" 
d="M2089 1487q2 246 -45 460q-92 412 -341 564q-123 74 -278 74q-346 0 -694 -473q-164 -223 -265 -507q-105 -292 -106 -589q-2 -485 202 -695t470 -210q318 0 572 229q221 198 351 522q131 328 134 625zM2377 2480q-33 -65 -123 -65q-71 0 -128 60t-57 132q0 104 77 177
t181 73q98 0 169 -95q65 -88 65 -188q0 -297 -208 -495q-67 -64 -132 -80q52 -228 52 -512q0 -384 -156 -735q-162 -366 -452 -594q-295 -232 -682 -232q-401 0 -613 331q-199 310 -202 783q-3 592 388 1156q397 573 878 573q555 0 756 -654q43 12 56 21q139 121 139 344h-8
zM1539 3056q60 0 60 -56q0 -57 -84 -91q-64 -26 -131 -26q-58 0 -93 33.5t-44 94.5q-9 68 17 117q16 35 69 102q29 27 187 152q117 93 143 119q42 42 64 96q23 60 -13 103q-22 26 -59 39q-42 16 -91 16q-72 0 -166 -68q-89 -63 -155 -143q0 -35 -24 -55q-20 -17 -45 -17
q-39 0 -70 29q-39 36 -35 66q10 66 82 85q10 11 58 62q111 120 249 180q77 34 152 27q98 -9 176 -62q75 -50 98 -125q45 -143 -20 -235q-50 -71 -177 -180q-75 -61 -219 -189q-24 -24 -32 -45q-17 -44 -17 -57q3 -51 68 -51q23 0 23 39.5t29 39.5z" />
    <glyph glyph-name="glyph296" unicode="&#x1edf;" horiz-adv-x="1954" 
d="M1602 1073q0 280 -110 431q-113 153 -308 151q-196 -2 -393 -140q-212 -149 -329 -401q-110 -237 -110 -508q0 -495 385 -495q234 0 442 148q190 137 306.5 359t116.5 455zM2007 1570q-33 -65 -123 -65q-71 0 -128 60t-57 132q0 104 77 177t181 73q98 0 169 -95
q65 -88 65 -188q0 -297 -208 -495q-93 -88 -177 -86h-12v-18q2 -448 -329.5 -793.5t-776.5 -345.5q-264 0 -435 272q-93 147 -93 380q0 505 288 871q300 382 760 382q334 0 496 -310q68 -130 85 -325q13 4 30 9q44 12 57 21q139 121 139 344h-8zM1296 2199q60 0 60 -56
q0 -57 -84 -91q-64 -26 -131 -26q-58 0 -93 33.5t-44 94.5q-9 68 17 117q16 35 69 102q29 27 187 152q117 93 143 119q42 42 64 96q23 60 -13 103q-22 26 -59 39q-42 16 -91 16q-72 0 -166 -68q-89 -63 -155 -143q0 -35 -24 -55q-20 -17 -45 -17q-39 0 -70 29q-39 36 -35 66
q10 66 82 85q10 11 58 62q111 120 249 180q77 34 152 27q98 -9 176 -62q75 -50 98 -125q45 -143 -20 -235q-50 -71 -177 -180q-75 -61 -219 -189q-24 -24 -32 -45q-17 -44 -17 -57q3 -51 68 -51q23 0 23 39.5t29 39.5z" />
    <glyph glyph-name="glyph297" unicode="&#x1ee0;" horiz-adv-x="2441" 
d="M2089 1487q2 246 -45 460q-92 412 -341 564q-123 74 -278 74q-346 0 -694 -473q-164 -223 -265 -507q-105 -292 -106 -589q-2 -485 202 -695t470 -210q318 0 572 229q221 198 351 522q131 328 134 625zM2377 2480q-33 -65 -123 -65q-71 0 -128 60t-57 132q0 104 77 177
t181 73q98 0 169 -95q65 -88 65 -188q0 -297 -208 -495q-67 -64 -132 -80q52 -228 52 -512q0 -384 -156 -735q-162 -366 -452 -594q-295 -232 -682 -232q-401 0 -613 331q-199 310 -202 783q-3 592 388 1156q397 573 878 573q555 0 756 -654q43 12 56 21q139 121 139 344h-8
zM630 3158q104 157 129 185q77 90 181 129q80 30 194 30q133 0 324 -224q176 -206 262 -206q138 0 193 59q60 63 69 167q6 75 24 181q16 48 83 48q46 0 91 -28q52 -31 52 -74q0 -37 -8 -58q-73 -189 -99 -235q-66 -122 -168.5 -183t-277.5 -61q-112 0 -219 94
q-16 15 -167 182q-135 150 -192 150q-125 0 -190 -74q-35 -40 -100 -189q-57 -130 -115 -130q-54 0 -96 32q-47 35 -47 87q0 38 43 81q26 25 34 37z" />
    <glyph glyph-name="glyph298" unicode="&#x1ee1;" horiz-adv-x="1954" 
d="M1602 1073q0 280 -110 431q-113 153 -308 151q-196 -2 -393 -140q-212 -149 -329 -401q-110 -237 -110 -508q0 -495 385 -495q234 0 442 148q190 137 306.5 359t116.5 455zM2007 1570q-33 -65 -123 -65q-71 0 -128 60t-57 132q0 104 77 177t181 73q98 0 169 -95
q65 -88 65 -188q0 -297 -208 -495q-93 -88 -177 -86h-12v-18q2 -448 -329.5 -793.5t-776.5 -345.5q-264 0 -435 272q-93 147 -93 380q0 505 288 871q300 382 760 382q334 0 496 -310q68 -130 85 -325q13 4 30 9q44 12 57 21q139 121 139 344h-8zM319 2318q104 157 129 185
q77 90 181 129q80 30 194 30q133 0 324 -224q176 -206 262 -206q138 0 193 59q60 63 69 167q6 75 24 181q16 48 83 48q46 0 91 -28q52 -31 52 -74q0 -37 -8 -58q-73 -189 -99 -235q-66 -122 -168.5 -183t-277.5 -61q-112 0 -219 94q-16 15 -167 182q-135 150 -192 150
q-125 0 -190 -74q-35 -40 -100 -189q-57 -130 -115 -130q-54 0 -96 32q-47 35 -47 87q0 38 43 81q26 25 34 37z" />
    <glyph glyph-name="glyph299" unicode="&#x1ee2;" horiz-adv-x="2441" 
d="M2089 1487q2 246 -45 460q-92 412 -341 564q-123 74 -278 74q-346 0 -694 -473q-164 -223 -265 -507q-105 -292 -106 -589q-2 -485 202 -695t470 -210q318 0 572 229q221 198 351 522q131 328 134 625zM2377 2480q-33 -65 -123 -65q-71 0 -128 60t-57 132q0 104 77 177
t181 73q98 0 169 -95q65 -88 65 -188q0 -297 -208 -495q-67 -64 -132 -80q52 -228 52 -512q0 -384 -156 -735q-162 -366 -452 -594q-295 -232 -682 -232q-401 0 -613 331q-199 310 -202 783q-3 592 388 1156q397 573 878 573q555 0 756 -654q43 12 56 21q139 121 139 344h-8
zM1136 -577q0 -258 -213 -258q-143 0 -143 225q0 94 59 171q63 83 154 83q143 0 143 -221z" />
    <glyph glyph-name="glyph300" unicode="&#x1ee3;" horiz-adv-x="1954" 
d="M1602 1073q0 280 -110 431q-113 153 -308 151q-196 -2 -393 -140q-212 -149 -329 -401q-110 -237 -110 -508q0 -495 385 -495q234 0 442 148q190 137 306.5 359t116.5 455zM2007 1570q-33 -65 -123 -65q-71 0 -128 60t-57 132q0 104 77 177t181 73q98 0 169 -95
q65 -88 65 -188q0 -297 -208 -495q-93 -88 -177 -86h-12v-18q2 -448 -329.5 -793.5t-776.5 -345.5q-264 0 -435 272q-93 147 -93 380q0 505 288 871q300 382 760 382q334 0 496 -310q68 -130 85 -325q13 4 30 9q44 12 57 21q139 121 139 344h-8zM994 -577q0 -258 -213 -258
q-143 0 -143 225q0 94 59 171q63 83 154 83q143 0 143 -221z" />
    <glyph glyph-name="glyph301" unicode="&#x1ee4;" horiz-adv-x="2367" 
d="M360 430v2064q-15 32 -16 41q0 91 102 91q99 0 99 -115v-2118q86 -282 352 -282q383 0 676 225q258 199 258 336v1814q-37 37 -37 66q0 110 135 110q103 0 103 -102q0 -33 -17 -49v-1897q0 -191 -327 -438q-221 -167 -428 -217q-137 -33 -322 -33q-366 0 -512 257
q-66 116 -66 247zM1353 -577q0 -258 -213 -258q-143 0 -143 225q0 94 59 171q63 83 154 83q143 0 143 -221z" />
    <glyph glyph-name="glyph302" unicode="&#x1ee5;" horiz-adv-x="1966" 
d="M1655 127q24 -37 24 -70q0 -82 -151 -82q-103 0 -103 74q0 17 15 37q19 23 22 33v139q-134 -129 -361 -229q-235 -103 -413 -103q-130 0 -252 106q-125 109 -125 238v1377q0 10 -8 28t-8 29q0 94 131 94q102 0 102 -86q0 -49 -24 -65v-1360q0 -69 84 -126q77 -52 149 -50
q328 8 725 368v1168q0 11 -6 32.5t-6 32.5q0 74 86 74q119 0 119 -139v-1520zM1155 -577q0 -258 -213 -258q-143 0 -143 225q0 94 59 171q63 83 154 83q143 0 143 -221z" />
    <glyph glyph-name="glyph303" unicode="&#x1ee6;" horiz-adv-x="2367" 
d="M360 430v2064q-15 32 -16 41q0 91 102 91q99 0 99 -115v-2118q86 -282 352 -282q383 0 676 225q258 199 258 336v1814q-37 37 -37 66q0 110 135 110q103 0 103 -102q0 -33 -17 -49v-1897q0 -191 -327 -438q-221 -167 -428 -217q-137 -33 -322 -33q-366 0 -512 257
q-66 116 -66 247zM1305 3056q60 0 60 -56q0 -57 -84 -91q-64 -26 -131 -26q-58 0 -93 33.5t-44 94.5q-9 68 17 117q16 35 69 102q29 27 187 152q117 93 143 119q42 42 64 96q23 60 -13 103q-22 26 -59 39q-42 16 -91 16q-72 0 -166 -68q-89 -63 -155 -143q0 -35 -24 -55
q-20 -17 -45 -17q-39 0 -70 29q-39 36 -35 66q10 66 82 85q10 11 58 62q111 120 249 180q77 34 152 27q98 -9 176 -62q75 -50 98 -125q45 -143 -20 -235q-50 -71 -177 -180q-75 -61 -219 -189q-24 -24 -32 -45q-17 -44 -17 -57q3 -51 68 -51q23 0 23 39.5t29 39.5z" />
    <glyph glyph-name="glyph304" unicode="&#x1ee7;" horiz-adv-x="1966" 
d="M1655 127q24 -37 24 -70q0 -82 -151 -82q-103 0 -103 74q0 17 15 37q19 23 22 33v139q-134 -129 -361 -229q-235 -103 -413 -103q-130 0 -252 106q-125 109 -125 238v1377q0 10 -8 28t-8 29q0 94 131 94q102 0 102 -86q0 -49 -24 -65v-1360q0 -69 84 -126q77 -52 149 -50
q328 8 725 368v1168q0 11 -6 32.5t-6 32.5q0 74 86 74q119 0 119 -139v-1520zM1113 2199q60 0 60 -56q0 -57 -84 -91q-64 -26 -131 -26q-58 0 -93 33.5t-44 94.5q-9 68 17 117q16 35 69 102q29 27 187 152q117 93 143 119q42 42 64 96q23 60 -13 103q-22 26 -59 39
q-42 16 -91 16q-72 0 -166 -68q-89 -63 -155 -143q0 -35 -24 -55q-20 -17 -45 -17q-39 0 -70 29q-39 36 -35 66q10 66 82 85q10 11 58 62q111 120 249 180q77 34 152 27q98 -9 176 -62q75 -50 98 -125q45 -143 -20 -235q-50 -71 -177 -180q-75 -61 -219 -189
q-24 -24 -32 -45q-17 -44 -17 -57q3 -51 68 -51q23 0 23 39.5t29 39.5z" />
    <glyph glyph-name="glyph305" unicode="&#x1ee8;" horiz-adv-x="2367" 
d="M1890 2659q15 71 73 125q77 73 180 73q97 0 169 -95q65 -88 65 -188q0 -297 -208 -495q-79 -75 -154 -84v-1381q0 -191 -327 -438q-221 -167 -428 -217q-137 -33 -322 -33q-366 0 -512 257q-66 116 -66 247v2064q-15 32 -16 41q0 91 102 91q99 0 99 -115v-2118
q86 -282 352 -282q383 0 676 225q258 199 258 336v1814q-37 37 -37 66q0 93 96 107zM2193 2480q-33 -65 -123 -65q-27 0 -55 12v-309q36 10 47 18q139 121 139 344h-8zM1126 3130l483 573q0 81 19 108q24 35 100 35q135 0 135 -127q0 -70 -77 -102l-504 -602
q-12 -127 -123 -127q-119 0 -119 119q0 97 86 123z" />
    <glyph glyph-name="glyph306" unicode="&#x1ee9;" horiz-adv-x="1966" 
d="M1588 1780q19 52 63 94q78 73 181 73q97 0 168 -95q66 -88 66 -188q0 -297 -209 -495q-90 -86 -176 -86q-14 0 -26 1v-957q24 -37 24 -70q0 -82 -151 -82q-103 0 -103 74q0 17 15 37q19 23 22 33v139q-134 -129 -361 -229q-235 -103 -413 -103q-130 0 -252 106
q-125 109 -125 238v1377q0 10 -8 28t-8 29q0 94 131 94q102 0 102 -86q0 -49 -24 -65v-1360q0 -69 84 -126q77 -52 149 -50q328 8 725 368v1168q0 11 -6 32.5t-6 32.5q0 74 86 74q30 0 52 -6zM1882 1570q-33 -65 -123 -65q-50 0 -104 40v-352q17 6 38 12q45 12 58 21
q139 121 139 344h-8zM917 2290l483 573q0 81 19 108q24 35 100 35q135 0 135 -127q0 -70 -77 -102l-504 -602q-12 -127 -123 -127q-119 0 -119 119q0 97 86 123z" />
    <glyph glyph-name="glyph307" unicode="&#x1eea;" horiz-adv-x="2367" 
d="M1890 2659q15 71 73 125q77 73 180 73q97 0 169 -95q65 -88 65 -188q0 -297 -208 -495q-79 -75 -154 -84v-1381q0 -191 -327 -438q-221 -167 -428 -217q-137 -33 -322 -33q-366 0 -512 257q-66 116 -66 247v2064q-15 32 -16 41q0 91 102 91q99 0 99 -115v-2118
q86 -282 352 -282q383 0 676 225q258 199 258 336v1814q-37 37 -37 66q0 93 96 107zM2193 2480q-33 -65 -123 -65q-27 0 -55 12v-309q36 10 47 18q139 121 139 344h-8zM1294 3138q107 -26 107 -123q0 -127 -140 -127q-104 0 -118 152l-430 569q-66 18 -66 102q0 135 135 135
q98 0 98 -159z" />
    <glyph glyph-name="glyph308" unicode="&#x1eeb;" horiz-adv-x="1966" 
d="M1588 1780q19 52 63 94q78 73 181 73q97 0 168 -95q66 -88 66 -188q0 -297 -209 -495q-90 -86 -176 -86q-14 0 -26 1v-957q24 -37 24 -70q0 -82 -151 -82q-103 0 -103 74q0 17 15 37q19 23 22 33v139q-134 -129 -361 -229q-235 -103 -413 -103q-130 0 -252 106
q-125 109 -125 238v1377q0 10 -8 28t-8 29q0 94 131 94q102 0 102 -86q0 -49 -24 -65v-1360q0 -69 84 -126q77 -52 149 -50q328 8 725 368v1168q0 11 -6 32.5t-6 32.5q0 74 86 74q30 0 52 -6zM1882 1570q-33 -65 -123 -65q-50 0 -104 40v-352q17 6 38 12q45 12 58 21
q139 121 139 344h-8zM1183 2298q107 -26 107 -123q0 -127 -140 -127q-104 0 -118 152l-430 569q-66 18 -66 102q0 135 135 135q98 0 98 -159z" />
    <glyph glyph-name="glyph309" unicode="&#x1eec;" horiz-adv-x="2367" 
d="M1890 2659q15 71 73 125q77 73 180 73q97 0 169 -95q65 -88 65 -188q0 -297 -208 -495q-79 -75 -154 -84v-1381q0 -191 -327 -438q-221 -167 -428 -217q-137 -33 -322 -33q-366 0 -512 257q-66 116 -66 247v2064q-15 32 -16 41q0 91 102 91q99 0 99 -115v-2118
q86 -282 352 -282q383 0 676 225q258 199 258 336v1814q-37 37 -37 66q0 93 96 107zM2193 2480q-33 -65 -123 -65q-27 0 -55 12v-309q36 10 47 18q139 121 139 344h-8zM1305 3056q60 0 60 -56q0 -57 -84 -91q-64 -26 -131 -26q-58 0 -93 33.5t-44 94.5q-9 68 17 117
q16 35 69 102q29 27 187 152q117 93 143 119q42 42 64 96q23 60 -13 103q-22 26 -59 39q-42 16 -91 16q-72 0 -166 -68q-89 -63 -155 -143q0 -35 -24 -55q-20 -17 -45 -17q-39 0 -70 29q-39 36 -35 66q10 66 82 85q10 11 58 62q111 120 249 180q77 34 152 27q98 -9 176 -62
q75 -50 98 -125q45 -143 -20 -235q-50 -71 -177 -180q-75 -61 -219 -189q-24 -24 -32 -45q-17 -44 -17 -57q3 -51 68 -51q23 0 23 39.5t29 39.5z" />
    <glyph glyph-name="glyph310" unicode="&#x1eed;" horiz-adv-x="1966" 
d="M1588 1780q19 52 63 94q78 73 181 73q97 0 168 -95q66 -88 66 -188q0 -297 -209 -495q-90 -86 -176 -86q-14 0 -26 1v-957q24 -37 24 -70q0 -82 -151 -82q-103 0 -103 74q0 17 15 37q19 23 22 33v139q-134 -129 -361 -229q-235 -103 -413 -103q-130 0 -252 106
q-125 109 -125 238v1377q0 10 -8 28t-8 29q0 94 131 94q102 0 102 -86q0 -49 -24 -65v-1360q0 -69 84 -126q77 -52 149 -50q328 8 725 368v1168q0 11 -6 32.5t-6 32.5q0 74 86 74q30 0 52 -6zM1882 1570q-33 -65 -123 -65q-50 0 -104 40v-352q17 6 38 12q45 12 58 21
q139 121 139 344h-8zM1113 2199q60 0 60 -56q0 -57 -84 -91q-64 -26 -131 -26q-58 0 -93 33.5t-44 94.5q-9 68 17 117q16 35 69 102q29 27 187 152q117 93 143 119q42 42 64 96q23 60 -13 103q-22 26 -59 39q-42 16 -91 16q-72 0 -166 -68q-89 -63 -155 -143q0 -35 -24 -55
q-20 -17 -45 -17q-39 0 -70 29q-39 36 -35 66q10 66 82 85q10 11 58 62q111 120 249 180q77 34 152 27q98 -9 176 -62q75 -50 98 -125q45 -143 -20 -235q-50 -71 -177 -180q-75 -61 -219 -189q-24 -24 -32 -45q-17 -44 -17 -57q3 -51 68 -51q23 0 23 39.5t29 39.5z" />
    <glyph glyph-name="glyph311" unicode="&#x1eee;" horiz-adv-x="2367" 
d="M1890 2659q15 71 73 125q77 73 180 73q97 0 169 -95q65 -88 65 -188q0 -297 -208 -495q-79 -75 -154 -84v-1381q0 -191 -327 -438q-221 -167 -428 -217q-137 -33 -322 -33q-366 0 -512 257q-66 116 -66 247v2064q-15 32 -16 41q0 91 102 91q99 0 99 -115v-2118
q86 -282 352 -282q383 0 676 225q258 199 258 336v1814q-37 37 -37 66q0 93 96 107zM2193 2480q-33 -65 -123 -65q-27 0 -55 12v-309q36 10 47 18q139 121 139 344h-8zM454 3158q104 157 129 185q77 90 181 129q80 30 194 30q133 0 324 -224q176 -206 262 -206q138 0 193 59
q60 63 69 167q6 75 24 181q16 48 83 48q46 0 91 -28q52 -31 52 -74q0 -37 -8 -58q-73 -189 -99 -235q-66 -122 -168.5 -183t-277.5 -61q-112 0 -219 94q-16 15 -167 182q-135 150 -192 150q-125 0 -190 -74q-35 -40 -100 -189q-57 -130 -115 -130q-54 0 -96 32
q-47 35 -47 87q0 38 43 81q26 25 34 37z" />
    <glyph glyph-name="glyph312" unicode="&#x1eef;" horiz-adv-x="1966" 
d="M1588 1780q19 52 63 94q78 73 181 73q97 0 168 -95q66 -88 66 -188q0 -297 -209 -495q-90 -86 -176 -86q-14 0 -26 1v-957q24 -37 24 -70q0 -82 -151 -82q-103 0 -103 74q0 17 15 37q19 23 22 33v139q-134 -129 -361 -229q-235 -103 -413 -103q-130 0 -252 106
q-125 109 -125 238v1377q0 10 -8 28t-8 29q0 94 131 94q102 0 102 -86q0 -49 -24 -65v-1360q0 -69 84 -126q77 -52 149 -50q328 8 725 368v1168q0 11 -6 32.5t-6 32.5q0 74 86 74q30 0 52 -6zM1882 1570q-33 -65 -123 -65q-50 0 -104 40v-352q17 6 38 12q45 12 58 21
q139 121 139 344h-8zM319 2318q104 157 129 185q77 90 181 129q80 30 194 30q133 0 324 -224q176 -206 262 -206q138 0 193 59q60 63 69 167q6 75 24 181q16 48 83 48q46 0 91 -28q52 -31 52 -74q0 -37 -8 -58q-73 -189 -99 -235q-66 -122 -168.5 -183t-277.5 -61
q-112 0 -219 94q-16 15 -167 182q-135 150 -192 150q-125 0 -190 -74q-35 -40 -100 -189q-57 -130 -115 -130q-54 0 -96 32q-47 35 -47 87q0 38 43 81q26 25 34 37z" />
    <glyph glyph-name="glyph313" unicode="&#x1ef0;" horiz-adv-x="2367" 
d="M1890 2659q15 71 73 125q77 73 180 73q97 0 169 -95q65 -88 65 -188q0 -297 -208 -495q-79 -75 -154 -84v-1381q0 -191 -327 -438q-221 -167 -428 -217q-137 -33 -322 -33q-366 0 -512 257q-66 116 -66 247v2064q-15 32 -16 41q0 91 102 91q99 0 99 -115v-2118
q86 -282 352 -282q383 0 676 225q258 199 258 336v1814q-37 37 -37 66q0 93 96 107zM2193 2480q-33 -65 -123 -65q-27 0 -55 12v-309q36 10 47 18q139 121 139 344h-8zM1353 -577q0 -258 -213 -258q-143 0 -143 225q0 94 59 171q63 83 154 83q143 0 143 -221z" />
    <glyph glyph-name="glyph314" unicode="&#x1ef1;" horiz-adv-x="1966" 
d="M1588 1780q19 52 63 94q78 73 181 73q97 0 168 -95q66 -88 66 -188q0 -297 -209 -495q-90 -86 -176 -86q-14 0 -26 1v-957q24 -37 24 -70q0 -82 -151 -82q-103 0 -103 74q0 17 15 37q19 23 22 33v139q-134 -129 -361 -229q-235 -103 -413 -103q-130 0 -252 106
q-125 109 -125 238v1377q0 10 -8 28t-8 29q0 94 131 94q102 0 102 -86q0 -49 -24 -65v-1360q0 -69 84 -126q77 -52 149 -50q328 8 725 368v1168q0 11 -6 32.5t-6 32.5q0 74 86 74q30 0 52 -6zM1882 1570q-33 -65 -123 -65q-50 0 -104 40v-352q17 6 38 12q45 12 58 21
q139 121 139 344h-8zM1155 -577q0 -258 -213 -258q-143 0 -143 225q0 94 59 171q63 83 154 83q143 0 143 -221z" />
    <glyph glyph-name="glyph315" unicode="&#x1ef2;" horiz-adv-x="2298" 
d="M2281 2503l-1040 -1094v-1249q41 -41 41 -74q0 -111 -147 -111q-111 0 -111 119q0 49 33 99v1216l-975 1102q-82 30 -82 131q0 86 111 86q106 0 106 -86l934 -1065l963 1024q0 86 110 86q111 0 111 -94q0 -77 -54 -90zM1423 3138q107 -26 107 -123q0 -127 -140 -127
q-104 0 -118 152l-430 569q-66 18 -66 102q0 135 135 135q98 0 98 -159z" />
    <glyph glyph-name="glyph316" unicode="&#x1ef3;" horiz-adv-x="1769" 
d="M143 -401q35 -238 295 -238q220 0 346 224q74 133 158 390l-876 1610q-50 37 -50 111q0 90 111 90q131 0 131 -148l774 -1413l496 1479q0 94 102 94q131 0 131 -86q0 -43 -57 -94l-655 -1905q-143 -415 -345 -494q-110 -42 -294 -42q-309 0 -451 360q-6 16 -28 37
q-17 17 -17 33q0 143 102 143q160 0 160 -78q0 -57 -33 -73zM1045 2298q107 -26 107 -123q0 -127 -140 -127q-104 0 -118 152l-430 569q-66 18 -66 102q0 135 135 135q98 0 98 -159z" />
    <glyph glyph-name="glyph317" unicode="&#x1ef4;" horiz-adv-x="2298" 
d="M2281 2503l-1040 -1094v-1249q41 -41 41 -74q0 -111 -147 -111q-111 0 -111 119q0 49 33 99v1216l-975 1102q-82 30 -82 131q0 86 111 86q106 0 106 -86l934 -1065l963 1024q0 86 110 86q111 0 111 -94q0 -77 -54 -90zM1334 -577q0 -258 -213 -258q-143 0 -143 225
q0 94 59 171q63 83 154 83q143 0 143 -221z" />
    <glyph glyph-name="glyph318" unicode="&#x1ef5;" horiz-adv-x="1769" 
d="M143 -401q35 -238 295 -238q220 0 346 224q74 133 158 390l-876 1610q-50 37 -50 111q0 90 111 90q131 0 131 -148l774 -1413l496 1479q0 94 102 94q131 0 131 -86q0 -43 -57 -94l-655 -1905q-143 -415 -345 -494q-110 -42 -294 -42q-309 0 -451 360q-6 16 -28 37
q-17 17 -17 33q0 143 102 143q160 0 160 -78q0 -57 -33 -73zM1408 -577q0 -258 -213 -258q-143 0 -143 225q0 94 59 171q63 83 154 83q143 0 143 -221z" />
    <glyph glyph-name="glyph319" unicode="&#x1ef6;" horiz-adv-x="2298" 
d="M2281 2503l-1040 -1094v-1249q41 -41 41 -74q0 -111 -147 -111q-111 0 -111 119q0 49 33 99v1216l-975 1102q-82 30 -82 131q0 86 111 86q106 0 106 -86l934 -1065l963 1024q0 86 110 86q111 0 111 -94q0 -77 -54 -90zM1305 3056q60 0 60 -56q0 -57 -84 -91
q-64 -26 -131 -26q-58 0 -93 33.5t-44 94.5q-9 68 17 117q16 35 69 102q29 27 187 152q117 93 143 119q42 42 64 96q23 60 -13 103q-22 26 -59 39q-42 16 -91 16q-72 0 -166 -68q-89 -63 -155 -143q0 -35 -24 -55q-20 -17 -45 -17q-39 0 -70 29q-39 36 -35 66q10 66 82 85
q10 11 58 62q111 120 249 180q77 34 152 27q98 -9 176 -62q75 -50 98 -125q45 -143 -20 -235q-50 -71 -177 -180q-75 -61 -219 -189q-24 -24 -32 -45q-17 -44 -17 -57q3 -51 68 -51q23 0 23 39.5t29 39.5z" />
    <glyph glyph-name="glyph320" unicode="&#x1ef7;" horiz-adv-x="1769" 
d="M143 -401q35 -238 295 -238q220 0 346 224q74 133 158 390l-876 1610q-50 37 -50 111q0 90 111 90q131 0 131 -148l774 -1413l496 1479q0 94 102 94q131 0 131 -86q0 -43 -57 -94l-655 -1905q-143 -415 -345 -494q-110 -42 -294 -42q-309 0 -451 360q-6 16 -28 37
q-17 17 -17 33q0 143 102 143q160 0 160 -78q0 -57 -33 -73zM1027 2199q60 0 60 -56q0 -57 -84 -91q-64 -26 -131 -26q-58 0 -93 33.5t-44 94.5q-9 68 17 117q16 35 69 102q29 27 187 152q117 93 143 119q42 42 64 96q23 60 -13 103q-22 26 -59 39q-42 16 -91 16
q-72 0 -166 -68q-89 -63 -155 -143q0 -35 -24 -55q-20 -17 -45 -17q-39 0 -70 29q-39 36 -35 66q10 66 82 85q10 11 58 62q111 120 249 180q77 34 152 27q98 -9 176 -62q75 -50 98 -125q45 -143 -20 -235q-50 -71 -177 -180q-75 -61 -219 -189q-24 -24 -32 -45
q-17 -44 -17 -57q3 -51 68 -51q23 0 23 39.5t29 39.5z" />
    <glyph glyph-name="glyph321" unicode="&#x1ef8;" horiz-adv-x="2298" 
d="M2281 2503l-1040 -1094v-1249q41 -41 41 -74q0 -111 -147 -111q-111 0 -111 119q0 49 33 99v1216l-975 1102q-82 30 -82 131q0 86 111 86q106 0 106 -86l934 -1065l963 1024q0 86 110 86q111 0 111 -94q0 -77 -54 -90zM427 3158q104 157 129 185q77 90 181 129
q80 30 194 30q133 0 324 -224q176 -206 262 -206q138 0 193 59q60 63 69 167q6 75 24 181q16 48 83 48q46 0 91 -28q52 -31 52 -74q0 -37 -8 -58q-73 -189 -99 -235q-66 -122 -168.5 -183t-277.5 -61q-112 0 -219 94q-16 15 -167 182q-135 150 -192 150q-125 0 -190 -74
q-35 -40 -100 -189q-57 -130 -115 -130q-54 0 -96 32q-47 35 -47 87q0 38 43 81q26 25 34 37z" />
    <glyph glyph-name="glyph322" unicode="&#x1ef9;" horiz-adv-x="1769" 
d="M143 -401q35 -238 295 -238q220 0 346 224q74 133 158 390l-876 1610q-50 37 -50 111q0 90 111 90q131 0 131 -148l774 -1413l496 1479q0 94 102 94q131 0 131 -86q0 -43 -57 -94l-655 -1905q-143 -415 -345 -494q-110 -42 -294 -42q-309 0 -451 360q-6 16 -28 37
q-17 17 -17 33q0 143 102 143q160 0 160 -78q0 -57 -33 -73zM163 2318q104 157 129 185q77 90 181 129q80 30 194 30q133 0 324 -224q176 -206 262 -206q138 0 193 59q60 63 69 167q6 75 24 181q16 48 83 48q46 0 91 -28q52 -31 52 -74q0 -37 -8 -58q-73 -189 -99 -235
q-66 -122 -168.5 -183t-277.5 -61q-112 0 -219 94q-16 15 -167 182q-135 150 -192 150q-125 0 -190 -74q-35 -40 -100 -189q-57 -130 -115 -130q-54 0 -96 32q-47 35 -47 87q0 38 43 81q26 25 34 37z" />
    <glyph glyph-name="endash" unicode="&#x2013;" horiz-adv-x="4096" 
d="M0 1257h4096v-200h-4096v200z" />
    <glyph glyph-name="emdash" unicode="&#x2014;" horiz-adv-x="2048" 
d="M0 1257h2048v-200h-2048v200z" />
    <glyph glyph-name="quoteleft" unicode="&#x2018;" horiz-adv-x="688" 
d="M250 2281q49 62 119 62q85 0 140 -63q52 -60 52 -146q0 -95 -76.5 -162t-173.5 -67t-169 88q-68 83 -68 182q0 298 198 501q90 93 191 93q74 0 74 -66q-5 -34 -65 -51q-85 -25 -87 -26q-128 -129 -143 -316q8 -12 8 -29z" />
    <glyph glyph-name="quoteright" unicode="&#x2019;" horiz-adv-x="688" 
d="M410 2392q-33 -65 -123 -65q-71 0 -128 60t-57 132q0 104 76.5 177t181.5 73q97 0 169 -95q65 -88 65 -188q0 -297 -208 -495q-91 -86 -177 -86q-82 0 -82 49q0 48 95 73q44 12 57 21q139 121 139 344h-8z" />
    <glyph glyph-name="quotedblleft" unicode="&#x201c;" horiz-adv-x="1360" 
d="M250 2281q42 62 127 62q77 0 130.5 -57t53.5 -136q0 -102 -73.5 -173.5t-176.5 -71.5q-99 0 -170 92q-67 85 -67 186q0 335 228 514q91 72 153 72q82 0 82 -57q0 -46 -89 -73q-40 -13 -55 -22q-136 -81 -151 -307q8 -4 8 -29zM930 2281q42 62 127 62q77 0 130.5 -57
t53.5 -136q0 -102 -73.5 -173.5t-176.5 -71.5q-99 0 -170 92q-67 85 -67 186q0 335 228 514q91 72 153 72q82 0 82 -57q0 -46 -89 -73q-40 -13 -55 -22q-136 -81 -151 -307q8 -4 8 -29z" />
    <glyph glyph-name="quotedblright" unicode="&#x201d;" horiz-adv-x="1360" 
d="M1106 2392h-8q-36 -74 -131 -74q-72 0 -129 66q-56 63 -56 135q0 103 77 176.5t181 73.5q97 0 168 -95q66 -88 66 -188q0 -328 -230 -508q-94 -73 -155 -73q-82 0 -82 49q0 35 63 59l88 35q148 111 148 344zM426 2392h-8q-37 -74 -123 -74q-76 0 -134.5 62.5t-58.5 138.5
q0 103 77 176.5t181 73.5q97 0 168 -95q66 -88 66 -188q0 -332 -227 -508q-93 -73 -158 -73q-74 0 -74 49q0 34 58 59q43 18 86 35q64 49 107 156q40 100 40 188z" />
    <glyph glyph-name="quotedblbase" unicode="&#x201e;" horiz-adv-x="1360" 
d="M1098 16h-8q-31 -65 -123 -65q-75 0 -130 58.5t-55 133.5q0 103 73.5 176.5t176.5 73.5q112 0 195 -132q39 -64 39 -150q0 -331 -227 -510q-93 -72 -158 -72q-74 0 -74 53q0 33 59 56q81 32 84 34q148 116 148 312v32zM418 16h-8q-31 -65 -123 -65q-75 0 -130 58.5
t-55 133.5q0 103 73.5 176.5t176.5 73.5q119 0 202 -132q40 -64 40 -150q0 -329 -232 -509q-95 -73 -161 -73q-74 0 -74 53q0 33 59 56q81 32 84 34q148 116 148 312v32z" />
    <glyph glyph-name="dagger" unicode="&#x2020;" horiz-adv-x="1839" 
d="M823 168v1511h-397q-88 -49 -131 -49q-111 0 -111 123q0 143 111 143q82 0 115 -32h413v594q-41 48 -41 127q0 94 131 94q127 0 127 -144q0 -39 -24 -69v-602h418q54 49 127 49q94 0 94 -135q0 -94 -98 -113q-54 -11 -70 -18q-19 6 -45 32h-426v-1527q49 -49 49 -95
q0 -114 -123 -114q-151 0 -151 114q0 67 32 111z" />
    <glyph glyph-name="daggerdbl" unicode="&#x2021;" horiz-adv-x="1839" 
d="M823 168v471h-397q-74 -45 -131 -45q-111 0 -111 119q0 143 111 143q66 0 115 -33h413v881h-397q-74 -49 -131 -49q-111 0 -111 114q0 152 111 152q82 0 115 -33h413v570q-41 48 -41 127q0 94 131 94q127 0 127 -144q0 -39 -24 -69v-578h426q56 41 127 41q86 0 86 -131
q0 -127 -135 -127q-54 0 -70 33h-434v-881h426q67 49 127 49q86 0 86 -135q0 -131 -135 -131q-29 0 -70 33h-434v-487q49 -49 49 -95q0 -114 -123 -114q-151 0 -151 114q0 67 32 111z" />
    <glyph glyph-name="bullet" unicode="&#x2022;" horiz-adv-x="1622" 
d="M705 639q-277 0 -428 286q-68 129 -68 275q0 563 380 716q163 66 349 66q287 0 396 -179q83 -139 83 -451q0 -408 -350 -616q-164 -97 -362 -97z" />
    <glyph glyph-name="ellipsis" unicode="&#x2026;" horiz-adv-x="4096" 
d="M864 242q3 -100 -56 -186q-56 -81 -161 -81q-70 0 -111 82q-32 66 -32 144q0 97 54 175q61 87 155 87q144 0 151 -221zM2232 242q3 -99 -55 -181q-56 -77 -162 -77q-71 0 -115 76q-36 64 -36 141q0 101 57 178q62 84 160 84q144 0 151 -221zM3600 242q0 -258 -209 -258
q-151 0 -151 217q0 101 57 178q62 84 160 84q143 0 143 -221z" />
    <glyph glyph-name="perthousand" unicode="&#x2030;" horiz-adv-x="3535" 
d="M2761 -82q-192 0 -255 144q-40 89 -40 257q0 623 598 623q161 0 247 -140q72 -117 72 -290q0 -340 -370 -521q-149 -73 -252 -73zM1638 -82q-190 0 -255 144q-40 88 -40 257q0 623 594 623q163 0 252 -139q76 -118 76 -291q0 -338 -375 -521q-151 -73 -252 -73zM3031 762
q-185 0 -285 -128q-92 -116 -92 -306q0 -217 123 -217q203 0 353 200q69 92 69 201q0 250 -168 250zM1913 762q-186 0 -289 -126q-96 -117 -96 -308q0 -217 127 -217q195 0 348 200q70 91 70 201q0 250 -160 250zM455 1806q-141 0 -222 104q-73 94 -73 240q0 331 301 476
q126 61 235 61q320 0 320 -328q0 -282 -349 -476q-139 -77 -212 -77zM688 2503q-140 0 -244 -122q-100 -117 -100 -259q0 -131 94 -131q169 0 328 232q65 95 65 169q0 111 -143 111zM799 127q0 -160 -135 -160q-95 0 -95 115q0 23 26 57l28 37l897 2392q8 127 90 127
q151 0 151 -110q0 -34 -73 -91z" />
    <glyph glyph-name="guilsinglleft" unicode="&#x2039;" horiz-adv-x="1143" 
d="M791 504q98 -14 98 -94q0 -46 -36.5 -84.5t-82.5 -38.5q-86 0 -106 73l-488 648q-23 24 -67 87q-15 27 -15 64q0 50 82 115l655 672q53 54 78 68q18 9 41 9q115 0 115 -118q0 -87 -115 -111l-647 -651z" />
    <glyph glyph-name="guilsinglright" unicode="&#x203a;" horiz-adv-x="1143" 
d="M352 504l479 639l-638 651q-111 7 -111 102q0 119 102 119q45 0 64 -14q0 -1 63 -64l656 -663q23 -18 67 -68q15 -24 15 -55q0 -61 -82 -143l-488 -648q-20 -73 -102 -73q-119 0 -119 114q0 89 94 103z" />
    <glyph glyph-name="u20AB" unicode="&#x20ab;" horiz-adv-x="1401" 
d="M1012 1469q-223 -315 -508 -484q-142 -84 -254 -84q-150 0 -211 137q-25 57 -25 116q0 316 284 624t558 308q71 0 162 -39v269l-336 -27q-30 -44 -74 -44q-80 0 -80 102q0 93 74 93q32 0 58 -22l358 22v180q-28 17 -28 61q0 69 79 69q77 0 77 -80q0 -8 -2.5 -24.5
t-2.5 -25.5v-173l53 3q26 30 66 30q107 0 107 -90t-85 -90q-44 0 -60 33l-81 -7v-1273q30 -26 30 -58q0 -61 -96 -61q-74 0 -74 61q0 36 17 46v428h-6zM1001 1766q0 196 -134 196q-233 0 -480 -283q-244 -279 -244 -515q0 -139 112 -139q149 0 343 178q309 283 372 422
q31 69 31 141zM1027 528l-765 -15q-44 -66 -111 -66q-119 0 -119 152q0 139 111 139q48 0 86 -33l757 -1q39 45 98 45q160 0 160 -135t-127 -135q-66 0 -90 49z" />
    <glyph glyph-name="trademark" unicode="&#x2122;" horiz-adv-x="3129" 
d="M762 1450q12 -49 12 -98q0 -78 -69 -78q-144 0 -144 94q0 32 25 57v1094l-377 -45q-65 -31 -74 -33q-86 0 -86 78q0 84 51 110q60 29 150 33q67 2 203 14q164 28 492 78q110 15 206 15q115 0 115 -82q0 -102 -160 -102l-344 -50v-1085zM1679 1442q9 -17 9 -66
q0 -102 -111 -102q-98 0 -98 102q0 32 24 58v1200q0 12 -8 20q10 115 135 115q64 0 86 -82q7 -29 13 -53l438 -1041l495 1102q33 74 107 74q102 0 119 -123q0 -19 -17 -53v-1176q33 -11 33 -41q0 -102 -160 -102q-73 0 -73 69q0 18 24 66v942h-8l-406 -901
q-35 -107 -139 -107q-77 0 -94 41l-360 857h-9v-799z" />
    <glyph glyph-name="greaterequal" unicode="&#x2265;" horiz-adv-x="897" 
d="M262 2290l483 573q0 81 19 108q24 35 100 35q135 0 135 -127q0 -70 -77 -102l-504 -602q-12 -127 -123 -127q-119 0 -119 119q0 97 86 123z" />
    <glyph glyph-name="house" unicode="&#x2302;" horiz-adv-x="1688" 
d="M807 201q0 -226 -193 -226q-49 0 -96 51.5t-47 100.5q0 218 85 269q51 30 149 30q102 0 102 -225zM942 905q0 94 66 94q135 0 135 -127q0 -130 -189 -207q-147 -59 -299 -59q-130 0 -211 76q-84 78 -84 207q0 255 232 462q66 60 424 345q463 369 463 594q0 184 -207 260
q-96 35 -207 35q-178 0 -421 -184q-189 -142 -341 -328q0 -127 -70 -127q-56 0 -100 35q-47 38 -47 92q0 106 82 127q111 124 364 363q253 206 586 206q319 0 485 -257q70 -110 68 -194q-5 -206 -185 -422q-94 -113 -343 -327q-172 -139 -498 -430q-92 -92 -92 -234
q0 -114 135 -114q254 0 254 114z" />
    <glyph glyph-name="SF360000" unicode="&#x255e;" horiz-adv-x="2585" 
d="M410 82q0 -98 -123 -98q-75 0 -94 10q-33 16 -33 80q0 74 49 184l983 2208q18 78 84 222q28 40 84 40q127 0 127 -102q0 -29 -16.5 -57.5t-16.5 -57.5q0 -199 459 -1176q106 -225 220 -457l174 -356q134 -280 134 -370q0 -168 -123 -168q-143 0 -143 82q0 30 12.5 80
t12.5 71q0 102 -127 377l-295 639l-955 -57l-295 -639q-68 -146 -98 -268q-20 -80 -20 -187zM1688 1401l-361 966l-422 -1024z" />
    <glyph glyph-name="SF370000" unicode="&#x255f;" horiz-adv-x="2298" 
d="M1921 82q-136 0 -584 -38l-408 -34q-207 -17 -376 -26q-38 -50 -123 -50q-116 0 -127 99q0 62 57 110v1024q-65 0 -65 90q0 107 65 136v872q-102 0 -102 86q0 96 61 127q-24 48 -24 66q0 90 135 90q139 0 139 -148l1184 82q58 58 119 58q151 0 151 -148q0 -143 -168 -143
q-67 0 -118 41l-1192 -78v-905l1032 127q56 41 127 41q127 0 127 -119q0 -139 -152 -139q-33 0 -69 24l-1065 -119v-1040l1360 111q65 32 102 32q39 0 70 -45q28 -42 28 -82q0 -94 -139 -110q-12 8 -45 8z" />
    <glyph glyph-name="SF420000" unicode="&#x2560;" horiz-adv-x="905" 
d="M545 152q49 -37 49 -95q0 -82 -156 -82q-135 0 -135 111q0 44 57 74v2306q-41 36 -41 69q0 107 185 107q102 0 102 -90q0 -45 -61 -111v-2289z" />
    <glyph glyph-name="SF190000" unicode="&#x2561;" horiz-adv-x="2441" 
d="M2089 1487q2 246 -45 460q-92 412 -341 564q-123 74 -278 74q-346 0 -694 -473q-164 -223 -265 -507q-105 -292 -106 -589q-2 -485 202 -695t470 -210q318 0 572 229q221 198 351 522q131 328 134 625zM168 1040q-3 592 388 1156q397 573 878 573q520 0 734 -586
q105 -290 105 -696q0 -384 -156 -735q-162 -366 -452 -594q-295 -232 -682 -232q-401 0 -613 331q-199 310 -202 783z" />
    <glyph glyph-name="SF200000" unicode="&#x2562;" horiz-adv-x="2367" 
d="M360 430v2064q-15 32 -16 41q0 91 102 91q99 0 99 -115v-2118q86 -282 352 -282q383 0 676 225q258 199 258 336v1814q-37 37 -37 66q0 110 135 110q103 0 103 -102q0 -33 -17 -49v-1897q0 -191 -327 -438q-221 -167 -428 -217q-137 -33 -322 -33q-366 0 -512 257
q-66 116 -66 247z" />
    <glyph glyph-name="SF230000" unicode="&#x2563;" horiz-adv-x="2298" 
d="M2281 2503l-1040 -1094v-1249q41 -41 41 -74q0 -111 -147 -111q-111 0 -111 119q0 49 33 99v1216l-975 1102q-82 30 -82 131q0 86 111 86q106 0 106 -86l934 -1065l963 1024q0 86 110 86q111 0 111 -94q0 -77 -54 -90z" />
    <glyph glyph-name="SF470000" unicode="&#x2564;" 
d="M1585 471q-218 -222 -545 -379q-348 -166 -639 -166q-290 0 -290 226q0 334 412 656q441 343 1070 343v336q0 168 -151 168q-324 0 -614 -173q-136 -82 -230 -188q0 -102 -127 -102q-34 0 -76.5 39t-42.5 72q0 131 119 131q427 405 999 405q138 0 229 -100
q87 -96 87 -236v-1376q20 -25 20 -70q0 -82 -143 -82q-102 0 -102 74q0 20 32 70v352h-8zM1593 967q-447 -16 -685 -142q-74 -39 -261 -161q-108 -70 -224 -217q-125 -157 -128 -254q-3 -82 176 -82q178 0 478 150q251 125 434 269q210 165 210 277v160z" />
    <glyph glyph-name="SF480000" unicode="&#x2565;" horiz-adv-x="1815" 
d="M688 -66q-259 0 -397 158q-131 149 -131 412q0 504 331 916q317 395 635 395q384 0 513 -295q51 -118 49 -193q-2 -102 -321 -191q-203 -56 -941 -214q-82 -219 -82 -385q0 -219 74 -312q84 -106 295 -106q452 0 741 479q0 25 -4 41q5 98 111 98q104 0 118 -114
q-77 -196 -368 -439q-299 -250 -623 -250zM1470 1384q0 74 -87 158q-92 87 -224 88q-316 3 -647 -512q271 59 809 195q149 42 149 71z" />
    <glyph glyph-name="SF410000" unicode="&#x2566;" horiz-adv-x="815" 
d="M504 176q41 -56 41 -82q0 -53 -55 -88q-48 -31 -105 -31q-115 0 -115 127q0 29 41 82v1401q-24 25 -24 53q0 160 143 160q40 0 75 -44q32 -42 32 -83q0 -24 -33 -86v-1409zM410 2064q-123 0 -123 119q0 336 168 336q123 0 123 -135q0 -320 -168 -320z" />
    <glyph glyph-name="SF450000" unicode="&#x2567;" horiz-adv-x="815" 
d="M504 176q41 -56 41 -82q0 -53 -55 -88q-48 -31 -105 -31q-115 0 -115 127q0 29 41 82v1401q-24 25 -24 53q0 160 143 160q40 0 75 -44q32 -42 32 -83q0 -24 -33 -86v-1409z" />
    <glyph glyph-name="SF460000" unicode="&#x2568;" horiz-adv-x="1954" 
d="M1602 1073q0 280 -110 431q-113 153 -308 151q-196 -2 -393 -140q-212 -149 -329 -401q-110 -237 -110 -508q0 -495 385 -495q234 0 442 148q190 137 306.5 359t116.5 455zM688 -74q-264 0 -435 272q-93 147 -93 380q0 505 288 871q300 382 760 382q334 0 496 -310
q90 -172 90 -456q0 -451 -329 -793q-332 -346 -777 -346z" />
    <glyph glyph-name="SF400000" unicode="&#x2569;" horiz-adv-x="1966" 
d="M1655 127q24 -37 24 -70q0 -82 -151 -82q-103 0 -103 74q0 17 15 37q19 23 22 33v139q-134 -129 -361 -229q-235 -103 -413 -103q-130 0 -252 106q-125 109 -125 238v1377q0 10 -8 28t-8 29q0 94 131 94q102 0 102 -86q0 -49 -24 -65v-1360q0 -69 84 -126q77 -52 149 -50
q328 8 725 368v1168q0 11 -6 32.5t-6 32.5q0 74 86 74q119 0 119 -139v-1520z" />
    <glyph glyph-name="SF540000" unicode="&#x256a;" horiz-adv-x="1769" 
d="M143 -401q35 -238 295 -238q220 0 346 224q74 133 158 390l-876 1610q-50 37 -50 111q0 90 111 90q131 0 131 -148l774 -1413l496 1479q0 94 102 94q131 0 131 -86q0 -43 -57 -94l-655 -1905q-143 -415 -345 -494q-110 -42 -294 -42q-309 0 -451 360q-6 16 -28 37
q-17 17 -17 33q0 143 102 143q160 0 160 -78q0 -57 -33 -73z" />
    <glyph glyph-name="fi" unicode="&#xf001;" horiz-adv-x="2007" 
d="M1696 1679v-1511q41 -56 41 -82q0 -48 -58 -81q-51 -30 -102 -30q-115 0 -115 119q0 29 41 90v1471l-872 -144v-1376q24 -36 24 -69q0 -91 -110 -91q-119 0 -119 91q0 10 6 29t6 24v1360l-286 -54q-37 -24 -58 -24q-86 0 -86 127q0 94 74 94q37 0 61 -4l295 45
q0 813 188 978q108 95 316 95q423 0 655 -264q91 -105 91 -166q0 -164 -136 -164q-135 0 -135 148q0 12 33 45q-173 217 -545 217q-226 0 -252 -334q-11 -144 -22 -522l864 135q22 12 69 34q22 7 54 7q44 0 77.5 -37t33.5 -82q0 -22 -33 -74z" />
    <glyph glyph-name="fl" unicode="&#xf002;" horiz-adv-x="2007" 
d="M1593 2511q144 0 144 -94q0 -72 -41 -136v-2129q41 -31 41 -70q0 -43 -35.5 -75t-79.5 -32q-135 0 -135 127q0 -17 16 58v1495l-872 -144v-1376q24 -36 24 -69q0 -91 -110 -91q-119 0 -119 91q0 10 6 29t6 24v1360l-286 -54q-37 -24 -58 -24q-86 0 -86 127q0 94 74 94
q37 0 61 -4l295 45q0 803 214 978q117 95 331 95q348 0 610 -225zM1503 1831v450q-1 32 -33 86q-206 185 -528 185q-256 0 -287 -337q-14 -147 -24 -519z" />
    <glyph glyph-name="glyph98" horiz-adv-x="1966" 
d="M1183 2298q107 -26 107 -123q0 -127 -140 -127q-104 0 -118 152l-430 569q-66 18 -66 102q0 135 135 135q98 0 98 -159z" />
    <glyph glyph-name="glyph211" horiz-adv-x="2105" 
 />
    <glyph glyph-name="glyph215" horiz-adv-x="1081" 
d="M647 2298q107 -26 107 -123q0 -127 -140 -127q-104 0 -118 152l-430 569q-66 18 -66 102q0 135 135 135q98 0 98 -159z" />
    <glyph glyph-name="glyph217" horiz-adv-x="848" 
d="M606 242q0 -258 -213 -258q-143 0 -143 225q0 94 59 171q63 83 154 83q143 0 143 -221z" />
    <glyph glyph-name="glyph233" horiz-adv-x="897" 
d="M650 2199q60 0 60 -56q0 -57 -84 -91q-64 -26 -131 -26q-58 0 -93 33.5t-44 94.5q-9 68 17 117q16 35 69 102q29 27 187 152q117 93 143 119q42 42 64 96q23 60 -13 103q-22 26 -59 39q-42 16 -91 16q-72 0 -166 -68q-89 -63 -155 -143q0 -35 -24 -55q-20 -17 -45 -17
q-39 0 -70 29q-39 36 -35 66q10 66 82 85q10 11 58 62q111 120 249 180q77 34 152 27q98 -9 176 -62q75 -50 98 -125q45 -143 -20 -235q-50 -71 -177 -180q-75 -61 -219 -189q-24 -24 -32 -45q-17 -44 -17 -57q3 -51 68 -51q23 0 23 39.5t29 39.5z" />
    <glyph glyph-name="glyph234" 
d="M1147 2744l-467 -647q0 -131 -78 -131q-151 0 -151 115q0 33 26 66q18 20 51 61l537 737q9 17 42 50q16 11 40 11q72 0 113 -72q17 -30 22 -38l422 -696q2 -7 31 -45q26 -33 26 -66q0 -123 -127 -123q-90 0 -90 139zM666 3113l483 573q0 81 19 108q24 35 100 35
q135 0 135 -127q0 -70 -77 -102l-504 -602q-12 -127 -123 -127q-119 0 -119 119q0 97 86 123z" />
    <glyph glyph-name="glyph217" 
d="M1147 2744l-467 -647q0 -131 -78 -131q-151 0 -151 115q0 33 26 66q18 20 51 61l537 737q9 17 42 50q16 11 40 11q72 0 113 -72q17 -30 22 -38l422 -696q2 -7 31 -45q26 -33 26 -66q0 -123 -127 -123q-90 0 -90 139zM1634 3118q107 -26 107 -123q0 -127 -140 -127
q-104 0 -118 152l-430 569q-66 18 -66 102q0 135 135 135q98 0 98 -159z" />
    <glyph glyph-name="glyph218" 
d="M1147 2744l-467 -647q0 -131 -78 -131q-151 0 -151 115q0 33 26 66q18 20 51 61l537 737q9 17 42 50q16 11 40 11q72 0 113 -72q17 -30 22 -38l422 -696q2 -7 31 -45q26 -33 26 -66q0 -123 -127 -123q-90 0 -90 139zM1723 2945q60 0 60 -56q0 -57 -84 -91
q-64 -26 -131 -26q-58 0 -93 33.5t-44 94.5q-9 68 17 117q16 35 69 102q29 27 187 152q117 93 143 119q42 42 64 96q23 60 -13 103q-22 26 -59 39q-42 16 -91 16q-72 0 -166 -68q-89 -63 -155 -143q0 -35 -24 -55q-20 -17 -45 -17q-39 0 -70 29q-39 36 -35 66q10 66 82 85
q10 11 58 62q111 120 249 180q77 34 152 27q98 -9 176 -62q75 -50 98 -125q45 -143 -20 -235q-50 -71 -177 -180q-75 -61 -219 -189q-24 -24 -32 -45q-17 -44 -17 -57q3 -51 68 -51q23 0 23 39.5t29 39.5z" />
    <glyph glyph-name="glyph214" 
d="M1147 2744l-467 -647q0 -131 -78 -131q-151 0 -151 115q0 33 26 66q18 20 51 61l537 737q9 17 42 50q16 11 40 11q72 0 113 -72q17 -30 22 -38l422 -696q2 -7 31 -45q26 -33 26 -66q0 -123 -127 -123q-90 0 -90 139zM705 3335q104 157 129 185q77 90 181 129
q80 30 194 30q133 0 324 -224q176 -206 262 -206q138 0 193 59q60 63 69 167q6 75 24 181q16 48 83 48q46 0 91 -28q52 -31 52 -74q0 -37 -8 -58q-73 -189 -99 -235q-66 -122 -168.5 -183t-277.5 -61q-112 0 -219 94q-16 15 -167 182q-135 150 -192 150q-125 0 -190 -74
q-35 -40 -100 -189q-57 -130 -115 -130q-54 0 -96 32q-47 35 -47 87q0 38 43 81q26 25 34 37z" />
    <glyph glyph-name="glyph219" 
d="M652 2700q0 -216 228 -355q103 -63 215 -63q431 0 552 434q-16 33 -16 86q0 57 135 57q103 0 103 -65q0 -51 -29 -86q-108 -397 -436 -545q-146 -66 -293 -66q-343 0 -557 312q-98 141 -98 299q0 127 94 127q102 0 102 -135zM952 3113l483 573q0 81 19 108q24 35 100 35
q135 0 135 -127q0 -70 -77 -102l-504 -602q-12 -127 -123 -127q-119 0 -119 119q0 97 86 123z" />
    <glyph glyph-name="glyph216" 
d="M652 2700q0 -216 228 -355q103 -63 215 -63q431 0 552 434q-16 33 -16 86q0 57 135 57q103 0 103 -65q0 -51 -29 -86q-108 -397 -436 -545q-146 -66 -293 -66q-343 0 -557 312q-98 141 -98 299q0 127 94 127q102 0 102 -135zM1312 3118q107 -26 107 -123
q0 -127 -140 -127q-104 0 -118 152l-430 569q-66 18 -66 102q0 135 135 135q98 0 98 -159z" />
    <glyph glyph-name="glyph215" 
d="M652 2700q0 -216 228 -355q103 -63 215 -63q431 0 552 434q-16 33 -16 86q0 57 135 57q103 0 103 -65q0 -51 -29 -86q-108 -397 -436 -545q-146 -66 -293 -66q-343 0 -557 312q-98 141 -98 299q0 127 94 127q102 0 102 -135zM1248 2945q60 0 60 -56q0 -57 -84 -91
q-64 -26 -131 -26q-58 0 -93 33.5t-44 94.5q-9 68 17 117q16 35 69 102q29 27 187 152q117 93 143 119q42 42 64 96q23 60 -13 103q-22 26 -59 39q-42 16 -91 16q-72 0 -166 -68q-89 -63 -155 -143q0 -35 -24 -55q-20 -17 -45 -17q-39 0 -70 29q-39 36 -35 66q10 66 82 85
q10 11 58 62q111 120 249 180q77 34 152 27q98 -9 176 -62q75 -50 98 -125q45 -143 -20 -235q-50 -71 -177 -180q-75 -61 -219 -189q-24 -24 -32 -45q-17 -44 -17 -57q3 -51 68 -51q23 0 23 39.5t29 39.5z" />
    <glyph glyph-name="glyph213" 
d="M652 2700q0 -216 228 -355q103 -63 215 -63q431 0 552 434q-16 33 -16 86q0 57 135 57q103 0 103 -65q0 -51 -29 -86q-108 -397 -436 -545q-146 -66 -293 -66q-343 0 -557 312q-98 141 -98 299q0 127 94 127q102 0 102 -135zM705 3335q104 157 129 185q77 90 181 129
q80 30 194 30q133 0 324 -224q176 -206 262 -206q138 0 193 59q60 63 69 167q6 75 24 181q16 48 83 48q46 0 91 -28q52 -31 52 -74q0 -37 -8 -58q-73 -189 -99 -235q-66 -122 -168.5 -183t-277.5 -61q-112 0 -219 94q-16 15 -167 182q-135 150 -192 150q-125 0 -190 -74
q-35 -40 -100 -189q-57 -130 -115 -130q-54 0 -96 32q-47 35 -47 87q0 38 43 81q26 25 34 37z" />
    <glyph glyph-name="glyph242" horiz-adv-x="0" 
 />
    <glyph glyph-name="glyph220" horiz-adv-x="1024" 
 />
    <glyph glyph-name="glyph221" horiz-adv-x="1024" 
 />
    </font>
</defs>
</svg>
